{
    "asset" : {
        "version" : "2.0",
        "generator" : "Khronos glTF Blender I/O v1.2.20"
    },
    "scene" : 0,
    "scenes" : [
        {
            "nodes" : [
                0
            ],
            "name" : "Scene"
        }
    ],
    "nodes" : [
        {
            "mesh" : 0,
            "name" : "Grass2Mesh"
        }
    ],
    "materials" : [
        {
            "name" : "grass",
            "pbrMetallicRoughness" : {
                "baseColorTexture" : {
                    "texCoord" : 0,
                    "index" : 0
                }
            }
        }
    ],
    "meshes" : [
        {
            "primitives" : [
                {
                    "attributes" : {
                        "TEXCOORD_0" : 0,
                        "NORMAL" : 1,
                        "POSITION" : 2
                    },
                    "material" : 0,
                    "indices" : 3
                }
            ],
            "name" : "Grass2Mesh.001"
        }
    ],
    "textures" : [
        {
            "source" : 0,
            "sampler" : 0
        }
    ],
    "images" : [
        {
            "uri" : "grass.png",
            "name" : "grass.png",
            "mimeType" : "image/png"
        }
    ],
    "accessors" : [
        {
            "bufferView" : 0,
            "count" : 238,
            "type" : "VEC2",
            "componentType" : 5126
        },
        {
            "bufferView" : 1,
            "count" : 238,
            "type" : "VEC3",
            "componentType" : 5126
        },
        {
            "bufferView" : 2,
            "count" : 238,
            "type" : "VEC3",
            "componentType" : 5126,
            "max" : [
                0.8000273704528809,
                0.38065388798713684,
                0.7998353242874146
            ],
            "min" : [
                -0.8326653242111206,
                -0.04430738091468811,
                -0.7148385047912598
            ]
        },
        {
            "bufferView" : 3,
            "count" : 510,
            "type" : "SCALAR",
            "componentType" : 5123
        }
    ],
    "bufferViews" : [
        {
            "buffer" : 0,
            "byteOffset" : 0,
            "byteLength" : 1904
        },
        {
            "buffer" : 0,
            "byteOffset" : 1904,
            "byteLength" : 2856
        },
        {
            "buffer" : 0,
            "byteOffset" : 4760,
            "byteLength" : 2856
        },
        {
            "buffer" : 0,
            "byteOffset" : 7616,
            "byteLength" : 1020
        }
    ],
    "samplers" : [
        {
            "wrapT" : 10497,
            "wrapS" : 10497,
            "minFilter" : 9986,
            "magFilter" : 9729
        }
    ],
    "buffers" : [
        {
            "uri" : "grass_2.bin",
            "byteLength" : 8636
        }
    ]
}
