{
    "asset" : {
        "version" : "2.0",
        "generator" : "Khronos glTF Blender I/O v1.2.20"
    },
    "scene" : 0,
    "scenes" : [
        {
            "name" : "Scene",
            "nodes" : [
                0
            ]
        }
    ],
    "nodes" : [
        {
            "mesh" : 0,
            "name" : "Grass1Mesh"
        }
    ],
    "materials" : [
        {
            "pbrMetallicRoughness" : {
                "baseColorTexture" : {
                    "texCoord" : 0,
                    "index" : 0
                }
            },
            "name" : "grass"
        }
    ],
    "meshes" : [
        {
            "name" : "Grass1Mesh.001",
            "primitives" : [
                {
                    "attributes" : {
                        "POSITION" : 0,
                        "NORMAL" : 1,
                        "TEXCOORD_0" : 2
                    },
                    "material" : 0,
                    "indices" : 3
                }
            ]
        }
    ],
    "textures" : [
        {
            "sampler" : 0,
            "source" : 0
        }
    ],
    "images" : [
        {
            "mimeType" : "image/png",
            "uri" : "grass.png",
            "name" : "grass.png"
        }
    ],
    "accessors" : [
        {
            "type" : "VEC3",
            "componentType" : 5126,
            "bufferView" : 0,
            "count" : 170,
            "max" : [
                0.8288808465003967,
                0.3684206008911133,
                0.7651634812355042
            ],
            "min" : [
                -0.7570652961730957,
                -0.022004442289471626,
                -0.7830392122268677
            ]
        },
        {
            "type" : "VEC3",
            "count" : 170,
            "componentType" : 5126,
            "bufferView" : 1
        },
        {
            "type" : "VEC2",
            "count" : 170,
            "componentType" : 5126,
            "bufferView" : 2
        },
        {
            "type" : "SCALAR",
            "count" : 360,
            "componentType" : 5123,
            "bufferView" : 3
        }
    ],
    "bufferViews" : [
        {
            "byteLength" : 2040,
            "byteOffset" : 0,
            "buffer" : 0
        },
        {
            "byteLength" : 2040,
            "byteOffset" : 2040,
            "buffer" : 0
        },
        {
            "byteLength" : 1360,
            "byteOffset" : 4080,
            "buffer" : 0
        },
        {
            "byteLength" : 720,
            "byteOffset" : 5440,
            "buffer" : 0
        }
    ],
    "samplers" : [
        {
            "minFilter" : 9986,
            "wrapS" : 10497,
            "wrapT" : 10497,
            "magFilter" : 9729
        }
    ],
    "buffers" : [
        {
            "uri" : "grass_1.bin",
            "byteLength" : 6160
        }
    ]
}
