{
    "asset" : {
        "version" : "2.0",
        "generator" : "Khronos glTF Blender I/O v1.2.20"
    },
    "scene" : 0,
    "scenes" : [
        {
            "nodes" : [
                0
            ],
            "name" : "Scene"
        }
    ],
    "nodes" : [
        {
            "mesh" : 0,
            "name" : "Grass1Mesh"
        }
    ],
    "materials" : [
        {
            "name" : "grass",
            "pbrMetallicRoughness" : {
                "baseColorTexture" : {
                    "texCoord" : 0,
                    "index" : 0
                }
            }
        }
    ],
    "meshes" : [
        {
            "primitives" : [
                {
                    "attributes" : {
                        "TEXCOORD_0" : 0,
                        "NORMAL" : 1,
                        "POSITION" : 2
                    },
                    "material" : 0,
                    "indices" : 3
                }
            ],
            "name" : "Grass1Mesh.001"
        }
    ],
    "textures" : [
        {
            "source" : 0,
            "sampler" : 0
        }
    ],
    "images" : [
        {
            "uri" : "grass.png",
            "name" : "grass.png",
            "mimeType" : "image/png"
        }
    ],
    "accessors" : [
        {
            "bufferView" : 0,
            "count" : 188,
            "type" : "VEC2",
            "componentType" : 5126
        },
        {
            "bufferView" : 1,
            "count" : 188,
            "type" : "VEC3",
            "componentType" : 5126
        },
        {
            "bufferView" : 2,
            "count" : 188,
            "type" : "VEC3",
            "componentType" : 5126,
            "max" : [
                0.8055402636528015,
                0.3684206008911133,
                0.8194754123687744
            ],
            "min" : [
                -0.7328578233718872,
                -0.022004440426826477,
                -0.6912458539009094
            ]
        },
        {
            "bufferView" : 3,
            "count" : 396,
            "type" : "SCALAR",
            "componentType" : 5123
        }
    ],
    "bufferViews" : [
        {
            "buffer" : 0,
            "byteOffset" : 0,
            "byteLength" : 1504
        },
        {
            "buffer" : 0,
            "byteOffset" : 1504,
            "byteLength" : 2256
        },
        {
            "buffer" : 0,
            "byteOffset" : 3760,
            "byteLength" : 2256
        },
        {
            "buffer" : 0,
            "byteOffset" : 6016,
            "byteLength" : 792
        }
    ],
    "samplers" : [
        {
            "wrapT" : 10497,
            "wrapS" : 10497,
            "minFilter" : 9986,
            "magFilter" : 9729
        }
    ],
    "buffers" : [
        {
            "uri" : "grass_1.bin",
            "byteLength" : 6808
        }
    ]
}
