{
    "asset" : {
        "generator" : "Khronos glTF Blender I/O v1.2.20",
        "version" : "2.0"
    },
    "scene" : 0,
    "scenes" : [
        {
            "name" : "Scene",
            "nodes" : [
                0
            ]
        }
    ],
    "nodes" : [
        {
            "name" : "Grass2Mesh",
            "mesh" : 0
        }
    ],
    "materials" : [
        {
            "name" : "grass",
            "pbrMetallicRoughness" : {
                "baseColorTexture" : {
                    "index" : 0,
                    "texCoord" : 0
                }
            }
        }
    ],
    "meshes" : [
        {
            "name" : "Grass2Mesh.001",
            "primitives" : [
                {
                    "material" : 0,
                    "attributes" : {
                        "NORMAL" : 0,
                        "POSITION" : 1,
                        "TEXCOORD_0" : 2
                    },
                    "indices" : 3
                }
            ]
        }
    ],
    "textures" : [
        {
            "source" : 0,
            "sampler" : 0
        }
    ],
    "images" : [
        {
            "name" : "grass.png",
            "mimeType" : "image/png",
            "uri" : "grass.png"
        }
    ],
    "accessors" : [
        {
            "count" : 218,
            "type" : "VEC3",
            "componentType" : 5126,
            "bufferView" : 0
        },
        {
            "count" : 218,
            "max" : [
                0.8325732946395874,
                0.38065388798713684,
                0.7685720324516296
            ],
            "componentType" : 5126,
            "min" : [
                -0.8655706644058228,
                -0.04430738836526871,
                -0.8008701801300049
            ],
            "type" : "VEC3",
            "bufferView" : 1
        },
        {
            "count" : 218,
            "type" : "VEC2",
            "componentType" : 5126,
            "bufferView" : 2
        },
        {
            "count" : 468,
            "type" : "SCALAR",
            "componentType" : 5123,
            "bufferView" : 3
        }
    ],
    "bufferViews" : [
        {
            "byteLength" : 2616,
            "buffer" : 0,
            "byteOffset" : 0
        },
        {
            "byteLength" : 2616,
            "buffer" : 0,
            "byteOffset" : 2616
        },
        {
            "byteLength" : 1744,
            "buffer" : 0,
            "byteOffset" : 5232
        },
        {
            "byteLength" : 936,
            "buffer" : 0,
            "byteOffset" : 6976
        }
    ],
    "samplers" : [
        {
            "wrapT" : 10497,
            "wrapS" : 10497,
            "minFilter" : 9986,
            "magFilter" : 9729
        }
    ],
    "buffers" : [
        {
            "byteLength" : 7912,
            "uri" : "grass_2.bin"
        }
    ]
}
