{
    "asset" : {
        "version" : "2.0",
        "generator" : "Khronos glTF Blender I/O v1.2.20"
    },
    "extensionsUsed" : [
        "KHR_materials_unlit"
    ],
    "scene" : 0,
    "scenes" : [
        {
            "nodes" : [
                1
            ],
            "name" : "Scene"
        }
    ],
    "nodes" : [
        {
            "mesh" : 0,
            "name" : "ScarecrowCollider -colonly"
        },
        {
            "mesh" : 1,
            "children" : [
                0
            ],
            "name" : "ScarecrowMesh"
        }
    ],
    "materials" : [
        {
            "pbrMetallicRoughness" : {
                "baseColorTexture" : {
                    "texCoord" : 0,
                    "index" : 0
                }
            },
            "extensions" : {
                "KHR_materials_unlit" : {}
            },
            "name" : "scarecrow"
        },
        {
            "pbrMetallicRoughness" : {
                "baseColorTexture" : {
                    "texCoord" : 0,
                    "index" : 1
                }
            },
            "extensions" : {
                "KHR_materials_unlit" : {}
            },
            "name" : "scarecrow_alpha"
        }
    ],
    "meshes" : [
        {
            "primitives" : [
                {
                    "attributes" : {
                        "NORMAL" : 0,
                        "POSITION" : 1
                    },
                    "indices" : 2
                }
            ],
            "name" : "ScarecrowCollider.001"
        },
        {
            "primitives" : [
                {
                    "attributes" : {
                        "TEXCOORD_0" : 3,
                        "NORMAL" : 4,
                        "POSITION" : 5
                    },
                    "material" : 0,
                    "indices" : 6
                },
                {
                    "attributes" : {
                        "TEXCOORD_0" : 7,
                        "NORMAL" : 8,
                        "POSITION" : 9
                    },
                    "material" : 1,
                    "indices" : 10
                }
            ],
            "name" : "ScarecrowMesh.001"
        }
    ],
    "textures" : [
        {
            "sampler" : 0,
            "source" : 0
        },
        {
            "sampler" : 1,
            "source" : 0
        }
    ],
    "images" : [
        {
            "uri" : "scarecrow.png",
            "name" : "scarecrow.png",
            "mimeType" : "image/png"
        }
    ],
    "accessors" : [
        {
            "bufferView" : 0,
            "type" : "VEC3",
            "count" : 24,
            "componentType" : 5126
        },
        {
            "count" : 24,
            "type" : "VEC3",
            "max" : [
                0.3599879741668701,
                1.7274808883666992,
                0.3599879741668701
            ],
            "bufferView" : 1,
            "componentType" : 5126,
            "min" : [
                -0.3599879741668701,
                -0.00046133995056152344,
                -0.3599879741668701
            ]
        },
        {
            "bufferView" : 2,
            "type" : "SCALAR",
            "count" : 36,
            "componentType" : 5123
        },
        {
            "bufferView" : 3,
            "type" : "VEC2",
            "count" : 420,
            "componentType" : 5126
        },
        {
            "bufferView" : 4,
            "type" : "VEC3",
            "count" : 420,
            "componentType" : 5126
        },
        {
            "count" : 420,
            "type" : "VEC3",
            "max" : [
                0.9248607158660889,
                1.5644973516464233,
                0.21841424703598022
            ],
            "bufferView" : 5,
            "componentType" : 5126,
            "min" : [
                -0.9291764497756958,
                -0.0804859846830368,
                -0.3010145127773285
            ]
        },
        {
            "bufferView" : 6,
            "type" : "SCALAR",
            "count" : 513,
            "componentType" : 5123
        },
        {
            "bufferView" : 7,
            "type" : "VEC2",
            "count" : 104,
            "componentType" : 5126
        },
        {
            "bufferView" : 8,
            "type" : "VEC3",
            "count" : 104,
            "componentType" : 5126
        },
        {
            "count" : 104,
            "type" : "VEC3",
            "max" : [
                0.8078943490982056,
                1.7062450647354126,
                0.38464120030403137
            ],
            "bufferView" : 9,
            "componentType" : 5126,
            "min" : [
                -0.845325231552124,
                1.0221067667007446,
                -0.4264681935310364
            ]
        },
        {
            "bufferView" : 10,
            "type" : "SCALAR",
            "count" : 162,
            "componentType" : 5123
        }
    ],
    "bufferViews" : [
        {
            "byteOffset" : 0,
            "buffer" : 0,
            "byteLength" : 288
        },
        {
            "byteOffset" : 288,
            "buffer" : 0,
            "byteLength" : 288
        },
        {
            "byteOffset" : 576,
            "buffer" : 0,
            "byteLength" : 72
        },
        {
            "byteOffset" : 648,
            "buffer" : 0,
            "byteLength" : 3360
        },
        {
            "byteOffset" : 4008,
            "buffer" : 0,
            "byteLength" : 5040
        },
        {
            "byteOffset" : 9048,
            "buffer" : 0,
            "byteLength" : 5040
        },
        {
            "byteOffset" : 14088,
            "buffer" : 0,
            "byteLength" : 1026
        },
        {
            "byteOffset" : 15116,
            "buffer" : 0,
            "byteLength" : 832
        },
        {
            "byteOffset" : 15948,
            "buffer" : 0,
            "byteLength" : 1248
        },
        {
            "byteOffset" : 17196,
            "buffer" : 0,
            "byteLength" : 1248
        },
        {
            "byteOffset" : 18444,
            "buffer" : 0,
            "byteLength" : 324
        }
    ],
    "samplers" : [
        {
            "minFilter" : 9986,
            "wrapS" : 10497,
            "magFilter" : 9729,
            "wrapT" : 10497
        },
        {
            "minFilter" : 9986,
            "wrapS" : 10497,
            "magFilter" : 9729,
            "wrapT" : 10497
        }
    ],
    "buffers" : [
        {
            "byteLength" : 18768,
            "uri" : "scarecrow.bin"
        }
    ]
}
