{
    "asset" : {
        "generator" : "Khronos glTF Blender I/O v1.2.20",
        "version" : "2.0"
    },
    "scene" : 0,
    "scenes" : [
        {
            "nodes" : [
                1
            ],
            "name" : "Scene"
        }
    ],
    "nodes" : [
        {
            "mesh" : 0,
            "name" : "WaterCollider -colonly"
        },
        {
            "children" : [
                0
            ],
            "mesh" : 1,
            "name" : "WaterMesh"
        }
    ],
    "materials" : [
        {
            "pbrMetallicRoughness" : {},
            "name" : "water"
        }
    ],
    "meshes" : [
        {
            "primitives" : [
                {
                    "indices" : 3,
                    "attributes" : {
                        "NORMAL" : 0,
                        "TEXCOORD_0" : 1,
                        "POSITION" : 2
                    }
                }
            ],
            "name" : "WaterCollider.001"
        },
        {
            "primitives" : [
                {
                    "indices" : 3,
                    "attributes" : {
                        "NORMAL" : 4,
                        "TEXCOORD_0" : 5,
                        "POSITION" : 6
                    },
                    "material" : 0
                }
            ],
            "name" : "WaterMesh.001"
        }
    ],
    "accessors" : [
        {
            "type" : "VEC3",
            "componentType" : 5126,
            "count" : 4,
            "bufferView" : 0
        },
        {
            "type" : "VEC2",
            "componentType" : 5126,
            "count" : 4,
            "bufferView" : 1
        },
        {
            "componentType" : 5126,
            "bufferView" : 2,
            "type" : "VEC3",
            "max" : [
                10,
                0,
                10
            ],
            "min" : [
                -10,
                0,
                -10
            ],
            "count" : 4
        },
        {
            "type" : "SCALAR",
            "componentType" : 5123,
            "count" : 6,
            "bufferView" : 3
        },
        {
            "type" : "VEC3",
            "componentType" : 5126,
            "count" : 4,
            "bufferView" : 4
        },
        {
            "type" : "VEC2",
            "componentType" : 5126,
            "count" : 4,
            "bufferView" : 5
        },
        {
            "componentType" : 5126,
            "bufferView" : 6,
            "type" : "VEC3",
            "max" : [
                10,
                0,
                10
            ],
            "min" : [
                -10,
                0,
                -10
            ],
            "count" : 4
        }
    ],
    "bufferViews" : [
        {
            "byteOffset" : 0,
            "buffer" : 0,
            "byteLength" : 48
        },
        {
            "byteOffset" : 48,
            "buffer" : 0,
            "byteLength" : 32
        },
        {
            "byteOffset" : 80,
            "buffer" : 0,
            "byteLength" : 48
        },
        {
            "byteOffset" : 128,
            "buffer" : 0,
            "byteLength" : 12
        },
        {
            "byteOffset" : 140,
            "buffer" : 0,
            "byteLength" : 48
        },
        {
            "byteOffset" : 188,
            "buffer" : 0,
            "byteLength" : 32
        },
        {
            "byteOffset" : 220,
            "buffer" : 0,
            "byteLength" : 48
        }
    ],
    "buffers" : [
        {
            "uri" : "water.bin",
            "byteLength" : 268
        }
    ]
}
