{
    "asset" : {
        "generator" : "Khronos glTF Blender I/O v1.2.20",
        "version" : "2.0"
    },
    "extensionsUsed" : [
        "KHR_materials_unlit"
    ],
    "scene" : 0,
    "scenes" : [
        {
            "name" : "Scene",
            "nodes" : [
                0
            ]
        }
    ],
    "nodes" : [
        {
            "name" : "ThornsMesh",
            "mesh" : 0,
            "scale" : [
                0.6765422821044922,
                0.4616236984729767,
                0.6765422821044922
            ]
        }
    ],
    "materials" : [
        {
            "extensions" : {
                "KHR_materials_unlit" : {}
            },
            "name" : "thorns",
            "pbrMetallicRoughness" : {
                "baseColorTexture" : {
                    "index" : 0,
                    "texCoord" : 0
                }
            }
        }
    ],
    "meshes" : [
        {
            "name" : "ThornsMesh.001",
            "primitives" : [
                {
                    "material" : 0,
                    "attributes" : {
                        "POSITION" : 0,
                        "TEXCOORD_0" : 1,
                        "NORMAL" : 2
                    },
                    "indices" : 3
                }
            ]
        }
    ],
    "textures" : [
        {
            "source" : 0,
            "sampler" : 0
        }
    ],
    "images" : [
        {
            "mimeType" : "image/png",
            "name" : "thorns.png",
            "uri" : "thorns.png"
        }
    ],
    "accessors" : [
        {
            "componentType" : 5126,
            "min" : [
                -1.601540207862854,
                -0.03676337003707886,
                -1.8094992637634277
            ],
            "type" : "VEC3",
            "max" : [
                1.5158673524856567,
                1.6769990921020508,
                1.6346389055252075
            ],
            "bufferView" : 0,
            "count" : 1370
        },
        {
            "count" : 1370,
            "componentType" : 5126,
            "bufferView" : 1,
            "type" : "VEC2"
        },
        {
            "count" : 1370,
            "componentType" : 5126,
            "bufferView" : 2,
            "type" : "VEC3"
        },
        {
            "count" : 1800,
            "componentType" : 5123,
            "bufferView" : 3,
            "type" : "SCALAR"
        }
    ],
    "bufferViews" : [
        {
            "byteOffset" : 0,
            "buffer" : 0,
            "byteLength" : 16440
        },
        {
            "byteOffset" : 16440,
            "buffer" : 0,
            "byteLength" : 10960
        },
        {
            "byteOffset" : 27400,
            "buffer" : 0,
            "byteLength" : 16440
        },
        {
            "byteOffset" : 43840,
            "buffer" : 0,
            "byteLength" : 3600
        }
    ],
    "samplers" : [
        {
            "minFilter" : 9986,
            "magFilter" : 9729,
            "wrapS" : 10497,
            "wrapT" : 10497
        }
    ],
    "buffers" : [
        {
            "byteLength" : 47440,
            "uri" : "thorns.bin"
        }
    ]
}
