{
    "asset" : {
        "version" : "2.0",
        "generator" : "Khronos glTF Blender I/O v1.2.20"
    },
    "extensionsUsed" : [
        "KHR_materials_unlit"
    ],
    "scene" : 0,
    "scenes" : [
        {
            "name" : "Scene",
            "nodes" : [
                1
            ]
        }
    ],
    "nodes" : [
        {
            "mesh" : 0,
            "name" : "ThornsCollider -colonly"
        },
        {
            "mesh" : 1,
            "children" : [
                0
            ],
            "name" : "ThornsMesh"
        }
    ],
    "materials" : [
        {
            "pbrMetallicRoughness" : {
                "baseColorTexture" : {
                    "texCoord" : 0,
                    "index" : 0
                }
            },
            "name" : "thorns",
            "extensions" : {
                "KHR_materials_unlit" : {}
            }
        }
    ],
    "meshes" : [
        {
            "primitives" : [
                {
                    "attributes" : {
                        "POSITION" : 0,
                        "NORMAL" : 1
                    },
                    "indices" : 2
                }
            ],
            "name" : "ThornsCollider.001"
        },
        {
            "primitives" : [
                {
                    "attributes" : {
                        "POSITION" : 3,
                        "NORMAL" : 4,
                        "TEXCOORD_0" : 5
                    },
                    "material" : 0,
                    "indices" : 6
                }
            ],
            "name" : "ThornsMesh.001"
        }
    ],
    "textures" : [
        {
            "sampler" : 0,
            "source" : 0
        }
    ],
    "images" : [
        {
            "mimeType" : "image/png",
            "name" : "thorns.png",
            "uri" : "thorns.png"
        }
    ],
    "accessors" : [
        {
            "count" : 24,
            "bufferView" : 0,
            "min" : [
                -1,
                0,
                -1
            ],
            "componentType" : 5126,
            "max" : [
                1,
                0.6000000238418579,
                1
            ],
            "type" : "VEC3"
        },
        {
            "count" : 24,
            "bufferView" : 1,
            "componentType" : 5126,
            "type" : "VEC3"
        },
        {
            "count" : 36,
            "bufferView" : 2,
            "componentType" : 5123,
            "type" : "SCALAR"
        },
        {
            "count" : 1370,
            "bufferView" : 3,
            "min" : [
                -1.0835096836090088,
                -0.01697087287902832,
                -1.2242027521133423
            ],
            "componentType" : 5126,
            "max" : [
                1.0255483388900757,
                0.7741424441337585,
                1.1059023141860962
            ],
            "type" : "VEC3"
        },
        {
            "count" : 1370,
            "bufferView" : 4,
            "componentType" : 5126,
            "type" : "VEC3"
        },
        {
            "count" : 1370,
            "bufferView" : 5,
            "componentType" : 5126,
            "type" : "VEC2"
        },
        {
            "count" : 1800,
            "bufferView" : 6,
            "componentType" : 5123,
            "type" : "SCALAR"
        }
    ],
    "bufferViews" : [
        {
            "byteLength" : 288,
            "byteOffset" : 0,
            "buffer" : 0
        },
        {
            "byteLength" : 288,
            "byteOffset" : 288,
            "buffer" : 0
        },
        {
            "byteLength" : 72,
            "byteOffset" : 576,
            "buffer" : 0
        },
        {
            "byteLength" : 16440,
            "byteOffset" : 648,
            "buffer" : 0
        },
        {
            "byteLength" : 16440,
            "byteOffset" : 17088,
            "buffer" : 0
        },
        {
            "byteLength" : 10960,
            "byteOffset" : 33528,
            "buffer" : 0
        },
        {
            "byteLength" : 3600,
            "byteOffset" : 44488,
            "buffer" : 0
        }
    ],
    "samplers" : [
        {
            "wrapS" : 10497,
            "wrapT" : 10497,
            "minFilter" : 9986,
            "magFilter" : 9729
        }
    ],
    "buffers" : [
        {
            "byteLength" : 48088,
            "uri" : "thorns.bin"
        }
    ]
}
