{
    "asset" : {
        "version" : "2.0",
        "generator" : "Khronos glTF Blender I/O v1.2.20"
    },
    "scene" : 0,
    "scenes" : [
        {
            "name" : "Scene",
            "nodes" : [
                1
            ]
        }
    ],
    "nodes" : [
        {
            "mesh" : 0,
            "name" : "SignCautionCollider -colonly"
        },
        {
            "mesh" : 1,
            "children" : [
                0
            ],
            "name" : "SignCautionMesh"
        }
    ],
    "materials" : [
        {
            "name" : "sign",
            "pbrMetallicRoughness" : {
                "baseColorTexture" : {
                    "index" : 0,
                    "texCoord" : 0
                }
            }
        }
    ],
    "meshes" : [
        {
            "name" : "SignCautionCollider.001",
            "primitives" : [
                {
                    "indices" : 2,
                    "attributes" : {
                        "NORMAL" : 0,
                        "POSITION" : 1
                    }
                }
            ]
        },
        {
            "name" : "SignCautionMesh.001",
            "primitives" : [
                {
                    "indices" : 6,
                    "material" : 0,
                    "attributes" : {
                        "TEXCOORD_0" : 3,
                        "NORMAL" : 4,
                        "POSITION" : 5
                    }
                }
            ]
        }
    ],
    "textures" : [
        {
            "source" : 0,
            "sampler" : 0
        }
    ],
    "images" : [
        {
            "mimeType" : "image/png",
            "uri" : "sign.png",
            "name" : "sign.png"
        }
    ],
    "accessors" : [
        {
            "bufferView" : 0,
            "count" : 24,
            "componentType" : 5126,
            "type" : "VEC3"
        },
        {
            "bufferView" : 1,
            "max" : [
                0.5386993885040283,
                1.0263389348983765,
                0.09085310250520706
            ],
            "componentType" : 5126,
            "min" : [
                -0.531049907207489,
                -0.019593432545661926,
                -0.09085310995578766
            ],
            "count" : 24,
            "type" : "VEC3"
        },
        {
            "bufferView" : 2,
            "count" : 36,
            "componentType" : 5123,
            "type" : "SCALAR"
        },
        {
            "bufferView" : 3,
            "count" : 110,
            "componentType" : 5126,
            "type" : "VEC2"
        },
        {
            "bufferView" : 4,
            "count" : 110,
            "componentType" : 5126,
            "type" : "VEC3"
        },
        {
            "bufferView" : 5,
            "max" : [
                0.5211544036865234,
                1.0174537897109985,
                0.08014769107103348
            ],
            "componentType" : 5126,
            "min" : [
                -0.5069563984870911,
                -0.07670827955007553,
                -0.03291662409901619
            ],
            "count" : 110,
            "type" : "VEC3"
        },
        {
            "bufferView" : 6,
            "count" : 156,
            "componentType" : 5123,
            "type" : "SCALAR"
        }
    ],
    "bufferViews" : [
        {
            "buffer" : 0,
            "byteOffset" : 0,
            "byteLength" : 288
        },
        {
            "buffer" : 0,
            "byteOffset" : 288,
            "byteLength" : 288
        },
        {
            "buffer" : 0,
            "byteOffset" : 576,
            "byteLength" : 72
        },
        {
            "buffer" : 0,
            "byteOffset" : 648,
            "byteLength" : 880
        },
        {
            "buffer" : 0,
            "byteOffset" : 1528,
            "byteLength" : 1320
        },
        {
            "buffer" : 0,
            "byteOffset" : 2848,
            "byteLength" : 1320
        },
        {
            "buffer" : 0,
            "byteOffset" : 4168,
            "byteLength" : 312
        }
    ],
    "samplers" : [
        {
            "magFilter" : 9729,
            "minFilter" : 9986,
            "wrapS" : 10497,
            "wrapT" : 10497
        }
    ],
    "buffers" : [
        {
            "uri" : "sign_caution.bin",
            "byteLength" : 4480
        }
    ]
}
