{
    "asset" : {
        "generator" : "Khronos glTF Blender I/O v1.2.20",
        "version" : "2.0"
    },
    "extensionsUsed" : [
        "KHR_materials_unlit"
    ],
    "scene" : 0,
    "scenes" : [
        {
            "name" : "Scene",
            "nodes" : [
                0
            ]
        }
    ],
    "nodes" : [
        {
            "mesh" : 0,
            "name" : "bloco_canto",
            "rotation" : [
                0,
                1,
                0,
                -1.6292068494294654e-07
            ],
            "scale" : [
                0.5,
                0.5,
                0.5
            ]
        }
    ],
    "materials" : [
        {
            "name" : "island",
            "pbrMetallicRoughness" : {
                "baseColorTexture" : {
                    "index" : 0,
                    "texCoord" : 0
                }
            },
            "extensions" : {
                "KHR_materials_unlit" : {}
            }
        }
    ],
    "meshes" : [
        {
            "name" : "bloco_canto.001",
            "primitives" : [
                {
                    "material" : 0,
                    "attributes" : {
                        "POSITION" : 1,
                        "TEXCOORD_0" : 0,
                        "NORMAL" : 2
                    },
                    "indices" : 3
                }
            ]
        }
    ],
    "textures" : [
        {
            "source" : 0,
            "sampler" : 0
        }
    ],
    "images" : [
        {
            "name" : "island.001",
            "mimeType" : "image/png",
            "uri" : "island.png"
        }
    ],
    "accessors" : [
        {
            "bufferView" : 0,
            "type" : "VEC2",
            "count" : 39,
            "componentType" : 5126
        },
        {
            "bufferView" : 1,
            "max" : [
                1.9999959468841553,
                -5.960464477539063e-08,
                2.000002145767212
            ],
            "type" : "VEC3",
            "componentType" : 5126,
            "count" : 39,
            "min" : [
                -2.0000061988830566,
                -4.260983467102051,
                -1.999997615814209
            ]
        },
        {
            "bufferView" : 2,
            "type" : "VEC3",
            "count" : 39,
            "componentType" : 5126
        },
        {
            "bufferView" : 3,
            "type" : "SCALAR",
            "count" : 57,
            "componentType" : 5123
        }
    ],
    "bufferViews" : [
        {
            "byteOffset" : 0,
            "byteLength" : 312,
            "buffer" : 0
        },
        {
            "byteOffset" : 312,
            "byteLength" : 468,
            "buffer" : 0
        },
        {
            "byteOffset" : 780,
            "byteLength" : 468,
            "buffer" : 0
        },
        {
            "byteOffset" : 1248,
            "byteLength" : 114,
            "buffer" : 0
        }
    ],
    "samplers" : [
        {
            "magFilter" : 9729,
            "minFilter" : 9986,
            "wrapT" : 10497,
            "wrapS" : 10497
        }
    ],
    "buffers" : [
        {
            "byteLength" : 1364,
            "uri" : "bloco_canto.bin"
        }
    ]
}
