{
    "asset" : {
        "generator" : "Khronos glTF Blender I/O v1.2.20",
        "version" : "2.0"
    },
    "scene" : 0,
    "scenes" : [
        {
            "name" : "Scene",
            "nodes" : [
                0
            ]
        }
    ],
    "nodes" : [
        {
            "mesh" : 0,
            "name" : "pedra"
        }
    ],
    "materials" : [
        {
            "name" : "stones",
            "pbrMetallicRoughness" : {
                "baseColorTexture" : {
                    "index" : 0,
                    "texCoord" : 0
                }
            }
        }
    ],
    "meshes" : [
        {
            "name" : "pedra.001",
            "primitives" : [
                {
                    "material" : 0,
                    "attributes" : {
                        "POSITION" : 1,
                        "TEXCOORD_0" : 0,
                        "NORMAL" : 2
                    },
                    "indices" : 3
                }
            ]
        }
    ],
    "textures" : [
        {
            "source" : 0,
            "sampler" : 0
        }
    ],
    "images" : [
        {
            "name" : "stones",
            "mimeType" : "image/png",
            "uri" : "stones.png"
        }
    ],
    "accessors" : [
        {
            "bufferView" : 0,
            "type" : "VEC2",
            "count" : 52,
            "componentType" : 5126
        },
        {
            "bufferView" : 1,
            "max" : [
                0.749210774898529,
                1.3297356367111206,
                0.9981553554534912
            ],
            "type" : "VEC3",
            "componentType" : 5126,
            "count" : 52,
            "min" : [
                -0.7062863111495972,
                -1.419202446937561,
                -0.494106650352478
            ]
        },
        {
            "bufferView" : 2,
            "type" : "VEC3",
            "count" : 52,
            "componentType" : 5126
        },
        {
            "bufferView" : 3,
            "type" : "SCALAR",
            "count" : 300,
            "componentType" : 5123
        }
    ],
    "bufferViews" : [
        {
            "byteOffset" : 0,
            "byteLength" : 416,
            "buffer" : 0
        },
        {
            "byteOffset" : 416,
            "byteLength" : 624,
            "buffer" : 0
        },
        {
            "byteOffset" : 1040,
            "byteLength" : 624,
            "buffer" : 0
        },
        {
            "byteOffset" : 1664,
            "byteLength" : 600,
            "buffer" : 0
        }
    ],
    "samplers" : [
        {
            "magFilter" : 9729,
            "minFilter" : 9986,
            "wrapT" : 10497,
            "wrapS" : 10497
        }
    ],
    "buffers" : [
        {
            "byteLength" : 2264,
            "uri" : "bloco_pedra.bin"
        }
    ]
}
