{
    "asset" : {
        "generator" : "Khronos glTF Blender I/O v1.2.20",
        "version" : "2.0"
    },
    "extensionsUsed" : [
        "KHR_materials_unlit"
    ],
    "scene" : 0,
    "scenes" : [
        {
            "name" : "Scene",
            "nodes" : [
                0
            ]
        }
    ],
    "nodes" : [
        {
            "mesh" : 0,
            "name" : "Plane.005",
            "rotation" : [
                0,
                1,
                0,
                -1.6292068494294654e-07
            ],
            "scale" : [
                0.5,
                0.5,
                0.5
            ]
        }
    ],
    "materials" : [
        {
            "name" : "island",
            "pbrMetallicRoughness" : {
                "baseColorTexture" : {
                    "index" : 0,
                    "texCoord" : 0
                }
            },
            "extensions" : {
                "KHR_materials_unlit" : {}
            }
        }
    ],
    "meshes" : [
        {
            "name" : "Plane.000",
            "primitives" : [
                {
                    "material" : 0,
                    "attributes" : {
                        "POSITION" : 1,
                        "TEXCOORD_0" : 0,
                        "NORMAL" : 2
                    },
                    "indices" : 3
                }
            ]
        }
    ],
    "textures" : [
        {
            "source" : 0,
            "sampler" : 0
        }
    ],
    "images" : [
        {
            "name" : "island.001",
            "mimeType" : "image/png",
            "uri" : "island.png"
        }
    ],
    "accessors" : [
        {
            "bufferView" : 0,
            "type" : "VEC2",
            "count" : 32,
            "componentType" : 5126
        },
        {
            "bufferView" : 1,
            "max" : [
                1.9999971389770508,
                -5.960464477539063e-08,
                1.9999990463256836
            ],
            "type" : "VEC3",
            "componentType" : 5126,
            "count" : 32,
            "min" : [
                -2.0000033378601074,
                -0.18900710344314575,
                -2.000002861022949
            ]
        },
        {
            "bufferView" : 2,
            "type" : "VEC3",
            "count" : 32,
            "componentType" : 5126
        },
        {
            "bufferView" : 3,
            "type" : "SCALAR",
            "count" : 36,
            "componentType" : 5123
        }
    ],
    "bufferViews" : [
        {
            "byteOffset" : 0,
            "byteLength" : 256,
            "buffer" : 0
        },
        {
            "byteOffset" : 256,
            "byteLength" : 384,
            "buffer" : 0
        },
        {
            "byteOffset" : 640,
            "byteLength" : 384,
            "buffer" : 0
        },
        {
            "byteOffset" : 1024,
            "byteLength" : 72,
            "buffer" : 0
        }
    ],
    "samplers" : [
        {
            "magFilter" : 9729,
            "minFilter" : 9986,
            "wrapT" : 10497,
            "wrapS" : 10497
        }
    ],
    "buffers" : [
        {
            "byteLength" : 1096,
            "uri" : "bloco_canto3.bin"
        }
    ]
}
