{
    "asset" : {
        "version" : "2.0",
        "generator" : "Khronos glTF Blender I/O v1.2.20"
    },
    "scene" : 0,
    "scenes" : [
        {
            "nodes" : [
                1
            ],
            "name" : "Scene"
        }
    ],
    "nodes" : [
        {
            "mesh" : 0,
            "name" : "Bridge2Mesh"
        },
        {
            "mesh" : 1,
            "children" : [
                0
            ],
            "name" : "Bridge2Collider -colonly"
        }
    ],
    "materials" : [
        {
            "name" : "house",
            "pbrMetallicRoughness" : {
                "baseColorTexture" : {
                    "index" : 0,
                    "texCoord" : 0
                }
            }
        }
    ],
    "meshes" : [
        {
            "primitives" : [
                {
                    "material" : 0,
                    "attributes" : {
                        "NORMAL" : 0,
                        "TEXCOORD_0" : 1,
                        "POSITION" : 2
                    },
                    "indices" : 3
                }
            ],
            "name" : "Bridge2Mesh.001"
        },
        {
            "primitives" : [
                {
                    "attributes" : {
                        "NORMAL" : 4,
                        "POSITION" : 5
                    },
                    "indices" : 6
                }
            ],
            "name" : "Bridge2Collider.001"
        }
    ],
    "textures" : [
        {
            "sampler" : 0,
            "source" : 0
        }
    ],
    "images" : [
        {
            "uri" : "house.png",
            "name" : "house.png",
            "mimeType" : "image/png"
        }
    ],
    "accessors" : [
        {
            "count" : 136,
            "bufferView" : 0,
            "componentType" : 5126,
            "type" : "VEC3"
        },
        {
            "count" : 136,
            "bufferView" : 1,
            "componentType" : 5126,
            "type" : "VEC2"
        },
        {
            "bufferView" : 2,
            "componentType" : 5126,
            "min" : [
                -0.5190026760101318,
                -0.0013426300138235092,
                -0.5
            ],
            "type" : "VEC3",
            "count" : 136,
            "max" : [
                0.5022359490394592,
                0.10838445276021957,
                0.5
            ]
        },
        {
            "count" : 204,
            "bufferView" : 3,
            "componentType" : 5123,
            "type" : "SCALAR"
        },
        {
            "count" : 24,
            "bufferView" : 4,
            "componentType" : 5126,
            "type" : "VEC3"
        },
        {
            "bufferView" : 5,
            "componentType" : 5126,
            "min" : [
                -0.5010091662406921,
                0.05439934879541397,
                -0.5010091662406921
            ],
            "type" : "VEC3",
            "count" : 24,
            "max" : [
                0.5010091662406921,
                0.1097269356250763,
                0.5010091662406921
            ]
        },
        {
            "count" : 36,
            "bufferView" : 6,
            "componentType" : 5123,
            "type" : "SCALAR"
        }
    ],
    "bufferViews" : [
        {
            "byteLength" : 1632,
            "buffer" : 0,
            "byteOffset" : 0
        },
        {
            "byteLength" : 1088,
            "buffer" : 0,
            "byteOffset" : 1632
        },
        {
            "byteLength" : 1632,
            "buffer" : 0,
            "byteOffset" : 2720
        },
        {
            "byteLength" : 408,
            "buffer" : 0,
            "byteOffset" : 4352
        },
        {
            "byteLength" : 288,
            "buffer" : 0,
            "byteOffset" : 4760
        },
        {
            "byteLength" : 288,
            "buffer" : 0,
            "byteOffset" : 5048
        },
        {
            "byteLength" : 72,
            "buffer" : 0,
            "byteOffset" : 5336
        }
    ],
    "samplers" : [
        {
            "minFilter" : 9986,
            "magFilter" : 9729,
            "wrapS" : 10497,
            "wrapT" : 10497
        }
    ],
    "buffers" : [
        {
            "byteLength" : 5408,
            "uri" : "bridge_2.bin"
        }
    ]
}
