{
    "asset" : {
        "version" : "2.0",
        "generator" : "Khronos glTF Blender I/O v1.2.20"
    },
    "scene" : 0,
    "scenes" : [
        {
            "nodes" : [
                1
            ],
            "name" : "Scene"
        }
    ],
    "nodes" : [
        {
            "mesh" : 0,
            "name" : "Bridge1Mesh"
        },
        {
            "mesh" : 1,
            "children" : [
                0
            ],
            "name" : "Bridge1Collider -colonly"
        }
    ],
    "materials" : [
        {
            "name" : "house",
            "pbrMetallicRoughness" : {
                "baseColorTexture" : {
                    "index" : 0,
                    "texCoord" : 0
                }
            }
        }
    ],
    "meshes" : [
        {
            "primitives" : [
                {
                    "material" : 0,
                    "attributes" : {
                        "NORMAL" : 0,
                        "TEXCOORD_0" : 1,
                        "POSITION" : 2
                    },
                    "indices" : 3
                }
            ],
            "name" : "Bridge1Mesh.001"
        },
        {
            "primitives" : [
                {
                    "attributes" : {
                        "NORMAL" : 4,
                        "POSITION" : 5
                    },
                    "indices" : 6
                }
            ],
            "name" : "Bridge1Collider.001"
        }
    ],
    "textures" : [
        {
            "sampler" : 0,
            "source" : 0
        }
    ],
    "images" : [
        {
            "uri" : "house.png",
            "name" : "house.png",
            "mimeType" : "image/png"
        }
    ],
    "accessors" : [
        {
            "count" : 176,
            "bufferView" : 0,
            "componentType" : 5126,
            "type" : "VEC3"
        },
        {
            "count" : 176,
            "bufferView" : 1,
            "componentType" : 5126,
            "type" : "VEC2"
        },
        {
            "bufferView" : 2,
            "componentType" : 5126,
            "min" : [
                -0.5190026760101318,
                -1.7596324682235718,
                -0.5
            ],
            "type" : "VEC3",
            "count" : 176,
            "max" : [
                0.5022359490394592,
                0.10998499393463135,
                0.5
            ]
        },
        {
            "count" : 264,
            "bufferView" : 3,
            "componentType" : 5123,
            "type" : "SCALAR"
        },
        {
            "count" : 72,
            "bufferView" : 4,
            "componentType" : 5126,
            "type" : "VEC3"
        },
        {
            "bufferView" : 5,
            "componentType" : 5126,
            "min" : [
                -0.5010091662406921,
                -1.7467918395996094,
                -0.5010091662406921
            ],
            "type" : "VEC3",
            "count" : 72,
            "max" : [
                0.5010091662406921,
                0.1097269356250763,
                0.5010091662406921
            ]
        },
        {
            "count" : 108,
            "bufferView" : 6,
            "componentType" : 5123,
            "type" : "SCALAR"
        }
    ],
    "bufferViews" : [
        {
            "byteLength" : 2112,
            "buffer" : 0,
            "byteOffset" : 0
        },
        {
            "byteLength" : 1408,
            "buffer" : 0,
            "byteOffset" : 2112
        },
        {
            "byteLength" : 2112,
            "buffer" : 0,
            "byteOffset" : 3520
        },
        {
            "byteLength" : 528,
            "buffer" : 0,
            "byteOffset" : 5632
        },
        {
            "byteLength" : 864,
            "buffer" : 0,
            "byteOffset" : 6160
        },
        {
            "byteLength" : 864,
            "buffer" : 0,
            "byteOffset" : 7024
        },
        {
            "byteLength" : 216,
            "buffer" : 0,
            "byteOffset" : 7888
        }
    ],
    "samplers" : [
        {
            "minFilter" : 9986,
            "magFilter" : 9729,
            "wrapS" : 10497,
            "wrapT" : 10497
        }
    ],
    "buffers" : [
        {
            "byteLength" : 8104,
            "uri" : "bridge_1.bin"
        }
    ]
}
