{
    "asset" : {
        "generator" : "Khronos glTF Blender I/O v1.2.20",
        "version" : "2.0"
    },
    "scene" : 0,
    "scenes" : [
        {
            "nodes" : [
                1
            ],
            "name" : "Scene"
        }
    ],
    "nodes" : [
        {
            "name" : "Bridge1Mesh",
            "mesh" : 0
        },
        {
            "children" : [
                0
            ],
            "name" : "Bridge1Collider -colonly",
            "mesh" : 1
        }
    ],
    "materials" : [
        {
            "name" : "house",
            "pbrMetallicRoughness" : {
                "baseColorTexture" : {
                    "index" : 0,
                    "texCoord" : 0
                }
            }
        }
    ],
    "meshes" : [
        {
            "primitives" : [
                {
                    "material" : 0,
                    "indices" : 3,
                    "attributes" : {
                        "TEXCOORD_0" : 0,
                        "NORMAL" : 1,
                        "POSITION" : 2
                    }
                }
            ],
            "name" : "Bridge1Mesh.001"
        },
        {
            "primitives" : [
                {
                    "indices" : 6,
                    "attributes" : {
                        "NORMAL" : 4,
                        "POSITION" : 5
                    }
                }
            ],
            "name" : "Bridge1Collider.001"
        }
    ],
    "textures" : [
        {
            "source" : 0,
            "sampler" : 0
        }
    ],
    "images" : [
        {
            "uri" : "house.png",
            "mimeType" : "image/png",
            "name" : "house.png"
        }
    ],
    "accessors" : [
        {
            "componentType" : 5126,
            "type" : "VEC2",
            "bufferView" : 0,
            "count" : 192
        },
        {
            "componentType" : 5126,
            "type" : "VEC3",
            "bufferView" : 1,
            "count" : 192
        },
        {
            "componentType" : 5126,
            "type" : "VEC3",
            "bufferView" : 2,
            "count" : 192,
            "max" : [
                0.5022359490394592,
                0.10998499393463135,
                0.5
            ],
            "min" : [
                -0.5190026760101318,
                -1.7596324682235718,
                -0.5
            ]
        },
        {
            "componentType" : 5123,
            "type" : "SCALAR",
            "bufferView" : 3,
            "count" : 288
        },
        {
            "componentType" : 5126,
            "type" : "VEC3",
            "bufferView" : 4,
            "count" : 72
        },
        {
            "componentType" : 5126,
            "type" : "VEC3",
            "bufferView" : 5,
            "count" : 72,
            "max" : [
                0.5010091662406921,
                0.1097269356250763,
                0.5010091662406921
            ],
            "min" : [
                -0.5010091662406921,
                -1.7467918395996094,
                -0.5010091662406921
            ]
        },
        {
            "componentType" : 5123,
            "type" : "SCALAR",
            "bufferView" : 6,
            "count" : 108
        }
    ],
    "bufferViews" : [
        {
            "byteLength" : 1536,
            "byteOffset" : 0,
            "buffer" : 0
        },
        {
            "byteLength" : 2304,
            "byteOffset" : 1536,
            "buffer" : 0
        },
        {
            "byteLength" : 2304,
            "byteOffset" : 3840,
            "buffer" : 0
        },
        {
            "byteLength" : 576,
            "byteOffset" : 6144,
            "buffer" : 0
        },
        {
            "byteLength" : 864,
            "byteOffset" : 6720,
            "buffer" : 0
        },
        {
            "byteLength" : 864,
            "byteOffset" : 7584,
            "buffer" : 0
        },
        {
            "byteLength" : 216,
            "byteOffset" : 8448,
            "buffer" : 0
        }
    ],
    "samplers" : [
        {
            "wrapS" : 10497,
            "minFilter" : 9986,
            "wrapT" : 10497,
            "magFilter" : 9729
        }
    ],
    "buffers" : [
        {
            "byteLength" : 8664,
            "uri" : "bridge_1.bin"
        }
    ]
}
