{
    "asset" : {
        "generator" : "Khronos glTF Blender I/O v1.2.20",
        "version" : "2.0"
    },
    "scene" : 0,
    "scenes" : [
        {
            "nodes" : [
                1
            ],
            "name" : "Scene"
        }
    ],
    "nodes" : [
        {
            "name" : "Bridge2Mesh",
            "mesh" : 0
        },
        {
            "children" : [
                0
            ],
            "name" : "Bridge2Collider -colonly",
            "mesh" : 1
        }
    ],
    "materials" : [
        {
            "name" : "house",
            "pbrMetallicRoughness" : {
                "baseColorTexture" : {
                    "index" : 0,
                    "texCoord" : 0
                }
            }
        }
    ],
    "meshes" : [
        {
            "primitives" : [
                {
                    "material" : 0,
                    "indices" : 3,
                    "attributes" : {
                        "TEXCOORD_0" : 0,
                        "NORMAL" : 1,
                        "POSITION" : 2
                    }
                }
            ],
            "name" : "Bridge2Mesh.001"
        },
        {
            "primitives" : [
                {
                    "indices" : 6,
                    "attributes" : {
                        "NORMAL" : 4,
                        "POSITION" : 5
                    }
                }
            ],
            "name" : "Bridge2Collider.001"
        }
    ],
    "textures" : [
        {
            "source" : 0,
            "sampler" : 0
        }
    ],
    "images" : [
        {
            "uri" : "house.png",
            "mimeType" : "image/png",
            "name" : "house.png"
        }
    ],
    "accessors" : [
        {
            "componentType" : 5126,
            "type" : "VEC2",
            "bufferView" : 0,
            "count" : 144
        },
        {
            "componentType" : 5126,
            "type" : "VEC3",
            "bufferView" : 1,
            "count" : 144
        },
        {
            "componentType" : 5126,
            "type" : "VEC3",
            "bufferView" : 2,
            "count" : 144,
            "max" : [
                0.5022359490394592,
                0.10838445276021957,
                0.5
            ],
            "min" : [
                -0.5190026760101318,
                -0.0013426300138235092,
                -0.5
            ]
        },
        {
            "componentType" : 5123,
            "type" : "SCALAR",
            "bufferView" : 3,
            "count" : 216
        },
        {
            "componentType" : 5126,
            "type" : "VEC3",
            "bufferView" : 4,
            "count" : 24
        },
        {
            "componentType" : 5126,
            "type" : "VEC3",
            "bufferView" : 5,
            "count" : 24,
            "max" : [
                0.5010091662406921,
                0.1097269356250763,
                0.5010091662406921
            ],
            "min" : [
                -0.5010091662406921,
                0.05439934879541397,
                -0.5010091662406921
            ]
        },
        {
            "componentType" : 5123,
            "type" : "SCALAR",
            "bufferView" : 6,
            "count" : 36
        }
    ],
    "bufferViews" : [
        {
            "byteLength" : 1152,
            "byteOffset" : 0,
            "buffer" : 0
        },
        {
            "byteLength" : 1728,
            "byteOffset" : 1152,
            "buffer" : 0
        },
        {
            "byteLength" : 1728,
            "byteOffset" : 2880,
            "buffer" : 0
        },
        {
            "byteLength" : 432,
            "byteOffset" : 4608,
            "buffer" : 0
        },
        {
            "byteLength" : 288,
            "byteOffset" : 5040,
            "buffer" : 0
        },
        {
            "byteLength" : 288,
            "byteOffset" : 5328,
            "buffer" : 0
        },
        {
            "byteLength" : 72,
            "byteOffset" : 5616,
            "buffer" : 0
        }
    ],
    "samplers" : [
        {
            "wrapS" : 10497,
            "minFilter" : 9986,
            "wrapT" : 10497,
            "magFilter" : 9729
        }
    ],
    "buffers" : [
        {
            "byteLength" : 5688,
            "uri" : "bridge_2.bin"
        }
    ]
}
