{
    "asset" : {
        "version" : "2.0",
        "generator" : "Khronos glTF Blender I/O v1.2.20"
    },
    "scene" : 0,
    "scenes" : [
        {
            "nodes" : [
                1
            ],
            "name" : "Scene"
        }
    ],
    "nodes" : [
        {
            "mesh" : 0,
            "name" : "Fence1Mesh"
        },
        {
            "mesh" : 1,
            "name" : "Fence1Collider -colonly",
            "children" : [
                0
            ]
        }
    ],
    "materials" : [
        {
            "pbrMetallicRoughness" : {
                "baseColorTexture" : {
                    "index" : 0,
                    "texCoord" : 0
                }
            },
            "name" : "house"
        }
    ],
    "meshes" : [
        {
            "primitives" : [
                {
                    "attributes" : {
                        "POSITION" : 0,
                        "TEXCOORD_0" : 1,
                        "NORMAL" : 2
                    },
                    "indices" : 3,
                    "material" : 0
                }
            ],
            "name" : "Fence1Mesh.001"
        },
        {
            "primitives" : [
                {
                    "attributes" : {
                        "POSITION" : 4,
                        "NORMAL" : 5
                    },
                    "indices" : 6
                }
            ],
            "name" : "Fence1Collider.001"
        }
    ],
    "textures" : [
        {
            "sampler" : 0,
            "source" : 0
        }
    ],
    "images" : [
        {
            "mimeType" : "image/png",
            "uri" : "house.png",
            "name" : "house.png"
        }
    ],
    "accessors" : [
        {
            "componentType" : 5126,
            "min" : [
                -3.5,
                -0.014436095952987671,
                -0.05514500290155411
            ],
            "bufferView" : 0,
            "type" : "VEC3",
            "count" : 552,
            "max" : [
                3.5,
                0.868532657623291,
                0.05514500290155411
            ]
        },
        {
            "componentType" : 5126,
            "count" : 552,
            "type" : "VEC2",
            "bufferView" : 1
        },
        {
            "componentType" : 5126,
            "count" : 552,
            "type" : "VEC3",
            "bufferView" : 2
        },
        {
            "componentType" : 5123,
            "count" : 828,
            "type" : "SCALAR",
            "bufferView" : 3
        },
        {
            "componentType" : 5126,
            "min" : [
                -3.5014402866363525,
                0,
                -0.062147438526153564
            ],
            "bufferView" : 4,
            "type" : "VEC3",
            "count" : 24,
            "max" : [
                3.5014402866363525,
                0.8799998760223389,
                0.062147438526153564
            ]
        },
        {
            "componentType" : 5126,
            "count" : 24,
            "type" : "VEC3",
            "bufferView" : 5
        },
        {
            "componentType" : 5123,
            "count" : 36,
            "type" : "SCALAR",
            "bufferView" : 6
        }
    ],
    "bufferViews" : [
        {
            "byteOffset" : 0,
            "byteLength" : 6624,
            "buffer" : 0
        },
        {
            "byteOffset" : 6624,
            "byteLength" : 4416,
            "buffer" : 0
        },
        {
            "byteOffset" : 11040,
            "byteLength" : 6624,
            "buffer" : 0
        },
        {
            "byteOffset" : 17664,
            "byteLength" : 1656,
            "buffer" : 0
        },
        {
            "byteOffset" : 19320,
            "byteLength" : 288,
            "buffer" : 0
        },
        {
            "byteOffset" : 19608,
            "byteLength" : 288,
            "buffer" : 0
        },
        {
            "byteOffset" : 19896,
            "byteLength" : 72,
            "buffer" : 0
        }
    ],
    "samplers" : [
        {
            "minFilter" : 9986,
            "magFilter" : 9729,
            "wrapS" : 10497,
            "wrapT" : 10497
        }
    ],
    "buffers" : [
        {
            "byteLength" : 19968,
            "uri" : "fence_1.bin"
        }
    ]
}
