{
    "asset" : {
        "version" : "2.0",
        "generator" : "Khronos glTF Blender I/O v1.2.20"
    },
    "scene" : 0,
    "scenes" : [
        {
            "nodes" : [
                1
            ],
            "name" : "Scene"
        }
    ],
    "nodes" : [
        {
            "mesh" : 0,
            "name" : "Fence2Mesh"
        },
        {
            "children" : [
                0
            ],
            "mesh" : 1,
            "name" : "Fence2Collider -colonly"
        }
    ],
    "materials" : [
        {
            "name" : "house",
            "pbrMetallicRoughness" : {
                "baseColorTexture" : {
                    "index" : 0,
                    "texCoord" : 0
                }
            }
        }
    ],
    "meshes" : [
        {
            "name" : "Fence2Mesh.001",
            "primitives" : [
                {
                    "attributes" : {
                        "POSITION" : 0,
                        "TEXCOORD_0" : 1,
                        "NORMAL" : 2
                    },
                    "material" : 0,
                    "indices" : 3
                }
            ]
        },
        {
            "name" : "Fence2Collider.001",
            "primitives" : [
                {
                    "attributes" : {
                        "POSITION" : 4,
                        "NORMAL" : 5
                    },
                    "indices" : 6
                }
            ]
        }
    ],
    "textures" : [
        {
            "sampler" : 0,
            "source" : 0
        }
    ],
    "images" : [
        {
            "mimeType" : "image/png",
            "name" : "house.png",
            "uri" : "house.png"
        }
    ],
    "accessors" : [
        {
            "min" : [
                -2,
                -0.013431251049041748,
                -0.05514500290155411
            ],
            "max" : [
                2,
                0.8695375323295593,
                0.05514500290155411
            ],
            "componentType" : 5126,
            "count" : 328,
            "type" : "VEC3",
            "bufferView" : 0
        },
        {
            "componentType" : 5126,
            "count" : 328,
            "type" : "VEC2",
            "bufferView" : 1
        },
        {
            "componentType" : 5126,
            "count" : 328,
            "type" : "VEC3",
            "bufferView" : 2
        },
        {
            "componentType" : 5123,
            "count" : 492,
            "type" : "SCALAR",
            "bufferView" : 3
        },
        {
            "min" : [
                -1.9998232126235962,
                0,
                -0.06253297626972198
            ],
            "max" : [
                1.9998232126235962,
                0.8818283081054688,
                0.06253297626972198
            ],
            "componentType" : 5126,
            "count" : 24,
            "type" : "VEC3",
            "bufferView" : 4
        },
        {
            "componentType" : 5126,
            "count" : 24,
            "type" : "VEC3",
            "bufferView" : 5
        },
        {
            "componentType" : 5123,
            "count" : 36,
            "type" : "SCALAR",
            "bufferView" : 6
        }
    ],
    "bufferViews" : [
        {
            "byteLength" : 3936,
            "buffer" : 0,
            "byteOffset" : 0
        },
        {
            "byteLength" : 2624,
            "buffer" : 0,
            "byteOffset" : 3936
        },
        {
            "byteLength" : 3936,
            "buffer" : 0,
            "byteOffset" : 6560
        },
        {
            "byteLength" : 984,
            "buffer" : 0,
            "byteOffset" : 10496
        },
        {
            "byteLength" : 288,
            "buffer" : 0,
            "byteOffset" : 11480
        },
        {
            "byteLength" : 288,
            "buffer" : 0,
            "byteOffset" : 11768
        },
        {
            "byteLength" : 72,
            "buffer" : 0,
            "byteOffset" : 12056
        }
    ],
    "samplers" : [
        {
            "magFilter" : 9729,
            "wrapT" : 10497,
            "wrapS" : 10497,
            "minFilter" : 9986
        }
    ],
    "buffers" : [
        {
            "byteLength" : 12128,
            "uri" : "fence_2.bin"
        }
    ]
}
