{
    "asset" : {
        "version" : "2.0",
        "generator" : "Khronos glTF Blender I/O v1.2.20"
    },
    "scene" : 0,
    "scenes" : [
        {
            "nodes" : [
                0
            ],
            "name" : "Scene"
        }
    ],
    "nodes" : [
        {
            "mesh" : 0,
            "name" : "Grass1Mesh1"
        }
    ],
    "materials" : [
        {
            "name" : "grass_1",
            "pbrMetallicRoughness" : {
                "baseColorTexture" : {
                    "index" : 0,
                    "texCoord" : 0
                }
            }
        }
    ],
    "meshes" : [
        {
            "name" : "Grass1Mesh1.001",
            "primitives" : [
                {
                    "attributes" : {
                        "POSITION" : 0,
                        "TEXCOORD_0" : 1,
                        "NORMAL" : 2
                    },
                    "material" : 0,
                    "indices" : 3
                }
            ]
        }
    ],
    "textures" : [
        {
            "sampler" : 0,
            "source" : 0
        }
    ],
    "images" : [
        {
            "mimeType" : "image/png",
            "name" : "grass_1.png",
            "uri" : "grass_1.png"
        }
    ],
    "accessors" : [
        {
            "min" : [
                -1.000000238418579,
                -0.09999972581863403,
                0
            ],
            "max" : [
                1.000000238418579,
                1.8999998569488525,
                0
            ],
            "componentType" : 5126,
            "count" : 4,
            "type" : "VEC3",
            "bufferView" : 0
        },
        {
            "componentType" : 5126,
            "count" : 4,
            "type" : "VEC2",
            "bufferView" : 1
        },
        {
            "componentType" : 5126,
            "count" : 4,
            "type" : "VEC3",
            "bufferView" : 2
        },
        {
            "componentType" : 5123,
            "count" : 6,
            "type" : "SCALAR",
            "bufferView" : 3
        }
    ],
    "bufferViews" : [
        {
            "byteLength" : 48,
            "buffer" : 0,
            "byteOffset" : 0
        },
        {
            "byteLength" : 32,
            "buffer" : 0,
            "byteOffset" : 48
        },
        {
            "byteLength" : 48,
            "buffer" : 0,
            "byteOffset" : 80
        },
        {
            "byteLength" : 12,
            "buffer" : 0,
            "byteOffset" : 128
        }
    ],
    "samplers" : [
        {
            "magFilter" : 9729,
            "wrapT" : 10497,
            "wrapS" : 10497,
            "minFilter" : 9986
        }
    ],
    "buffers" : [
        {
            "byteLength" : 140,
            "uri" : "grass_1_1.bin"
        }
    ]
}
