{
    "asset" : {
        "version" : "2.0",
        "generator" : "Khronos glTF Blender I/O v1.2.20"
    },
    "scene" : 0,
    "scenes" : [
        {
            "nodes" : [
                0
            ],
            "name" : "Scene"
        }
    ],
    "nodes" : [
        {
            "scale" : [
                1.1959946155548096,
                1.1959946155548096,
                1.1959946155548096
            ],
            "mesh" : 0,
            "name" : "Grass1Mesh2"
        }
    ],
    "materials" : [
        {
            "name" : "grass_1",
            "pbrMetallicRoughness" : {
                "baseColorTexture" : {
                    "index" : 0,
                    "texCoord" : 0
                }
            }
        }
    ],
    "meshes" : [
        {
            "name" : "Grass1Mesh2.001",
            "primitives" : [
                {
                    "attributes" : {
                        "POSITION" : 0,
                        "TEXCOORD_0" : 1,
                        "NORMAL" : 2
                    },
                    "material" : 0,
                    "indices" : 3
                }
            ]
        }
    ],
    "textures" : [
        {
            "sampler" : 0,
            "source" : 0
        }
    ],
    "images" : [
        {
            "mimeType" : "image/png",
            "name" : "grass_1.png",
            "uri" : "grass_1.png"
        }
    ],
    "accessors" : [
        {
            "min" : [
                -0.9234264492988586,
                -0.10416492819786072,
                -0.871738612651825
            ],
            "max" : [
                0.9234265089035034,
                0.6754500865936279,
                0.871738612651825
            ],
            "componentType" : 5126,
            "count" : 88,
            "type" : "VEC3",
            "bufferView" : 0
        },
        {
            "componentType" : 5126,
            "count" : 88,
            "type" : "VEC2",
            "bufferView" : 1
        },
        {
            "componentType" : 5126,
            "count" : 88,
            "type" : "VEC3",
            "bufferView" : 2
        },
        {
            "componentType" : 5123,
            "count" : 132,
            "type" : "SCALAR",
            "bufferView" : 3
        }
    ],
    "bufferViews" : [
        {
            "byteLength" : 1056,
            "buffer" : 0,
            "byteOffset" : 0
        },
        {
            "byteLength" : 704,
            "buffer" : 0,
            "byteOffset" : 1056
        },
        {
            "byteLength" : 1056,
            "buffer" : 0,
            "byteOffset" : 1760
        },
        {
            "byteLength" : 264,
            "buffer" : 0,
            "byteOffset" : 2816
        }
    ],
    "samplers" : [
        {
            "magFilter" : 9729,
            "wrapT" : 10497,
            "wrapS" : 10497,
            "minFilter" : 9986
        }
    ],
    "buffers" : [
        {
            "byteLength" : 3080,
            "uri" : "grass_1_2.bin"
        }
    ]
}
