{
    "asset" : {
        "generator" : "Khronos glTF Blender I/O v1.2.20",
        "version" : "2.0"
    },
    "scene" : 0,
    "scenes" : [
        {
            "name" : "Scene",
            "nodes" : [
                1
            ]
        }
    ],
    "nodes" : [
        {
            "name" : "HouseMesh",
            "mesh" : 0
        },
        {
            "name" : "HouseCollider -colonly",
            "children" : [
                0
            ],
            "mesh" : 1
        }
    ],
    "materials" : [
        {
            "name" : "house",
            "pbrMetallicRoughness" : {
                "baseColorTexture" : {
                    "index" : 0,
                    "texCoord" : 0
                }
            }
        }
    ],
    "meshes" : [
        {
            "name" : "HouseMesh.001",
            "primitives" : [
                {
                    "indices" : 3,
                    "attributes" : {
                        "POSITION" : 0,
                        "NORMAL" : 1,
                        "TEXCOORD_0" : 2
                    },
                    "material" : 0
                }
            ]
        },
        {
            "name" : "HouseCollider.001",
            "primitives" : [
                {
                    "indices" : 6,
                    "attributes" : {
                        "POSITION" : 4,
                        "NORMAL" : 5
                    }
                }
            ]
        }
    ],
    "textures" : [
        {
            "sampler" : 0,
            "source" : 0
        }
    ],
    "images" : [
        {
            "name" : "house.png",
            "uri" : "house.png",
            "mimeType" : "image/png"
        }
    ],
    "accessors" : [
        {
            "componentType" : 5126,
            "min" : [
                -2.4584054946899414,
                -0.06805706024169922,
                -2.354022979736328
            ],
            "max" : [
                2.4584054946899414,
                4.168069362640381,
                2.354022979736328
            ],
            "type" : "VEC3",
            "bufferView" : 0,
            "count" : 1011
        },
        {
            "componentType" : 5126,
            "bufferView" : 1,
            "type" : "VEC3",
            "count" : 1011
        },
        {
            "componentType" : 5126,
            "bufferView" : 2,
            "type" : "VEC2",
            "count" : 1011
        },
        {
            "componentType" : 5123,
            "bufferView" : 3,
            "type" : "SCALAR",
            "count" : 1581
        },
        {
            "componentType" : 5126,
            "min" : [
                -2.4814112186431885,
                -0.06977913528680801,
                -2.3774800300598145
            ],
            "max" : [
                2.4814112186431885,
                4.193504333496094,
                2.34704327583313
            ],
            "type" : "VEC3",
            "bufferView" : 4,
            "count" : 90
        },
        {
            "componentType" : 5126,
            "bufferView" : 5,
            "type" : "VEC3",
            "count" : 90
        },
        {
            "componentType" : 5123,
            "bufferView" : 6,
            "type" : "SCALAR",
            "count" : 132
        }
    ],
    "bufferViews" : [
        {
            "byteLength" : 12132,
            "buffer" : 0,
            "byteOffset" : 0
        },
        {
            "byteLength" : 12132,
            "buffer" : 0,
            "byteOffset" : 12132
        },
        {
            "byteLength" : 8088,
            "buffer" : 0,
            "byteOffset" : 24264
        },
        {
            "byteLength" : 3162,
            "buffer" : 0,
            "byteOffset" : 32352
        },
        {
            "byteLength" : 1080,
            "buffer" : 0,
            "byteOffset" : 35516
        },
        {
            "byteLength" : 1080,
            "buffer" : 0,
            "byteOffset" : 36596
        },
        {
            "byteLength" : 264,
            "buffer" : 0,
            "byteOffset" : 37676
        }
    ],
    "samplers" : [
        {
            "minFilter" : 9986,
            "wrapS" : 10497,
            "wrapT" : 10497,
            "magFilter" : 9729
        }
    ],
    "buffers" : [
        {
            "uri" : "house.bin",
            "byteLength" : 37940
        }
    ]
}
