{
    "asset" : {
        "generator" : "Khronos glTF Blender I/O v1.2.20",
        "version" : "2.0"
    },
    "scene" : 0,
    "scenes" : [
        {
            "nodes" : [
                2
            ],
            "name" : "Scene"
        }
    ],
    "nodes" : [
        {
            "name" : "DoorMesh",
            "translation" : [
                -0.36133497953414917,
                0.3174252510070801,
                1.4372961521148682
            ],
            "mesh" : 0
        },
        {
            "name" : "HouseMesh",
            "mesh" : 1
        },
        {
            "children" : [
                0,
                1
            ],
            "name" : "HouseCollider -colonly",
            "mesh" : 2
        }
    ],
    "materials" : [
        {
            "pbrMetallicRoughness" : {
                "baseColorTexture" : {
                    "index" : 0,
                    "texCoord" : 0
                }
            },
            "name" : "house"
        }
    ],
    "meshes" : [
        {
            "primitives" : [
                {
                    "indices" : 3,
                    "attributes" : {
                        "POSITION" : 0,
                        "TEXCOORD_0" : 1,
                        "NORMAL" : 2
                    },
                    "material" : 0
                }
            ],
            "name" : "DoorMesh.001"
        },
        {
            "primitives" : [
                {
                    "indices" : 7,
                    "attributes" : {
                        "POSITION" : 4,
                        "TEXCOORD_0" : 5,
                        "NORMAL" : 6
                    },
                    "material" : 0
                }
            ],
            "name" : "HouseMesh.001"
        },
        {
            "primitives" : [
                {
                    "attributes" : {
                        "POSITION" : 8,
                        "NORMAL" : 9
                    },
                    "indices" : 10
                }
            ],
            "name" : "HouseCollider.001"
        }
    ],
    "textures" : [
        {
            "sampler" : 0,
            "source" : 0
        }
    ],
    "images" : [
        {
            "mimeType" : "image/png",
            "uri" : "house.png",
            "name" : "house.png"
        }
    ],
    "accessors" : [
        {
            "max" : [
                0.7143962979316711,
                1.1422947645187378,
                -0.05194747447967529
            ],
            "componentType" : 5126,
            "min" : [
                0.008181512355804443,
                0.04588088393211365,
                -0.09259951114654541
            ],
            "type" : "VEC3",
            "count" : 118,
            "bufferView" : 0
        },
        {
            "type" : "VEC2",
            "count" : 118,
            "bufferView" : 1,
            "componentType" : 5126
        },
        {
            "type" : "VEC3",
            "count" : 118,
            "bufferView" : 2,
            "componentType" : 5126
        },
        {
            "type" : "SCALAR",
            "count" : 144,
            "bufferView" : 3,
            "componentType" : 5123
        },
        {
            "max" : [
                2.4584054946899414,
                4.168069362640381,
                2.354022979736328
            ],
            "componentType" : 5126,
            "min" : [
                -2.4584054946899414,
                -0.06805706024169922,
                -2.354022979736328
            ],
            "type" : "VEC3",
            "count" : 939,
            "bufferView" : 4
        },
        {
            "type" : "VEC2",
            "count" : 939,
            "bufferView" : 5,
            "componentType" : 5126
        },
        {
            "type" : "VEC3",
            "count" : 939,
            "bufferView" : 6,
            "componentType" : 5126
        },
        {
            "type" : "SCALAR",
            "count" : 1455,
            "bufferView" : 7,
            "componentType" : 5123
        },
        {
            "max" : [
                2.4814112186431885,
                4.193504333496094,
                2.34704327583313
            ],
            "componentType" : 5126,
            "min" : [
                -2.4814112186431885,
                -0.06977913528680801,
                -2.3774800300598145
            ],
            "type" : "VEC3",
            "count" : 90,
            "bufferView" : 8
        },
        {
            "type" : "VEC3",
            "count" : 90,
            "bufferView" : 9,
            "componentType" : 5126
        },
        {
            "type" : "SCALAR",
            "count" : 132,
            "bufferView" : 10,
            "componentType" : 5123
        }
    ],
    "bufferViews" : [
        {
            "buffer" : 0,
            "byteLength" : 1416,
            "byteOffset" : 0
        },
        {
            "buffer" : 0,
            "byteLength" : 944,
            "byteOffset" : 1416
        },
        {
            "buffer" : 0,
            "byteLength" : 1416,
            "byteOffset" : 2360
        },
        {
            "buffer" : 0,
            "byteLength" : 288,
            "byteOffset" : 3776
        },
        {
            "buffer" : 0,
            "byteLength" : 11268,
            "byteOffset" : 4064
        },
        {
            "buffer" : 0,
            "byteLength" : 7512,
            "byteOffset" : 15332
        },
        {
            "buffer" : 0,
            "byteLength" : 11268,
            "byteOffset" : 22844
        },
        {
            "buffer" : 0,
            "byteLength" : 2910,
            "byteOffset" : 34112
        },
        {
            "buffer" : 0,
            "byteLength" : 1080,
            "byteOffset" : 37024
        },
        {
            "buffer" : 0,
            "byteLength" : 1080,
            "byteOffset" : 38104
        },
        {
            "buffer" : 0,
            "byteLength" : 264,
            "byteOffset" : 39184
        }
    ],
    "samplers" : [
        {
            "magFilter" : 9729,
            "wrapS" : 10497,
            "minFilter" : 9986,
            "wrapT" : 10497
        }
    ],
    "buffers" : [
        {
            "byteLength" : 39448,
            "uri" : "house.bin"
        }
    ]
}
