{
    "asset" : {
        "version" : "2.0",
        "generator" : "Khronos glTF Blender I/O v1.2.20"
    },
    "scene" : 0,
    "scenes" : [
        {
            "nodes" : [
                1
            ],
            "name" : "Scene"
        }
    ],
    "nodes" : [
        {
            "mesh" : 0,
            "name" : "HouseMesh"
        },
        {
            "mesh" : 1,
            "children" : [
                0
            ],
            "name" : "HouseCollider -colonly"
        }
    ],
    "materials" : [
        {
            "name" : "house",
            "pbrMetallicRoughness" : {
                "baseColorTexture" : {
                    "index" : 0,
                    "texCoord" : 0
                }
            }
        }
    ],
    "meshes" : [
        {
            "primitives" : [
                {
                    "material" : 0,
                    "attributes" : {
                        "NORMAL" : 0,
                        "TEXCOORD_0" : 1,
                        "POSITION" : 2
                    },
                    "indices" : 3
                }
            ],
            "name" : "HouseMesh.001"
        },
        {
            "primitives" : [
                {
                    "attributes" : {
                        "NORMAL" : 4,
                        "POSITION" : 5
                    },
                    "indices" : 6
                }
            ],
            "name" : "HouseCollider.001"
        }
    ],
    "textures" : [
        {
            "sampler" : 0,
            "source" : 0
        }
    ],
    "images" : [
        {
            "uri" : "house.png",
            "name" : "house.png",
            "mimeType" : "image/png"
        }
    ],
    "accessors" : [
        {
            "count" : 960,
            "bufferView" : 0,
            "componentType" : 5126,
            "type" : "VEC3"
        },
        {
            "count" : 960,
            "bufferView" : 1,
            "componentType" : 5126,
            "type" : "VEC2"
        },
        {
            "bufferView" : 2,
            "componentType" : 5126,
            "min" : [
                -2.4584054946899414,
                -0.06805706024169922,
                -2.354022979736328
            ],
            "type" : "VEC3",
            "count" : 960,
            "max" : [
                2.4584054946899414,
                4.168069362640381,
                2.354022979736328
            ]
        },
        {
            "count" : 1428,
            "bufferView" : 3,
            "componentType" : 5123,
            "type" : "SCALAR"
        },
        {
            "count" : 90,
            "bufferView" : 4,
            "componentType" : 5126,
            "type" : "VEC3"
        },
        {
            "bufferView" : 5,
            "componentType" : 5126,
            "min" : [
                -2.4814112186431885,
                -0.06977913528680801,
                -2.3774800300598145
            ],
            "type" : "VEC3",
            "count" : 90,
            "max" : [
                2.4814112186431885,
                4.193504333496094,
                2.34704327583313
            ]
        },
        {
            "count" : 132,
            "bufferView" : 6,
            "componentType" : 5123,
            "type" : "SCALAR"
        }
    ],
    "bufferViews" : [
        {
            "byteLength" : 11520,
            "buffer" : 0,
            "byteOffset" : 0
        },
        {
            "byteLength" : 7680,
            "buffer" : 0,
            "byteOffset" : 11520
        },
        {
            "byteLength" : 11520,
            "buffer" : 0,
            "byteOffset" : 19200
        },
        {
            "byteLength" : 2856,
            "buffer" : 0,
            "byteOffset" : 30720
        },
        {
            "byteLength" : 1080,
            "buffer" : 0,
            "byteOffset" : 33576
        },
        {
            "byteLength" : 1080,
            "buffer" : 0,
            "byteOffset" : 34656
        },
        {
            "byteLength" : 264,
            "buffer" : 0,
            "byteOffset" : 35736
        }
    ],
    "samplers" : [
        {
            "minFilter" : 9986,
            "magFilter" : 9729,
            "wrapS" : 10497,
            "wrapT" : 10497
        }
    ],
    "buffers" : [
        {
            "byteLength" : 36000,
            "uri" : "house.bin"
        }
    ]
}
