{
    "asset" : {
        "version" : "2.0",
        "generator" : "Khronos glTF Blender I/O v1.2.20"
    },
    "scene" : 0,
    "scenes" : [
        {
            "nodes" : [
                1
            ],
            "name" : "Scene"
        }
    ],
    "nodes" : [
        {
            "name" : "HouseMesh",
            "mesh" : 0
        },
        {
            "name" : "HouseCollider -colonly",
            "children" : [
                0
            ],
            "mesh" : 1
        }
    ],
    "materials" : [
        {
            "name" : "house",
            "pbrMetallicRoughness" : {
                "baseColorTexture" : {
                    "index" : 0,
                    "texCoord" : 0
                }
            }
        }
    ],
    "meshes" : [
        {
            "primitives" : [
                {
                    "indices" : 3,
                    "attributes" : {
                        "TEXCOORD_0" : 0,
                        "POSITION" : 1,
                        "NORMAL" : 2
                    },
                    "material" : 0
                }
            ],
            "name" : "HouseMesh.002"
        },
        {
            "primitives" : [
                {
                    "indices" : 6,
                    "attributes" : {
                        "POSITION" : 4,
                        "NORMAL" : 5
                    },
                    "material" : 0
                }
            ],
            "name" : "HouseCollider.001"
        }
    ],
    "textures" : [
        {
            "source" : 0,
            "sampler" : 0
        }
    ],
    "images" : [
        {
            "uri" : "house.png",
            "mimeType" : "image/png",
            "name" : "house.png"
        }
    ],
    "accessors" : [
        {
            "bufferView" : 0,
            "type" : "VEC2",
            "count" : 1549,
            "componentType" : 5126
        },
        {
            "bufferView" : 1,
            "type" : "VEC3",
            "count" : 1549,
            "max" : [
                4.427403450012207,
                4.168069362640381,
                2.354022979736328
            ],
            "componentType" : 5126,
            "min" : [
                -4.443775177001953,
                -0.06805706024169922,
                -2.354022979736328
            ]
        },
        {
            "bufferView" : 2,
            "type" : "VEC3",
            "count" : 1549,
            "componentType" : 5126
        },
        {
            "bufferView" : 3,
            "type" : "SCALAR",
            "count" : 2397,
            "componentType" : 5123
        },
        {
            "bufferView" : 4,
            "type" : "VEC3",
            "count" : 246,
            "max" : [
                4.4953436851501465,
                4.193504333496094,
                2.34704327583313
            ],
            "componentType" : 5126,
            "min" : [
                -4.478443145751953,
                -0.06977913528680801,
                -2.3774800300598145
            ]
        },
        {
            "bufferView" : 5,
            "type" : "VEC3",
            "count" : 246,
            "componentType" : 5126
        },
        {
            "bufferView" : 6,
            "type" : "SCALAR",
            "count" : 396,
            "componentType" : 5123
        }
    ],
    "bufferViews" : [
        {
            "byteOffset" : 0,
            "byteLength" : 12392,
            "buffer" : 0
        },
        {
            "byteOffset" : 12392,
            "byteLength" : 18588,
            "buffer" : 0
        },
        {
            "byteOffset" : 30980,
            "byteLength" : 18588,
            "buffer" : 0
        },
        {
            "byteOffset" : 49568,
            "byteLength" : 4794,
            "buffer" : 0
        },
        {
            "byteOffset" : 54364,
            "byteLength" : 2952,
            "buffer" : 0
        },
        {
            "byteOffset" : 57316,
            "byteLength" : 2952,
            "buffer" : 0
        },
        {
            "byteOffset" : 60268,
            "byteLength" : 792,
            "buffer" : 0
        }
    ],
    "samplers" : [
        {
            "wrapT" : 10497,
            "magFilter" : 9729,
            "wrapS" : 10497,
            "minFilter" : 9986
        }
    ],
    "buffers" : [
        {
            "byteLength" : 61060,
            "uri" : "house.bin"
        }
    ]
}
