{
    "asset" : {
        "version" : "2.0",
        "generator" : "Khronos glTF Blender I/O v1.2.20"
    },
    "scene" : 0,
    "scenes" : [
        {
            "nodes" : [
                1
            ],
            "name" : "Scene"
        }
    ],
    "nodes" : [
        {
            "mesh" : 0,
            "name" : "Island02Mesh"
        },
        {
            "children" : [
                0
            ],
            "mesh" : 1,
            "name" : "Island02Collider -colonly"
        }
    ],
    "materials" : [
        {
            "pbrMetallicRoughness" : {
                "baseColorTexture" : {
                    "texCoord" : 0,
                    "index" : 0
                }
            },
            "name" : "island"
        }
    ],
    "meshes" : [
        {
            "primitives" : [
                {
                    "material" : 0,
                    "indices" : 3,
                    "attributes" : {
                        "NORMAL" : 0,
                        "TEXCOORD_0" : 1,
                        "POSITION" : 2
                    }
                }
            ],
            "name" : "Island2Mesh.001"
        },
        {
            "primitives" : [
                {
                    "indices" : 7,
                    "attributes" : {
                        "NORMAL" : 4,
                        "TEXCOORD_0" : 5,
                        "POSITION" : 6
                    }
                }
            ],
            "name" : "Island02Collider.001"
        }
    ],
    "textures" : [
        {
            "source" : 0,
            "sampler" : 0
        }
    ],
    "images" : [
        {
            "uri" : "island.png",
            "mimeType" : "image/png",
            "name" : "island.png"
        }
    ],
    "accessors" : [
        {
            "componentType" : 5126,
            "type" : "VEC3",
            "bufferView" : 0,
            "count" : 102
        },
        {
            "componentType" : 5126,
            "type" : "VEC2",
            "bufferView" : 1,
            "count" : 102
        },
        {
            "type" : "VEC3",
            "min" : [
                -4.829622268676758,
                -0.00975028146058321,
                -6.735538005828857
            ],
            "max" : [
                4.992397308349609,
                2.0929529666900635,
                6.842809677124023
            ],
            "componentType" : 5126,
            "bufferView" : 2,
            "count" : 102
        },
        {
            "componentType" : 5123,
            "type" : "SCALAR",
            "bufferView" : 3,
            "count" : 312
        },
        {
            "componentType" : 5126,
            "type" : "VEC3",
            "bufferView" : 4,
            "count" : 34
        },
        {
            "componentType" : 5126,
            "type" : "VEC2",
            "bufferView" : 5,
            "count" : 34
        },
        {
            "type" : "VEC3",
            "min" : [
                -4.8589582443237305,
                -0.013497219420969486,
                -6.776795864105225
            ],
            "max" : [
                5.021703720092773,
                2.0929529666900635,
                6.8826212882995605
            ],
            "componentType" : 5126,
            "bufferView" : 6,
            "count" : 34
        },
        {
            "componentType" : 5123,
            "type" : "SCALAR",
            "bufferView" : 7,
            "count" : 156
        }
    ],
    "bufferViews" : [
        {
            "byteLength" : 1224,
            "buffer" : 0,
            "byteOffset" : 0
        },
        {
            "byteLength" : 816,
            "buffer" : 0,
            "byteOffset" : 1224
        },
        {
            "byteLength" : 1224,
            "buffer" : 0,
            "byteOffset" : 2040
        },
        {
            "byteLength" : 624,
            "buffer" : 0,
            "byteOffset" : 3264
        },
        {
            "byteLength" : 408,
            "buffer" : 0,
            "byteOffset" : 3888
        },
        {
            "byteLength" : 272,
            "buffer" : 0,
            "byteOffset" : 4296
        },
        {
            "byteLength" : 408,
            "buffer" : 0,
            "byteOffset" : 4568
        },
        {
            "byteLength" : 312,
            "buffer" : 0,
            "byteOffset" : 4976
        }
    ],
    "samplers" : [
        {
            "wrapS" : 10497,
            "wrapT" : 10497,
            "minFilter" : 9986,
            "magFilter" : 9729
        }
    ],
    "buffers" : [
        {
            "uri" : "island_02.bin",
            "byteLength" : 5288
        }
    ]
}
