{
    "asset" : {
        "version" : "2.0",
        "generator" : "Khronos glTF Blender I/O v1.2.20"
    },
    "scene" : 0,
    "scenes" : [
        {
            "nodes" : [
                0
            ],
            "name" : "Scene"
        }
    ],
    "nodes" : [
        {
            "mesh" : 0,
            "name" : "Island07Mesh -col"
        }
    ],
    "materials" : [
        {
            "pbrMetallicRoughness" : {
                "baseColorTexture" : {
                    "texCoord" : 0,
                    "index" : 0
                }
            },
            "name" : "island"
        }
    ],
    "meshes" : [
        {
            "primitives" : [
                {
                    "material" : 0,
                    "indices" : 3,
                    "attributes" : {
                        "NORMAL" : 0,
                        "TEXCOORD_0" : 1,
                        "POSITION" : 2
                    }
                }
            ],
            "name" : "Island7Mesh.001"
        }
    ],
    "textures" : [
        {
            "source" : 0,
            "sampler" : 0
        }
    ],
    "images" : [
        {
            "uri" : "island.png",
            "mimeType" : "image/png",
            "name" : "island.png"
        }
    ],
    "accessors" : [
        {
            "componentType" : 5126,
            "type" : "VEC3",
            "bufferView" : 0,
            "count" : 153
        },
        {
            "componentType" : 5126,
            "type" : "VEC2",
            "bufferView" : 1,
            "count" : 153
        },
        {
            "type" : "VEC3",
            "min" : [
                -1.5475767850875854,
                -0.013743162155151367,
                -1.6135119199752808
            ],
            "max" : [
                1.5475767850875854,
                4.458744049072266,
                1.6135119199752808
            ],
            "componentType" : 5126,
            "bufferView" : 2,
            "count" : 153
        },
        {
            "componentType" : 5123,
            "type" : "SCALAR",
            "bufferView" : 3,
            "count" : 468
        }
    ],
    "bufferViews" : [
        {
            "byteLength" : 1836,
            "buffer" : 0,
            "byteOffset" : 0
        },
        {
            "byteLength" : 1224,
            "buffer" : 0,
            "byteOffset" : 1836
        },
        {
            "byteLength" : 1836,
            "buffer" : 0,
            "byteOffset" : 3060
        },
        {
            "byteLength" : 936,
            "buffer" : 0,
            "byteOffset" : 4896
        }
    ],
    "samplers" : [
        {
            "wrapS" : 10497,
            "wrapT" : 10497,
            "minFilter" : 9986,
            "magFilter" : 9729
        }
    ],
    "buffers" : [
        {
            "uri" : "island_07.bin",
            "byteLength" : 5832
        }
    ]
}
