{
    "asset" : {
        "generator" : "Khronos glTF Blender I/O v1.2.20",
        "version" : "2.0"
    },
    "extensionsUsed" : [
        "KHR_materials_unlit"
    ],
    "scene" : 0,
    "scenes" : [
        {
            "name" : "Scene",
            "nodes" : [
                0
            ]
        }
    ],
    "nodes" : [
        {
            "name" : "Island01Mesh -col",
            "scale" : [
                5.064178466796875,
                5.064178466796875,
                5.064178466796875
            ],
            "mesh" : 0
        }
    ],
    "materials" : [
        {
            "extensions" : {
                "KHR_materials_unlit" : {}
            },
            "pbrMetallicRoughness" : {
                "baseColorTexture" : {
                    "index" : 0,
                    "texCoord" : 0
                }
            },
            "name" : "island"
        }
    ],
    "meshes" : [
        {
            "name" : "Island1Mesh.001",
            "primitives" : [
                {
                    "indices" : 3,
                    "attributes" : {
                        "POSITION" : 0,
                        "NORMAL" : 1,
                        "TEXCOORD_0" : 2
                    },
                    "material" : 0
                }
            ]
        }
    ],
    "textures" : [
        {
            "sampler" : 0,
            "source" : 0
        }
    ],
    "images" : [
        {
            "name" : "island.png",
            "uri" : "island.png",
            "mimeType" : "image/png"
        }
    ],
    "accessors" : [
        {
            "componentType" : 5126,
            "min" : [
                -1.6182856559753418,
                -1.433861255645752,
                -1.6182860136032104
            ],
            "max" : [
                1.6182856559753418,
                0.13429245352745056,
                1.6182860136032104
            ],
            "type" : "VEC3",
            "bufferView" : 0,
            "count" : 83
        },
        {
            "componentType" : 5126,
            "bufferView" : 1,
            "type" : "VEC3",
            "count" : 83
        },
        {
            "componentType" : 5126,
            "bufferView" : 2,
            "type" : "VEC2",
            "count" : 83
        },
        {
            "componentType" : 5123,
            "bufferView" : 3,
            "type" : "SCALAR",
            "count" : 234
        }
    ],
    "bufferViews" : [
        {
            "byteLength" : 996,
            "buffer" : 0,
            "byteOffset" : 0
        },
        {
            "byteLength" : 996,
            "buffer" : 0,
            "byteOffset" : 996
        },
        {
            "byteLength" : 664,
            "buffer" : 0,
            "byteOffset" : 1992
        },
        {
            "byteLength" : 468,
            "buffer" : 0,
            "byteOffset" : 2656
        }
    ],
    "samplers" : [
        {
            "minFilter" : 9986,
            "wrapS" : 10497,
            "wrapT" : 10497,
            "magFilter" : 9729
        }
    ],
    "buffers" : [
        {
            "uri" : "island_01.bin",
            "byteLength" : 3124
        }
    ]
}
