{
    "asset" : {
        "version" : "2.0",
        "generator" : "Khronos glTF Blender I/O v1.2.20"
    },
    "scene" : 0,
    "scenes" : [
        {
            "nodes" : [
                0
            ],
            "name" : "Scene"
        }
    ],
    "nodes" : [
        {
            "scale" : [
                18.65431022644043,
                18.654308319091797,
                18.65431022644043
            ],
            "mesh" : 0,
            "name" : "Island09Mesh -col"
        }
    ],
    "materials" : [
        {
            "pbrMetallicRoughness" : {
                "baseColorTexture" : {
                    "texCoord" : 0,
                    "index" : 0
                }
            },
            "name" : "island"
        }
    ],
    "meshes" : [
        {
            "primitives" : [
                {
                    "material" : 0,
                    "indices" : 3,
                    "attributes" : {
                        "NORMAL" : 0,
                        "TEXCOORD_0" : 1,
                        "POSITION" : 2
                    }
                }
            ],
            "name" : "Island9Mesh.001"
        }
    ],
    "textures" : [
        {
            "source" : 0,
            "sampler" : 0
        }
    ],
    "images" : [
        {
            "uri" : "island.png",
            "mimeType" : "image/png",
            "name" : "island.png"
        }
    ],
    "accessors" : [
        {
            "componentType" : 5126,
            "type" : "VEC3",
            "bufferView" : 0,
            "count" : 102
        },
        {
            "componentType" : 5126,
            "type" : "VEC2",
            "bufferView" : 1,
            "count" : 102
        },
        {
            "type" : "VEC3",
            "min" : [
                -0.06109881401062012,
                -0.0012607723474502563,
                -0.06370196491479874
            ],
            "max" : [
                0.06109881401062012,
                0.19002540409564972,
                0.06370196491479874
            ],
            "componentType" : 5126,
            "bufferView" : 2,
            "count" : 102
        },
        {
            "componentType" : 5123,
            "type" : "SCALAR",
            "bufferView" : 3,
            "count" : 312
        }
    ],
    "bufferViews" : [
        {
            "byteLength" : 1224,
            "buffer" : 0,
            "byteOffset" : 0
        },
        {
            "byteLength" : 816,
            "buffer" : 0,
            "byteOffset" : 1224
        },
        {
            "byteLength" : 1224,
            "buffer" : 0,
            "byteOffset" : 2040
        },
        {
            "byteLength" : 624,
            "buffer" : 0,
            "byteOffset" : 3264
        }
    ],
    "samplers" : [
        {
            "wrapS" : 10497,
            "wrapT" : 10497,
            "minFilter" : 9986,
            "magFilter" : 9729
        }
    ],
    "buffers" : [
        {
            "uri" : "island_09.bin",
            "byteLength" : 3888
        }
    ]
}
