{
    "asset" : {
        "version" : "2.0",
        "generator" : "Khronos glTF Blender I/O v1.2.20"
    },
    "scene" : 0,
    "scenes" : [
        {
            "nodes" : [
                0
            ],
            "name" : "Scene"
        }
    ],
    "nodes" : [
        {
            "mesh" : 0,
            "name" : "Island06Mesh -col"
        }
    ],
    "materials" : [
        {
            "pbrMetallicRoughness" : {
                "baseColorTexture" : {
                    "texCoord" : 0,
                    "index" : 0
                }
            },
            "name" : "island"
        }
    ],
    "meshes" : [
        {
            "primitives" : [
                {
                    "material" : 0,
                    "indices" : 3,
                    "attributes" : {
                        "NORMAL" : 0,
                        "TEXCOORD_0" : 1,
                        "POSITION" : 2
                    }
                }
            ],
            "name" : "Island6Mesh.001"
        }
    ],
    "textures" : [
        {
            "source" : 0,
            "sampler" : 0
        }
    ],
    "images" : [
        {
            "uri" : "island.png",
            "mimeType" : "image/png",
            "name" : "island.png"
        }
    ],
    "accessors" : [
        {
            "componentType" : 5126,
            "type" : "VEC3",
            "bufferView" : 0,
            "count" : 51
        },
        {
            "componentType" : 5126,
            "type" : "VEC2",
            "bufferView" : 1,
            "count" : 51
        },
        {
            "type" : "VEC3",
            "min" : [
                -2.6785154342651367,
                -0.003371596336364746,
                -1.5696550607681274
            ],
            "max" : [
                2.6785154342651367,
                1.6914684772491455,
                1.5696550607681274
            ],
            "componentType" : 5126,
            "bufferView" : 2,
            "count" : 51
        },
        {
            "componentType" : 5123,
            "type" : "SCALAR",
            "bufferView" : 3,
            "count" : 156
        }
    ],
    "bufferViews" : [
        {
            "byteLength" : 612,
            "buffer" : 0,
            "byteOffset" : 0
        },
        {
            "byteLength" : 408,
            "buffer" : 0,
            "byteOffset" : 612
        },
        {
            "byteLength" : 612,
            "buffer" : 0,
            "byteOffset" : 1020
        },
        {
            "byteLength" : 312,
            "buffer" : 0,
            "byteOffset" : 1632
        }
    ],
    "samplers" : [
        {
            "wrapS" : 10497,
            "wrapT" : 10497,
            "minFilter" : 9986,
            "magFilter" : 9729
        }
    ],
    "buffers" : [
        {
            "uri" : "island_06.bin",
            "byteLength" : 1944
        }
    ]
}
