{
    "asset" : {
        "generator" : "Khronos glTF Blender I/O v1.2.20",
        "version" : "2.0"
    },
    "scene" : 0,
    "scenes" : [
        {
            "name" : "Scene",
            "nodes" : [
                1
            ]
        }
    ],
    "nodes" : [
        {
            "name" : "Island02Mesh",
            "mesh" : 0
        },
        {
            "name" : "Island02Collider -colonly",
            "children" : [
                0
            ],
            "mesh" : 1
        }
    ],
    "materials" : [
        {
            "name" : "island",
            "pbrMetallicRoughness" : {
                "baseColorTexture" : {
                    "index" : 0,
                    "texCoord" : 0
                }
            }
        }
    ],
    "meshes" : [
        {
            "name" : "Island2Mesh.001",
            "primitives" : [
                {
                    "indices" : 3,
                    "attributes" : {
                        "POSITION" : 0,
                        "NORMAL" : 1,
                        "TEXCOORD_0" : 2
                    },
                    "material" : 0
                }
            ]
        },
        {
            "name" : "Island02Collider.001",
            "primitives" : [
                {
                    "indices" : 7,
                    "attributes" : {
                        "POSITION" : 4,
                        "NORMAL" : 5,
                        "TEXCOORD_0" : 6
                    }
                }
            ]
        }
    ],
    "textures" : [
        {
            "sampler" : 0,
            "source" : 0
        }
    ],
    "images" : [
        {
            "name" : "island.png",
            "uri" : "island.png",
            "mimeType" : "image/png"
        }
    ],
    "accessors" : [
        {
            "componentType" : 5126,
            "min" : [
                -4.829622268676758,
                -9.540992736816406,
                -6.735537528991699
            ],
            "max" : [
                4.994814872741699,
                2.0929529666900635,
                6.847466945648193
            ],
            "type" : "VEC3",
            "bufferView" : 0,
            "count" : 130
        },
        {
            "componentType" : 5126,
            "bufferView" : 1,
            "type" : "VEC3",
            "count" : 130
        },
        {
            "componentType" : 5126,
            "bufferView" : 2,
            "type" : "VEC2",
            "count" : 130
        },
        {
            "componentType" : 5123,
            "bufferView" : 3,
            "type" : "SCALAR",
            "count" : 396
        },
        {
            "componentType" : 5126,
            "min" : [
                -4.8589582443237305,
                -0.013497219420969486,
                -6.776795864105225
            ],
            "max" : [
                5.021703720092773,
                2.0929529666900635,
                6.8826212882995605
            ],
            "type" : "VEC3",
            "bufferView" : 4,
            "count" : 34
        },
        {
            "componentType" : 5126,
            "bufferView" : 5,
            "type" : "VEC3",
            "count" : 34
        },
        {
            "componentType" : 5126,
            "bufferView" : 6,
            "type" : "VEC2",
            "count" : 34
        },
        {
            "componentType" : 5123,
            "bufferView" : 7,
            "type" : "SCALAR",
            "count" : 156
        }
    ],
    "bufferViews" : [
        {
            "byteLength" : 1560,
            "buffer" : 0,
            "byteOffset" : 0
        },
        {
            "byteLength" : 1560,
            "buffer" : 0,
            "byteOffset" : 1560
        },
        {
            "byteLength" : 1040,
            "buffer" : 0,
            "byteOffset" : 3120
        },
        {
            "byteLength" : 792,
            "buffer" : 0,
            "byteOffset" : 4160
        },
        {
            "byteLength" : 408,
            "buffer" : 0,
            "byteOffset" : 4952
        },
        {
            "byteLength" : 408,
            "buffer" : 0,
            "byteOffset" : 5360
        },
        {
            "byteLength" : 272,
            "buffer" : 0,
            "byteOffset" : 5768
        },
        {
            "byteLength" : 312,
            "buffer" : 0,
            "byteOffset" : 6040
        }
    ],
    "samplers" : [
        {
            "minFilter" : 9986,
            "wrapS" : 10497,
            "wrapT" : 10497,
            "magFilter" : 9729
        }
    ],
    "buffers" : [
        {
            "uri" : "island_02.bin",
            "byteLength" : 6352
        }
    ]
}
