{
    "asset" : {
        "version" : "2.0",
        "generator" : "Khronos glTF Blender I/O v1.2.20"
    },
    "scene" : 0,
    "scenes" : [
        {
            "nodes" : [
                1
            ],
            "name" : "Scene"
        }
    ],
    "nodes" : [
        {
            "scale" : [
                0.6765422821044922,
                0.4616236984729767,
                0.6765422821044922
            ],
            "mesh" : 0,
            "name" : "Rock1Mesh"
        },
        {
            "children" : [
                0
            ],
            "mesh" : 1,
            "name" : "Rock1Collider -colonly"
        }
    ],
    "materials" : [
        {
            "pbrMetallicRoughness" : {
                "baseColorTexture" : {
                    "texCoord" : 0,
                    "index" : 0
                }
            },
            "name" : "rock"
        }
    ],
    "meshes" : [
        {
            "primitives" : [
                {
                    "material" : 0,
                    "indices" : 3,
                    "attributes" : {
                        "NORMAL" : 0,
                        "TEXCOORD_0" : 1,
                        "POSITION" : 2
                    }
                }
            ],
            "name" : "Rock1Mesh.001"
        },
        {
            "primitives" : [
                {
                    "indices" : 6,
                    "attributes" : {
                        "NORMAL" : 4,
                        "POSITION" : 5
                    }
                }
            ],
            "name" : "Rock1Collider.001"
        }
    ],
    "textures" : [
        {
            "source" : 0,
            "sampler" : 0
        }
    ],
    "images" : [
        {
            "uri" : "rock.jpg",
            "mimeType" : "image/jpeg",
            "name" : "rock.jpg"
        }
    ],
    "accessors" : [
        {
            "componentType" : 5126,
            "type" : "VEC3",
            "bufferView" : 0,
            "count" : 66
        },
        {
            "componentType" : 5126,
            "type" : "VEC2",
            "bufferView" : 1,
            "count" : 66
        },
        {
            "type" : "VEC3",
            "min" : [
                -1.137489676475525,
                -0.014545440673828125,
                -1.3091120719909668
            ],
            "max" : [
                1.137489676475525,
                2.2168517112731934,
                1.2308024168014526
            ],
            "componentType" : 5126,
            "bufferView" : 2,
            "count" : 66
        },
        {
            "componentType" : 5123,
            "type" : "SCALAR",
            "bufferView" : 3,
            "count" : 192
        },
        {
            "componentType" : 5126,
            "type" : "VEC3",
            "bufferView" : 4,
            "count" : 56
        },
        {
            "type" : "VEC3",
            "min" : [
                -0.7836528420448303,
                0,
                -0.8929973244667053
            ],
            "max" : [
                0.7836528420448303,
                1.014704942703247,
                0.8929973244667053
            ],
            "componentType" : 5126,
            "bufferView" : 5,
            "count" : 56
        },
        {
            "componentType" : 5123,
            "type" : "SCALAR",
            "bufferView" : 6,
            "count" : 72
        }
    ],
    "bufferViews" : [
        {
            "byteLength" : 792,
            "buffer" : 0,
            "byteOffset" : 0
        },
        {
            "byteLength" : 528,
            "buffer" : 0,
            "byteOffset" : 792
        },
        {
            "byteLength" : 792,
            "buffer" : 0,
            "byteOffset" : 1320
        },
        {
            "byteLength" : 384,
            "buffer" : 0,
            "byteOffset" : 2112
        },
        {
            "byteLength" : 672,
            "buffer" : 0,
            "byteOffset" : 2496
        },
        {
            "byteLength" : 672,
            "buffer" : 0,
            "byteOffset" : 3168
        },
        {
            "byteLength" : 144,
            "buffer" : 0,
            "byteOffset" : 3840
        }
    ],
    "samplers" : [
        {
            "wrapS" : 10497,
            "wrapT" : 10497,
            "minFilter" : 9986,
            "magFilter" : 9729
        }
    ],
    "buffers" : [
        {
            "uri" : "rock_1.bin",
            "byteLength" : 3984
        }
    ]
}
