{
    "asset" : {
        "version" : "2.0",
        "generator" : "Khronos glTF Blender I/O v1.2.20"
    },
    "extensionsUsed" : [
        "KHR_materials_unlit"
    ],
    "scene" : 0,
    "scenes" : [
        {
            "nodes" : [
                1
            ],
            "name" : "Scene"
        }
    ],
    "nodes" : [
        {
            "scale" : [
                0.6765422821044922,
                0.4616236984729767,
                0.6765422821044922
            ],
            "name" : "Rock1Mesh",
            "mesh" : 0
        },
        {
            "name" : "Rock1Collider -colonly",
            "children" : [
                0
            ],
            "mesh" : 1
        }
    ],
    "materials" : [
        {
            "extensions" : {
                "KHR_materials_unlit" : {}
            },
            "pbrMetallicRoughness" : {
                "baseColorTexture" : {
                    "index" : 0,
                    "texCoord" : 0
                }
            },
            "name" : "rock2"
        }
    ],
    "meshes" : [
        {
            "primitives" : [
                {
                    "indices" : 3,
                    "attributes" : {
                        "TEXCOORD_0" : 0,
                        "POSITION" : 1,
                        "NORMAL" : 2
                    },
                    "material" : 0
                }
            ],
            "name" : "Rock1Mesh.001"
        },
        {
            "primitives" : [
                {
                    "indices" : 6,
                    "attributes" : {
                        "POSITION" : 4,
                        "NORMAL" : 5
                    }
                }
            ],
            "name" : "Rock1Collider.001"
        }
    ],
    "textures" : [
        {
            "source" : 0,
            "sampler" : 0
        }
    ],
    "images" : [
        {
            "uri" : "rock.png",
            "mimeType" : "image/png",
            "name" : "rock.png"
        }
    ],
    "accessors" : [
        {
            "bufferView" : 0,
            "type" : "VEC2",
            "count" : 80,
            "componentType" : 5126
        },
        {
            "bufferView" : 1,
            "type" : "VEC3",
            "count" : 80,
            "max" : [
                1.3793730735778809,
                2.1886816024780273,
                1.085401177406311
            ],
            "componentType" : 5126,
            "min" : [
                -1.112934947013855,
                -3.1874680519104004,
                -1.1533184051513672
            ]
        },
        {
            "bufferView" : 2,
            "type" : "VEC3",
            "count" : 80,
            "componentType" : 5126
        },
        {
            "bufferView" : 3,
            "type" : "SCALAR",
            "count" : 270,
            "componentType" : 5123
        },
        {
            "bufferView" : 4,
            "type" : "VEC3",
            "count" : 56,
            "max" : [
                0.9644224643707275,
                1.014704942703247,
                0.7740114331245422
            ],
            "componentType" : 5126,
            "min" : [
                -0.7741751074790955,
                -1.3805623054504395,
                -0.7936587929725647
            ]
        },
        {
            "bufferView" : 5,
            "type" : "VEC3",
            "count" : 56,
            "componentType" : 5126
        },
        {
            "bufferView" : 6,
            "type" : "SCALAR",
            "count" : 72,
            "componentType" : 5123
        }
    ],
    "bufferViews" : [
        {
            "byteOffset" : 0,
            "byteLength" : 640,
            "buffer" : 0
        },
        {
            "byteOffset" : 640,
            "byteLength" : 960,
            "buffer" : 0
        },
        {
            "byteOffset" : 1600,
            "byteLength" : 960,
            "buffer" : 0
        },
        {
            "byteOffset" : 2560,
            "byteLength" : 540,
            "buffer" : 0
        },
        {
            "byteOffset" : 3100,
            "byteLength" : 672,
            "buffer" : 0
        },
        {
            "byteOffset" : 3772,
            "byteLength" : 672,
            "buffer" : 0
        },
        {
            "byteOffset" : 4444,
            "byteLength" : 144,
            "buffer" : 0
        }
    ],
    "samplers" : [
        {
            "wrapT" : 10497,
            "magFilter" : 9729,
            "wrapS" : 10497,
            "minFilter" : 9986
        }
    ],
    "buffers" : [
        {
            "byteLength" : 4588,
            "uri" : "rock_1.bin"
        }
    ]
}
