{
    "asset" : {
        "version" : "2.0",
        "generator" : "Khronos glTF Blender I/O v1.2.20"
    },
    "scene" : 0,
    "scenes" : [
        {
            "name" : "Scene",
            "nodes" : [
                0
            ]
        }
    ],
    "nodes" : [
        {
            "name" : "SharedRock",
            "mesh" : 0
        }
    ],
    "materials" : [
        {
            "name" : "rock2",
            "doubleSided" : true,
            "pbrMetallicRoughness" : {
                "baseColorTexture" : {
                    "index" : 0,
                    "texCoord" : 0
                }
            }
        }
    ],
    "meshes" : [
        {
            "name" : "SharedRock",
            "primitives" : [
                {
                    "indices" : 3,
                    "attributes" : {
                        "POSITION" : 0,
                        "NORMAL" : 1,
                        "TEXCOORD_0" : 2
                    },
                    "material" : 0
                }
            ]
        }
    ],
    "textures" : [
        {
            "sampler" : 0,
            "source" : 0
        }
    ],
    "images" : [
        {
            "mimeType" : "image/png",
            "name" : "rock.png",
            "bufferView" : 4
        }
    ],
    "accessors" : [
        {
            "count" : 80,
            "min" : [
                -0.8757732510566711,
                -0.6897382736206055,
                -0.6440266966819763
            ],
            "max" : [
                0.8426247835159302,
                0.06210985779762268,
                0.8995270729064941
            ],
            "bufferView" : 0,
            "type" : "VEC3",
            "componentType" : 5126
        },
        {
            "bufferView" : 1,
            "count" : 80,
            "type" : "VEC3",
            "componentType" : 5126
        },
        {
            "bufferView" : 2,
            "count" : 80,
            "type" : "VEC2",
            "componentType" : 5126
        },
        {
            "bufferView" : 3,
            "count" : 252,
            "type" : "SCALAR",
            "componentType" : 5123
        }
    ],
    "bufferViews" : [
        {
            "buffer" : 0,
            "byteOffset" : 0,
            "byteLength" : 960
        },
        {
            "buffer" : 0,
            "byteOffset" : 960,
            "byteLength" : 960
        },
        {
            "buffer" : 0,
            "byteOffset" : 1920,
            "byteLength" : 640
        },
        {
            "buffer" : 0,
            "byteOffset" : 2560,
            "byteLength" : 504
        },
        {
            "buffer" : 0,
            "byteOffset" : 3064,
            "byteLength" : 56079
        }
    ],
    "samplers" : [
        {
            "minFilter" : 9986,
            "wrapS" : 10497,
            "magFilter" : 9729,
            "wrapT" : 10497
        }
    ],
    "buffers" : [
        {
            "byteLength" : 59144,
            "uri" : "data:application/octet-stream;base64,"
        }
    ]
}
