{
    "asset" : {
        "generator" : "Khronos glTF Blender I/O v1.2.20",
        "version" : "2.0"
    },
    "extensionsUsed" : [
        "KHR_materials_unlit"
    ],
    "scene" : 0,
    "scenes" : [
        {
            "name" : "Scene",
            "nodes" : [
                0
            ]
        }
    ],
    "nodes" : [
        {
            "scale" : [
                0.6765422821044922,
                0.4616236984729767,
                0.6765422821044922
            ],
            "name" : "spyne_vine",
            "mesh" : 0
        }
    ],
    "materials" : [
        {
            "extensions" : {
                "KHR_materials_unlit" : {}
            },
            "pbrMetallicRoughness" : {
                "baseColorTexture" : {
                    "texCoord" : 0,
                    "index" : 0
                }
            },
            "name" : "strawberry"
        }
    ],
    "meshes" : [
        {
            "name" : "spyne_vineMesh.001",
            "primitives" : [
                {
                    "attributes" : {
                        "TEXCOORD_0" : 0,
                        "POSITION" : 1,
                        "NORMAL" : 2
                    },
                    "indices" : 3,
                    "material" : 0
                }
            ]
        }
    ],
    "textures" : [
        {
            "sampler" : 0,
            "source" : 0
        }
    ],
    "images" : [
        {
            "name" : "strawberry.png",
            "uri" : "strawberry.png",
            "mimeType" : "image/png"
        }
    ],
    "accessors" : [
        {
            "type" : "VEC2",
            "componentType" : 5126,
            "count" : 1370,
            "bufferView" : 0
        },
        {
            "componentType" : 5126,
            "bufferView" : 1,
            "min" : [
                -1.601540207862854,
                0.9813819527626038,
                -1.8094992637634277
            ],
            "type" : "VEC3",
            "max" : [
                1.5158673524856567,
                2.6951444149017334,
                1.6346389055252075
            ],
            "count" : 1370
        },
        {
            "type" : "VEC3",
            "componentType" : 5126,
            "count" : 1370,
            "bufferView" : 2
        },
        {
            "type" : "SCALAR",
            "componentType" : 5123,
            "count" : 1800,
            "bufferView" : 3
        }
    ],
    "bufferViews" : [
        {
            "byteOffset" : 0,
            "byteLength" : 10960,
            "buffer" : 0
        },
        {
            "byteOffset" : 10960,
            "byteLength" : 16440,
            "buffer" : 0
        },
        {
            "byteOffset" : 27400,
            "byteLength" : 16440,
            "buffer" : 0
        },
        {
            "byteOffset" : 43840,
            "byteLength" : 3600,
            "buffer" : 0
        }
    ],
    "samplers" : [
        {
            "magFilter" : 9729,
            "minFilter" : 9986,
            "wrapS" : 10497,
            "wrapT" : 10497
        }
    ],
    "buffers" : [
        {
            "byteLength" : 47440,
            "uri" : "spyne_vine.bin"
        }
    ]
}
