{
    "asset" : {
        "version" : "2.0",
        "generator" : "Khronos glTF Blender I/O v1.2.20"
    },
    "extensionsUsed" : [
        "KHR_materials_unlit"
    ],
    "scene" : 0,
    "scenes" : [
        {
            "name" : "Scene",
            "nodes" : [
                0
            ]
        }
    ],
    "nodes" : [
        {
            "name" : "StrawberryMesh",
            "mesh" : 0,
            "scale" : [
                1.0153348445892334,
                1.0153348445892334,
                1.0153348445892334
            ]
        }
    ],
    "materials" : [
        {
            "name" : "strawberry",
            "extensions" : {
                "KHR_materials_unlit" : {}
            },
            "pbrMetallicRoughness" : {
                "baseColorTexture" : {
                    "texCoord" : 0,
                    "index" : 0
                }
            }
        }
    ],
    "meshes" : [
        {
            "name" : "StrawberryMesh.001",
            "primitives" : [
                {
                    "attributes" : {
                        "POSITION" : 0,
                        "TEXCOORD_0" : 1,
                        "NORMAL" : 2
                    },
                    "material" : 0,
                    "indices" : 3
                }
            ]
        }
    ],
    "textures" : [
        {
            "sampler" : 0,
            "source" : 0
        }
    ],
    "images" : [
        {
            "name" : "strawberry.png",
            "mimeType" : "image/png",
            "uri" : "strawberry.png"
        }
    ],
    "accessors" : [
        {
            "max" : [
                0.47527289390563965,
                1.4313334226608276,
                0.4826456904411316
            ],
            "componentType" : 5126,
            "bufferView" : 0,
            "min" : [
                -0.47527289390563965,
                0.01310741901397705,
                -0.4826456904411316
            ],
            "count" : 179,
            "type" : "VEC3"
        },
        {
            "bufferView" : 1,
            "componentType" : 5126,
            "count" : 179,
            "type" : "VEC2"
        },
        {
            "bufferView" : 2,
            "componentType" : 5126,
            "count" : 179,
            "type" : "VEC3"
        },
        {
            "bufferView" : 3,
            "componentType" : 5123,
            "count" : 540,
            "type" : "SCALAR"
        }
    ],
    "bufferViews" : [
        {
            "byteOffset" : 0,
            "buffer" : 0,
            "byteLength" : 2148
        },
        {
            "byteOffset" : 2148,
            "buffer" : 0,
            "byteLength" : 1432
        },
        {
            "byteOffset" : 3580,
            "buffer" : 0,
            "byteLength" : 2148
        },
        {
            "byteOffset" : 5728,
            "buffer" : 0,
            "byteLength" : 1080
        }
    ],
    "samplers" : [
        {
            "wrapS" : 10497,
            "wrapT" : 10497,
            "magFilter" : 9729,
            "minFilter" : 9986
        }
    ],
    "buffers" : [
        {
            "uri" : "strawberry.bin",
            "byteLength" : 6808
        }
    ]
}
