{
    "asset" : {
        "version" : "2.0",
        "generator" : "Khronos glTF Blender I/O v1.2.20"
    },
    "extensionsUsed" : [
        "KHR_materials_unlit"
    ],
    "scene" : 0,
    "scenes" : [
        {
            "name" : "Scene",
            "nodes" : [
                0
            ]
        }
    ],
    "nodes" : [
        {
            "name" : "StrawberryMesh",
            "scale" : [
                1.0153348445892334,
                1.0153348445892334,
                1.0153348445892334
            ],
            "mesh" : 0
        }
    ],
    "materials" : [
        {
            "name" : "strawberry",
            "extensions" : {
                "KHR_materials_unlit" : {}
            },
            "pbrMetallicRoughness" : {
                "baseColorTexture" : {
                    "texCoord" : 0,
                    "index" : 0
                }
            }
        }
    ],
    "meshes" : [
        {
            "name" : "StrawberryMesh.001",
            "primitives" : [
                {
                    "attributes" : {
                        "POSITION" : 0,
                        "NORMAL" : 1,
                        "TEXCOORD_0" : 2
                    },
                    "material" : 0,
                    "indices" : 3
                }
            ]
        }
    ],
    "textures" : [
        {
            "sampler" : 0,
            "source" : 0
        }
    ],
    "images" : [
        {
            "name" : "strawberry.png",
            "mimeType" : "image/png",
            "uri" : "strawberry.png"
        }
    ],
    "accessors" : [
        {
            "count" : 382,
            "componentType" : 5126,
            "type" : "VEC3",
            "min" : [
                -0.47527289390563965,
                0.01310741901397705,
                -0.4826456904411316
            ],
            "bufferView" : 0,
            "max" : [
                0.47527289390563965,
                1.4313334226608276,
                0.4826456904411316
            ]
        },
        {
            "componentType" : 5126,
            "count" : 382,
            "type" : "VEC3",
            "bufferView" : 1
        },
        {
            "componentType" : 5126,
            "count" : 382,
            "type" : "VEC2",
            "bufferView" : 2
        },
        {
            "componentType" : 5123,
            "count" : 540,
            "type" : "SCALAR",
            "bufferView" : 3
        }
    ],
    "bufferViews" : [
        {
            "buffer" : 0,
            "byteLength" : 4584,
            "byteOffset" : 0
        },
        {
            "buffer" : 0,
            "byteLength" : 4584,
            "byteOffset" : 4584
        },
        {
            "buffer" : 0,
            "byteLength" : 3056,
            "byteOffset" : 9168
        },
        {
            "buffer" : 0,
            "byteLength" : 1080,
            "byteOffset" : 12224
        }
    ],
    "samplers" : [
        {
            "wrapT" : 10497,
            "minFilter" : 9986,
            "wrapS" : 10497,
            "magFilter" : 9729
        }
    ],
    "buffers" : [
        {
            "byteLength" : 13304,
            "uri" : "strawberry.bin"
        }
    ]
}
