{
    "asset" : {
        "generator" : "Khronos glTF Blender I/O v1.2.20",
        "version" : "2.0"
    },
    "extensionsUsed" : [
        "KHR_materials_unlit"
    ],
    "scene" : 0,
    "scenes" : [
        {
            "nodes" : [
                1
            ],
            "name" : "Scene"
        }
    ],
    "nodes" : [
        {
            "name" : "Tree2Mesh",
            "scale" : [
                1.0153348445892334,
                1.0153348445892334,
                1.0153348445892334
            ],
            "mesh" : 0
        },
        {
            "children" : [
                0
            ],
            "name" : "Tree2Collider -colonly",
            "mesh" : 1
        }
    ],
    "materials" : [
        {
            "extensions" : {
                "KHR_materials_unlit" : {}
            },
            "name" : "tree_trunk",
            "pbrMetallicRoughness" : {
                "baseColorTexture" : {
                    "index" : 0,
                    "texCoord" : 0
                }
            }
        },
        {
            "extensions" : {
                "KHR_materials_unlit" : {}
            },
            "name" : "tree_leaves",
            "pbrMetallicRoughness" : {
                "baseColorTexture" : {
                    "index" : 1,
                    "texCoord" : 0
                }
            }
        }
    ],
    "meshes" : [
        {
            "primitives" : [
                {
                    "attributes" : {
                        "POSITION" : 0,
                        "NORMAL" : 1,
                        "TEXCOORD_0" : 2
                    },
                    "material" : 0,
                    "indices" : 3
                },
                {
                    "attributes" : {
                        "POSITION" : 4,
                        "NORMAL" : 5,
                        "TEXCOORD_0" : 6
                    },
                    "material" : 1,
                    "indices" : 7
                }
            ],
            "name" : "Tree2Mesh.001"
        },
        {
            "primitives" : [
                {
                    "attributes" : {
                        "POSITION" : 8,
                        "NORMAL" : 9
                    },
                    "indices" : 10
                }
            ],
            "name" : "Tree2Collider.001"
        }
    ],
    "textures" : [
        {
            "sampler" : 0,
            "source" : 0
        },
        {
            "sampler" : 1,
            "source" : 1
        }
    ],
    "images" : [
        {
            "mimeType" : "image/png",
            "name" : "tree_trunk.png",
            "uri" : "tree_trunk.png"
        },
        {
            "mimeType" : "image/png",
            "name" : "tree_leaves.png",
            "uri" : "tree_leaves.png"
        }
    ],
    "accessors" : [
        {
            "componentType" : 5126,
            "bufferView" : 0,
            "max" : [
                1.21004056930542,
                2.373351573944092,
                1.6493183374404907
            ],
            "type" : "VEC3",
            "count" : 201,
            "min" : [
                -0.9272839426994324,
                -0.16639262437820435,
                -0.5463486313819885
            ]
        },
        {
            "componentType" : 5126,
            "bufferView" : 1,
            "count" : 201,
            "type" : "VEC3"
        },
        {
            "componentType" : 5126,
            "bufferView" : 2,
            "count" : 201,
            "type" : "VEC2"
        },
        {
            "componentType" : 5123,
            "bufferView" : 3,
            "count" : 681,
            "type" : "SCALAR"
        },
        {
            "componentType" : 5126,
            "bufferView" : 4,
            "max" : [
                1.7200183868408203,
                4.070228576660156,
                1.8704099655151367
            ],
            "type" : "VEC3",
            "count" : 275,
            "min" : [
                -1.7983338832855225,
                1.1481168270111084,
                -1.3507565259933472
            ]
        },
        {
            "componentType" : 5126,
            "bufferView" : 5,
            "count" : 275,
            "type" : "VEC3"
        },
        {
            "componentType" : 5126,
            "bufferView" : 6,
            "count" : 275,
            "type" : "VEC2"
        },
        {
            "componentType" : 5123,
            "bufferView" : 7,
            "count" : 1200,
            "type" : "SCALAR"
        },
        {
            "componentType" : 5126,
            "bufferView" : 8,
            "max" : [
                0.717147946357727,
                4.156194686889648,
                0.9910166263580322
            ],
            "type" : "VEC3",
            "count" : 24,
            "min" : [
                -0.6538834571838379,
                0,
                -0.5126624703407288
            ]
        },
        {
            "componentType" : 5126,
            "bufferView" : 9,
            "count" : 24,
            "type" : "VEC3"
        },
        {
            "componentType" : 5123,
            "bufferView" : 10,
            "count" : 36,
            "type" : "SCALAR"
        }
    ],
    "bufferViews" : [
        {
            "byteLength" : 2412,
            "byteOffset" : 0,
            "buffer" : 0
        },
        {
            "byteLength" : 2412,
            "byteOffset" : 2412,
            "buffer" : 0
        },
        {
            "byteLength" : 1608,
            "byteOffset" : 4824,
            "buffer" : 0
        },
        {
            "byteLength" : 1362,
            "byteOffset" : 6432,
            "buffer" : 0
        },
        {
            "byteLength" : 3300,
            "byteOffset" : 7796,
            "buffer" : 0
        },
        {
            "byteLength" : 3300,
            "byteOffset" : 11096,
            "buffer" : 0
        },
        {
            "byteLength" : 2200,
            "byteOffset" : 14396,
            "buffer" : 0
        },
        {
            "byteLength" : 2400,
            "byteOffset" : 16596,
            "buffer" : 0
        },
        {
            "byteLength" : 288,
            "byteOffset" : 18996,
            "buffer" : 0
        },
        {
            "byteLength" : 288,
            "byteOffset" : 19284,
            "buffer" : 0
        },
        {
            "byteLength" : 72,
            "byteOffset" : 19572,
            "buffer" : 0
        }
    ],
    "samplers" : [
        {
            "wrapT" : 10497,
            "wrapS" : 10497,
            "magFilter" : 9729,
            "minFilter" : 9986
        },
        {
            "wrapT" : 10497,
            "wrapS" : 10497,
            "magFilter" : 9729,
            "minFilter" : 9986
        }
    ],
    "buffers" : [
        {
            "byteLength" : 19644,
            "uri" : "tree_2.bin"
        }
    ]
}
