{
    "asset" : {
        "version" : "2.0",
        "generator" : "Khronos glTF Blender I/O v1.2.20"
    },
    "extensionsUsed" : [
        "KHR_materials_unlit"
    ],
    "scene" : 0,
    "scenes" : [
        {
            "nodes" : [
                1
            ],
            "name" : "Scene"
        }
    ],
    "nodes" : [
        {
            "mesh" : 0,
            "scale" : [
                1.0153348445892334,
                1.0153348445892334,
                1.0153348445892334
            ],
            "name" : "Tree3Mesh"
        },
        {
            "mesh" : 1,
            "children" : [
                0
            ],
            "name" : "Tree3Collider -colonly"
        }
    ],
    "materials" : [
        {
            "name" : "tree_trunk",
            "pbrMetallicRoughness" : {
                "baseColorTexture" : {
                    "texCoord" : 0,
                    "index" : 0
                }
            },
            "extensions" : {
                "KHR_materials_unlit" : {}
            }
        }
    ],
    "meshes" : [
        {
            "primitives" : [
                {
                    "material" : 0,
                    "attributes" : {
                        "TEXCOORD_0" : 0,
                        "NORMAL" : 1,
                        "POSITION" : 2
                    },
                    "indices" : 3
                }
            ],
            "name" : "Tree3Mesh.001"
        },
        {
            "primitives" : [
                {
                    "attributes" : {
                        "NORMAL" : 4,
                        "POSITION" : 5
                    },
                    "indices" : 6
                }
            ],
            "name" : "Tree3Collider.001"
        }
    ],
    "textures" : [
        {
            "sampler" : 0,
            "source" : 0
        }
    ],
    "images" : [
        {
            "mimeType" : "image/png",
            "uri" : "tree_trunk.png",
            "name" : "tree_trunk.png"
        }
    ],
    "accessors" : [
        {
            "count" : 106,
            "bufferView" : 0,
            "componentType" : 5126,
            "type" : "VEC2"
        },
        {
            "count" : 106,
            "bufferView" : 1,
            "componentType" : 5126,
            "type" : "VEC3"
        },
        {
            "bufferView" : 2,
            "type" : "VEC3",
            "componentType" : 5126,
            "min" : [
                -0.7118775844573975,
                -0.11333400011062622,
                -0.23724664747714996
            ],
            "count" : 106,
            "max" : [
                1.0036410093307495,
                0.9003756642341614,
                1.472605586051941
            ]
        },
        {
            "count" : 351,
            "bufferView" : 3,
            "componentType" : 5123,
            "type" : "SCALAR"
        },
        {
            "count" : 24,
            "bufferView" : 4,
            "componentType" : 5126,
            "type" : "VEC3"
        },
        {
            "bufferView" : 5,
            "type" : "VEC3",
            "componentType" : 5126,
            "min" : [
                -0.5101549625396729,
                0,
                -0.5126624703407288
            ],
            "count" : 24,
            "max" : [
                0.717147946357727,
                0.890995442867279,
                0.9910166263580322
            ]
        },
        {
            "count" : 36,
            "bufferView" : 6,
            "componentType" : 5123,
            "type" : "SCALAR"
        }
    ],
    "bufferViews" : [
        {
            "buffer" : 0,
            "byteOffset" : 0,
            "byteLength" : 848
        },
        {
            "buffer" : 0,
            "byteOffset" : 848,
            "byteLength" : 1272
        },
        {
            "buffer" : 0,
            "byteOffset" : 2120,
            "byteLength" : 1272
        },
        {
            "buffer" : 0,
            "byteOffset" : 3392,
            "byteLength" : 702
        },
        {
            "buffer" : 0,
            "byteOffset" : 4096,
            "byteLength" : 288
        },
        {
            "buffer" : 0,
            "byteOffset" : 4384,
            "byteLength" : 288
        },
        {
            "buffer" : 0,
            "byteOffset" : 4672,
            "byteLength" : 72
        }
    ],
    "samplers" : [
        {
            "magFilter" : 9729,
            "minFilter" : 9986,
            "wrapS" : 10497,
            "wrapT" : 10497
        }
    ],
    "buffers" : [
        {
            "uri" : "tree_3.bin",
            "byteLength" : 4744
        }
    ]
}
