{
    "asset" : {
        "generator" : "Khronos glTF Blender I/O v1.2.20",
        "version" : "2.0"
    },
    "extensionsUsed" : [
        "KHR_materials_unlit"
    ],
    "scene" : 0,
    "scenes" : [
        {
            "nodes" : [
                1
            ],
            "name" : "Scene"
        }
    ],
    "nodes" : [
        {
            "name" : "Tree1Mesh",
            "scale" : [
                1.0153348445892334,
                1.0153348445892334,
                1.0153348445892334
            ],
            "mesh" : 0
        },
        {
            "children" : [
                0
            ],
            "name" : "Tree1Collider -colonly",
            "mesh" : 1
        }
    ],
    "materials" : [
        {
            "extensions" : {
                "KHR_materials_unlit" : {}
            },
            "name" : "tree_trunk",
            "pbrMetallicRoughness" : {
                "baseColorTexture" : {
                    "index" : 0,
                    "texCoord" : 0
                }
            }
        },
        {
            "extensions" : {
                "KHR_materials_unlit" : {}
            },
            "name" : "tree_leaves",
            "pbrMetallicRoughness" : {
                "baseColorTexture" : {
                    "index" : 1,
                    "texCoord" : 0
                }
            }
        }
    ],
    "meshes" : [
        {
            "primitives" : [
                {
                    "attributes" : {
                        "POSITION" : 0,
                        "NORMAL" : 1,
                        "TEXCOORD_0" : 2
                    },
                    "material" : 0,
                    "indices" : 3
                },
                {
                    "attributes" : {
                        "POSITION" : 4,
                        "NORMAL" : 5,
                        "TEXCOORD_0" : 6
                    },
                    "material" : 1,
                    "indices" : 7
                }
            ],
            "name" : "Tree1Mesh.001"
        },
        {
            "primitives" : [
                {
                    "attributes" : {
                        "POSITION" : 8,
                        "NORMAL" : 9
                    },
                    "indices" : 10
                }
            ],
            "name" : "Tree1Collider.001"
        }
    ],
    "textures" : [
        {
            "sampler" : 0,
            "source" : 0
        },
        {
            "sampler" : 1,
            "source" : 1
        }
    ],
    "images" : [
        {
            "mimeType" : "image/png",
            "name" : "tree_trunk.png",
            "uri" : "tree_trunk.png"
        },
        {
            "mimeType" : "image/png",
            "name" : "tree_leaves.png",
            "uri" : "tree_leaves.png"
        }
    ],
    "accessors" : [
        {
            "componentType" : 5126,
            "bufferView" : 0,
            "max" : [
                1.1773320436477661,
                3.593884229660034,
                1.8109161853790283
            ],
            "type" : "VEC3",
            "count" : 482,
            "min" : [
                -1.5848839282989502,
                -0.11333400011062622,
                -1.192311406135559
            ]
        },
        {
            "componentType" : 5126,
            "bufferView" : 1,
            "count" : 482,
            "type" : "VEC3"
        },
        {
            "componentType" : 5126,
            "bufferView" : 2,
            "count" : 482,
            "type" : "VEC2"
        },
        {
            "componentType" : 5123,
            "bufferView" : 3,
            "count" : 2061,
            "type" : "SCALAR"
        },
        {
            "componentType" : 5126,
            "bufferView" : 4,
            "max" : [
                1.6822130680084229,
                4.564754486083984,
                2.1469926834106445
            ],
            "type" : "VEC3",
            "count" : 220,
            "min" : [
                -2.653535842895508,
                1.3379101753234863,
                -1.6208651065826416
            ]
        },
        {
            "componentType" : 5126,
            "bufferView" : 5,
            "count" : 220,
            "type" : "VEC3"
        },
        {
            "componentType" : 5126,
            "bufferView" : 6,
            "count" : 220,
            "type" : "VEC2"
        },
        {
            "componentType" : 5123,
            "bufferView" : 7,
            "count" : 960,
            "type" : "SCALAR"
        },
        {
            "componentType" : 5126,
            "bufferView" : 8,
            "max" : [
                0.717147946357727,
                5.0376996994018555,
                0.9910166263580322
            ],
            "type" : "VEC3",
            "count" : 24,
            "min" : [
                -0.7925688028335571,
                0,
                -0.5126624703407288
            ]
        },
        {
            "componentType" : 5126,
            "bufferView" : 9,
            "count" : 24,
            "type" : "VEC3"
        },
        {
            "componentType" : 5123,
            "bufferView" : 10,
            "count" : 36,
            "type" : "SCALAR"
        }
    ],
    "bufferViews" : [
        {
            "byteLength" : 5784,
            "byteOffset" : 0,
            "buffer" : 0
        },
        {
            "byteLength" : 5784,
            "byteOffset" : 5784,
            "buffer" : 0
        },
        {
            "byteLength" : 3856,
            "byteOffset" : 11568,
            "buffer" : 0
        },
        {
            "byteLength" : 4122,
            "byteOffset" : 15424,
            "buffer" : 0
        },
        {
            "byteLength" : 2640,
            "byteOffset" : 19548,
            "buffer" : 0
        },
        {
            "byteLength" : 2640,
            "byteOffset" : 22188,
            "buffer" : 0
        },
        {
            "byteLength" : 1760,
            "byteOffset" : 24828,
            "buffer" : 0
        },
        {
            "byteLength" : 1920,
            "byteOffset" : 26588,
            "buffer" : 0
        },
        {
            "byteLength" : 288,
            "byteOffset" : 28508,
            "buffer" : 0
        },
        {
            "byteLength" : 288,
            "byteOffset" : 28796,
            "buffer" : 0
        },
        {
            "byteLength" : 72,
            "byteOffset" : 29084,
            "buffer" : 0
        }
    ],
    "samplers" : [
        {
            "wrapT" : 10497,
            "wrapS" : 10497,
            "magFilter" : 9729,
            "minFilter" : 9986
        },
        {
            "wrapT" : 10497,
            "wrapS" : 10497,
            "magFilter" : 9729,
            "minFilter" : 9986
        }
    ],
    "buffers" : [
        {
            "byteLength" : 29156,
            "uri" : "tree_1.bin"
        }
    ]
}
