{
    "asset" : {
        "generator" : "Khronos glTF Blender I/O v1.2.20",
        "version" : "2.0"
    },
    "extensionsUsed" : [
        "KHR_materials_unlit"
    ],
    "scene" : 0,
    "scenes" : [
        {
            "name" : "Scene",
            "nodes" : [
                1
            ]
        }
    ],
    "nodes" : [
        {
            "scale" : [
                1.0153348445892334,
                1.0153348445892334,
                1.0153348445892334
            ],
            "name" : "Tree1Mesh.001",
            "mesh" : 0
        },
        {
            "name" : "Tree1Collider -colonly.001",
            "children" : [
                0
            ],
            "mesh" : 1
        }
    ],
    "materials" : [
        {
            "name" : "leaves",
            "extensions" : {
                "KHR_materials_unlit" : {}
            },
            "pbrMetallicRoughness" : {
                "baseColorTexture" : {
                    "index" : 0,
                    "texCoord" : 0
                }
            }
        },
        {
            "name" : "new",
            "extensions" : {
                "KHR_materials_unlit" : {}
            },
            "pbrMetallicRoughness" : {
                "baseColorTexture" : {
                    "index" : 1,
                    "texCoord" : 0
                }
            }
        }
    ],
    "meshes" : [
        {
            "primitives" : [
                {
                    "material" : 0,
                    "attributes" : {
                        "TEXCOORD_0" : 0,
                        "POSITION" : 1,
                        "NORMAL" : 2
                    },
                    "indices" : 3
                },
                {
                    "material" : 1,
                    "attributes" : {
                        "TEXCOORD_0" : 4,
                        "POSITION" : 5,
                        "NORMAL" : 6
                    },
                    "indices" : 7
                }
            ],
            "name" : "Tree1Mesh.000"
        },
        {
            "primitives" : [
                {
                    "attributes" : {
                        "POSITION" : 8,
                        "NORMAL" : 9
                    },
                    "indices" : 10
                }
            ],
            "name" : "Tree1Collider.000"
        }
    ],
    "textures" : [
        {
            "sampler" : 0,
            "source" : 0
        },
        {
            "sampler" : 1,
            "source" : 1
        }
    ],
    "images" : [
        {
            "name" : "tree",
            "mimeType" : "image/png",
            "uri" : "tree.png"
        },
        {
            "name" : "newtree",
            "mimeType" : "image/png",
            "uri" : "newtree.png"
        }
    ],
    "accessors" : [
        {
            "bufferView" : 0,
            "componentType" : 5126,
            "type" : "VEC2",
            "count" : 201
        },
        {
            "bufferView" : 1,
            "componentType" : 5126,
            "type" : "VEC3",
            "count" : 201,
            "max" : [
                1.21004056930542,
                2.373351573944092,
                1.6493183374404907
            ],
            "min" : [
                -0.9272839426994324,
                -0.16639262437820435,
                -0.5463486313819885
            ]
        },
        {
            "bufferView" : 2,
            "componentType" : 5126,
            "type" : "VEC3",
            "count" : 201
        },
        {
            "bufferView" : 3,
            "componentType" : 5123,
            "type" : "SCALAR",
            "count" : 681
        },
        {
            "bufferView" : 4,
            "componentType" : 5126,
            "type" : "VEC2",
            "count" : 275
        },
        {
            "bufferView" : 5,
            "componentType" : 5126,
            "type" : "VEC3",
            "count" : 275,
            "max" : [
                1.7200183868408203,
                4.070228576660156,
                1.8704099655151367
            ],
            "min" : [
                -1.7983338832855225,
                1.1481168270111084,
                -1.3507565259933472
            ]
        },
        {
            "bufferView" : 6,
            "componentType" : 5126,
            "type" : "VEC3",
            "count" : 275
        },
        {
            "bufferView" : 7,
            "componentType" : 5123,
            "type" : "SCALAR",
            "count" : 1200
        },
        {
            "bufferView" : 8,
            "componentType" : 5126,
            "type" : "VEC3",
            "count" : 24,
            "max" : [
                0.717147946357727,
                5.0376996994018555,
                0.9910166263580322
            ],
            "min" : [
                -0.7925688028335571,
                0,
                -0.5126624703407288
            ]
        },
        {
            "bufferView" : 9,
            "componentType" : 5126,
            "type" : "VEC3",
            "count" : 24
        },
        {
            "bufferView" : 10,
            "componentType" : 5123,
            "type" : "SCALAR",
            "count" : 36
        }
    ],
    "bufferViews" : [
        {
            "byteOffset" : 0,
            "buffer" : 0,
            "byteLength" : 1608
        },
        {
            "byteOffset" : 1608,
            "buffer" : 0,
            "byteLength" : 2412
        },
        {
            "byteOffset" : 4020,
            "buffer" : 0,
            "byteLength" : 2412
        },
        {
            "byteOffset" : 6432,
            "buffer" : 0,
            "byteLength" : 1362
        },
        {
            "byteOffset" : 7796,
            "buffer" : 0,
            "byteLength" : 2200
        },
        {
            "byteOffset" : 9996,
            "buffer" : 0,
            "byteLength" : 3300
        },
        {
            "byteOffset" : 13296,
            "buffer" : 0,
            "byteLength" : 3300
        },
        {
            "byteOffset" : 16596,
            "buffer" : 0,
            "byteLength" : 2400
        },
        {
            "byteOffset" : 18996,
            "buffer" : 0,
            "byteLength" : 288
        },
        {
            "byteOffset" : 19284,
            "buffer" : 0,
            "byteLength" : 288
        },
        {
            "byteOffset" : 19572,
            "buffer" : 0,
            "byteLength" : 72
        }
    ],
    "samplers" : [
        {
            "wrapT" : 10497,
            "magFilter" : 9729,
            "minFilter" : 9986,
            "wrapS" : 10497
        },
        {
            "wrapT" : 10497,
            "magFilter" : 9729,
            "minFilter" : 9986,
            "wrapS" : 10497
        }
    ],
    "buffers" : [
        {
            "uri" : "tree_2.bin",
            "byteLength" : 19644
        }
    ]
}
