<?xml version="1.0" encoding="UTF-8" standalone="no"?>
<!-- Uploaded to: SVG Repo, www.svgrepo.com, Generator: SVG Repo Mixer Tools -->

<svg
   width="800px"
   height="800px"
   viewBox="0 0 512 512"
   aria-hidden="true"
   role="img"
   class="iconify iconify--fxemoji"
   preserveAspectRatio="xMidYMid meet"
   version="1.1"
   id="svg8"
   sodipodi:docname="icon.svg"
   inkscape:version="1.2.2 (b0a8486541, 2022-12-01)"
   xmlns:inkscape="http://www.inkscape.org/namespaces/inkscape"
   xmlns:sodipodi="http://sodipodi.sourceforge.net/DTD/sodipodi-0.dtd"
   xmlns="http://www.w3.org/2000/svg"
   xmlns:svg="http://www.w3.org/2000/svg">
  <defs
     id="defs12" />
  <sodipodi:namedview
     id="namedview10"
     pagecolor="#ffffff"
     bordercolor="#111111"
     borderopacity="1"
     inkscape:showpageshadow="0"
     inkscape:pageopacity="0"
     inkscape:pagecheckerboard="1"
     inkscape:deskcolor="#d1d1d1"
     showgrid="false"
     inkscape:zoom="0.59131805"
     inkscape:cx="270.58197"
     inkscape:cy="400.79954"
     inkscape:window-width="1600"
     inkscape:window-height="835"
     inkscape:window-x="0"
     inkscape:window-y="0"
     inkscape:window-maximized="1"
     inkscape:current-layer="svg8" />
  <path
     fill="#ff1a1a"
     d="M 408.86456,184.71529 C 343.23663,119.08735 164.53285,13.255005 120.61165,165.78909 76.690458,318.32318 -11.92802,381.76276 64.009934,457.70071 139.94789,533.63866 620.71932,396.56917 408.86456,184.71529 Z"
     id="path2"
     style="stroke-width:0.87992" />
  <path
     fill="#ff5c5c"
     d="m 200.50836,151.61711 c 0,0 -0.073,0.19094 -0.22525,0.51739 -0.16015,0.30885 -0.36605,0.82448 -0.68194,1.36387 -0.31061,0.55171 -0.67226,1.25477 -1.13158,1.96663 a 37.424747,37.424747 0 0 1 -1.57594,2.31858 39.865644,39.865644 0 0 1 -1.98509,2.48578 45.141643,45.141643 0 0 1 -2.33971,2.50865 44.39987,44.39987 0 0 1 -5.4907,4.5835 37.482821,37.482821 0 0 1 -5.99841,3.49856 c -2.0027,0.92656 -3.96844,1.58562 -5.72828,1.99126 a 27.058412,27.058412 0 0 1 -2.45234,0.4426 c -0.74881,0.0915 -1.41403,0.14519 -1.9763,0.15838 -1.11925,0.0378 -1.81351,-0.059 -1.81351,-0.059 -4.85804,-0.67314 -8.25101,-5.15809 -7.57699,-10.01701 a 9.0499746,9.0499746 0 0 1 1.26708,-3.48976 c 0,0 0.37221,-0.59482 1.11838,-1.42899 0.37133,-0.42236 0.83857,-0.8984 1.3894,-1.41403 a 27.535329,27.535329 0 0 1 1.91294,-1.59705 c 1.43955,-1.08934 3.20643,-2.17428 5.20297,-3.1158 1.99389,-0.94591 4.21657,-1.75104 6.53164,-2.35642 a 44.552977,44.552977 0 0 1 7.03936,-1.27061 45.386261,45.386261 0 0 1 3.42553,-0.18478 39.649184,39.649184 0 0 1 3.18003,0.0721 c 1.00398,0.0634 1.94198,0.16015 2.78934,0.27806 0.8412,0.10471 1.61201,0.27893 2.235,0.3942 0.61682,0.10295 1.14477,0.27718 1.48354,0.35197 0.34757,0.0933 0.54115,0.15926 0.54115,0.15926 a 1.4122712,1.4122712 0 0 1 0.87552,1.79504 z m 149.05489,97.77404 c 0,0 -0.13815,0.12935 -0.36165,0.37132 -0.20414,0.2411 -0.57282,0.59747 -0.91335,1.04623 -0.35373,0.44964 -0.82009,0.99607 -1.25037,1.61905 a 31.763343,31.763343 0 0 0 -2.69519,4.55711 c -0.425,0.87376 -0.82713,1.79327 -1.19229,2.74271 a 33.296163,33.296163 0 0 0 -1.63314,5.9289 c -0.36604,2.01237 -0.51035,4.01683 -0.43556,5.8893 0.0704,1.87247 0.36341,3.61295 0.79017,5.09825 0.2191,0.74266 0.45492,1.42195 0.70394,2.02382 0.25429,0.60098 0.50507,1.12366 0.74529,1.55306 0.469,0.85968 0.86584,1.34627 0.86584,1.34627 a 9.725753,9.725753 0 0 0 1.82407,1.70705 c 4.21834,3.00316 10.07245,2.01765 13.07473,-2.20068 0,0 0.36429,-0.51211 0.77521,-1.40083 0.21118,-0.44436 0.42676,-0.98287 0.64058,-1.5997 0.20942,-0.61594 0.39861,-1.3102 0.56843,-2.06605 0.32733,-1.51082 0.50419,-3.26626 0.45052,-5.13961 -0.0493,-1.87335 -0.32645,-3.86373 -0.82449,-5.84707 a 33.313762,33.313762 0 0 0 -2.02205,-5.80747 35.317339,35.317339 0 0 0 -1.37092,-2.65735 31.593518,31.593518 0 0 0 -1.49146,-2.37227 30.872864,30.872864 0 0 0 -1.50026,-1.99742 c -0.47076,-0.59394 -0.97231,-1.1087 -1.35508,-1.53282 -0.36869,-0.425 -0.76113,-0.75585 -0.98023,-0.98287 -0.23934,-0.22614 -0.3854,-0.34669 -0.3854,-0.34669 a 1.5363399,1.5363399 0 0 0 -2.02734,0.0678 z m -72.03023,7.53739 c 0,0 -0.17686,-0.0669 -0.49276,-0.16102 -0.30621,-0.0766 -0.7884,-0.25166 -1.34011,-0.35901 -0.55875,-0.11967 -1.25389,-0.29741 -2.00358,-0.40916 a 31.741345,31.741345 0 0 0 -5.27424,-0.41181 34.956572,34.956572 0 0 0 -2.98381,0.13815 33.178254,33.178254 0 0 0 -6.03537,1.14566 c -1.96486,0.55787 -3.82589,1.31108 -5.47134,2.20332 -1.64721,0.88783 -3.07796,1.91734 -4.22185,2.95477 a 20.358703,20.358703 0 0 0 -1.50291,1.52314 c -0.42676,0.49275 -0.78488,0.94855 -1.06382,1.35243 -0.56403,0.79897 -0.82448,1.37004 -0.82448,1.37004 -0.32821,0.72945 -0.58955,1.55394 -0.72506,2.38106 -0.83768,5.11234 2.62656,9.93606 7.7389,10.77374 0,0 0.61946,0.10119 1.59705,0.0792 a 16.063815,16.063815 0 0 0 1.71584,-0.12935 20.312067,20.312067 0 0 0 2.10213,-0.39948 c 1.49851,-0.37133 3.151,-0.98639 4.80612,-1.85927 1.65777,-0.86936 3.31994,-1.99478 4.87828,-3.31554 a 33.199372,33.199372 0 0 0 4.31425,-4.37232 35.330538,35.330538 0 0 0 1.77743,-2.4013 31.769502,31.769502 0 0 0 2.59753,-4.60902 c 0.32469,-0.68458 0.56491,-1.36036 0.77697,-1.89095 0.21822,-0.51827 0.34229,-1.0163 0.44876,-1.31284 0.0977,-0.31413 0.14078,-0.49891 0.14078,-0.49891 a 1.5398596,1.5398596 0 0 0 -0.95471,-1.79152 z m -155.46334,41.16177 c 0,0 -0.17687,-0.0669 -0.49276,-0.16103 -0.30621,-0.0765 -0.7884,-0.25166 -1.34011,-0.35901 -0.55875,-0.11966 -1.25389,-0.29741 -2.00358,-0.40916 a 31.741345,31.741345 0 0 0 -5.27424,-0.4118 34.956572,34.956572 0 0 0 -2.98381,0.13815 33.178254,33.178254 0 0 0 -6.03537,1.14565 c -1.96486,0.55787 -3.82589,1.31108 -5.471339,2.20332 -1.647209,0.88784 -3.077959,1.91735 -4.221855,2.95477 a 20.358703,20.358703 0 0 0 -1.502902,1.52314 c -0.426762,0.49276 -0.784889,0.94856 -1.063823,1.35244 -0.564029,0.79897 -0.824485,1.37003 -0.824485,1.37003 -0.32821,0.72946 -0.589546,1.55394 -0.725054,2.38107 -0.837684,5.11233 2.62656,9.93605 7.738894,10.77373 0,0 0.619464,0.1012 1.597054,0.0792 a 16.063815,16.063815 0 0 0 1.71584,-0.12935 20.312067,20.312067 0 0 0 2.10213,-0.39948 c 1.49851,-0.37133 3.15099,-0.98639 4.80612,-1.85927 1.65777,-0.86937 3.31994,-1.99478 4.87828,-3.31554 a 33.199372,33.199372 0 0 0 4.31425,-4.37232 35.330538,35.330538 0 0 0 1.77743,-2.4013 31.769502,31.769502 0 0 0 2.59753,-4.60902 c 0.32469,-0.68458 0.5649,-1.36036 0.77697,-1.89095 0.21822,-0.51827 0.34228,-1.01631 0.44875,-1.31284 0.0977,-0.31413 0.14079,-0.49892 0.14079,-0.49892 a 1.5380997,1.5380997 0 0 0 -0.95471,-1.79151 z m 54.25849,-70.06185 c 0,0 -0.1839,-0.022 -0.50507,-0.0361 -0.30798,-8.8e-4 -0.80689,-0.0528 -1.35332,-0.0238 -0.55611,0.0185 -1.25565,0.0141 -1.98774,0.0854 a 30.15485,30.15485 0 0 0 -5.04722,0.85617 28.06328,28.06328 0 0 0 -2.74359,0.84472 c -0.93183,0.31413 -1.83375,0.70306 -2.72863,1.12102 a 29.011834,29.011834 0 0 0 -2.60192,1.38499 c -1.68065,0.99431 -3.20995,2.14964 -4.49903,3.38505 -1.29172,1.23277 -2.34059,2.54913 -3.12108,3.80302 a 16.027738,16.027738 0 0 0 -1.59441,3.33841 c -0.15751,0.43996 -0.23406,0.83504 -0.30533,1.08494 -0.0634,0.25782 -0.0827,0.41092 -0.0827,0.41092 a 10.356655,10.356655 0 0 0 -0.051,1.80648 c 0.34933,5.33495 4.95747,9.37554 10.29154,9.02622 0,0 0.15399,-0.01 0.41444,-0.059 0.25342,-0.0572 0.65202,-0.11087 1.10078,-0.24374 a 16.023339,16.023339 0 0 0 3.42289,-1.40435 c 1.29612,-0.70833 2.66968,-1.68152 3.97284,-2.90197 1.3058,-1.21781 2.5456,-2.67848 3.63231,-4.30105 a 29.068149,29.068149 0 0 0 1.5293,-2.51921 c 0.46723,-0.87024 0.90631,-1.7484 1.27236,-2.66088 a 27.73507,27.73507 0 0 0 0.99783,-2.69167 30.255161,30.255161 0 0 0 1.13862,-4.99003 c 0.11174,-0.72681 0.14694,-1.42547 0.1971,-1.97982 0.059,-0.54379 0.0352,-1.04534 0.0519,-1.35243 0.004,-0.32117 -0.008,-0.50684 -0.008,-0.50684 a 1.5803359,1.5803359 0 0 0 -1.39291,-1.4765 z m 105.65372,-41.6774 a 1.4351491,1.4351491 0 0 0 -0.41708,-1.98598 c 0,0 -0.16894,-0.10999 -0.47779,-0.28158 -0.30446,-0.15222 -0.76641,-0.44523 -1.32692,-0.68985 -0.56403,-0.2587 -1.25565,-0.60803 -2.02734,-0.90808 a 35.735301,35.735301 0 0 0 -2.57728,-0.92567 38.123403,38.123403 0 0 0 -2.99173,-0.81745 43.230457,43.230457 0 0 0 -3.27858,-0.62474 41.8833,41.8833 0 0 0 -6.93025,-0.41973 35.164233,35.164233 0 0 0 -6.68475,0.75322 c -2.09069,0.44524 -3.99572,1.08318 -5.59189,1.80295 -0.79721,0.36517 -1.5205,0.73385 -2.15404,1.10078 -0.63179,0.37133 -1.17734,0.7233 -1.61906,1.04623 -0.88607,0.63442 -1.36651,1.12453 -1.36651,1.12453 a 9.1643642,9.1643642 0 0 0 -1.91119,2.92134 c -1.85311,4.59318 0.36781,9.81814 4.96011,11.67125 0,0 0.63618,0.25694 1.70265,0.48308 0.53411,0.11879 1.17469,0.2235 1.90326,0.31061 0.72682,0.0827 1.53722,0.13023 2.4145,0.14607 1.75104,0.0194 3.75198,-0.15839 5.84619,-0.58779 a 35.180071,35.180071 0 0 0 6.42693,-1.98686 42.036406,42.036406 0 0 0 6.18232,-3.15979 42.858251,42.858251 0 0 0 2.75415,-1.88567 38.113724,38.113724 0 0 0 2.41362,-1.94638 36.039753,36.039753 0 0 0 1.99126,-1.88039 c 0.58778,-0.58339 1.08142,-1.18085 1.49498,-1.64369 0.41532,-0.44876 0.72153,-0.90192 0.93975,-1.16413 0.21382,-0.28158 0.32469,-0.44964 0.32469,-0.44964 z m 10.46577,132.06099 c 0,0 -0.14167,0.13463 -0.37309,0.38629 -0.21118,0.25166 -0.5913,0.62122 -0.94503,1.0911 -0.36781,0.46988 -0.85088,1.04094 -1.30052,1.6956 a 33.650771,33.650771 0 0 0 -1.42987,2.19804 35.039284,35.039284 0 0 0 -1.40787,2.60105 39.126511,39.126511 0 0 0 -1.27765,2.90197 37.684323,37.684323 0 0 0 -1.81879,6.30639 31.255629,31.255629 0 0 0 -0.62122,6.30462 c 0.0114,2.0115 0.24901,3.88925 0.62914,5.49774 0.19622,0.80425 0.40916,1.54162 0.6397,2.1954 0.23582,0.65378 0.469,1.22309 0.69602,1.69209 0.44084,0.93799 0.8236,1.47386 0.8236,1.47386 a 9.3447477,9.3447477 0 0 0 2.1602,2.15316 c 4.12067,2.91958 9.82871,1.94551 12.7474,-2.17604 0,0 0.38013,-0.53675 0.81921,-1.4765 0.22526,-0.46988 0.45756,-1.04007 0.69073,-1.69473 0.22878,-0.65378 0.43996,-1.39203 0.63355,-2.19716 0.37484,-1.61025 0.60714,-3.488 0.61242,-5.4995 0.01,-2.01149 -0.20414,-4.15762 -0.6397,-6.30286 a 37.631528,37.631528 0 0 0 -1.83815,-6.30111 39.4732,39.4732 0 0 0 -1.28645,-2.89845 35.099999,35.099999 0 0 0 -1.41579,-2.59664 33.575098,33.575098 0 0 0 -1.43603,-2.19364 c -0.45227,-0.65291 -0.93623,-1.22221 -1.3058,-1.69121 -0.35548,-0.469 -0.73649,-0.8368 -0.94855,-1.08846 -0.23142,-0.25078 -0.37397,-0.38541 -0.37397,-0.38541 a 1.4879443,1.4879443 0 0 0 -2.03349,0.004 z m -23.75871,73.71176 c 0,0 -0.17863,0.0792 -0.48132,0.23846 -0.28333,0.1663 -0.76553,0.38716 -1.25653,0.71097 -0.50419,0.31941 -1.15005,0.69514 -1.79327,1.1615 a 35.053363,35.053363 0 0 0 -4.28169,3.57159 39.47056,39.47056 0 0 0 -2.17692,2.30627 37.669364,37.669364 0 0 0 -3.82677,5.33232 31.254749,31.254749 0 0 0 -2.69784,5.73179 c -0.66346,1.89975 -1.06822,3.74758 -1.24948,5.39127 a 23.215803,23.215803 0 0 0 -0.13287,2.28251 c 0.003,0.69426 0.0326,1.30932 0.0889,1.8276 0.10119,1.03214 0.28157,1.6648 0.28157,1.6648 a 9.3350686,9.3350686 0 0 0 1.31373,2.75239 c 2.90461,4.13123 8.60825,5.12554 12.73947,2.22092 0,0 0.53851,-0.37836 1.26621,-1.11662 0.36956,-0.36692 0.77961,-0.82712 1.21869,-1.36475 a 23.052138,23.052138 0 0 0 1.33307,-1.85751 c 0.89312,-1.39116 1.74049,-3.08324 2.41978,-4.97683 a 31.275867,31.275867 0 0 0 1.50907,-6.1524 c 0.32117,-2.16284 0.44084,-4.39696 0.37924,-6.55276 a 39.333293,39.333293 0 0 0 -0.2411,-3.16243 34.897617,34.897617 0 0 0 -1.08142,-5.4687 c -0.20678,-0.76729 -0.47251,-1.46595 -0.66346,-2.03086 -0.17774,-0.56051 -0.41356,-1.03566 -0.52883,-1.34364 -0.13463,-0.31413 -0.2235,-0.48835 -0.2235,-0.48835 a 1.4844246,1.4844246 0 0 0 -1.9147,-0.67754 z m 108.2354,-73.65368 a 1.3753146,1.3753146 0 0 0 -1.9323,-0.22086 c 0,0 -0.16542,0.13111 -0.43996,0.38276 -0.25958,0.2543 -0.68986,0.61947 -1.14565,1.09814 a 37.850628,37.850628 0 0 0 -3.40881,4.03004 42.75706,42.75706 0 0 0 -1.87247,2.75766 48.934097,48.934097 0 0 0 -1.80032,3.12372 49.379336,49.379336 0 0 0 -2.96709,6.94169 41.998569,41.998569 0 0 0 -1.7836,7.13175 c -0.36252,2.30978 -0.47603,4.50079 -0.40036,6.40669 0.044,0.95383 0.11791,1.83375 0.22438,2.6204 0.11087,0.78753 0.23582,1.47827 0.37221,2.05286 0.26133,1.14653 0.53851,1.82319 0.53851,1.82319 a 8.859032,8.859032 0 0 0 2.39954,3.3173 c 3.66486,3.13867 9.18108,2.71191 12.31976,-0.95296 0,0 0.47515,-0.55523 1.0823,-1.56273 0.30973,-0.50244 0.6441,-1.12014 0.99607,-1.83288 0.34756,-0.71361 0.69249,-1.52666 1.03302,-2.4189 0.66874,-1.78623 1.24685,-3.90332 1.62609,-6.21047 0.38277,-2.30627 0.57019,-4.80084 0.53939,-7.33149 a 49.267587,49.267587 0 0 0 -0.6441,-7.52156 49.079284,49.079284 0 0 0 -0.73209,-3.53111 43.2023,43.2023 0 0 0 -0.91512,-3.20467 37.793433,37.793433 0 0 0 -1.97542,-4.89411 c -0.28245,-0.59747 -0.57722,-1.07879 -0.74441,-1.40172 -0.18214,-0.32557 -0.29829,-0.50155 -0.29829,-0.50155 a 0.87640007,0.87640007 0 0 0 -0.0713,-0.10119 z m -149.53708,33.7238 c 0,0 -0.1927,0.0352 -0.52355,0.12055 -0.31413,0.0959 -0.83416,0.19886 -1.38763,0.40036 -0.56403,0.19359 -1.28029,0.40917 -2.01414,0.71362 a 35.061282,35.061282 0 0 0 -4.99354,2.47873 c -0.88168,0.52796 -1.77304,1.1087 -2.65296,1.73785 a 37.60601,37.60601 0 0 0 -4.96011,4.2984 31.181716,31.181716 0 0 0 -3.95436,4.94955 c -1.08582,1.69385 -1.90942,3.39737 -2.46729,4.95395 a 23.145409,23.145409 0 0 0 -0.65906,2.19012 c -0.15839,0.67666 -0.27278,1.28116 -0.33789,1.79856 -0.14079,1.02686 -0.11263,1.68504 -0.11263,1.68504 0.0466,0.98375 0.25429,2.0159 0.63882,2.98205 1.86631,4.69261 7.18366,6.98392 11.87628,5.11849 0,0 0.61154,-0.24285 1.49058,-0.79192 0.44436,-0.2719 0.95031,-0.62299 1.50202,-1.04447 a 23.165647,23.165647 0 0 0 1.72817,-1.49762 c 1.19141,-1.14566 2.40922,-2.59489 3.50912,-4.27905 a 31.222192,31.222192 0 0 0 2.89581,-5.63413 37.690482,37.690482 0 0 0 1.89007,-6.28526 39.050838,39.050838 0 0 0 0.49979,-3.13164 35.007607,35.007607 0 0 0 0.21734,-5.57077 c -0.0238,-0.79369 -0.11967,-1.53546 -0.17422,-2.12941 -0.0422,-0.5869 -0.16191,-1.10342 -0.20326,-1.42987 -0.0581,-0.33701 -0.10383,-0.52707 -0.10383,-0.52707 a 1.480025,1.480025 0 0 0 -1.70353,-1.10606 z M 119.2557,373.02251 a 1.129817,1.129817 0 0 0 -1.08055,-1.17821 l -0.42852,-0.0185 c -0.26309,0.007 -0.68545,-0.0246 -1.15445,0.0132 -0.47604,0.029 -1.0735,0.0431 -1.70441,0.12055 a 27.95769,27.95769 0 0 0 -4.37672,0.84648 c -0.79016,0.22086 -1.60673,0.47252 -2.40834,0.78137 a 28.881606,28.881606 0 0 0 -4.74452,2.2482 c -3.03573,1.75016 -5.547019,4.08986 -7.057841,6.26326 a 18.402642,18.402642 0 0 0 -0.974071,1.5469 14.355891,14.355891 0 0 0 -0.644101,1.31372 c -0.319411,0.76993 -0.44524,1.27413 -0.44524,1.27413 a 7.2197415,7.2197415 0 0 0 7.917523,8.90831 c 0,0 0.51563,-0.066 1.31811,-0.29302 0.40037,-0.11439 0.86497,-0.27805 1.37972,-0.48483 0.51299,-0.2103 1.06646,-0.47516 1.65073,-0.78577 2.33619,-1.24597 4.95395,-3.46513 7.04816,-6.27471 a 28.808572,28.808572 0 0 0 2.78934,-4.44799 c 0.40036,-0.75937 0.74617,-1.54074 1.05854,-2.30011 0.31238,-0.7585 0.57723,-1.50907 0.80337,-2.22356 0.22438,-0.71538 0.40828,-1.39731 0.55171,-2.02294 0.15135,-0.61682 0.23494,-1.20901 0.31941,-1.678 0.0924,-0.46108 0.10999,-0.88432 0.14783,-1.14478 l 0.0317,-0.42852 z M 396.94517,250.45497 c 0,0 -0.0554,0.18742 -0.12935,0.52091 -0.0563,0.32381 -0.20062,0.83417 -0.27101,1.41843 -0.0827,0.59131 -0.21383,1.32692 -0.27542,2.11885 -0.0739,0.79985 -0.12231,1.68065 -0.13463,2.61864 a 35.185351,35.185351 0 0 0 0.0862,2.95565 c 0.0713,1.02511 0.18655,2.08277 0.34933,3.15188 0.33965,2.13028 0.87112,4.3028 1.58826,6.36885 0.70481,2.07222 1.60145,4.03356 2.62392,5.76612 1.01895,1.7352 2.16548,3.23986 3.30058,4.44183 a 23.096134,23.096134 0 0 0 1.65425,1.57858 c 0.53147,0.447 1.01894,0.82272 1.4501,1.11574 0.85265,0.59042 1.45187,0.86232 1.45187,0.86232 0.8984,0.40388 1.91207,0.68546 2.94861,0.78049 5.02962,0.4602 9.47938,-3.24427 9.9387,-8.27389 0,0 0.0598,-0.65554 -0.0317,-1.68856 a 17.950363,17.950363 0 0 0 -0.25166,-1.81264 23.143649,23.143649 0 0 0 -0.55347,-2.21828 c -0.48307,-1.58121 -1.22397,-3.32257 -2.22707,-5.06569 -1.00047,-1.74576 -2.2614,-3.49504 -3.71327,-5.13258 a 37.71336,37.71336 0 0 0 -4.7498,-4.5307 38.980445,38.980445 0 0 0 -2.56673,-1.86279 35.290941,35.290941 0 0 0 -2.52625,-1.53722 33.21697,33.21697 0 0 0 -2.34322,-1.17821 c -0.7189,-0.33877 -1.42283,-0.58779 -1.97806,-0.80865 -0.54291,-0.2279 -1.05679,-0.35461 -1.36652,-0.46636 a 8.1630155,8.1630155 0 0 0 -0.51651,-0.14519 1.4870644,1.4870644 0 0 0 -1.7572,1.02247 z m -202.26891,67.22411 c 0,0 -0.19535,-0.01 -0.53675,-0.002 -0.32821,0.022 -0.85793,0.004 -1.44219,0.0739 -0.59395,0.0598 -1.34012,0.10735 -2.12413,0.23582 a 34.910816,34.910816 0 0 0 -5.42734,1.27677 39.300736,39.300736 0 0 0 -2.97853,1.08846 37.708961,37.708961 0 0 0 -5.80923,3.05596 c -1.84519,1.17733 -3.53728,2.51393 -4.97771,3.91916 -1.44307,1.40171 -2.63272,2.87382 -3.53024,4.26145 a 23.005502,23.005502 0 0 0 -1.14037,1.98246 c -0.30797,0.6221 -0.55699,1.18613 -0.73914,1.67361 -0.37132,0.96791 -0.49275,1.61465 -0.49275,1.61465 a 9.3553067,9.3553067 0 0 0 -0.0572,3.0498 c 0.74882,4.99443 5.40447,8.43667 10.3989,7.68786 0,0 0.65114,-0.0977 1.63225,-0.43204 a 17.925725,17.925725 0 0 0 1.70088,-0.67578 23.291476,23.291476 0 0 0 2.02382,-1.0647 c 1.42107,-0.84472 2.93629,-1.97806 4.39168,-3.36745 1.45802,-1.38676 2.8571,-3.02693 4.10306,-4.82724 a 37.634168,37.634168 0 0 0 3.27154,-5.68956 38.890693,38.890693 0 0 0 1.19934,-2.93542 c 0.35196,-0.96351 0.64586,-1.9147 0.89223,-2.81926 0.24462,-0.90544 0.43996,-1.76688 0.58779,-2.55529 0.15839,-0.77873 0.23318,-1.52226 0.31589,-2.11356 0.0924,-0.58075 0.0933,-1.11134 0.12759,-1.43779 0.0202,-0.34141 0.0185,-0.53675 0.0185,-0.53675 a 1.4826648,1.4826648 0 0 0 -1.40787,-1.46331 z m -27.32239,101.31044 a 1.1306969,1.1306969 0 0 0 -0.78137,-1.39467 l -0.41356,-0.11615 c -0.25694,-0.0537 -0.6617,-0.18127 -1.1263,-0.25254 -0.46988,-0.0809 -1.05502,-0.20502 -1.68593,-0.27365 a 27.076011,27.076011 0 0 0 -2.08981,-0.17423 28.155672,28.155672 0 0 0 -2.36434,-0.006 c -0.82008,0.0334 -1.67185,0.0906 -2.52273,0.20766 a 28.764577,28.764577 0 0 0 -5.13345,1.0999 c -3.35602,1.00663 -6.33718,2.70752 -8.30644,4.47615 -0.49188,0.4426 -0.93008,0.87201 -1.30316,1.28205 -0.37133,0.41356 -0.6837,0.79369 -0.92832,1.13069 -0.48836,0.67578 -0.72593,1.13774 -0.72593,1.13774 a 7.3473299,7.3473299 0 0 0 -0.76289,2.55177 7.2197415,7.2197415 0 0 0 6.42517,7.93511 c 0,0 0.51651,0.0546 1.3498,0.0176 a 14.281097,14.281097 0 0 0 1.4545,-0.15574 18.460716,18.460716 0 0 0 1.78712,-0.38629 c 2.55969,-0.67666 5.61653,-2.23587 8.2994,-4.49023 a 28.793614,28.793614 0 0 0 3.73526,-3.68862 26.74956,26.74956 0 0 0 1.55746,-1.99566 28.277101,28.277101 0 0 0 1.29172,-1.97982 c 0.38277,-0.64498 0.71802,-1.2662 1.00047,-1.84255 0.28862,-0.56579 0.50596,-1.12278 0.69602,-1.5601 0.19534,-0.42764 0.31061,-0.83592 0.40652,-1.08054 l 0.12935,-0.40916 a 0.17686387,0.17686387 0 0 0 0.0114,-0.0326 z"
     id="path4"
     style="stroke-width:0.87992;fill:#ff9090;fill-opacity:1" />
  <path
     fill="#16992b"
     d="m 378.40702,119.2079 c 3.02604,-48.55397 -34.37231,-77.515648 -47.87291,-86.335964 -2.2394,-1.463306 -5.22057,-0.02024 -5.45815,2.644159 -0.62474,6.998882 -1.05414,20.442296 1.7748,39.229462 0.78929,5.242562 -1.84607,6.668032 -5.82947,3.168591 -16.58208,-14.568831 -57.01616,-44.965659 -88.94844,-27.464935 -1.89799,1.040065 -2.4849,3.480083 -1.20197,5.224084 5.03842,6.849295 20.66315,24.382576 62.69516,50.133423 7.73449,4.73837 6.69355,7.6861 -2.30099,6.51581 -24.07901,-3.13339 -66.14621,-5.31648 -94.16285,11.58238 -2.54033,1.53282 -2.20156,5.31736 0.57898,6.35214 22.63594,8.42788 99.30951,35.95704 129.56203,33.86196 14.96743,-1.03655 -2.8967,49.05992 -9.83135,67.17307 -1.04006,2.71719 1.45363,5.4643 4.25265,4.67149 17.70927,-5.0173 64.02824,-21.09431 64.30982,-52.06837 0.0282,-3.14659 3.73262,-4.77972 5.99225,-2.59048 l 78.05856,75.61238 8.8e-4,8.8e-4 c 0.0123,-0.0546 14.80289,-63.7669 -47.82803,-94.91782 -15.16894,-7.54443 35.28126,-7.38605 51.88446,-7.14055 2.63624,0.0387 4.39432,-2.72775 3.22579,-5.09034 -13.92385,-28.14599 -78.48708,-27.46757 -95.24955,-26.80059 -2.09245,0.0845 -3.7819,-1.67009 -3.65167,-3.76078 z"
     id="path6"
     style="stroke-width:0.87992" />
</svg>
