<?xml version="1.0" encoding="UTF-8" standalone="no"?>
<!-- Created with Inkscape (http://www.inkscape.org/) -->

<svg
   width="256"
   height="256"
   viewBox="0 0 67.733333 67.733333"
   version="1.1"
   id="svg5"
   inkscape:version="1.3 (0e150ed6c4, 2023-07-21)"
   sodipodi:docname="jump.svg"
   xml:space="preserve"
   xmlns:inkscape="http://www.inkscape.org/namespaces/inkscape"
   xmlns:sodipodi="http://sodipodi.sourceforge.net/DTD/sodipodi-0.dtd"
   xmlns="http://www.w3.org/2000/svg"
   xmlns:svg="http://www.w3.org/2000/svg"><sodipodi:namedview
     id="namedview7"
     pagecolor="#ffffff"
     bordercolor="#111111"
     borderopacity="1"
     inkscape:showpageshadow="0"
     inkscape:pageopacity="0"
     inkscape:pagecheckerboard="1"
     inkscape:deskcolor="#d1d1d1"
     inkscape:document-units="mm"
     showgrid="true"
     inkscape:zoom="2"
     inkscape:cx="103"
     inkscape:cy="124.25"
     inkscape:window-width="1600"
     inkscape:window-height="835"
     inkscape:window-x="0"
     inkscape:window-y="0"
     inkscape:window-maximized="1"
     inkscape:current-layer="layer2"><inkscape:grid
       type="xygrid"
       id="grid898"
       empspacing="8"
       dotted="false"
       originx="0"
       originy="0"
       spacingy="1"
       spacingx="1"
       units="mm"
       visible="true" /></sodipodi:namedview><defs
     id="defs2" /><g
     inkscape:groupmode="layer"
     id="layer3"
     inkscape:label="button"
     sodipodi:insensitive="true"><circle
       style="fill:#e25e5e;display:inline;fill-opacity:1;stroke:#ae1d1d;stroke-width:1.058;stroke-dasharray:none;stroke-opacity:1"
       id="path234"
       cx="33.488159"
       cy="34.245171"
       r="31.59934"
       inkscape:label="button" /><g
       id="g7"
       style="fill:#ff7a3a;display:inline;fill-opacity:1"
       inkscape:label="seeds"
       transform="translate(-0.37850649,0.37850474)"><circle
         style="fill:#ff7a3a;fill-opacity:1;stroke:none;stroke-width:3.20001;stroke-opacity:1;paint-order:stroke fill markers"
         id="path7"
         cx="21.56098"
         cy="10.43902"
         r="1.5609798" /><circle
         style="display:inline;fill:#ff7a3a;fill-opacity:1;stroke:none;stroke-width:3.20001;stroke-opacity:1;paint-order:stroke fill markers"
         id="path7-3"
         cx="14.43902"
         cy="17.56098"
         r="1.5609798" /><circle
         style="display:inline;fill:#ff7a3a;fill-opacity:1;stroke:none;stroke-width:3.20001;stroke-opacity:1;paint-order:stroke fill markers"
         id="path7-6"
         cx="9.5609798"
         cy="25.56098"
         r="1.5609798" /><circle
         style="display:inline;fill:#ff7a3a;fill-opacity:1;stroke:none;stroke-width:3.20001;stroke-opacity:1;paint-order:stroke fill markers"
         id="path7-7"
         cx="20"
         cy="25.56098"
         r="1.5609798" /><circle
         style="display:inline;fill:#ff7a3a;fill-opacity:1;stroke:none;stroke-width:3.20001;stroke-opacity:1;paint-order:stroke fill markers"
         id="path7-5"
         cx="14.43902"
         cy="36.008064"
         r="1.5609798" /><circle
         style="display:inline;fill:#ff7a3a;fill-opacity:1;stroke:none;stroke-width:3.20001;stroke-opacity:1;paint-order:stroke fill markers"
         id="path7-35"
         cx="21.56098"
         cy="43.381901"
         r="1.5609798" /><circle
         style="display:inline;fill:#ff7a3a;fill-opacity:1;stroke:none;stroke-width:3.20001;stroke-opacity:1;paint-order:stroke fill markers"
         id="path7-62"
         cx="14.43902"
         cy="47.414978"
         r="1.5609798" /><circle
         style="display:inline;fill:#ff7a3a;fill-opacity:1;stroke:none;stroke-width:3.20001;stroke-opacity:1;paint-order:stroke fill markers"
         id="path7-9"
         cx="21.56098"
         cy="54.536942"
         r="1.5609798" /><circle
         style="display:inline;fill:#ff7a3a;fill-opacity:1;stroke:none;stroke-width:3.20001;stroke-opacity:1;paint-order:stroke fill markers"
         id="path7-1"
         cx="25.622156"
         cy="33.866665"
         r="1.5609798" /><circle
         style="display:inline;fill:#ff7a3a;fill-opacity:1;stroke:none;stroke-width:3.20001;stroke-opacity:1;paint-order:stroke fill markers"
         id="path7-2"
         cx="28.821392"
         cy="48.97596"
         r="1.5609798" /><circle
         style="display:inline;fill:#ff7a3a;fill-opacity:1;stroke:none;stroke-width:3.20001;stroke-opacity:1;paint-order:stroke fill markers"
         id="path7-70"
         cx="31.943352"
         cy="60.614235"
         r="1.5609798" /><circle
         style="display:inline;fill:#ff7a3a;fill-opacity:1;stroke:none;stroke-width:3.20001;stroke-opacity:1;paint-order:stroke fill markers"
         id="path7-93"
         cx="27.260412"
         cy="19.12196"
         r="1.5609798" /><circle
         style="display:inline;fill:#ff7a3a;fill-opacity:1;stroke:none;stroke-width:3.20001;stroke-opacity:1;paint-order:stroke fill markers"
         id="path7-60"
         cx="30.382372"
         cy="7.3477631"
         r="1.5609798" /><circle
         style="display:inline;fill:#ff7a3a;fill-opacity:1;stroke:none;stroke-width:3.20001;stroke-opacity:1;paint-order:stroke fill markers"
         id="path7-626"
         cx="-48.646919"
         cy="-56.097923"
         r="1.5609798"
         transform="scale(-1)" /><circle
         style="display:inline;fill:#ff7a3a;fill-opacity:1;stroke:none;stroke-width:3.20001;stroke-opacity:1;paint-order:stroke fill markers"
         id="path7-3-1"
         cx="-55.768883"
         cy="-48.97596"
         r="1.5609798"
         transform="scale(-1)" /><circle
         style="display:inline;fill:#ff7a3a;fill-opacity:1;stroke:none;stroke-width:3.20001;stroke-opacity:1;paint-order:stroke fill markers"
         id="path7-6-8"
         cx="-60.646919"
         cy="-40.97596"
         r="1.5609798"
         transform="scale(-1)" /><circle
         style="display:inline;fill:#ff7a3a;fill-opacity:1;stroke:none;stroke-width:3.20001;stroke-opacity:1;paint-order:stroke fill markers"
         id="path7-7-7"
         cx="-50.207901"
         cy="-40.97596"
         r="1.5609798"
         transform="scale(-1)" /><circle
         style="display:inline;fill:#ff7a3a;fill-opacity:1;stroke:none;stroke-width:3.20001;stroke-opacity:1;paint-order:stroke fill markers"
         id="path7-5-9"
         cx="-55.768883"
         cy="-30.528875"
         r="1.5609798"
         transform="scale(-1)" /><circle
         style="display:inline;fill:#ff7a3a;fill-opacity:1;stroke:none;stroke-width:3.20001;stroke-opacity:1;paint-order:stroke fill markers"
         id="path7-35-2"
         cx="-48.646919"
         cy="-23.155039"
         r="1.5609798"
         transform="scale(-1)" /><circle
         style="display:inline;fill:#ff7a3a;fill-opacity:1;stroke:none;stroke-width:3.20001;stroke-opacity:1;paint-order:stroke fill markers"
         id="path7-62-0"
         cx="-55.768883"
         cy="-19.121962"
         r="1.5609798"
         transform="scale(-1)" /><circle
         style="display:inline;fill:#ff7a3a;fill-opacity:1;stroke:none;stroke-width:3.20001;stroke-opacity:1;paint-order:stroke fill markers"
         id="path7-9-2"
         cx="-48.646919"
         cy="-12.048647"
         r="1.5609798"
         transform="scale(-1)" /><circle
         style="display:inline;fill:#ff7a3a;fill-opacity:1;stroke:none;stroke-width:3.20001;stroke-opacity:1;paint-order:stroke fill markers"
         id="path7-1-3"
         cx="-44.585747"
         cy="-32.670273"
         r="1.5609798"
         transform="scale(-1)" /><circle
         style="display:inline;fill:#ff7a3a;fill-opacity:1;stroke:none;stroke-width:3.20001;stroke-opacity:1;paint-order:stroke fill markers"
         id="path7-2-7"
         cx="-41.386505"
         cy="-17.56098"
         r="1.5609798"
         transform="scale(-1)" /><circle
         style="display:inline;fill:#ff7a3a;fill-opacity:1;stroke:none;stroke-width:3.20001;stroke-opacity:1;paint-order:stroke fill markers"
         id="path7-70-5"
         cx="-39.825527"
         cy="-7.3477631"
         r="1.5609798"
         transform="scale(-1)" /><circle
         style="display:inline;fill:#ff7a3a;fill-opacity:1;stroke:none;stroke-width:3.20001;stroke-opacity:1;paint-order:stroke fill markers"
         id="path7-93-9-7"
         cx="-5.9886789"
         cy="-39.414978"
         r="1.5609798"
         transform="scale(-1)" /><circle
         style="display:inline;fill:#ff7a3a;fill-opacity:1;stroke:none;stroke-width:3.20001;stroke-opacity:1;paint-order:stroke fill markers"
         id="path7-93-9"
         cx="-42.947487"
         cy="-47.414978"
         r="1.5609798"
         transform="scale(-1)" /><circle
         style="display:inline;fill:#ff7a3a;fill-opacity:1;stroke:none;stroke-width:3.20001;stroke-opacity:1;paint-order:stroke fill markers"
         id="path7-93-9-2"
         cx="-35.427647"
         cy="-40.97596"
         r="1.5609798"
         transform="scale(-1)" /><circle
         style="display:inline;fill:#ff7a3a;fill-opacity:1;stroke:none;stroke-width:3.20001;stroke-opacity:1;paint-order:stroke fill markers"
         id="path7-93-9-8"
         cx="-35.427647"
         cy="-28.967896"
         r="1.5609798"
         transform="scale(-1)" /><circle
         style="display:inline;fill:#ff7a3a;fill-opacity:1;stroke:none;stroke-width:3.20001;stroke-opacity:1;paint-order:stroke fill markers"
         id="path7-93-9-9"
         cx="-33.504333"
         cy="-15.170607"
         r="1.5609798"
         transform="scale(-1)" /><circle
         style="display:inline;fill:#ff7a3a;fill-opacity:1;stroke:none;stroke-width:3.20001;stroke-opacity:1;paint-order:stroke fill markers"
         id="path7-60-2"
         cx="-39.825531"
         cy="-59.189178"
         r="1.5609798"
         transform="scale(-1)" /></g></g><g
     inkscape:groupmode="layer"
     id="layer2"
     inkscape:label="icon"
     style="fill:#ffffff"><g
       style="font-variation-settings:normal;opacity:1;vector-effect:none;fill:#ffffff;fill-opacity:1;stroke:#ae1d1d;stroke-width:0.302362;stroke-linecap:butt;stroke-linejoin:round;stroke-miterlimit:4;stroke-dasharray:none;stroke-dashoffset:0;stroke-opacity:1;-inkscape-stroke:none;paint-order:normal;stop-color:#000000;stop-opacity:1"
       id="g1"
       transform="matrix(4.6451851,0,0,4.6451851,10.083319,10.085061)"><path
         d="M 5.1028854,4.5359026 C 4.8461666,4.6553624 4.5860249,4.8104206 4.3313598,4.9969695 4.5713064,4.6488589 4.8393207,4.3763947 5.1165771,4.1758117 L 5.4071828,1.2680432 C 5.5345153,0.67793215 4.7972189,0.41573669 3.847017,0.53485425 v 0 C 3.1080091,0.62761528 2.2420109,0.94800043 1.5529777,1.5452995 L 2.2676828,5.607618 2.310127,6.9035346 3.5615457,7.0842647 3.9199251,6.2497574 4.4176173,7.1335547 C 6.1297607,7.3351645 7.4400535,7.1078828 8.0921193,6.668038 8.2221901,5.3204352 7.1720391,3.6394405 5.1028854,4.5362449 Z M 8.6394437,6.713905 c 0.1160377,0.069485 0.1786764,0.1437626 0.1786764,0.2211204 0,0.3970585 -1.6604573,0.7188127 -3.7083889,0.7188127 -2.0479315,0 -3.7083888,-0.3217542 -3.7083888,-0.7188127 0,-0.077358 0.063324,-0.1519775 0.1803878,-0.221805 -0.4761279,0.1420511 -0.7550956,0.3142238 -0.7550956,0.499746 0,0.4867388 1.9171761,0.8814013 4.282412,0.8814013 2.365236,0 4.2824122,-0.3946625 4.2824122,-0.8814013 0,-0.1851799 -0.2775986,-0.3570103 -0.7520151,-0.4987191 z M 1.4280412,6.7621681 H 0.41348842 l 0.53774037,0.239262 C 1.0532317,6.9161994 1.215478,6.8357608 1.4280412,6.7621681 Z M 0.82697684,7.212624 c 0,-0.079754 0.0516861,-0.1571118 0.14855465,-0.2307046 L 0,7.5467008 0.97553149,7.443671 C 0.87866293,7.3700782 0.8266346,7.2927204 0.8266346,7.2129664 Z M 1.1596845,7.553889 0.53637115,8.5051178 1.9199144,7.8006813 C 1.6043214,7.7281154 1.3458911,7.6449385 1.1596845,7.553889 Z M 2.203332,7.8598978 1.9739965,9.2862275 3.2856585,8.0101638 C 2.8875732,7.9714849 2.5226902,7.9204835 2.203332,7.8598978 Z M 3.6419842,8.0409701 3.8911726,9.6969776 4.9789758,8.093683 C 4.5103784,8.0909447 4.0609493,8.0724609 3.6419842,8.0409701 Z m 1.6224629,0.052371 1.2004172,1.6399197 0.1475278,-1.6950287 c -0.4217035,0.032518 -0.87524,0.051686 -1.347945,0.055109 z m 1.7032437,-0.0866 1.2983127,1.2794866 -0.23002,-1.4304372 C 7.7207327,7.9167182 7.3609841,7.9677196 6.9676908,8.0067411 Z M 9.0748389,7.5456739 C 8.8906859,7.6384351 8.631571,7.7233234 8.3132397,7.7972584 L 9.7036288,8.5051178 Z M 9.3914588,7.212624 c 0,0.079069 -0.051002,0.1557428 -0.1461586,0.2289933 L 10.24,7.5467008 9.0796309,6.8751244 l -0.00136,0.0065 c 0.2016008,0.1023488 0.3131879,0.2139359 0.3131879,0.331342 z M 8.7903945,6.7621681 c 0.218382,0.075304 0.3833667,0.1581388 0.484685,0.2457656 L 9.8278807,6.7621681 Z"
         id="path1-3"
         style="font-variation-settings:normal;vector-effect:none;fill:#ffffff;fill-opacity:1;stroke:#ae1d1d;stroke-width:0.302362;stroke-linecap:butt;stroke-linejoin:round;stroke-miterlimit:4;stroke-dasharray:none;stroke-dashoffset:0;stroke-opacity:1;-inkscape-stroke:none;paint-order:normal;stop-color:#000000;stop-opacity:1" /></g></g></svg>
