<?xml version="1.0" encoding="UTF-8" standalone="no"?>
<!-- Uploaded to: SVG Repo, www.svgrepo.com, Generator: SVG Repo Mixer Tools -->

<svg
   width="256"
   height="256"
   viewBox="0 0 38.4 38.4"
   id="Layer_1"
   version="1.1"
   xml:space="preserve"
   sodipodi:docname="bronze.svg"
   inkscape:version="1.3 (0e150ed6c4, 2023-07-21)"
   xmlns:inkscape="http://www.inkscape.org/namespaces/inkscape"
   xmlns:sodipodi="http://sodipodi.sourceforge.net/DTD/sodipodi-0.dtd"
   xmlns="http://www.w3.org/2000/svg"
   xmlns:svg="http://www.w3.org/2000/svg"><defs
   id="defs2" /><sodipodi:namedview
   id="namedview2"
   pagecolor="#ffffff"
   bordercolor="#111111"
   borderopacity="1"
   inkscape:showpageshadow="0"
   inkscape:pageopacity="0"
   inkscape:pagecheckerboard="1"
   inkscape:deskcolor="#d1d1d1"
   inkscape:zoom="1.5875"
   inkscape:cx="89.76378"
   inkscape:cy="159.68504"
   inkscape:window-width="1600"
   inkscape:window-height="835"
   inkscape:window-x="0"
   inkscape:window-y="0"
   inkscape:window-maximized="1"
   inkscape:current-layer="g1" />&#10;&#10;<style
   type="text/css"
   id="style1">&#10;	.st0{fill:#C4C4C4;}&#10;	.st1{fill:#E5B97F;}&#10;	.st2{fill:#C19A6B;}&#10;	.st3{fill:#FFFFFF;}&#10;</style>&#10;&#10;<g
   id="g2">&#10;&#10;&#10;&#10;&#10;&#10;&#10;&#10;<g
   id="g1"
   transform="matrix(0.32691917,0,0,0.32691917,-0.41514987,-0.66568078)"><g
     id="g3"><polygon
       class="st0"
       points="104.1,94.3 79.7,45.6 60,55.5 40.3,45.6 15.9,94.3 31.1,92.8 38.9,105.9 60,63.9 81.1,105.9 88.9,92.8 "
       id="polygon1"
       style="fill:#c2c2c2;fill-opacity:1;stroke:#979797;stroke-width:2.61007;stroke-dasharray:none;stroke-opacity:1"
       transform="matrix(1.2117228,0,0,1.2117228,-12.703369,-12.79403)" /><circle
       class="st1"
       cx="60"
       cy="43.429913"
       r="39.017475"
       id="circle1"
       style="fill:#e3b475;fill-opacity:1;stroke:#c29c6d;stroke-width:3.16267;stroke-dasharray:none;stroke-opacity:1" /><circle
       class="st2"
       cx="60"
       cy="43.429913"
       r="30.656586"
       id="circle2"
       style="fill:#c29c6d;fill-opacity:1;stroke-width:1.21172" /><path
       class="st3"
       d="m 61.454067,25.011723 5.089236,10.178471 c 0.242346,0.484689 0.727033,0.848206 1.211723,0.969379 l 11.269022,1.696411 c 1.332896,0.242345 1.938757,1.817584 0.969379,2.786963 l -8.118544,7.997371 c -0.363516,0.363516 -0.605861,0.969377 -0.484689,1.454067 l 1.938757,11.269022 c 0.242344,1.332896 -1.211723,2.423446 -2.423445,1.696412 l -10.0573,-5.33158 c -0.484689,-0.242346 -1.09055,-0.242346 -1.575239,0 l -10.178473,5.33158 c -1.211722,0.605861 -2.665789,-0.363516 -2.423445,-1.696412 l 1.938757,-11.269022 c 0.121172,-0.48469 -0.121173,-1.090551 -0.484689,-1.454067 l -8.118544,-7.997371 c -0.969378,-0.969379 -0.484688,-2.665791 0.969379,-2.786963 l 11.269022,-1.696411 c 0.48469,-0.121173 0.969377,-0.363517 1.211723,-0.969379 l 5.089236,-10.178471 c 0.605861,-1.211723 2.302273,-1.211723 2.908134,0 z"
       id="path2"
       style="fill:#ffffff;fill-opacity:1;stroke-width:1.21172" /></g></g>&#10;&#10;</g>&#10;&#10;</svg>
