<?xml version="1.0" encoding="UTF-8" standalone="no"?>
<!-- Uploaded to: SVG Repo, www.svgrepo.com, Generator: SVG Repo Mixer Tools -->

<svg
   width="256"
   height="256"
   viewBox="0 0 38.4 38.4"
   id="Layer_1"
   version="1.1"
   xml:space="preserve"
   sodipodi:docname="diamond.svg"
   inkscape:version="1.3 (0e150ed6c4, 2023-07-21)"
   xmlns:inkscape="http://www.inkscape.org/namespaces/inkscape"
   xmlns:sodipodi="http://sodipodi.sourceforge.net/DTD/sodipodi-0.dtd"
   xmlns="http://www.w3.org/2000/svg"
   xmlns:svg="http://www.w3.org/2000/svg"><defs
   id="defs2" /><sodipodi:namedview
   id="namedview2"
   pagecolor="#ffffff"
   bordercolor="#111111"
   borderopacity="1"
   inkscape:showpageshadow="0"
   inkscape:pageopacity="0"
   inkscape:pagecheckerboard="1"
   inkscape:deskcolor="#d1d1d1"
   inkscape:zoom="1.5875"
   inkscape:cx="101.10236"
   inkscape:cy="152.75591"
   inkscape:window-width="1600"
   inkscape:window-height="835"
   inkscape:window-x="0"
   inkscape:window-y="0"
   inkscape:window-maximized="1"
   inkscape:current-layer="g1" />&#10;&#10;<style
   type="text/css"
   id="style1">&#10;	.st0{fill:#E24255;}&#10;	.st1{fill:#FFC54D;}&#10;	.st2{fill:#E8B04B;}&#10;	.st3{fill:#FFFFFF;}&#10;</style>&#10;&#10;<g
   id="g2">&#10;&#10;&#10;&#10;&#10;&#10;&#10;&#10;&#10;&#10;<g
   id="g1"
   transform="matrix(0.32988941,0,0,0.32988941,-0.5933646,-0.84771105)"><polygon
     class="st0"
     points="60,55.5 40.3,45.6 15.9,94.3 31.1,92.8 38.9,105.9 60,63.9 81.1,105.9 88.9,92.8 104.1,94.3 79.7,45.6 "
     id="polygon1"
     style="fill:#42a8e2;fill-opacity:1;stroke:#1b79b0;stroke-width:2.61104;stroke-dasharray:none;stroke-opacity:1"
     transform="matrix(1.2026498,0,0,1.2026498,-12.158988,-12.246255)" /><circle
     class="st1"
     cx="60"
     cy="43.556698"
     r="38.725327"
     id="circle1"
     style="fill:#ffd277;fill-opacity:1;stroke:#ecbe6a;stroke-width:3.14017;stroke-dasharray:none;stroke-opacity:1" /><circle
     class="st2"
     cx="60"
     cy="43.556698"
     r="30.427038"
     id="circle2"
     style="fill:#ecbe6a;fill-opacity:1;stroke-width:1.20265" /><g
     id="g3"
     transform="matrix(0.04646283,0,0,0.04646283,36.211034,22.910361)"
     style="stroke:none;stroke-width:38.8262;stroke-dasharray:none;stroke-opacity:1"><path
       d="m 704,341.33333 -192,576 c 6.61333,0 12.88533,-3.072 16.896,-8.32 l 436.01067,-566.784 -0.576,-0.896 z"
       fill="#9bced3"
       id="path1"
       style="stroke:none;stroke-width:38.8262;stroke-dasharray:none;stroke-opacity:1" /><path
       d="M 964.33067,341.33333 789.33333,64 704,341.33333 Z"
       fill="#76b5b5"
       id="path2"
       style="stroke:none;stroke-width:38.8262;stroke-dasharray:none;stroke-opacity:1" /><path
       d="M 234.66667,64 59.669333,341.33333 H 320 Z"
       fill="#bfdee0"
       id="path3"
       style="stroke:none;stroke-width:38.8262;stroke-dasharray:none;stroke-opacity:1" /><path
       d="m 59.669333,341.33333 -0.576,0.896 436.010667,566.784 c 4.01067,5.248 10.26133,8.32 16.896,8.32 l -192,-576 z M 512,64 H 234.66667 L 320,341.33333 Z"
       fill="#9bced3"
       id="path4"
       style="stroke:none;stroke-width:38.8262;stroke-dasharray:none;stroke-opacity:1" /><path
       d="m 320,341.33333 192,576 192,-576 z"
       fill="#76b5b5"
       id="path5"
       style="stroke:none;stroke-width:38.8262;stroke-dasharray:none;stroke-opacity:1" /><path
       d="M 789.33333,64 H 512 l 192,277.33333 z"
       fill="#9bced3"
       id="path6"
       style="stroke:none;stroke-width:38.8262;stroke-dasharray:none;stroke-opacity:1" /><path
       d="M 704,341.33333 512,64 320,341.33333 Z"
       fill="#bfdee0"
       id="path7"
       style="stroke:none;stroke-width:38.8262;stroke-dasharray:none;stroke-opacity:1" /></g></g></g>&#10;&#10;</svg>
