<?xml version="1.0" encoding="UTF-8" standalone="no"?>
<!-- Uploaded to: SVG Repo, www.svgrepo.com, Generator: SVG Repo Mixer Tools -->

<svg
   width="800px"
   height="800px"
   viewBox="0 0 120 120"
   id="Layer_1"
   version="1.1"
   xml:space="preserve"
   sodipodi:docname="gold.svg"
   inkscape:version="1.3 (0e150ed6c4, 2023-07-21)"
   xmlns:inkscape="http://www.inkscape.org/namespaces/inkscape"
   xmlns:sodipodi="http://sodipodi.sourceforge.net/DTD/sodipodi-0.dtd"
   xmlns="http://www.w3.org/2000/svg"
   xmlns:svg="http://www.w3.org/2000/svg"><defs
   id="defs2" /><sodipodi:namedview
   id="namedview2"
   pagecolor="#ffffff"
   bordercolor="#111111"
   borderopacity="1"
   inkscape:showpageshadow="0"
   inkscape:pageopacity="0"
   inkscape:pagecheckerboard="1"
   inkscape:deskcolor="#d1d1d1"
   inkscape:zoom="0.79375"
   inkscape:cx="400"
   inkscape:cy="400"
   inkscape:window-width="1600"
   inkscape:window-height="835"
   inkscape:window-x="0"
   inkscape:window-y="0"
   inkscape:window-maximized="1"
   inkscape:current-layer="g2" />&#10;&#10;<style
   type="text/css"
   id="style1">&#10;	.st0{fill:#E24255;}&#10;	.st1{fill:#FFC54D;}&#10;	.st2{fill:#E8B04B;}&#10;	.st3{fill:#FFFFFF;}&#10;</style>&#10;&#10;<g
   id="g2">&#10;&#10;<polygon
   class="st0"
   points="79.7,45.6 60,55.5 40.3,45.6 15.9,94.3 31.1,92.8 38.9,105.9 60,63.9 81.1,105.9 88.9,92.8    104.1,94.3  "
   id="polygon1"
   style="fill:#e13d50;fill-opacity:1" />&#10;&#10;<circle
   class="st1"
   cx="60"
   cy="46.4"
   r="32.2"
   id="circle1"
   style="fill:#ffc54d;fill-opacity:1" />&#10;&#10;<circle
   class="st2"
   cx="60"
   cy="46.4"
   r="25.3"
   id="circle2"
   style="fill:#e8b04a;fill-opacity:1" />&#10;&#10;<path
   class="st3"
   d="M61.2,31.2l4.2,8.4c0.2,0.4,0.6,0.7,1,0.8l9.3,1.4c1.1,0.2,1.6,1.5,0.8,2.3l-6.7,6.6c-0.3,0.3-0.5,0.8-0.4,1.2   l1.6,9.3c0.2,1.1-1,2-2,1.4l-8.3-4.4c-0.4-0.2-0.9-0.2-1.3,0L51,62.6c-1,0.5-2.2-0.3-2-1.4l1.6-9.3c0.1-0.4-0.1-0.9-0.4-1.2   l-6.7-6.6c-0.8-0.8-0.4-2.2,0.8-2.3l9.3-1.4c0.4-0.1,0.8-0.3,1-0.8l4.2-8.4C59.3,30.2,60.7,30.2,61.2,31.2z"
   id="path2"
   style="fill:#ffffff;fill-opacity:1" />&#10;&#10;</g>&#10;&#10;</svg>
