<?xml version="1.0" encoding="UTF-8" standalone="no"?>
<!-- Uploaded to: SVG Repo, www.svgrepo.com, Generator: SVG Repo Mixer Tools -->

<svg
   width="256"
   height="256"
   viewBox="0 0 38.4 38.4"
   id="Layer_1"
   version="1.1"
   xml:space="preserve"
   sodipodi:docname="gold.svg"
   inkscape:version="1.3 (0e150ed6c4, 2023-07-21)"
   xmlns:inkscape="http://www.inkscape.org/namespaces/inkscape"
   xmlns:sodipodi="http://sodipodi.sourceforge.net/DTD/sodipodi-0.dtd"
   xmlns="http://www.w3.org/2000/svg"
   xmlns:svg="http://www.w3.org/2000/svg"><defs
   id="defs2" /><sodipodi:namedview
   id="namedview2"
   pagecolor="#ffffff"
   bordercolor="#111111"
   borderopacity="1"
   inkscape:showpageshadow="0"
   inkscape:pageopacity="0"
   inkscape:pagecheckerboard="1"
   inkscape:deskcolor="#d1d1d1"
   inkscape:zoom="1.5875"
   inkscape:cx="84.724409"
   inkscape:cy="173.54331"
   inkscape:window-width="1600"
   inkscape:window-height="835"
   inkscape:window-x="0"
   inkscape:window-y="0"
   inkscape:window-maximized="1"
   inkscape:current-layer="g2" />&#10;&#10;<style
   type="text/css"
   id="style1">&#10;	.st0{fill:#E24255;}&#10;	.st1{fill:#FFC54D;}&#10;	.st2{fill:#E8B04B;}&#10;	.st3{fill:#FFFFFF;}&#10;</style>&#10;&#10;<g
   id="g2">&#10;&#10;&#10;&#10;&#10;&#10;&#10;&#10;<g
   id="g1"
   transform="matrix(0.32561322,0,0,0.32561322,0.27229909,-0.5879485)"><g
     id="g3"
     transform="matrix(1.0213809,0,0,1.0213809,-3.1534522,-1.3529243)"><polygon
       class="st0"
       points="15.9,94.3 31.1,92.8 38.9,105.9 60,63.9 81.1,105.9 88.9,92.8 104.1,94.3 79.7,45.6 60,55.5 40.3,45.6 "
       id="polygon1"
       style="fill:#e13d50;fill-opacity:1;stroke:#a91a2b;stroke-width:2.61734;stroke-dasharray:none;stroke-opacity:1"
       transform="matrix(1.1949803,0,0,1.1949803,-11.698821,-11.778908)" /><circle
       class="st1"
       cx="60"
       cy="43.668182"
       r="38.478367"
       id="circle1"
       style="fill:#ffc54d;fill-opacity:1;stroke:#e8b04a;stroke-width:3.12767;stroke-dasharray:none;stroke-opacity:1" /><circle
       class="st2"
       cx="60"
       cy="43.668182"
       r="30.233002"
       id="circle2"
       style="fill:#e8b04a;fill-opacity:1;stroke-width:1.19498" /><path
       class="st3"
       d="m 61.433976,25.504479 5.018918,10.037835 c 0.238995,0.477992 0.716988,0.836486 1.19498,0.955984 l 11.113317,1.672972 c 1.314478,0.238997 1.911969,1.792471 0.955984,2.748455 l -8.006367,7.88687 c -0.358494,0.358495 -0.597491,0.955985 -0.477993,1.433977 l 1.911969,11.113317 c 0.238996,1.314479 -1.194981,2.38996 -2.389961,1.672973 l -9.918337,-5.257914 c -0.477992,-0.238996 -1.075482,-0.238996 -1.553475,0 l -10.037834,5.257914 c -1.19498,0.597489 -2.628957,-0.358494 -2.389961,-1.672973 L 48.767184,50.240572 C 48.886683,49.76258 48.647686,49.16509 48.289192,48.806595 l -8.006367,-7.88687 C 39.32684,39.963741 39.804832,38.290768 41.238808,38.17127 l 11.113318,-1.672972 c 0.477992,-0.119498 0.955984,-0.358494 1.19498,-0.955984 l 5.018918,-10.037835 c 0.597489,-1.194981 2.270462,-1.194981 2.867952,0 z"
       id="path2"
       style="fill:#ffffff;fill-opacity:1;stroke-width:1.19498" /></g></g>&#10;&#10;</g>&#10;&#10;</svg>
