<?xml version="1.0" encoding="UTF-8" standalone="no"?>
<!-- Uploaded to: SVG Repo, www.svgrepo.com, Generator: SVG Repo Mixer Tools -->

<svg
   width="256"
   height="256"
   viewBox="0 0 38.4 38.4"
   id="Layer_1"
   version="1.1"
   xml:space="preserve"
   sodipodi:docname="silver.svg"
   inkscape:version="1.3 (0e150ed6c4, 2023-07-21)"
   xmlns:inkscape="http://www.inkscape.org/namespaces/inkscape"
   xmlns:sodipodi="http://sodipodi.sourceforge.net/DTD/sodipodi-0.dtd"
   xmlns="http://www.w3.org/2000/svg"
   xmlns:svg="http://www.w3.org/2000/svg"><defs
   id="defs2" /><sodipodi:namedview
   id="namedview2"
   pagecolor="#ffffff"
   bordercolor="#111111"
   borderopacity="1"
   inkscape:showpageshadow="0"
   inkscape:pageopacity="0"
   inkscape:pagecheckerboard="1"
   inkscape:deskcolor="#d1d1d1"
   inkscape:zoom="1.5875"
   inkscape:cx="88.503937"
   inkscape:cy="148.34646"
   inkscape:window-width="1600"
   inkscape:window-height="835"
   inkscape:window-x="0"
   inkscape:window-y="0"
   inkscape:window-maximized="1"
   inkscape:current-layer="Layer_1" />&#10;&#10;<style
   type="text/css"
   id="style1">&#10;	.st0{fill:#FFBF4B;}&#10;	.st1{fill:#EDEDED;}&#10;	.st2{fill:#BCBCBC;}&#10;	.st3{fill:#FFFFFF;}&#10;</style>&#10;&#10;<g
   id="g2"
   transform="matrix(0.32846202,0,0,0.32846202,-0.50772058,-0.76194248)">&#10;&#10;<polygon
   class="st0"
   points="60,55.5 40.3,45.6 15.9,94.3 31.1,92.8 38.9,105.9 60,63.9 81.1,105.9 88.9,92.8 104.1,94.3 79.7,45.6 "
   id="polygon1"
   style="fill:#ffbf4c;fill-opacity:1;stroke:#e99600;stroke-width:2.61177;stroke-dasharray:none;stroke-opacity:1"
   transform="matrix(1.2104665,0,0,1.2104665,-12.627991,-12.723718)" />&#10;&#10;<circle
   class="st1"
   cx="60"
   cy="43.441929"
   r="38.977024"
   id="circle1"
   style="fill:#e0e0e0;fill-opacity:1;stroke:#c4c4c4;stroke-width:3.16146;stroke-dasharray:none;stroke-opacity:1" />&#10;&#10;<circle
   class="st2"
   cx="60"
   cy="43.441929"
   r="30.624802"
   id="circle2"
   style="fill:#c4c4c4;fill-opacity:1;stroke-width:1.21047" />&#10;&#10;<path
   class="st3"
   d="m 61.45256,25.042837 5.083959,10.167919 c 0.242093,0.484186 0.72628,0.847326 1.210467,0.968373 l 11.257338,1.694653 c 1.331513,0.242093 1.936747,1.8157 0.968373,2.784073 l -8.110125,7.989079 c -0.36314,0.36314 -0.605233,0.968373 -0.484187,1.45256 l 1.936747,11.257338 c 0.242093,1.331513 -1.210467,2.420933 -2.420933,1.694653 L 60.847327,57.725433 c -0.484187,-0.242094 -1.08942,-0.242094 -1.573607,0 l -10.167919,5.326052 c -1.210466,0.605234 -2.663026,-0.36314 -2.420933,-1.694653 l 1.936747,-11.257338 c 0.121046,-0.484187 -0.121047,-1.08942 -0.484187,-1.45256 l -8.110125,-7.989079 c -0.968374,-0.968373 -0.484187,-2.663026 0.968373,-2.784073 l 11.257338,-1.694653 c 0.484187,-0.121047 0.968374,-0.36314 1.210467,-0.968373 L 58.54744,25.042837 c 0.605233,-1.210467 2.299887,-1.210467 2.90512,0 z"
   id="path2"
   style="fill:#ffffff;fill-opacity:1;stroke-width:1.21047" />&#10;&#10;</g>&#10;&#10;</svg>
