<?xml version="1.0" encoding="UTF-8" standalone="no"?>
<!-- Uploaded to: SVG Repo, www.svgrepo.com, Generator: SVG Repo Mixer Tools -->

<svg
   width="128"
   height="128"
   viewBox="0 0 3.84 3.84"
   fill="none"
   version="1.1"
   id="svg1"
   sodipodi:docname="dialog.svg"
   inkscape:version="1.3 (0e150ed6c4, 2023-07-21)"
   xmlns:inkscape="http://www.inkscape.org/namespaces/inkscape"
   xmlns:sodipodi="http://sodipodi.sourceforge.net/DTD/sodipodi-0.dtd"
   xmlns="http://www.w3.org/2000/svg"
   xmlns:svg="http://www.w3.org/2000/svg">
  <defs
     id="defs1" />
  <sodipodi:namedview
     id="namedview1"
     pagecolor="#ffffff"
     bordercolor="#111111"
     borderopacity="1"
     inkscape:showpageshadow="0"
     inkscape:pageopacity="0"
     inkscape:pagecheckerboard="1"
     inkscape:deskcolor="#d1d1d1"
     inkscape:zoom="3.175"
     inkscape:cx="35.590551"
     inkscape:cy="68.818898"
     inkscape:window-width="1600"
     inkscape:window-height="835"
     inkscape:window-x="0"
     inkscape:window-y="0"
     inkscape:window-maximized="1"
     inkscape:current-layer="svg1" />
  <path
     fill-rule="evenodd"
     clip-rule="evenodd"
     d="m 0.52363636,0.34909091 c -0.096398,0 -0.17454545,0.0781475 -0.17454545,0.17454545 V 2.4436364 c 0,0.096401 0.0781475,0.1745454 0.17454545,0.1745454 H 1.0472727 c 0.096398,0 0.1745455,0.078144 0.1745455,0.1745455 V 3.2928 L 1.9828015,2.6586415 c 0.031366,-0.026147 0.070918,-0.04046 0.111744,-0.04046 h 1.2218181 c 0.096402,0 0.1745455,-0.078144 0.1745455,-0.1745454 V 0.52363636 c 0,-0.096398 -0.078144,-0.17454545 -0.1745455,-0.17454545 z M 0,0.52363636 C 0,0.23444073 0.23444073,0 0.52363636,0 H 3.3163636 C 3.605568,0 3.84,0.23444073 3.84,0.52363636 V 2.4436364 c 0,0.2892043 -0.234432,0.5236363 -0.5236364,0.5236363 H 2.1577309 L 1.1590132,3.7995404 C 1.1069847,3.8428975 1.0345711,3.8522531 0.97323753,3.8235229 0.91190575,3.7947927 0.87272727,3.7331782 0.87272727,3.6654545 V 2.9672727 H 0.52363636 C 0.23444073,2.9672727 0,2.7328407 0,2.4436364 Z"
     fill="#000000"
     id="path1"
     style="stroke-width:0.174545;fill:#ffffff;fill-opacity:1" />
</svg>
