{
    "asset" : {
        "generator" : "Khronos glTF Blender I/O v1.2.20",
        "version" : "2.0"
    },
    "scene" : 0,
    "scenes" : [
        {
            "nodes" : [
                2
            ],
            "name" : "Scene"
        }
    ],
    "nodes" : [
        {
            "translation" : [
                -0.3513350188732147,
                0.31742528080940247,
                1.4232960939407349
            ],
            "mesh" : 0,
            "name" : "DoorMesh"
        },
        {
            "mesh" : 1,
            "name" : "HouseMesh"
        },
        {
            "children" : [
                0,
                1
            ],
            "mesh" : 2,
            "name" : "HouseCollider -colonly"
        }
    ],
    "materials" : [
        {
            "name" : "house",
            "pbrMetallicRoughness" : {
                "baseColorTexture" : {
                    "texCoord" : 0,
                    "index" : 0
                }
            }
        }
    ],
    "meshes" : [
        {
            "name" : "DoorMesh.001",
            "primitives" : [
                {
                    "indices" : 3,
                    "material" : 0,
                    "attributes" : {
                        "POSITION" : 0,
                        "NORMAL" : 1,
                        "TEXCOORD_0" : 2
                    }
                }
            ]
        },
        {
            "name" : "HouseMesh.001",
            "primitives" : [
                {
                    "indices" : 7,
                    "material" : 0,
                    "attributes" : {
                        "POSITION" : 4,
                        "NORMAL" : 5,
                        "TEXCOORD_0" : 6
                    }
                }
            ]
        },
        {
            "name" : "HouseCollider.001",
            "primitives" : [
                {
                    "indices" : 10,
                    "material" : 0,
                    "attributes" : {
                        "POSITION" : 8,
                        "NORMAL" : 9
                    }
                }
            ]
        }
    ],
    "textures" : [
        {
            "sampler" : 0,
            "source" : 0
        }
    ],
    "images" : [
        {
            "uri" : "house.png",
            "mimeType" : "image/png",
            "name" : "house.png"
        }
    ],
    "accessors" : [
        {
            "type" : "VEC3",
            "min" : [
                -0.0018184483051300049,
                0.04588085412979126,
                -0.07859945297241211
            ],
            "count" : 118,
            "max" : [
                0.7043963670730591,
                1.1422947645187378,
                -0.03794741630554199
            ],
            "bufferView" : 0,
            "componentType" : 5126
        },
        {
            "type" : "VEC3",
            "componentType" : 5126,
            "count" : 118,
            "bufferView" : 1
        },
        {
            "type" : "VEC2",
            "componentType" : 5126,
            "count" : 118,
            "bufferView" : 2
        },
        {
            "type" : "SCALAR",
            "componentType" : 5123,
            "count" : 144,
            "bufferView" : 3
        },
        {
            "type" : "VEC3",
            "min" : [
                -4.443775177001953,
                -0.06805706024169922,
                -2.354022979736328
            ],
            "count" : 1549,
            "max" : [
                4.427403450012207,
                4.168069362640381,
                2.354022979736328
            ],
            "bufferView" : 4,
            "componentType" : 5126
        },
        {
            "type" : "VEC3",
            "componentType" : 5126,
            "count" : 1549,
            "bufferView" : 5
        },
        {
            "type" : "VEC2",
            "componentType" : 5126,
            "count" : 1549,
            "bufferView" : 6
        },
        {
            "type" : "SCALAR",
            "componentType" : 5123,
            "count" : 2397,
            "bufferView" : 7
        },
        {
            "type" : "VEC3",
            "min" : [
                -4.478443145751953,
                -0.06977913528680801,
                -2.3774800300598145
            ],
            "count" : 168,
            "max" : [
                4.4953436851501465,
                4.193504333496094,
                2.34704327583313
            ],
            "bufferView" : 8,
            "componentType" : 5126
        },
        {
            "type" : "VEC3",
            "componentType" : 5126,
            "count" : 168,
            "bufferView" : 9
        },
        {
            "type" : "SCALAR",
            "componentType" : 5123,
            "count" : 264,
            "bufferView" : 10
        }
    ],
    "bufferViews" : [
        {
            "byteOffset" : 0,
            "buffer" : 0,
            "byteLength" : 1416
        },
        {
            "byteOffset" : 1416,
            "buffer" : 0,
            "byteLength" : 1416
        },
        {
            "byteOffset" : 2832,
            "buffer" : 0,
            "byteLength" : 944
        },
        {
            "byteOffset" : 3776,
            "buffer" : 0,
            "byteLength" : 288
        },
        {
            "byteOffset" : 4064,
            "buffer" : 0,
            "byteLength" : 18588
        },
        {
            "byteOffset" : 22652,
            "buffer" : 0,
            "byteLength" : 18588
        },
        {
            "byteOffset" : 41240,
            "buffer" : 0,
            "byteLength" : 12392
        },
        {
            "byteOffset" : 53632,
            "buffer" : 0,
            "byteLength" : 4794
        },
        {
            "byteOffset" : 58428,
            "buffer" : 0,
            "byteLength" : 2016
        },
        {
            "byteOffset" : 60444,
            "buffer" : 0,
            "byteLength" : 2016
        },
        {
            "byteOffset" : 62460,
            "buffer" : 0,
            "byteLength" : 528
        }
    ],
    "samplers" : [
        {
            "minFilter" : 9986,
            "wrapT" : 10497,
            "wrapS" : 10497,
            "magFilter" : 9729
        }
    ],
    "buffers" : [
        {
            "uri" : "house_1.bin",
            "byteLength" : 62988
        }
    ]
}
