{
    "asset" : {
        "version" : "2.0",
        "generator" : "Khronos glTF Blender I/O v1.2.20"
    },
    "extensionsUsed" : [
        "KHR_materials_unlit"
    ],
    "scene" : 0,
    "scenes" : [
        {
            "name" : "Scene",
            "nodes" : [
                1
            ]
        }
    ],
    "nodes" : [
        {
            "translation" : [
                0,
                1,
                0
            ],
            "mesh" : 0,
            "name" : "WellCollider -colonly"
        },
        {
            "mesh" : 1,
            "name" : "WellMesh",
            "children" : [
                0
            ]
        }
    ],
    "materials" : [
        {
            "extensions" : {
                "KHR_materials_unlit" : {}
            },
            "name" : "well",
            "pbrMetallicRoughness" : {
                "baseColorTexture" : {
                    "index" : 0,
                    "texCoord" : 0
                }
            }
        }
    ],
    "meshes" : [
        {
            "primitives" : [
                {
                    "indices" : 2,
                    "attributes" : {
                        "POSITION" : 0,
                        "NORMAL" : 1
                    }
                }
            ],
            "name" : "WellCollider.001"
        },
        {
            "primitives" : [
                {
                    "indices" : 6,
                    "material" : 0,
                    "attributes" : {
                        "TEXCOORD_0" : 3,
                        "POSITION" : 4,
                        "NORMAL" : 5
                    }
                }
            ],
            "name" : "WellMesh.001"
        }
    ],
    "textures" : [
        {
            "source" : 0,
            "sampler" : 0
        }
    ],
    "images" : [
        {
            "name" : "well.png",
            "uri" : "well.png",
            "mimeType" : "image/png"
        }
    ],
    "accessors" : [
        {
            "max" : [
                1.0212244987487793,
                1.0531210899353027,
                1
            ],
            "count" : 72,
            "componentType" : 5126,
            "min" : [
                -0.9808188676834106,
                -1,
                -1
            ],
            "bufferView" : 0,
            "type" : "VEC3"
        },
        {
            "componentType" : 5126,
            "bufferView" : 1,
            "type" : "VEC3",
            "count" : 72
        },
        {
            "componentType" : 5123,
            "bufferView" : 2,
            "type" : "SCALAR",
            "count" : 96
        },
        {
            "componentType" : 5126,
            "bufferView" : 3,
            "type" : "VEC2",
            "count" : 1675
        },
        {
            "max" : [
                0.986413836479187,
                2.031909227371216,
                1.0262959003448486
            ],
            "count" : 1675,
            "componentType" : 5126,
            "min" : [
                -0.9931458830833435,
                -0.008630854077637196,
                -1.0511143207550049
            ],
            "bufferView" : 4,
            "type" : "VEC3"
        },
        {
            "componentType" : 5126,
            "bufferView" : 5,
            "type" : "VEC3",
            "count" : 1675
        },
        {
            "componentType" : 5123,
            "bufferView" : 6,
            "type" : "SCALAR",
            "count" : 2550
        }
    ],
    "bufferViews" : [
        {
            "buffer" : 0,
            "byteLength" : 864,
            "byteOffset" : 0
        },
        {
            "buffer" : 0,
            "byteLength" : 864,
            "byteOffset" : 864
        },
        {
            "buffer" : 0,
            "byteLength" : 192,
            "byteOffset" : 1728
        },
        {
            "buffer" : 0,
            "byteLength" : 13400,
            "byteOffset" : 1920
        },
        {
            "buffer" : 0,
            "byteLength" : 20100,
            "byteOffset" : 15320
        },
        {
            "buffer" : 0,
            "byteLength" : 20100,
            "byteOffset" : 35420
        },
        {
            "buffer" : 0,
            "byteLength" : 5100,
            "byteOffset" : 55520
        }
    ],
    "samplers" : [
        {
            "minFilter" : 9986,
            "wrapT" : 10497,
            "magFilter" : 9729,
            "wrapS" : 10497
        }
    ],
    "buffers" : [
        {
            "uri" : "well.bin",
            "byteLength" : 60620
        }
    ]
}
