{
    "asset" : {
        "version" : "2.0",
        "generator" : "Khronos glTF Blender I/O v1.2.20"
    },
    "scene" : 0,
    "scenes" : [
        {
            "nodes" : [
                1
            ],
            "name" : "Scene"
        }
    ],
    "nodes" : [
        {
            "name" : "Rock2Collider -colonly",
            "mesh" : 0
        },
        {
            "name" : "Rock2",
            "children" : [
                0
            ],
            "mesh" : 1
        }
    ],
    "materials" : [
        {
            "name" : "rock_2",
            "pbrMetallicRoughness" : {
                "baseColorTexture" : {
                    "index" : 0,
                    "texCoord" : 0
                }
            }
        }
    ],
    "meshes" : [
        {
            "name" : "Rock2Collider.001",
            "primitives" : [
                {
                    "indices" : 2,
                    "attributes" : {
                        "POSITION" : 0,
                        "NORMAL" : 1
                    }
                }
            ]
        },
        {
            "name" : "Rock2.001",
            "primitives" : [
                {
                    "indices" : 6,
                    "attributes" : {
                        "TEXCOORD_0" : 3,
                        "POSITION" : 4,
                        "NORMAL" : 5
                    },
                    "material" : 0
                }
            ]
        }
    ],
    "textures" : [
        {
            "sampler" : 0,
            "source" : 0
        }
    ],
    "images" : [
        {
            "mimeType" : "image/png",
            "name" : "rock_2.png",
            "uri" : "rock_2.png"
        }
    ],
    "accessors" : [
        {
            "type" : "VEC3",
            "min" : [
                -0.58921217918396,
                -0.10638739913702011,
                -0.6182562112808228
            ],
            "max" : [
                0.58921217918396,
                0.9916898608207703,
                0.618649423122406
            ],
            "count" : 53,
            "componentType" : 5126,
            "bufferView" : 0
        },
        {
            "type" : "VEC3",
            "count" : 53,
            "componentType" : 5126,
            "bufferView" : 1
        },
        {
            "type" : "SCALAR",
            "count" : 96,
            "componentType" : 5123,
            "bufferView" : 2
        },
        {
            "type" : "VEC2",
            "count" : 52,
            "componentType" : 5126,
            "bufferView" : 3
        },
        {
            "type" : "VEC3",
            "min" : [
                -0.5883015394210815,
                -0.13517452776432037,
                -0.6014695167541504
            ],
            "max" : [
                0.6150045394897461,
                1.0019664764404297,
                0.6322313547134399
            ],
            "count" : 52,
            "componentType" : 5126,
            "bufferView" : 4
        },
        {
            "type" : "VEC3",
            "count" : 52,
            "componentType" : 5126,
            "bufferView" : 5
        },
        {
            "type" : "SCALAR",
            "count" : 300,
            "componentType" : 5123,
            "bufferView" : 6
        }
    ],
    "bufferViews" : [
        {
            "byteOffset" : 0,
            "byteLength" : 636,
            "buffer" : 0
        },
        {
            "byteOffset" : 636,
            "byteLength" : 636,
            "buffer" : 0
        },
        {
            "byteOffset" : 1272,
            "byteLength" : 192,
            "buffer" : 0
        },
        {
            "byteOffset" : 1464,
            "byteLength" : 416,
            "buffer" : 0
        },
        {
            "byteOffset" : 1880,
            "byteLength" : 624,
            "buffer" : 0
        },
        {
            "byteOffset" : 2504,
            "byteLength" : 624,
            "buffer" : 0
        },
        {
            "byteOffset" : 3128,
            "byteLength" : 600,
            "buffer" : 0
        }
    ],
    "samplers" : [
        {
            "wrapS" : 10497,
            "minFilter" : 9986,
            "magFilter" : 9729,
            "wrapT" : 10497
        }
    ],
    "buffers" : [
        {
            "byteLength" : 3728,
            "uri" : "rock_2.bin"
        }
    ]
}
