{
    "asset" : {
        "generator" : "Khronos glTF Blender I/O v1.2.20",
        "version" : "2.0"
    },
    "extensionsUsed" : [
        "KHR_materials_unlit"
    ],
    "scene" : 0,
    "scenes" : [
        {
            "nodes" : [
                1
            ],
            "name" : "Scene"
        }
    ],
    "nodes" : [
        {
            "mesh" : 0,
            "name" : "Rock1Collider -colonly"
        },
        {
            "children" : [
                0
            ],
            "mesh" : 1,
            "name" : "Rock1"
        }
    ],
    "materials" : [
        {
            "extensions" : {
                "KHR_materials_unlit" : {}
            },
            "pbrMetallicRoughness" : {
                "baseColorTexture" : {
                    "index" : 0,
                    "texCoord" : 0
                }
            },
            "name" : "rock_1"
        }
    ],
    "meshes" : [
        {
            "primitives" : [
                {
                    "indices" : 2,
                    "attributes" : {
                        "POSITION" : 0,
                        "NORMAL" : 1
                    }
                }
            ],
            "name" : "Rock1Collider.001"
        },
        {
            "primitives" : [
                {
                    "indices" : 6,
                    "material" : 0,
                    "attributes" : {
                        "POSITION" : 3,
                        "NORMAL" : 4,
                        "TEXCOORD_0" : 5
                    }
                }
            ],
            "name" : "Rock1.001"
        }
    ],
    "textures" : [
        {
            "sampler" : 0,
            "source" : 0
        }
    ],
    "images" : [
        {
            "mimeType" : "image/png",
            "uri" : "rock_1.png",
            "name" : "rock_1.png"
        }
    ],
    "accessors" : [
        {
            "componentType" : 5126,
            "min" : [
                -0.49000003933906555,
                0,
                -0.5400000214576721
            ],
            "count" : 24,
            "type" : "VEC3",
            "max" : [
                0.6200000643730164,
                1,
                0.49000003933906555
            ],
            "bufferView" : 0
        },
        {
            "componentType" : 5126,
            "count" : 24,
            "type" : "VEC3",
            "bufferView" : 1
        },
        {
            "componentType" : 5123,
            "count" : 36,
            "type" : "SCALAR",
            "bufferView" : 2
        },
        {
            "componentType" : 5126,
            "min" : [
                -0.5603770613670349,
                0,
                -0.5807106494903564
            ],
            "count" : 80,
            "type" : "VEC3",
            "max" : [
                0.6945320963859558,
                0.9974599480628967,
                0.5465134382247925
            ],
            "bufferView" : 3
        },
        {
            "componentType" : 5126,
            "count" : 80,
            "type" : "VEC3",
            "bufferView" : 4
        },
        {
            "componentType" : 5126,
            "count" : 80,
            "type" : "VEC2",
            "bufferView" : 5
        },
        {
            "componentType" : 5123,
            "count" : 270,
            "type" : "SCALAR",
            "bufferView" : 6
        }
    ],
    "bufferViews" : [
        {
            "byteLength" : 288,
            "byteOffset" : 0,
            "buffer" : 0
        },
        {
            "byteLength" : 288,
            "byteOffset" : 288,
            "buffer" : 0
        },
        {
            "byteLength" : 72,
            "byteOffset" : 576,
            "buffer" : 0
        },
        {
            "byteLength" : 960,
            "byteOffset" : 648,
            "buffer" : 0
        },
        {
            "byteLength" : 960,
            "byteOffset" : 1608,
            "buffer" : 0
        },
        {
            "byteLength" : 640,
            "byteOffset" : 2568,
            "buffer" : 0
        },
        {
            "byteLength" : 540,
            "byteOffset" : 3208,
            "buffer" : 0
        }
    ],
    "samplers" : [
        {
            "magFilter" : 9729,
            "wrapT" : 10497,
            "wrapS" : 10497,
            "minFilter" : 9986
        }
    ],
    "buffers" : [
        {
            "byteLength" : 3748,
            "uri" : "rock_1.bin"
        }
    ]
}
