{
    "asset" : {
        "generator" : "Khronos glTF Blender I/O v1.2.20",
        "version" : "2.0"
    },
    "scene" : 0,
    "scenes" : [
        {
            "name" : "Scene",
            "nodes" : [
                1
            ]
        }
    ],
    "nodes" : [
        {
            "name" : "Rock3Collider -colonly",
            "mesh" : 0
        },
        {
            "name" : "Rock3",
            "mesh" : 1,
            "children" : [
                0
            ]
        }
    ],
    "materials" : [
        {
            "name" : "rock_3",
            "pbrMetallicRoughness" : {
                "baseColorTexture" : {
                    "index" : 0,
                    "texCoord" : 0
                }
            }
        }
    ],
    "meshes" : [
        {
            "name" : "Rock3Collider.001",
            "primitives" : [
                {
                    "attributes" : {
                        "NORMAL" : 0,
                        "POSITION" : 1
                    },
                    "indices" : 2
                }
            ]
        },
        {
            "name" : "Rock3.001",
            "primitives" : [
                {
                    "attributes" : {
                        "NORMAL" : 3,
                        "POSITION" : 4,
                        "TEXCOORD_0" : 5
                    },
                    "material" : 0,
                    "indices" : 6
                }
            ]
        }
    ],
    "textures" : [
        {
            "source" : 0,
            "sampler" : 0
        }
    ],
    "images" : [
        {
            "name" : "rock_3.png",
            "mimeType" : "image/png",
            "uri" : "rock_3.png"
        }
    ],
    "accessors" : [
        {
            "type" : "VEC3",
            "count" : 24,
            "componentType" : 5126,
            "bufferView" : 0
        },
        {
            "max" : [
                0.5086868405342102,
                0.7699999809265137,
                0.533252477645874
            ],
            "min" : [
                -0.5121962428092957,
                0,
                -0.5753650665283203
            ],
            "bufferView" : 1,
            "type" : "VEC3",
            "componentType" : 5126,
            "count" : 24
        },
        {
            "type" : "SCALAR",
            "count" : 36,
            "componentType" : 5123,
            "bufferView" : 2
        },
        {
            "type" : "VEC3",
            "count" : 66,
            "componentType" : 5126,
            "bufferView" : 3
        },
        {
            "max" : [
                0.5915665626525879,
                0.7821856737136841,
                0.6365830898284912
            ],
            "min" : [
                -0.5881668925285339,
                -0.005961976479738951,
                -0.6769289970397949
            ],
            "bufferView" : 4,
            "type" : "VEC3",
            "componentType" : 5126,
            "count" : 66
        },
        {
            "type" : "VEC2",
            "count" : 66,
            "componentType" : 5126,
            "bufferView" : 5
        },
        {
            "type" : "SCALAR",
            "count" : 192,
            "componentType" : 5123,
            "bufferView" : 6
        }
    ],
    "bufferViews" : [
        {
            "byteOffset" : 0,
            "byteLength" : 288,
            "buffer" : 0
        },
        {
            "byteOffset" : 288,
            "byteLength" : 288,
            "buffer" : 0
        },
        {
            "byteOffset" : 576,
            "byteLength" : 72,
            "buffer" : 0
        },
        {
            "byteOffset" : 648,
            "byteLength" : 792,
            "buffer" : 0
        },
        {
            "byteOffset" : 1440,
            "byteLength" : 792,
            "buffer" : 0
        },
        {
            "byteOffset" : 2232,
            "byteLength" : 528,
            "buffer" : 0
        },
        {
            "byteOffset" : 2760,
            "byteLength" : 384,
            "buffer" : 0
        }
    ],
    "samplers" : [
        {
            "minFilter" : 9986,
            "wrapT" : 10497,
            "magFilter" : 9729,
            "wrapS" : 10497
        }
    ],
    "buffers" : [
        {
            "byteLength" : 3144,
            "uri" : "rock_3.bin"
        }
    ]
}
