{
    "asset" : {
        "generator" : "Khronos glTF Blender I/O v1.2.20",
        "version" : "2.0"
    },
    "scene" : 0,
    "scenes" : [
        {
            "name" : "Scene",
            "nodes" : [
                1
            ]
        }
    ],
    "nodes" : [
        {
            "name" : "Rock2Collider -colonly",
            "mesh" : 0
        },
        {
            "name" : "Rock2",
            "mesh" : 1,
            "children" : [
                0
            ]
        }
    ],
    "materials" : [
        {
            "name" : "rock_2",
            "pbrMetallicRoughness" : {
                "baseColorTexture" : {
                    "index" : 0,
                    "texCoord" : 0
                }
            }
        }
    ],
    "meshes" : [
        {
            "name" : "Rock2Collider.001",
            "primitives" : [
                {
                    "attributes" : {
                        "NORMAL" : 0,
                        "POSITION" : 1
                    },
                    "indices" : 2
                }
            ]
        },
        {
            "name" : "Rock2.001",
            "primitives" : [
                {
                    "attributes" : {
                        "NORMAL" : 3,
                        "POSITION" : 4,
                        "TEXCOORD_0" : 5
                    },
                    "material" : 0,
                    "indices" : 6
                }
            ]
        }
    ],
    "textures" : [
        {
            "source" : 0,
            "sampler" : 0
        }
    ],
    "images" : [
        {
            "name" : "rock_2.png",
            "mimeType" : "image/png",
            "uri" : "rock_2.png"
        }
    ],
    "accessors" : [
        {
            "type" : "VEC3",
            "count" : 24,
            "componentType" : 5126,
            "bufferView" : 0
        },
        {
            "max" : [
                0.43986350297927856,
                1,
                0.39986351132392883
            ],
            "min" : [
                -0.450475811958313,
                0,
                -0.45972704887390137
            ],
            "bufferView" : 1,
            "type" : "VEC3",
            "componentType" : 5126,
            "count" : 24
        },
        {
            "type" : "SCALAR",
            "count" : 36,
            "componentType" : 5123,
            "bufferView" : 2
        },
        {
            "type" : "VEC3",
            "count" : 52,
            "componentType" : 5126,
            "bufferView" : 3
        },
        {
            "max" : [
                0.5938687920570374,
                1.0019664764404297,
                0.5870420932769775
            ],
            "min" : [
                -0.6107637286186218,
                -0.13517452776432037,
                -0.571763813495636
            ],
            "bufferView" : 4,
            "type" : "VEC3",
            "componentType" : 5126,
            "count" : 52
        },
        {
            "type" : "VEC2",
            "count" : 52,
            "componentType" : 5126,
            "bufferView" : 5
        },
        {
            "type" : "SCALAR",
            "count" : 300,
            "componentType" : 5123,
            "bufferView" : 6
        }
    ],
    "bufferViews" : [
        {
            "byteOffset" : 0,
            "byteLength" : 288,
            "buffer" : 0
        },
        {
            "byteOffset" : 288,
            "byteLength" : 288,
            "buffer" : 0
        },
        {
            "byteOffset" : 576,
            "byteLength" : 72,
            "buffer" : 0
        },
        {
            "byteOffset" : 648,
            "byteLength" : 624,
            "buffer" : 0
        },
        {
            "byteOffset" : 1272,
            "byteLength" : 624,
            "buffer" : 0
        },
        {
            "byteOffset" : 1896,
            "byteLength" : 416,
            "buffer" : 0
        },
        {
            "byteOffset" : 2312,
            "byteLength" : 600,
            "buffer" : 0
        }
    ],
    "samplers" : [
        {
            "minFilter" : 9986,
            "wrapT" : 10497,
            "magFilter" : 9729,
            "wrapS" : 10497
        }
    ],
    "buffers" : [
        {
            "byteLength" : 2912,
            "uri" : "rock_2.bin"
        }
    ]
}
