{
    "asset" : {
        "version" : "2.0",
        "generator" : "Khronos glTF Blender I/O v1.2.20"
    },
    "scene" : 0,
    "scenes" : [
        {
            "nodes" : [
                0,
                1
            ],
            "name" : "Scene"
        }
    ],
    "nodes" : [
        {
            "mesh" : 0,
            "name" : "FlagOnMesh"
        },
        {
            "mesh" : 1,
            "name" : "FlagOffMesh"
        }
    ],
    "materials" : [
        {
            "pbrMetallicRoughness" : {
                "baseColorTexture" : {
                    "texCoord" : 0,
                    "index" : 0
                }
            },
            "name" : "flag"
        }
    ],
    "meshes" : [
        {
            "primitives" : [
                {
                    "indices" : 3,
                    "material" : 0,
                    "attributes" : {
                        "TEXCOORD_0" : 0,
                        "POSITION" : 1,
                        "NORMAL" : 2
                    }
                }
            ],
            "name" : "FlagOnMesh.001"
        },
        {
            "primitives" : [
                {
                    "indices" : 3,
                    "material" : 0,
                    "attributes" : {
                        "TEXCOORD_0" : 4,
                        "POSITION" : 5,
                        "NORMAL" : 6
                    }
                }
            ],
            "name" : "FlagOffMesh.001"
        }
    ],
    "textures" : [
        {
            "sampler" : 0,
            "source" : 0
        }
    ],
    "images" : [
        {
            "uri" : "flag.png",
            "mimeType" : "image/png",
            "name" : "flag"
        }
    ],
    "accessors" : [
        {
            "componentType" : 5126,
            "bufferView" : 0,
            "type" : "VEC2",
            "count" : 58
        },
        {
            "componentType" : 5126,
            "type" : "VEC3",
            "min" : [
                -0.015773508697748184,
                -0.015773508697748184,
                -0.015773508697748184
            ],
            "max" : [
                0.5578867197036743,
                1.5157735347747803,
                0.015773508697748184
            ],
            "bufferView" : 1,
            "count" : 58
        },
        {
            "componentType" : 5126,
            "bufferView" : 2,
            "type" : "VEC3",
            "count" : 58
        },
        {
            "componentType" : 5123,
            "bufferView" : 3,
            "type" : "SCALAR",
            "count" : 102
        },
        {
            "componentType" : 5126,
            "bufferView" : 4,
            "type" : "VEC2",
            "count" : 58
        },
        {
            "componentType" : 5126,
            "type" : "VEC3",
            "min" : [
                -0.015773508697748184,
                -0.015773508697748184,
                -0.015773508697748184
            ],
            "max" : [
                0.5578867197036743,
                1.5157735347747803,
                0.015773508697748184
            ],
            "bufferView" : 5,
            "count" : 58
        },
        {
            "componentType" : 5126,
            "bufferView" : 6,
            "type" : "VEC3",
            "count" : 58
        }
    ],
    "bufferViews" : [
        {
            "byteOffset" : 0,
            "byteLength" : 464,
            "buffer" : 0
        },
        {
            "byteOffset" : 464,
            "byteLength" : 696,
            "buffer" : 0
        },
        {
            "byteOffset" : 1160,
            "byteLength" : 696,
            "buffer" : 0
        },
        {
            "byteOffset" : 1856,
            "byteLength" : 204,
            "buffer" : 0
        },
        {
            "byteOffset" : 2060,
            "byteLength" : 464,
            "buffer" : 0
        },
        {
            "byteOffset" : 2524,
            "byteLength" : 696,
            "buffer" : 0
        },
        {
            "byteOffset" : 3220,
            "byteLength" : 696,
            "buffer" : 0
        }
    ],
    "samplers" : [
        {
            "wrapS" : 10497,
            "minFilter" : 9986,
            "wrapT" : 10497,
            "magFilter" : 9729
        }
    ],
    "buffers" : [
        {
            "uri" : "flag.bin",
            "byteLength" : 3916
        }
    ]
}
