{
    "asset" : {
        "version" : "2.0",
        "generator" : "Khronos glTF Blender I/O v1.2.20"
    },
    "extensionsUsed" : [
        "KHR_materials_unlit"
    ],
    "scene" : 0,
    "scenes" : [
        {
            "name" : "Scene",
            "nodes" : [
                0,
                1
            ]
        }
    ],
    "nodes" : [
        {
            "name" : "FlagOnMesh",
            "mesh" : 0
        },
        {
            "name" : "FlagOffMesh",
            "mesh" : 1
        }
    ],
    "materials" : [
        {
            "name" : "flag",
            "pbrMetallicRoughness" : {
                "baseColorTexture" : {
                    "index" : 0,
                    "texCoord" : 0
                }
            },
            "extensions" : {
                "KHR_materials_unlit" : {}
            }
        }
    ],
    "meshes" : [
        {
            "name" : "FlagOnMesh.001",
            "primitives" : [
                {
                    "attributes" : {
                        "POSITION" : 0,
                        "NORMAL" : 1,
                        "TEXCOORD_0" : 2
                    },
                    "material" : 0,
                    "indices" : 3
                }
            ]
        },
        {
            "name" : "FlagOffMesh.001",
            "primitives" : [
                {
                    "attributes" : {
                        "POSITION" : 4,
                        "NORMAL" : 5,
                        "TEXCOORD_0" : 6
                    },
                    "material" : 0,
                    "indices" : 7
                }
            ]
        }
    ],
    "textures" : [
        {
            "sampler" : 0,
            "source" : 0
        }
    ],
    "images" : [
        {
            "name" : "flag-1.png",
            "mimeType" : "image/png",
            "uri" : "flag-1.png"
        }
    ],
    "accessors" : [
        {
            "min" : [
                -0.4383718967437744,
                -0.0792698860168457,
                -0.058552488684654236
            ],
            "count" : 210,
            "type" : "VEC3",
            "componentType" : 5126,
            "bufferView" : 0,
            "max" : [
                0.43837183713912964,
                1.5134315490722656,
                0.05137619748711586
            ]
        },
        {
            "componentType" : 5126,
            "count" : 210,
            "bufferView" : 1,
            "type" : "VEC3"
        },
        {
            "componentType" : 5126,
            "count" : 210,
            "bufferView" : 2,
            "type" : "VEC2"
        },
        {
            "componentType" : 5123,
            "count" : 348,
            "bufferView" : 3,
            "type" : "SCALAR"
        },
        {
            "min" : [
                -0.4383718967437744,
                -0.0792698860168457,
                -0.03876936435699463
            ],
            "count" : 226,
            "type" : "VEC3",
            "componentType" : 5126,
            "bufferView" : 4,
            "max" : [
                0.43837183713912964,
                1.5252240896224976,
                0.05378809571266174
            ]
        },
        {
            "componentType" : 5126,
            "count" : 226,
            "bufferView" : 5,
            "type" : "VEC3"
        },
        {
            "componentType" : 5126,
            "count" : 226,
            "bufferView" : 6,
            "type" : "VEC2"
        },
        {
            "componentType" : 5123,
            "count" : 372,
            "bufferView" : 7,
            "type" : "SCALAR"
        }
    ],
    "bufferViews" : [
        {
            "byteOffset" : 0,
            "byteLength" : 2520,
            "buffer" : 0
        },
        {
            "byteOffset" : 2520,
            "byteLength" : 2520,
            "buffer" : 0
        },
        {
            "byteOffset" : 5040,
            "byteLength" : 1680,
            "buffer" : 0
        },
        {
            "byteOffset" : 6720,
            "byteLength" : 696,
            "buffer" : 0
        },
        {
            "byteOffset" : 7416,
            "byteLength" : 2712,
            "buffer" : 0
        },
        {
            "byteOffset" : 10128,
            "byteLength" : 2712,
            "buffer" : 0
        },
        {
            "byteOffset" : 12840,
            "byteLength" : 1808,
            "buffer" : 0
        },
        {
            "byteOffset" : 14648,
            "byteLength" : 744,
            "buffer" : 0
        }
    ],
    "samplers" : [
        {
            "wrapT" : 10497,
            "wrapS" : 10497,
            "magFilter" : 9729,
            "minFilter" : 9986
        }
    ],
    "buffers" : [
        {
            "byteLength" : 15392,
            "uri" : "flag.bin"
        }
    ]
}
