{
    "asset" : {
        "generator" : "Khronos glTF Blender I/O v1.2.20",
        "version" : "2.0"
    },
    "extensionsUsed" : [
        "KHR_materials_unlit"
    ],
    "scene" : 0,
    "scenes" : [
        {
            "nodes" : [
                0
            ],
            "name" : "Scene"
        }
    ],
    "nodes" : [
        {
            "name" : "Bush1Mesh",
            "mesh" : 0
        }
    ],
    "materials" : [
        {
            "extensions" : {
                "KHR_materials_unlit" : {}
            },
            "pbrMetallicRoughness" : {
                "baseColorTexture" : {
                    "texCoord" : 0,
                    "index" : 0
                }
            },
            "name" : "bush"
        }
    ],
    "meshes" : [
        {
            "name" : "Bush1Mesh.001",
            "primitives" : [
                {
                    "material" : 0,
                    "attributes" : {
                        "NORMAL" : 0,
                        "TEXCOORD_0" : 1,
                        "POSITION" : 2
                    },
                    "indices" : 3
                }
            ]
        }
    ],
    "textures" : [
        {
            "source" : 0,
            "sampler" : 0
        }
    ],
    "images" : [
        {
            "uri" : "tree_leaves.png",
            "name" : "tree_leaves.png",
            "mimeType" : "image/png"
        }
    ],
    "accessors" : [
        {
            "type" : "VEC3",
            "componentType" : 5126,
            "bufferView" : 0,
            "count" : 49
        },
        {
            "type" : "VEC2",
            "componentType" : 5126,
            "bufferView" : 1,
            "count" : 49
        },
        {
            "type" : "VEC3",
            "max" : [
                0.6389379501342773,
                0.7050498723983765,
                0.6286100745201111
            ],
            "min" : [
                -0.6369934678077698,
                -0.0020331423729658127,
                -0.62971031665802
            ],
            "componentType" : 5126,
            "bufferView" : 2,
            "count" : 49
        },
        {
            "type" : "SCALAR",
            "componentType" : 5123,
            "bufferView" : 3,
            "count" : 225
        }
    ],
    "bufferViews" : [
        {
            "buffer" : 0,
            "byteOffset" : 0,
            "byteLength" : 588
        },
        {
            "buffer" : 0,
            "byteOffset" : 588,
            "byteLength" : 392
        },
        {
            "buffer" : 0,
            "byteOffset" : 980,
            "byteLength" : 588
        },
        {
            "buffer" : 0,
            "byteOffset" : 1568,
            "byteLength" : 450
        }
    ],
    "samplers" : [
        {
            "wrapS" : 10497,
            "minFilter" : 9986,
            "wrapT" : 10497,
            "magFilter" : 9729
        }
    ],
    "buffers" : [
        {
            "uri" : "bush_1.bin",
            "byteLength" : 2020
        }
    ]
}
