{
    "asset" : {
        "generator" : "Khronos glTF Blender I/O v1.2.20",
        "version" : "2.0"
    },
    "extensionsUsed" : [
        "KHR_materials_unlit"
    ],
    "scene" : 0,
    "scenes" : [
        {
            "nodes" : [
                0
            ],
            "name" : "Scene"
        }
    ],
    "nodes" : [
        {
            "mesh" : 0,
            "name" : "Bush2Mesh"
        }
    ],
    "materials" : [
        {
            "extensions" : {
                "KHR_materials_unlit" : {}
            },
            "name" : "tree_leaves",
            "pbrMetallicRoughness" : {
                "baseColorTexture" : {
                    "index" : 0,
                    "texCoord" : 0
                }
            }
        }
    ],
    "meshes" : [
        {
            "primitives" : [
                {
                    "indices" : 3,
                    "material" : 0,
                    "attributes" : {
                        "NORMAL" : 0,
                        "TEXCOORD_0" : 1,
                        "POSITION" : 2
                    }
                }
            ],
            "name" : "Bush2Mesh.001"
        }
    ],
    "textures" : [
        {
            "sampler" : 0,
            "source" : 0
        }
    ],
    "images" : [
        {
            "mimeType" : "image/png",
            "name" : "tree_leaves.png",
            "uri" : "tree_leaves.png"
        }
    ],
    "accessors" : [
        {
            "componentType" : 5126,
            "type" : "VEC3",
            "count" : 147,
            "bufferView" : 0
        },
        {
            "componentType" : 5126,
            "type" : "VEC2",
            "count" : 147,
            "bufferView" : 1
        },
        {
            "componentType" : 5126,
            "count" : 147,
            "min" : [
                -0.6676821708679199,
                -0.0013409324456006289,
                -0.5821561813354492
            ],
            "type" : "VEC3",
            "max" : [
                0.5890530943870544,
                0.46500641107559204,
                0.6836341619491577
            ],
            "bufferView" : 2
        },
        {
            "componentType" : 5123,
            "type" : "SCALAR",
            "count" : 675,
            "bufferView" : 3
        }
    ],
    "bufferViews" : [
        {
            "buffer" : 0,
            "byteOffset" : 0,
            "byteLength" : 1764
        },
        {
            "buffer" : 0,
            "byteOffset" : 1764,
            "byteLength" : 1176
        },
        {
            "buffer" : 0,
            "byteOffset" : 2940,
            "byteLength" : 1764
        },
        {
            "buffer" : 0,
            "byteOffset" : 4704,
            "byteLength" : 1350
        }
    ],
    "samplers" : [
        {
            "minFilter" : 9986,
            "wrapT" : 10497,
            "magFilter" : 9729,
            "wrapS" : 10497
        }
    ],
    "buffers" : [
        {
            "byteLength" : 6056,
            "uri" : "bush_2.bin"
        }
    ]
}
