{
    "asset" : {
        "generator" : "Khronos glTF Blender I/O v1.2.20",
        "version" : "2.0"
    },
    "extensionsUsed" : [
        "KHR_materials_unlit"
    ],
    "scene" : 0,
    "scenes" : [
        {
            "nodes" : [
                0
            ],
            "name" : "Scene"
        }
    ],
    "nodes" : [
        {
            "name" : "Bush2Mesh",
            "mesh" : 0
        }
    ],
    "materials" : [
        {
            "extensions" : {
                "KHR_materials_unlit" : {}
            },
            "pbrMetallicRoughness" : {
                "baseColorTexture" : {
                    "texCoord" : 0,
                    "index" : 0
                }
            },
            "name" : "bush"
        }
    ],
    "meshes" : [
        {
            "name" : "Bush2Mesh.001",
            "primitives" : [
                {
                    "material" : 0,
                    "attributes" : {
                        "NORMAL" : 0,
                        "TEXCOORD_0" : 1,
                        "POSITION" : 2
                    },
                    "indices" : 3
                }
            ]
        }
    ],
    "textures" : [
        {
            "source" : 0,
            "sampler" : 0
        }
    ],
    "images" : [
        {
            "uri" : "tree_leaves.png",
            "name" : "tree_leaves.png",
            "mimeType" : "image/png"
        }
    ],
    "accessors" : [
        {
            "type" : "VEC3",
            "componentType" : 5126,
            "bufferView" : 0,
            "count" : 147
        },
        {
            "type" : "VEC2",
            "componentType" : 5126,
            "bufferView" : 1,
            "count" : 147
        },
        {
            "type" : "VEC3",
            "max" : [
                0.5890530943870544,
                0.46500641107559204,
                0.6836341619491577
            ],
            "min" : [
                -0.6676821708679199,
                -0.0013409324456006289,
                -0.5821561813354492
            ],
            "componentType" : 5126,
            "bufferView" : 2,
            "count" : 147
        },
        {
            "type" : "SCALAR",
            "componentType" : 5123,
            "bufferView" : 3,
            "count" : 675
        }
    ],
    "bufferViews" : [
        {
            "buffer" : 0,
            "byteOffset" : 0,
            "byteLength" : 1764
        },
        {
            "buffer" : 0,
            "byteOffset" : 1764,
            "byteLength" : 1176
        },
        {
            "buffer" : 0,
            "byteOffset" : 2940,
            "byteLength" : 1764
        },
        {
            "buffer" : 0,
            "byteOffset" : 4704,
            "byteLength" : 1350
        }
    ],
    "samplers" : [
        {
            "wrapS" : 10497,
            "minFilter" : 9986,
            "wrapT" : 10497,
            "magFilter" : 9729
        }
    ],
    "buffers" : [
        {
            "uri" : "bush_2.bin",
            "byteLength" : 6056
        }
    ]
}
