{
    "asset" : {
        "generator" : "Khronos glTF Blender I/O v1.2.20",
        "version" : "2.0"
    },
    "extensionsUsed" : [
        "KHR_materials_unlit"
    ],
    "scene" : 0,
    "scenes" : [
        {
            "name" : "Scene",
            "nodes" : [
                1
            ]
        }
    ],
    "nodes" : [
        {
            "name" : "palmTreeCollider -colonly",
            "mesh" : 0
        },
        {
            "name" : "palmTree",
            "children" : [
                0
            ],
            "mesh" : 1
        }
    ],
    "materials" : [
        {
            "extensions" : {
                "KHR_materials_unlit" : {}
            },
            "name" : "palmetree",
            "pbrMetallicRoughness" : {
                "baseColorTexture" : {
                    "index" : 0,
                    "texCoord" : 0
                }
            }
        }
    ],
    "meshes" : [
        {
            "primitives" : [
                {
                    "attributes" : {
                        "POSITION" : 0,
                        "NORMAL" : 1
                    },
                    "indices" : 2
                }
            ],
            "name" : "palmTreeCollider.001"
        },
        {
            "primitives" : [
                {
                    "material" : 0,
                    "attributes" : {
                        "POSITION" : 3,
                        "TEXCOORD_0" : 4,
                        "NORMAL" : 5
                    },
                    "indices" : 6
                }
            ],
            "name" : "palmTree.001"
        }
    ],
    "textures" : [
        {
            "source" : 0,
            "sampler" : 0
        }
    ],
    "images" : [
        {
            "name" : "palmtree.png",
            "uri" : "palmtree.png",
            "mimeType" : "image/png"
        }
    ],
    "accessors" : [
        {
            "type" : "VEC3",
            "max" : [
                0.5024468898773193,
                3.123422145843506,
                0.694324254989624
            ],
            "min" : [
                -0.3574238419532776,
                0,
                -0.35918065905570984
            ],
            "count" : 24,
            "componentType" : 5126,
            "bufferView" : 0
        },
        {
            "type" : "VEC3",
            "count" : 24,
            "componentType" : 5126,
            "bufferView" : 1
        },
        {
            "type" : "SCALAR",
            "count" : 36,
            "componentType" : 5123,
            "bufferView" : 2
        },
        {
            "type" : "VEC3",
            "max" : [
                0.9532609581947327,
                2.2804999351501465,
                0.8487246036529541
            ],
            "min" : [
                -1.045141339302063,
                -0.022832222282886505,
                -1.008004069328308
            ],
            "count" : 1490,
            "componentType" : 5126,
            "bufferView" : 3
        },
        {
            "type" : "VEC2",
            "count" : 1490,
            "componentType" : 5126,
            "bufferView" : 4
        },
        {
            "type" : "VEC3",
            "count" : 1490,
            "componentType" : 5126,
            "bufferView" : 5
        },
        {
            "type" : "SCALAR",
            "count" : 1854,
            "componentType" : 5123,
            "bufferView" : 6
        }
    ],
    "bufferViews" : [
        {
            "byteLength" : 288,
            "byteOffset" : 0,
            "buffer" : 0
        },
        {
            "byteLength" : 288,
            "byteOffset" : 288,
            "buffer" : 0
        },
        {
            "byteLength" : 72,
            "byteOffset" : 576,
            "buffer" : 0
        },
        {
            "byteLength" : 17880,
            "byteOffset" : 648,
            "buffer" : 0
        },
        {
            "byteLength" : 11920,
            "byteOffset" : 18528,
            "buffer" : 0
        },
        {
            "byteLength" : 17880,
            "byteOffset" : 30448,
            "buffer" : 0
        },
        {
            "byteLength" : 3708,
            "byteOffset" : 48328,
            "buffer" : 0
        }
    ],
    "samplers" : [
        {
            "minFilter" : 9986,
            "wrapS" : 10497,
            "wrapT" : 10497,
            "magFilter" : 9729
        }
    ],
    "buffers" : [
        {
            "byteLength" : 52036,
            "uri" : "palm_tree.bin"
        }
    ]
}
