{
    "asset" : {
        "generator" : "Khronos glTF Blender I/O v1.2.20",
        "version" : "2.0"
    },
    "extensionsUsed" : [
        "KHR_materials_unlit"
    ],
    "scene" : 0,
    "scenes" : [
        {
            "name" : "Scene",
            "nodes" : [
                1
            ]
        }
    ],
    "nodes" : [
        {
            "name" : "Tree5Collider -colonly",
            "mesh" : 0
        },
        {
            "name" : "Tree5",
            "mesh" : 1,
            "children" : [
                0
            ]
        }
    ],
    "materials" : [
        {
            "name" : "tree_trunk",
            "extensions" : {
                "KHR_materials_unlit" : {}
            },
            "pbrMetallicRoughness" : {
                "baseColorTexture" : {
                    "index" : 0,
                    "texCoord" : 0
                }
            }
        }
    ],
    "meshes" : [
        {
            "name" : "Tree5Collider.001",
            "primitives" : [
                {
                    "indices" : 2,
                    "attributes" : {
                        "POSITION" : 0,
                        "NORMAL" : 1
                    }
                }
            ]
        },
        {
            "name" : "Tree5.001",
            "primitives" : [
                {
                    "material" : 0,
                    "indices" : 6,
                    "attributes" : {
                        "POSITION" : 3,
                        "TEXCOORD_0" : 4,
                        "NORMAL" : 5
                    }
                }
            ]
        }
    ],
    "textures" : [
        {
            "sampler" : 0,
            "source" : 0
        }
    ],
    "images" : [
        {
            "uri" : "tree_trunk.png",
            "name" : "tree_trunk.png",
            "mimeType" : "image/png"
        }
    ],
    "accessors" : [
        {
            "componentType" : 5126,
            "bufferView" : 0,
            "min" : [
                -0.3574238419532776,
                0,
                -0.35918065905570984
            ],
            "count" : 24,
            "max" : [
                0.5024468898773193,
                3.123422145843506,
                0.694324254989624
            ],
            "type" : "VEC3"
        },
        {
            "componentType" : 5126,
            "bufferView" : 1,
            "type" : "VEC3",
            "count" : 24
        },
        {
            "componentType" : 5123,
            "bufferView" : 2,
            "type" : "SCALAR",
            "count" : 36
        },
        {
            "componentType" : 5126,
            "bufferView" : 3,
            "min" : [
                -1.127426266670227,
                -0.08062150329351425,
                -0.8481650948524475
            ],
            "count" : 480,
            "max" : [
                0.8375093340873718,
                2.5565528869628906,
                1.2882170677185059
            ],
            "type" : "VEC3"
        },
        {
            "componentType" : 5126,
            "bufferView" : 4,
            "type" : "VEC2",
            "count" : 480
        },
        {
            "componentType" : 5126,
            "bufferView" : 5,
            "type" : "VEC3",
            "count" : 480
        },
        {
            "componentType" : 5123,
            "bufferView" : 6,
            "type" : "SCALAR",
            "count" : 2061
        }
    ],
    "bufferViews" : [
        {
            "buffer" : 0,
            "byteOffset" : 0,
            "byteLength" : 288
        },
        {
            "buffer" : 0,
            "byteOffset" : 288,
            "byteLength" : 288
        },
        {
            "buffer" : 0,
            "byteOffset" : 576,
            "byteLength" : 72
        },
        {
            "buffer" : 0,
            "byteOffset" : 648,
            "byteLength" : 5760
        },
        {
            "buffer" : 0,
            "byteOffset" : 6408,
            "byteLength" : 3840
        },
        {
            "buffer" : 0,
            "byteOffset" : 10248,
            "byteLength" : 5760
        },
        {
            "buffer" : 0,
            "byteOffset" : 16008,
            "byteLength" : 4122
        }
    ],
    "samplers" : [
        {
            "magFilter" : 9729,
            "minFilter" : 9986,
            "wrapS" : 10497,
            "wrapT" : 10497
        }
    ],
    "buffers" : [
        {
            "uri" : "tree_5.bin",
            "byteLength" : 20132
        }
    ]
}
