{
    "asset" : {
        "generator" : "Khronos glTF Blender I/O v1.2.20",
        "version" : "2.0"
    },
    "extensionsUsed" : [
        "KHR_materials_unlit"
    ],
    "scene" : 0,
    "scenes" : [
        {
            "nodes" : [
                1
            ],
            "name" : "Scene"
        }
    ],
    "nodes" : [
        {
            "name" : "Tree3Collider -colonly",
            "scale" : [
                0.9848967790603638,
                0.9848967790603638,
                0.9848967790603638
            ],
            "mesh" : 0
        },
        {
            "name" : "Tree3",
            "scale" : [
                1.0153348445892334,
                1.0153348445892334,
                1.0153348445892334
            ],
            "children" : [
                0
            ],
            "mesh" : 1
        }
    ],
    "materials" : [
        {
            "extensions" : {
                "KHR_materials_unlit" : {}
            },
            "pbrMetallicRoughness" : {
                "baseColorTexture" : {
                    "index" : 0,
                    "texCoord" : 0
                }
            },
            "name" : "tree_trunk"
        }
    ],
    "meshes" : [
        {
            "name" : "Tree3Collider.001",
            "primitives" : [
                {
                    "indices" : 2,
                    "attributes" : {
                        "NORMAL" : 0,
                        "POSITION" : 1
                    }
                }
            ]
        },
        {
            "name" : "Tree3.001",
            "primitives" : [
                {
                    "indices" : 6,
                    "material" : 0,
                    "attributes" : {
                        "NORMAL" : 3,
                        "POSITION" : 4,
                        "TEXCOORD_0" : 5
                    }
                }
            ]
        }
    ],
    "textures" : [
        {
            "source" : 0,
            "sampler" : 0
        }
    ],
    "images" : [
        {
            "name" : "tree_trunk.png",
            "uri" : "tree_trunk.png",
            "mimeType" : "image/png"
        }
    ],
    "accessors" : [
        {
            "type" : "VEC3",
            "componentType" : 5126,
            "bufferView" : 0,
            "count" : 24
        },
        {
            "componentType" : 5126,
            "bufferView" : 1,
            "max" : [
                0.34697410464286804,
                0.9107004404067993,
                0.7205414175987244
            ],
            "type" : "VEC3",
            "min" : [
                -0.4220413267612457,
                0,
                -0.15825912356376648
            ],
            "count" : 24
        },
        {
            "type" : "SCALAR",
            "componentType" : 5123,
            "bufferView" : 2,
            "count" : 36
        },
        {
            "type" : "VEC3",
            "componentType" : 5126,
            "bufferView" : 3,
            "count" : 106
        },
        {
            "componentType" : 5126,
            "bufferView" : 4,
            "max" : [
                1.0036410093307495,
                0.9003756642341614,
                1.472605586051941
            ],
            "type" : "VEC3",
            "min" : [
                -0.7118775844573975,
                -0.11333400011062622,
                -0.23724664747714996
            ],
            "count" : 106
        },
        {
            "type" : "VEC2",
            "componentType" : 5126,
            "bufferView" : 5,
            "count" : 106
        },
        {
            "type" : "SCALAR",
            "componentType" : 5123,
            "bufferView" : 6,
            "count" : 351
        }
    ],
    "bufferViews" : [
        {
            "byteLength" : 288,
            "byteOffset" : 0,
            "buffer" : 0
        },
        {
            "byteLength" : 288,
            "byteOffset" : 288,
            "buffer" : 0
        },
        {
            "byteLength" : 72,
            "byteOffset" : 576,
            "buffer" : 0
        },
        {
            "byteLength" : 1272,
            "byteOffset" : 648,
            "buffer" : 0
        },
        {
            "byteLength" : 1272,
            "byteOffset" : 1920,
            "buffer" : 0
        },
        {
            "byteLength" : 848,
            "byteOffset" : 3192,
            "buffer" : 0
        },
        {
            "byteLength" : 702,
            "byteOffset" : 4040,
            "buffer" : 0
        }
    ],
    "samplers" : [
        {
            "magFilter" : 9729,
            "wrapT" : 10497,
            "minFilter" : 9986,
            "wrapS" : 10497
        }
    ],
    "buffers" : [
        {
            "byteLength" : 4744,
            "uri" : "tree_3.bin"
        }
    ]
}
