{
    "asset" : {
        "version" : "2.0",
        "generator" : "Khronos glTF Blender I/O v1.2.20"
    },
    "extensionsUsed" : [
        "KHR_materials_unlit"
    ],
    "scene" : 0,
    "scenes" : [
        {
            "name" : "Scene",
            "nodes" : [
                1
            ]
        }
    ],
    "nodes" : [
        {
            "mesh" : 0,
            "name" : "Tree1Collider -colonly"
        },
        {
            "mesh" : 1,
            "name" : "Tree1",
            "children" : [
                0
            ]
        }
    ],
    "materials" : [
        {
            "name" : "tree_trunk",
            "extensions" : {
                "KHR_materials_unlit" : {}
            },
            "pbrMetallicRoughness" : {
                "baseColorTexture" : {
                    "texCoord" : 0,
                    "index" : 0
                }
            }
        },
        {
            "name" : "tree_leaves",
            "extensions" : {
                "KHR_materials_unlit" : {}
            },
            "pbrMetallicRoughness" : {
                "baseColorTexture" : {
                    "texCoord" : 0,
                    "index" : 1
                }
            }
        }
    ],
    "meshes" : [
        {
            "name" : "Tree1Collider.001",
            "primitives" : [
                {
                    "indices" : 2,
                    "attributes" : {
                        "NORMAL" : 0,
                        "POSITION" : 1
                    }
                }
            ]
        },
        {
            "name" : "Tree1.001",
            "primitives" : [
                {
                    "indices" : 6,
                    "attributes" : {
                        "NORMAL" : 3,
                        "POSITION" : 4,
                        "TEXCOORD_0" : 5
                    },
                    "material" : 0
                },
                {
                    "indices" : 10,
                    "attributes" : {
                        "NORMAL" : 7,
                        "POSITION" : 8,
                        "TEXCOORD_0" : 9
                    },
                    "material" : 1
                }
            ]
        }
    ],
    "textures" : [
        {
            "sampler" : 0,
            "source" : 0
        },
        {
            "sampler" : 1,
            "source" : 1
        }
    ],
    "images" : [
        {
            "name" : "tree_trunk.png",
            "mimeType" : "image/png",
            "uri" : "tree_trunk.png"
        },
        {
            "name" : "tree_leaves.png",
            "mimeType" : "image/png",
            "uri" : "tree_leaves.png"
        }
    ],
    "accessors" : [
        {
            "bufferView" : 0,
            "type" : "VEC3",
            "count" : 24,
            "componentType" : 5126
        },
        {
            "min" : [
                -0.3574238419532776,
                0,
                -0.35918065905570984
            ],
            "count" : 24,
            "max" : [
                0.5024468898773193,
                3.123422145843506,
                0.694324254989624
            ],
            "componentType" : 5126,
            "bufferView" : 1,
            "type" : "VEC3"
        },
        {
            "bufferView" : 2,
            "type" : "SCALAR",
            "count" : 36,
            "componentType" : 5123
        },
        {
            "bufferView" : 3,
            "type" : "VEC3",
            "count" : 480,
            "componentType" : 5126
        },
        {
            "min" : [
                -1.127426266670227,
                -0.08062150329351425,
                -0.8481650948524475
            ],
            "count" : 480,
            "max" : [
                0.8375093340873718,
                2.5565528869628906,
                1.2882170677185059
            ],
            "componentType" : 5126,
            "bufferView" : 4,
            "type" : "VEC3"
        },
        {
            "bufferView" : 5,
            "type" : "VEC2",
            "count" : 480,
            "componentType" : 5126
        },
        {
            "bufferView" : 6,
            "type" : "SCALAR",
            "count" : 2061,
            "componentType" : 5123
        },
        {
            "bufferView" : 7,
            "type" : "VEC3",
            "count" : 220,
            "componentType" : 5126
        },
        {
            "min" : [
                -1.8876246213912964,
                0.9517384767532349,
                -1.1530218124389648
            ],
            "count" : 220,
            "max" : [
                1.1966625452041626,
                3.2471930980682373,
                1.5272891521453857
            ],
            "componentType" : 5126,
            "bufferView" : 8,
            "type" : "VEC3"
        },
        {
            "bufferView" : 9,
            "type" : "VEC2",
            "count" : 220,
            "componentType" : 5126
        },
        {
            "bufferView" : 10,
            "type" : "SCALAR",
            "count" : 960,
            "componentType" : 5123
        }
    ],
    "bufferViews" : [
        {
            "buffer" : 0,
            "byteOffset" : 0,
            "byteLength" : 288
        },
        {
            "buffer" : 0,
            "byteOffset" : 288,
            "byteLength" : 288
        },
        {
            "buffer" : 0,
            "byteOffset" : 576,
            "byteLength" : 72
        },
        {
            "buffer" : 0,
            "byteOffset" : 648,
            "byteLength" : 5760
        },
        {
            "buffer" : 0,
            "byteOffset" : 6408,
            "byteLength" : 5760
        },
        {
            "buffer" : 0,
            "byteOffset" : 12168,
            "byteLength" : 3840
        },
        {
            "buffer" : 0,
            "byteOffset" : 16008,
            "byteLength" : 4122
        },
        {
            "buffer" : 0,
            "byteOffset" : 20132,
            "byteLength" : 2640
        },
        {
            "buffer" : 0,
            "byteOffset" : 22772,
            "byteLength" : 2640
        },
        {
            "buffer" : 0,
            "byteOffset" : 25412,
            "byteLength" : 1760
        },
        {
            "buffer" : 0,
            "byteOffset" : 27172,
            "byteLength" : 1920
        }
    ],
    "samplers" : [
        {
            "minFilter" : 9986,
            "magFilter" : 9729,
            "wrapS" : 10497,
            "wrapT" : 10497
        },
        {
            "minFilter" : 9986,
            "magFilter" : 9729,
            "wrapS" : 10497,
            "wrapT" : 10497
        }
    ],
    "buffers" : [
        {
            "uri" : "tree_1.bin",
            "byteLength" : 29092
        }
    ]
}
