{
    "asset" : {
        "version" : "2.0",
        "generator" : "Khronos glTF Blender I/O v1.2.20"
    },
    "extensionsUsed" : [
        "KHR_materials_unlit"
    ],
    "scene" : 0,
    "scenes" : [
        {
            "name" : "Scene",
            "nodes" : [
                1
            ]
        }
    ],
    "nodes" : [
        {
            "mesh" : 0,
            "name" : "Tree3Collider -colonly",
            "scale" : [
                0.9848967790603638,
                0.9848967790603638,
                0.9848967790603638
            ]
        },
        {
            "children" : [
                0
            ],
            "mesh" : 1,
            "name" : "Tree3",
            "scale" : [
                1.0153348445892334,
                1.0153348445892334,
                1.0153348445892334
            ]
        }
    ],
    "materials" : [
        {
            "extensions" : {
                "KHR_materials_unlit" : {}
            },
            "name" : "tree_trunk",
            "pbrMetallicRoughness" : {
                "baseColorTexture" : {
                    "texCoord" : 0,
                    "index" : 0
                }
            }
        }
    ],
    "meshes" : [
        {
            "primitives" : [
                {
                    "indices" : 2,
                    "attributes" : {
                        "NORMAL" : 0,
                        "POSITION" : 1
                    }
                }
            ],
            "name" : "Tree3Collider.001"
        },
        {
            "primitives" : [
                {
                    "material" : 0,
                    "indices" : 6,
                    "attributes" : {
                        "NORMAL" : 3,
                        "TEXCOORD_0" : 4,
                        "POSITION" : 5
                    }
                }
            ],
            "name" : "Tree3.001"
        }
    ],
    "textures" : [
        {
            "source" : 0,
            "sampler" : 0
        }
    ],
    "images" : [
        {
            "name" : "tree_trunk.png",
            "uri" : "tree_trunk.png",
            "mimeType" : "image/png"
        }
    ],
    "accessors" : [
        {
            "bufferView" : 0,
            "count" : 24,
            "type" : "VEC3",
            "componentType" : 5126
        },
        {
            "bufferView" : 1,
            "min" : [
                -0.5101549625396729,
                0,
                -0.5126624703407288
            ],
            "type" : "VEC3",
            "componentType" : 5126,
            "count" : 24,
            "max" : [
                0.717147946357727,
                0.890995442867279,
                0.9910166263580322
            ]
        },
        {
            "bufferView" : 2,
            "count" : 36,
            "type" : "SCALAR",
            "componentType" : 5123
        },
        {
            "bufferView" : 3,
            "count" : 106,
            "type" : "VEC3",
            "componentType" : 5126
        },
        {
            "bufferView" : 4,
            "count" : 106,
            "type" : "VEC2",
            "componentType" : 5126
        },
        {
            "bufferView" : 5,
            "min" : [
                -0.7118775844573975,
                -0.11333400011062622,
                -0.23724664747714996
            ],
            "type" : "VEC3",
            "componentType" : 5126,
            "count" : 106,
            "max" : [
                1.0036410093307495,
                0.9003756642341614,
                1.472605586051941
            ]
        },
        {
            "bufferView" : 6,
            "count" : 351,
            "type" : "SCALAR",
            "componentType" : 5123
        }
    ],
    "bufferViews" : [
        {
            "buffer" : 0,
            "byteOffset" : 0,
            "byteLength" : 288
        },
        {
            "buffer" : 0,
            "byteOffset" : 288,
            "byteLength" : 288
        },
        {
            "buffer" : 0,
            "byteOffset" : 576,
            "byteLength" : 72
        },
        {
            "buffer" : 0,
            "byteOffset" : 648,
            "byteLength" : 1272
        },
        {
            "buffer" : 0,
            "byteOffset" : 1920,
            "byteLength" : 848
        },
        {
            "buffer" : 0,
            "byteOffset" : 2768,
            "byteLength" : 1272
        },
        {
            "buffer" : 0,
            "byteOffset" : 4040,
            "byteLength" : 702
        }
    ],
    "samplers" : [
        {
            "wrapS" : 10497,
            "wrapT" : 10497,
            "magFilter" : 9729,
            "minFilter" : 9986
        }
    ],
    "buffers" : [
        {
            "uri" : "tree_3.bin",
            "byteLength" : 4744
        }
    ]
}
