{
    "asset" : {
        "generator" : "Khronos glTF Blender I/O v1.2.20",
        "version" : "2.0"
    },
    "extensionsUsed" : [
        "KHR_materials_unlit"
    ],
    "scene" : 0,
    "scenes" : [
        {
            "nodes" : [
                1
            ],
            "name" : "Scene"
        }
    ],
    "nodes" : [
        {
            "mesh" : 0,
            "name" : "Tree2Collider -colonly",
            "scale" : [
                0.9848967790603638,
                0.9848967790603638,
                0.9848967790603638
            ]
        },
        {
            "mesh" : 1,
            "children" : [
                0
            ],
            "name" : "Tree2",
            "scale" : [
                1.0153348445892334,
                1.0153348445892334,
                1.0153348445892334
            ]
        }
    ],
    "materials" : [
        {
            "pbrMetallicRoughness" : {
                "baseColorTexture" : {
                    "index" : 0,
                    "texCoord" : 0
                }
            },
            "extensions" : {
                "KHR_materials_unlit" : {}
            },
            "name" : "tree_trunk"
        },
        {
            "pbrMetallicRoughness" : {
                "baseColorTexture" : {
                    "index" : 1,
                    "texCoord" : 0
                }
            },
            "extensions" : {
                "KHR_materials_unlit" : {}
            },
            "name" : "tree_leaves"
        }
    ],
    "meshes" : [
        {
            "primitives" : [
                {
                    "attributes" : {
                        "NORMAL" : 0,
                        "POSITION" : 1
                    },
                    "indices" : 2
                }
            ],
            "name" : "Tree2Collider.001"
        },
        {
            "primitives" : [
                {
                    "attributes" : {
                        "NORMAL" : 3,
                        "POSITION" : 4,
                        "TEXCOORD_0" : 5
                    },
                    "indices" : 6,
                    "material" : 0
                },
                {
                    "attributes" : {
                        "NORMAL" : 7,
                        "POSITION" : 8,
                        "TEXCOORD_0" : 9
                    },
                    "indices" : 10,
                    "material" : 1
                }
            ],
            "name" : "Tree2.001"
        }
    ],
    "textures" : [
        {
            "source" : 0,
            "sampler" : 0
        },
        {
            "source" : 1,
            "sampler" : 1
        }
    ],
    "images" : [
        {
            "name" : "tree_trunk.png",
            "mimeType" : "image/png",
            "uri" : "tree_trunk.png"
        },
        {
            "name" : "tree_leaves.png",
            "mimeType" : "image/png",
            "uri" : "tree_leaves.png"
        }
    ],
    "accessors" : [
        {
            "type" : "VEC3",
            "componentType" : 5126,
            "count" : 24,
            "bufferView" : 0
        },
        {
            "componentType" : 5126,
            "min" : [
                -0.6538834571838379,
                0,
                -0.5126624703407288
            ],
            "count" : 24,
            "type" : "VEC3",
            "max" : [
                0.717147946357727,
                4.156194686889648,
                0.9910166263580322
            ],
            "bufferView" : 1
        },
        {
            "type" : "SCALAR",
            "componentType" : 5123,
            "count" : 36,
            "bufferView" : 2
        },
        {
            "type" : "VEC3",
            "componentType" : 5126,
            "count" : 201,
            "bufferView" : 3
        },
        {
            "componentType" : 5126,
            "min" : [
                -0.9272839426994324,
                -0.16639262437820435,
                -0.5463486313819885
            ],
            "count" : 201,
            "type" : "VEC3",
            "max" : [
                1.21004056930542,
                2.373351573944092,
                1.6493183374404907
            ],
            "bufferView" : 4
        },
        {
            "type" : "VEC2",
            "componentType" : 5126,
            "count" : 201,
            "bufferView" : 5
        },
        {
            "type" : "SCALAR",
            "componentType" : 5123,
            "count" : 681,
            "bufferView" : 6
        },
        {
            "type" : "VEC3",
            "componentType" : 5126,
            "count" : 275,
            "bufferView" : 7
        },
        {
            "componentType" : 5126,
            "min" : [
                -1.7983338832855225,
                1.1481168270111084,
                -1.3507565259933472
            ],
            "count" : 275,
            "type" : "VEC3",
            "max" : [
                1.7200183868408203,
                4.070228576660156,
                1.8704099655151367
            ],
            "bufferView" : 8
        },
        {
            "type" : "VEC2",
            "componentType" : 5126,
            "count" : 275,
            "bufferView" : 9
        },
        {
            "type" : "SCALAR",
            "componentType" : 5123,
            "count" : 1200,
            "bufferView" : 10
        }
    ],
    "bufferViews" : [
        {
            "byteLength" : 288,
            "byteOffset" : 0,
            "buffer" : 0
        },
        {
            "byteLength" : 288,
            "byteOffset" : 288,
            "buffer" : 0
        },
        {
            "byteLength" : 72,
            "byteOffset" : 576,
            "buffer" : 0
        },
        {
            "byteLength" : 2412,
            "byteOffset" : 648,
            "buffer" : 0
        },
        {
            "byteLength" : 2412,
            "byteOffset" : 3060,
            "buffer" : 0
        },
        {
            "byteLength" : 1608,
            "byteOffset" : 5472,
            "buffer" : 0
        },
        {
            "byteLength" : 1362,
            "byteOffset" : 7080,
            "buffer" : 0
        },
        {
            "byteLength" : 3300,
            "byteOffset" : 8444,
            "buffer" : 0
        },
        {
            "byteLength" : 3300,
            "byteOffset" : 11744,
            "buffer" : 0
        },
        {
            "byteLength" : 2200,
            "byteOffset" : 15044,
            "buffer" : 0
        },
        {
            "byteLength" : 2400,
            "byteOffset" : 17244,
            "buffer" : 0
        }
    ],
    "samplers" : [
        {
            "wrapS" : 10497,
            "minFilter" : 9986,
            "wrapT" : 10497,
            "magFilter" : 9729
        },
        {
            "wrapS" : 10497,
            "minFilter" : 9986,
            "wrapT" : 10497,
            "magFilter" : 9729
        }
    ],
    "buffers" : [
        {
            "byteLength" : 19644,
            "uri" : "tree_2.bin"
        }
    ]
}
