{
    "asset" : {
        "generator" : "Khronos glTF Blender I/O v1.2.20",
        "version" : "2.0"
    },
    "extensionsUsed" : [
        "KHR_materials_unlit"
    ],
    "scene" : 0,
    "scenes" : [
        {
            "nodes" : [
                1
            ],
            "name" : "Scene"
        }
    ],
    "nodes" : [
        {
            "name" : "Tree5Collider -colonly",
            "mesh" : 0
        },
        {
            "children" : [
                0
            ],
            "name" : "Tree5",
            "mesh" : 1
        }
    ],
    "materials" : [
        {
            "pbrMetallicRoughness" : {
                "baseColorTexture" : {
                    "texCoord" : 0,
                    "index" : 0
                }
            },
            "extensions" : {
                "KHR_materials_unlit" : {}
            },
            "name" : "tree_trunk"
        }
    ],
    "meshes" : [
        {
            "name" : "Tree5Collider.001",
            "primitives" : [
                {
                    "attributes" : {
                        "NORMAL" : 0,
                        "POSITION" : 1
                    },
                    "indices" : 2
                }
            ]
        },
        {
            "name" : "Tree5.001",
            "primitives" : [
                {
                    "attributes" : {
                        "NORMAL" : 3,
                        "POSITION" : 4,
                        "TEXCOORD_0" : 5
                    },
                    "indices" : 6,
                    "material" : 0
                }
            ]
        }
    ],
    "textures" : [
        {
            "sampler" : 0,
            "source" : 0
        }
    ],
    "images" : [
        {
            "mimeType" : "image/png",
            "name" : "tree_trunk.png",
            "uri" : "tree_trunk.png"
        }
    ],
    "accessors" : [
        {
            "type" : "VEC3",
            "bufferView" : 0,
            "count" : 24,
            "componentType" : 5126
        },
        {
            "bufferView" : 1,
            "count" : 24,
            "min" : [
                -0.3574238419532776,
                0,
                -0.35918065905570984
            ],
            "type" : "VEC3",
            "max" : [
                0.5024468898773193,
                3.123422145843506,
                0.694324254989624
            ],
            "componentType" : 5126
        },
        {
            "type" : "SCALAR",
            "bufferView" : 2,
            "count" : 36,
            "componentType" : 5123
        },
        {
            "type" : "VEC3",
            "bufferView" : 3,
            "count" : 492,
            "componentType" : 5126
        },
        {
            "bufferView" : 4,
            "count" : 492,
            "min" : [
                -1.127426266670227,
                -0.026738928630948067,
                -0.8481650948524475
            ],
            "type" : "VEC3",
            "max" : [
                0.8375093340873718,
                2.5565528869628906,
                1.2882170677185059
            ],
            "componentType" : 5126
        },
        {
            "type" : "VEC2",
            "bufferView" : 5,
            "count" : 492,
            "componentType" : 5126
        },
        {
            "type" : "SCALAR",
            "bufferView" : 6,
            "count" : 2079,
            "componentType" : 5123
        }
    ],
    "bufferViews" : [
        {
            "byteLength" : 288,
            "byteOffset" : 0,
            "buffer" : 0
        },
        {
            "byteLength" : 288,
            "byteOffset" : 288,
            "buffer" : 0
        },
        {
            "byteLength" : 72,
            "byteOffset" : 576,
            "buffer" : 0
        },
        {
            "byteLength" : 5904,
            "byteOffset" : 648,
            "buffer" : 0
        },
        {
            "byteLength" : 5904,
            "byteOffset" : 6552,
            "buffer" : 0
        },
        {
            "byteLength" : 3936,
            "byteOffset" : 12456,
            "buffer" : 0
        },
        {
            "byteLength" : 4158,
            "byteOffset" : 16392,
            "buffer" : 0
        }
    ],
    "samplers" : [
        {
            "minFilter" : 9986,
            "magFilter" : 9729,
            "wrapT" : 10497,
            "wrapS" : 10497
        }
    ],
    "buffers" : [
        {
            "byteLength" : 20552,
            "uri" : "tree_5.bin"
        }
    ]
}
