{
    "asset" : {
        "generator" : "Khronos glTF Blender I/O v1.2.20",
        "version" : "2.0"
    },
    "extensionsUsed" : [
        "KHR_materials_unlit"
    ],
    "scene" : 0,
    "scenes" : [
        {
            "nodes" : [
                1
            ],
            "name" : "Scene"
        }
    ],
    "nodes" : [
        {
            "name" : "Tree6Collider -colonly",
            "mesh" : 0
        },
        {
            "children" : [
                0
            ],
            "name" : "Tree6",
            "mesh" : 1
        }
    ],
    "materials" : [
        {
            "pbrMetallicRoughness" : {
                "baseColorTexture" : {
                    "texCoord" : 0,
                    "index" : 0
                }
            },
            "extensions" : {
                "KHR_materials_unlit" : {}
            },
            "name" : "tree_trunk"
        }
    ],
    "meshes" : [
        {
            "name" : "Tree6Collider.001",
            "primitives" : [
                {
                    "attributes" : {
                        "NORMAL" : 0,
                        "POSITION" : 1
                    },
                    "indices" : 2
                }
            ]
        },
        {
            "name" : "Tree6.001",
            "primitives" : [
                {
                    "attributes" : {
                        "NORMAL" : 3,
                        "POSITION" : 4,
                        "TEXCOORD_0" : 5
                    },
                    "indices" : 6,
                    "material" : 0
                }
            ]
        }
    ],
    "textures" : [
        {
            "sampler" : 0,
            "source" : 0
        }
    ],
    "images" : [
        {
            "mimeType" : "image/png",
            "name" : "tree_trunk.png",
            "uri" : "tree_trunk.png"
        }
    ],
    "accessors" : [
        {
            "type" : "VEC3",
            "bufferView" : 0,
            "count" : 24,
            "componentType" : 5126
        },
        {
            "bufferView" : 1,
            "count" : 24,
            "min" : [
                -0.4080357849597931,
                0,
                -0.4151687026023865
            ],
            "type" : "VEC3",
            "max" : [
                0.564149796962738,
                3.0269899368286133,
                0.7759431600570679
            ],
            "componentType" : 5126
        },
        {
            "type" : "SCALAR",
            "bufferView" : 2,
            "count" : 36,
            "componentType" : 5123
        },
        {
            "type" : "VEC3",
            "bufferView" : 3,
            "count" : 237,
            "componentType" : 5126
        },
        {
            "bufferView" : 4,
            "count" : 237,
            "min" : [
                -0.7100816369056702,
                -0.06145419925451279,
                -0.4183746874332428
            ],
            "type" : "VEC3",
            "max" : [
                0.9266068339347839,
                1.8174296617507935,
                1.2629903554916382
            ],
            "componentType" : 5126
        },
        {
            "type" : "VEC2",
            "bufferView" : 5,
            "count" : 237,
            "componentType" : 5126
        },
        {
            "type" : "SCALAR",
            "bufferView" : 6,
            "count" : 747,
            "componentType" : 5123
        }
    ],
    "bufferViews" : [
        {
            "byteLength" : 288,
            "byteOffset" : 0,
            "buffer" : 0
        },
        {
            "byteLength" : 288,
            "byteOffset" : 288,
            "buffer" : 0
        },
        {
            "byteLength" : 72,
            "byteOffset" : 576,
            "buffer" : 0
        },
        {
            "byteLength" : 2844,
            "byteOffset" : 648,
            "buffer" : 0
        },
        {
            "byteLength" : 2844,
            "byteOffset" : 3492,
            "buffer" : 0
        },
        {
            "byteLength" : 1896,
            "byteOffset" : 6336,
            "buffer" : 0
        },
        {
            "byteLength" : 1494,
            "byteOffset" : 8232,
            "buffer" : 0
        }
    ],
    "samplers" : [
        {
            "minFilter" : 9986,
            "magFilter" : 9729,
            "wrapT" : 10497,
            "wrapS" : 10497
        }
    ],
    "buffers" : [
        {
            "byteLength" : 9728,
            "uri" : "tree_6.bin"
        }
    ]
}
