{
    "asset" : {
        "generator" : "Khronos glTF Blender I/O v1.2.20",
        "version" : "2.0"
    },
    "extensionsUsed" : [
        "KHR_materials_unlit"
    ],
    "scene" : 0,
    "scenes" : [
        {
            "name" : "Scene",
            "nodes" : [
                1
            ]
        }
    ],
    "nodes" : [
        {
            "name" : "Tree6Collider -colonly",
            "mesh" : 0
        },
        {
            "name" : "Tree6",
            "mesh" : 1,
            "children" : [
                0
            ]
        }
    ],
    "materials" : [
        {
            "name" : "tree_trunk",
            "extensions" : {
                "KHR_materials_unlit" : {}
            },
            "pbrMetallicRoughness" : {
                "baseColorTexture" : {
                    "index" : 0,
                    "texCoord" : 0
                }
            }
        }
    ],
    "meshes" : [
        {
            "name" : "Tree6Collider.001",
            "primitives" : [
                {
                    "indices" : 2,
                    "attributes" : {
                        "POSITION" : 0,
                        "NORMAL" : 1
                    }
                }
            ]
        },
        {
            "name" : "Tree6.001",
            "primitives" : [
                {
                    "material" : 0,
                    "indices" : 6,
                    "attributes" : {
                        "POSITION" : 3,
                        "TEXCOORD_0" : 4,
                        "NORMAL" : 5
                    }
                }
            ]
        }
    ],
    "textures" : [
        {
            "sampler" : 0,
            "source" : 0
        }
    ],
    "images" : [
        {
            "uri" : "tree_trunk.png",
            "name" : "tree_trunk.png",
            "mimeType" : "image/png"
        }
    ],
    "accessors" : [
        {
            "componentType" : 5126,
            "bufferView" : 0,
            "min" : [
                -0.4080357849597931,
                0,
                -0.4151687026023865
            ],
            "count" : 24,
            "max" : [
                0.564149796962738,
                3.0269899368286133,
                0.7759431600570679
            ],
            "type" : "VEC3"
        },
        {
            "componentType" : 5126,
            "bufferView" : 1,
            "type" : "VEC3",
            "count" : 24
        },
        {
            "componentType" : 5123,
            "bufferView" : 2,
            "type" : "SCALAR",
            "count" : 36
        },
        {
            "componentType" : 5126,
            "bufferView" : 3,
            "min" : [
                -0.7100816369056702,
                -0.127417653799057,
                -0.4183746874332428
            ],
            "count" : 201,
            "max" : [
                0.9266068339347839,
                1.8174296617507935,
                1.2629903554916382
            ],
            "type" : "VEC3"
        },
        {
            "componentType" : 5126,
            "bufferView" : 4,
            "type" : "VEC2",
            "count" : 201
        },
        {
            "componentType" : 5126,
            "bufferView" : 5,
            "type" : "VEC3",
            "count" : 201
        },
        {
            "componentType" : 5123,
            "bufferView" : 6,
            "type" : "SCALAR",
            "count" : 681
        }
    ],
    "bufferViews" : [
        {
            "buffer" : 0,
            "byteOffset" : 0,
            "byteLength" : 288
        },
        {
            "buffer" : 0,
            "byteOffset" : 288,
            "byteLength" : 288
        },
        {
            "buffer" : 0,
            "byteOffset" : 576,
            "byteLength" : 72
        },
        {
            "buffer" : 0,
            "byteOffset" : 648,
            "byteLength" : 2412
        },
        {
            "buffer" : 0,
            "byteOffset" : 3060,
            "byteLength" : 1608
        },
        {
            "buffer" : 0,
            "byteOffset" : 4668,
            "byteLength" : 2412
        },
        {
            "buffer" : 0,
            "byteOffset" : 7080,
            "byteLength" : 1362
        }
    ],
    "samplers" : [
        {
            "magFilter" : 9729,
            "minFilter" : 9986,
            "wrapS" : 10497,
            "wrapT" : 10497
        }
    ],
    "buffers" : [
        {
            "uri" : "tree_6.bin",
            "byteLength" : 8444
        }
    ]
}
