{
    "asset" : {
        "version" : "2.0",
        "generator" : "Khronos glTF Blender I/O v1.2.20"
    },
    "extensionsUsed" : [
        "KHR_materials_unlit"
    ],
    "scene" : 0,
    "scenes" : [
        {
            "name" : "Scene",
            "nodes" : [
                0
            ]
        }
    ],
    "nodes" : [
        {
            "name" : "StrawberryMesh",
            "mesh" : 0,
            "scale" : [
                1.0153348445892334,
                1.0153348445892334,
                1.0153348445892334
            ]
        }
    ],
    "materials" : [
        {
            "name" : "strawberry",
            "extensions" : {
                "KHR_materials_unlit" : {}
            },
            "pbrMetallicRoughness" : {
                "baseColorTexture" : {
                    "index" : 0,
                    "texCoord" : 0
                }
            }
        }
    ],
    "meshes" : [
        {
            "primitives" : [
                {
                    "material" : 0,
                    "attributes" : {
                        "POSITION" : 0,
                        "TEXCOORD_0" : 1,
                        "NORMAL" : 2
                    },
                    "indices" : 3
                }
            ],
            "name" : "StrawberryMesh.001"
        }
    ],
    "textures" : [
        {
            "source" : 0,
            "sampler" : 0
        }
    ],
    "images" : [
        {
            "name" : "strawberry.png",
            "uri" : "strawberry.png",
            "mimeType" : "image/png"
        }
    ],
    "accessors" : [
        {
            "componentType" : 5126,
            "bufferView" : 0,
            "type" : "VEC3",
            "min" : [
                -0.5951504707336426,
                0.17051619291305542,
                -0.523622989654541
            ],
            "count" : 343,
            "max" : [
                0.5065242648124695,
                1.4304702281951904,
                0.5775926113128662
            ]
        },
        {
            "componentType" : 5126,
            "bufferView" : 1,
            "type" : "VEC2",
            "count" : 343
        },
        {
            "componentType" : 5126,
            "bufferView" : 2,
            "type" : "VEC3",
            "count" : 343
        },
        {
            "componentType" : 5123,
            "bufferView" : 3,
            "type" : "SCALAR",
            "count" : 594
        }
    ],
    "bufferViews" : [
        {
            "byteLength" : 4116,
            "byteOffset" : 0,
            "buffer" : 0
        },
        {
            "byteLength" : 2744,
            "byteOffset" : 4116,
            "buffer" : 0
        },
        {
            "byteLength" : 4116,
            "byteOffset" : 6860,
            "buffer" : 0
        },
        {
            "byteLength" : 1188,
            "byteOffset" : 10976,
            "buffer" : 0
        }
    ],
    "samplers" : [
        {
            "wrapT" : 10497,
            "minFilter" : 9986,
            "magFilter" : 9729,
            "wrapS" : 10497
        }
    ],
    "buffers" : [
        {
            "byteLength" : 12164,
            "uri" : "strawberry.bin"
        }
    ]
}
