{
    "asset" : {
        "generator" : "Khronos glTF Blender I/O v1.2.20",
        "version" : "2.0"
    },
    "scene" : 0,
    "scenes" : [
        {
            "name" : "Scene",
            "nodes" : [
                2
            ]
        }
    ],
    "nodes" : [
        {
            "translation" : [
                -0.3513350188732147,
                0.31742528080940247,
                1.4232960939407349
            ],
            "name" : "DoorMesh",
            "mesh" : 0
        },
        {
            "name" : "HomeMesh",
            "mesh" : 1
        },
        {
            "children" : [
                0,
                1
            ],
            "name" : "HomeCollider -colonly",
            "mesh" : 2
        }
    ],
    "materials" : [
        {
            "pbrMetallicRoughness" : {
                "baseColorTexture" : {
                    "texCoord" : 0,
                    "index" : 0
                }
            },
            "name" : "home"
        }
    ],
    "meshes" : [
        {
            "name" : "DoorMesh.001",
            "primitives" : [
                {
                    "material" : 0,
                    "indices" : 3,
                    "attributes" : {
                        "POSITION" : 0,
                        "NORMAL" : 1,
                        "TEXCOORD_0" : 2
                    }
                }
            ]
        },
        {
            "name" : "HomeMesh.001",
            "primitives" : [
                {
                    "material" : 0,
                    "indices" : 7,
                    "attributes" : {
                        "POSITION" : 4,
                        "NORMAL" : 5,
                        "TEXCOORD_0" : 6
                    }
                }
            ]
        },
        {
            "name" : "HomeCollider.001",
            "primitives" : [
                {
                    "indices" : 10,
                    "attributes" : {
                        "POSITION" : 8,
                        "NORMAL" : 9
                    }
                }
            ]
        }
    ],
    "textures" : [
        {
            "source" : 0,
            "sampler" : 0
        }
    ],
    "images" : [
        {
            "mimeType" : "image/png",
            "name" : "home.png",
            "uri" : "home.png"
        }
    ],
    "accessors" : [
        {
            "max" : [
                0.7043963670730591,
                1.1422947645187378,
                -0.03794741630554199
            ],
            "min" : [
                -0.0018184483051300049,
                0.04588085412979126,
                -0.07859945297241211
            ],
            "type" : "VEC3",
            "componentType" : 5126,
            "bufferView" : 0,
            "count" : 118
        },
        {
            "type" : "VEC3",
            "componentType" : 5126,
            "bufferView" : 1,
            "count" : 118
        },
        {
            "type" : "VEC2",
            "componentType" : 5126,
            "bufferView" : 2,
            "count" : 118
        },
        {
            "type" : "SCALAR",
            "componentType" : 5123,
            "bufferView" : 3,
            "count" : 144
        },
        {
            "max" : [
                4.427403450012207,
                4.168069362640381,
                2.354022979736328
            ],
            "min" : [
                -4.443775177001953,
                -0.06805706024169922,
                -2.354022979736328
            ],
            "type" : "VEC3",
            "componentType" : 5126,
            "bufferView" : 4,
            "count" : 1549
        },
        {
            "type" : "VEC3",
            "componentType" : 5126,
            "bufferView" : 5,
            "count" : 1549
        },
        {
            "type" : "VEC2",
            "componentType" : 5126,
            "bufferView" : 6,
            "count" : 1549
        },
        {
            "type" : "SCALAR",
            "componentType" : 5123,
            "bufferView" : 7,
            "count" : 2397
        },
        {
            "max" : [
                4.4953436851501465,
                4.193504333496094,
                2.34704327583313
            ],
            "min" : [
                -4.478443145751953,
                -0.06977913528680801,
                -2.3774800300598145
            ],
            "type" : "VEC3",
            "componentType" : 5126,
            "bufferView" : 8,
            "count" : 168
        },
        {
            "type" : "VEC3",
            "componentType" : 5126,
            "bufferView" : 9,
            "count" : 168
        },
        {
            "type" : "SCALAR",
            "componentType" : 5123,
            "bufferView" : 10,
            "count" : 264
        }
    ],
    "bufferViews" : [
        {
            "byteLength" : 1416,
            "buffer" : 0,
            "byteOffset" : 0
        },
        {
            "byteLength" : 1416,
            "buffer" : 0,
            "byteOffset" : 1416
        },
        {
            "byteLength" : 944,
            "buffer" : 0,
            "byteOffset" : 2832
        },
        {
            "byteLength" : 288,
            "buffer" : 0,
            "byteOffset" : 3776
        },
        {
            "byteLength" : 18588,
            "buffer" : 0,
            "byteOffset" : 4064
        },
        {
            "byteLength" : 18588,
            "buffer" : 0,
            "byteOffset" : 22652
        },
        {
            "byteLength" : 12392,
            "buffer" : 0,
            "byteOffset" : 41240
        },
        {
            "byteLength" : 4794,
            "buffer" : 0,
            "byteOffset" : 53632
        },
        {
            "byteLength" : 2016,
            "buffer" : 0,
            "byteOffset" : 58428
        },
        {
            "byteLength" : 2016,
            "buffer" : 0,
            "byteOffset" : 60444
        },
        {
            "byteLength" : 528,
            "buffer" : 0,
            "byteOffset" : 62460
        }
    ],
    "samplers" : [
        {
            "magFilter" : 9729,
            "wrapT" : 10497,
            "minFilter" : 9986,
            "wrapS" : 10497
        }
    ],
    "buffers" : [
        {
            "byteLength" : 62988,
            "uri" : "home.bin"
        }
    ]
}
