{
    "asset" : {
        "version" : "2.0",
        "generator" : "Khronos glTF Blender I/O v1.2.20"
    },
    "extensionsUsed" : [
        "KHR_materials_unlit"
    ],
    "scene" : 0,
    "scenes" : [
        {
            "name" : "Scene",
            "nodes" : [
                1
            ]
        }
    ],
    "nodes" : [
        {
            "mesh" : 0,
            "name" : "GroundSideCollider -colonly"
        },
        {
            "mesh" : 1,
            "children" : [
                0
            ],
            "name" : "GroundSideMesh"
        }
    ],
    "materials" : [
        {
            "extensions" : {
                "KHR_materials_unlit" : {}
            },
            "name" : "ground",
            "pbrMetallicRoughness" : {
                "baseColorTexture" : {
                    "index" : 0,
                    "texCoord" : 0
                }
            }
        }
    ],
    "meshes" : [
        {
            "name" : "GroundSideCollider.001",
            "primitives" : [
                {
                    "indices" : 3,
                    "attributes" : {
                        "POSITION" : 0,
                        "NORMAL" : 1,
                        "TEXCOORD_0" : 2
                    }
                }
            ]
        },
        {
            "name" : "GroundSideMesh.001",
            "primitives" : [
                {
                    "indices" : 7,
                    "material" : 0,
                    "attributes" : {
                        "POSITION" : 4,
                        "NORMAL" : 5,
                        "TEXCOORD_0" : 6
                    }
                }
            ]
        }
    ],
    "textures" : [
        {
            "source" : 0,
            "sampler" : 0
        }
    ],
    "images" : [
        {
            "mimeType" : "image/png",
            "name" : "ground.png",
            "uri" : "ground.png"
        }
    ],
    "accessors" : [
        {
            "min" : [
                -0.9999983906745911,
                -2,
                -0.9999998211860657
            ],
            "componentType" : 5126,
            "count" : 8,
            "type" : "VEC3",
            "max" : [
                1.0000022649765015,
                0,
                1.0000003576278687
            ],
            "bufferView" : 0
        },
        {
            "bufferView" : 1,
            "type" : "VEC3",
            "count" : 8,
            "componentType" : 5126
        },
        {
            "bufferView" : 2,
            "type" : "VEC2",
            "count" : 8,
            "componentType" : 5126
        },
        {
            "bufferView" : 3,
            "type" : "SCALAR",
            "count" : 12,
            "componentType" : 5123
        },
        {
            "min" : [
                -1.0000007152557373,
                -2,
                -0.9999999403953552
            ],
            "componentType" : 5126,
            "count" : 12,
            "type" : "VEC3",
            "max" : [
                1.0000019073486328,
                -8.940696716308594e-08,
                1
            ],
            "bufferView" : 4
        },
        {
            "bufferView" : 5,
            "type" : "VEC3",
            "count" : 12,
            "componentType" : 5126
        },
        {
            "bufferView" : 6,
            "type" : "VEC2",
            "count" : 12,
            "componentType" : 5126
        },
        {
            "bufferView" : 7,
            "type" : "SCALAR",
            "count" : 18,
            "componentType" : 5123
        }
    ],
    "bufferViews" : [
        {
            "byteLength" : 96,
            "buffer" : 0,
            "byteOffset" : 0
        },
        {
            "byteLength" : 96,
            "buffer" : 0,
            "byteOffset" : 96
        },
        {
            "byteLength" : 64,
            "buffer" : 0,
            "byteOffset" : 192
        },
        {
            "byteLength" : 24,
            "buffer" : 0,
            "byteOffset" : 256
        },
        {
            "byteLength" : 144,
            "buffer" : 0,
            "byteOffset" : 280
        },
        {
            "byteLength" : 144,
            "buffer" : 0,
            "byteOffset" : 424
        },
        {
            "byteLength" : 96,
            "buffer" : 0,
            "byteOffset" : 568
        },
        {
            "byteLength" : 36,
            "buffer" : 0,
            "byteOffset" : 664
        }
    ],
    "samplers" : [
        {
            "minFilter" : 9986,
            "wrapS" : 10497,
            "wrapT" : 10497,
            "magFilter" : 9729
        }
    ],
    "buffers" : [
        {
            "byteLength" : 700,
            "uri" : "side.bin"
        }
    ]
}
