{
    "asset" : {
        "generator" : "Khronos glTF Blender I/O v1.2.20",
        "version" : "2.0"
    },
    "extensionsUsed" : [
        "KHR_materials_unlit"
    ],
    "scene" : 0,
    "scenes" : [
        {
            "nodes" : [
                0
            ],
            "name" : "Scene"
        }
    ],
    "nodes" : [
        {
            "name" : "RipplesCenter",
            "mesh" : 0
        }
    ],
    "materials" : [
        {
            "name" : "ripples",
            "extensions" : {
                "KHR_materials_unlit" : {}
            },
            "pbrMetallicRoughness" : {
                "baseColorTexture" : {
                    "index" : 0,
                    "texCoord" : 0
                }
            }
        }
    ],
    "meshes" : [
        {
            "name" : "RipplesCenter.001",
            "primitives" : [
                {
                    "indices" : 3,
                    "material" : 0,
                    "attributes" : {
                        "NORMAL" : 0,
                        "TEXCOORD_0" : 1,
                        "POSITION" : 2
                    }
                }
            ]
        }
    ],
    "textures" : [
        {
            "source" : 0,
            "sampler" : 0
        }
    ],
    "images" : [
        {
            "uri" : "ripples_1.png",
            "mimeType" : "image/png",
            "name" : "ripples_1.png"
        }
    ],
    "accessors" : [
        {
            "type" : "VEC3",
            "bufferView" : 0,
            "count" : 16,
            "componentType" : 5126
        },
        {
            "type" : "VEC2",
            "bufferView" : 1,
            "count" : 16,
            "componentType" : 5126
        },
        {
            "count" : 16,
            "min" : [
                -1,
                0,
                -1
            ],
            "max" : [
                1,
                0,
                1
            ],
            "type" : "VEC3",
            "componentType" : 5126,
            "bufferView" : 2
        },
        {
            "type" : "SCALAR",
            "bufferView" : 3,
            "count" : 24,
            "componentType" : 5123
        }
    ],
    "bufferViews" : [
        {
            "buffer" : 0,
            "byteOffset" : 0,
            "byteLength" : 192
        },
        {
            "buffer" : 0,
            "byteOffset" : 192,
            "byteLength" : 128
        },
        {
            "buffer" : 0,
            "byteOffset" : 320,
            "byteLength" : 192
        },
        {
            "buffer" : 0,
            "byteOffset" : 512,
            "byteLength" : 48
        }
    ],
    "samplers" : [
        {
            "minFilter" : 9986,
            "wrapT" : 10497,
            "magFilter" : 9729,
            "wrapS" : 10497
        }
    ],
    "buffers" : [
        {
            "uri" : "ripples_center.bin",
            "byteLength" : 560
        }
    ]
}
