{
    "asset" : {
        "generator" : "Khronos glTF Blender I/O v1.2.20",
        "version" : "2.0"
    },
    "extensionsUsed" : [
        "KHR_materials_unlit"
    ],
    "scene" : 0,
    "scenes" : [
        {
            "nodes" : [
                1
            ],
            "name" : "Scene"
        }
    ],
    "nodes" : [
        {
            "name" : "HutCollider -colonly",
            "mesh" : 0
        },
        {
            "name" : "HutMesh",
            "mesh" : 1,
            "children" : [
                0
            ]
        }
    ],
    "materials" : [
        {
            "pbrMetallicRoughness" : {
                "baseColorTexture" : {
                    "index" : 0,
                    "texCoord" : 0
                }
            },
            "name" : "hut",
            "extensions" : {
                "KHR_materials_unlit" : {}
            }
        }
    ],
    "meshes" : [
        {
            "primitives" : [
                {
                    "indices" : 2,
                    "attributes" : {
                        "NORMAL" : 0,
                        "POSITION" : 1
                    }
                }
            ],
            "name" : "HutCollider.001"
        },
        {
            "primitives" : [
                {
                    "indices" : 6,
                    "attributes" : {
                        "NORMAL" : 3,
                        "POSITION" : 4,
                        "TEXCOORD_0" : 5
                    },
                    "material" : 0
                }
            ],
            "name" : "HutMesh.001"
        }
    ],
    "textures" : [
        {
            "source" : 0,
            "sampler" : 0
        }
    ],
    "images" : [
        {
            "mimeType" : "image/png",
            "name" : "hut.png",
            "uri" : "hut.png"
        }
    ],
    "accessors" : [
        {
            "componentType" : 5126,
            "count" : 177,
            "type" : "VEC3",
            "bufferView" : 0
        },
        {
            "count" : 177,
            "max" : [
                2.1571993827819824,
                4.285338401794434,
                2.093508243560791
            ],
            "bufferView" : 1,
            "componentType" : 5126,
            "min" : [
                -2.1571993827819824,
                0,
                -2.093508243560791
            ],
            "type" : "VEC3"
        },
        {
            "componentType" : 5123,
            "count" : 276,
            "type" : "SCALAR",
            "bufferView" : 2
        },
        {
            "componentType" : 5126,
            "count" : 478,
            "type" : "VEC3",
            "bufferView" : 3
        },
        {
            "count" : 478,
            "max" : [
                2.207872152328491,
                4.373226642608643,
                2.193988084793091
            ],
            "bufferView" : 4,
            "componentType" : 5126,
            "min" : [
                -2.2069013118743896,
                -0.014518758282065392,
                -2.1946208477020264
            ],
            "type" : "VEC3"
        },
        {
            "componentType" : 5126,
            "count" : 478,
            "type" : "VEC2",
            "bufferView" : 5
        },
        {
            "componentType" : 5123,
            "count" : 696,
            "type" : "SCALAR",
            "bufferView" : 6
        }
    ],
    "bufferViews" : [
        {
            "byteOffset" : 0,
            "byteLength" : 2124,
            "buffer" : 0
        },
        {
            "byteOffset" : 2124,
            "byteLength" : 2124,
            "buffer" : 0
        },
        {
            "byteOffset" : 4248,
            "byteLength" : 552,
            "buffer" : 0
        },
        {
            "byteOffset" : 4800,
            "byteLength" : 5736,
            "buffer" : 0
        },
        {
            "byteOffset" : 10536,
            "byteLength" : 5736,
            "buffer" : 0
        },
        {
            "byteOffset" : 16272,
            "byteLength" : 3824,
            "buffer" : 0
        },
        {
            "byteOffset" : 20096,
            "byteLength" : 1392,
            "buffer" : 0
        }
    ],
    "samplers" : [
        {
            "minFilter" : 9986,
            "wrapS" : 10497,
            "wrapT" : 10497,
            "magFilter" : 9729
        }
    ],
    "buffers" : [
        {
            "byteLength" : 21488,
            "uri" : "hut.bin"
        }
    ]
}
