{
    "asset" : {
        "generator" : "Khronos glTF Blender I/O v1.2.20",
        "version" : "2.0"
    },
    "scene" : 0,
    "scenes" : [
        {
            "name" : "Scene",
            "nodes" : [
                1
            ]
        }
    ],
    "nodes" : [
        {
            "translation" : [
                0,
                1,
                0
            ],
            "name" : "House2Collider -colonly",
            "mesh" : 0
        },
        {
            "name" : "House2Mesh",
            "children" : [
                0
            ],
            "mesh" : 1
        }
    ],
    "materials" : [
        {
            "name" : "house",
            "pbrMetallicRoughness" : {
                "baseColorTexture" : {
                    "index" : 0,
                    "texCoord" : 0
                }
            }
        }
    ],
    "meshes" : [
        {
            "name" : "House2Collider.001",
            "primitives" : [
                {
                    "attributes" : {
                        "TEXCOORD_0" : 0,
                        "NORMAL" : 1,
                        "POSITION" : 2
                    },
                    "indices" : 3
                }
            ]
        },
        {
            "name" : "House2Mesh.001",
            "primitives" : [
                {
                    "material" : 0,
                    "attributes" : {
                        "TEXCOORD_0" : 4,
                        "NORMAL" : 5,
                        "POSITION" : 6
                    },
                    "indices" : 7
                }
            ]
        }
    ],
    "textures" : [
        {
            "source" : 0,
            "sampler" : 0
        }
    ],
    "images" : [
        {
            "name" : "house.png",
            "uri" : "house.png",
            "mimeType" : "image/png"
        }
    ],
    "accessors" : [
        {
            "count" : 50,
            "componentType" : 5126,
            "type" : "VEC2",
            "bufferView" : 0
        },
        {
            "count" : 50,
            "componentType" : 5126,
            "type" : "VEC3",
            "bufferView" : 1
        },
        {
            "count" : 50,
            "componentType" : 5126,
            "bufferView" : 2,
            "max" : [
                2.460819959640503,
                3.194946765899658,
                2.6350369453430176
            ],
            "type" : "VEC3",
            "min" : [
                -2.460819959640503,
                -1.0638246536254883,
                -2.0663270950317383
            ]
        },
        {
            "count" : 72,
            "componentType" : 5123,
            "type" : "SCALAR",
            "bufferView" : 3
        },
        {
            "count" : 960,
            "componentType" : 5126,
            "type" : "VEC2",
            "bufferView" : 4
        },
        {
            "count" : 960,
            "componentType" : 5126,
            "type" : "VEC3",
            "bufferView" : 5
        },
        {
            "count" : 960,
            "componentType" : 5126,
            "bufferView" : 6,
            "max" : [
                2.4584057331085205,
                4.172301769256592,
                2.6350369453430176
            ],
            "type" : "VEC3",
            "min" : [
                -2.4584054946899414,
                -0.06382465362548828,
                -2.0730090141296387
            ]
        },
        {
            "count" : 1428,
            "componentType" : 5123,
            "type" : "SCALAR",
            "bufferView" : 7
        }
    ],
    "bufferViews" : [
        {
            "byteOffset" : 0,
            "byteLength" : 400,
            "buffer" : 0
        },
        {
            "byteOffset" : 400,
            "byteLength" : 600,
            "buffer" : 0
        },
        {
            "byteOffset" : 1000,
            "byteLength" : 600,
            "buffer" : 0
        },
        {
            "byteOffset" : 1600,
            "byteLength" : 144,
            "buffer" : 0
        },
        {
            "byteOffset" : 1744,
            "byteLength" : 7680,
            "buffer" : 0
        },
        {
            "byteOffset" : 9424,
            "byteLength" : 11520,
            "buffer" : 0
        },
        {
            "byteOffset" : 20944,
            "byteLength" : 11520,
            "buffer" : 0
        },
        {
            "byteOffset" : 32464,
            "byteLength" : 2856,
            "buffer" : 0
        }
    ],
    "samplers" : [
        {
            "wrapS" : 10497,
            "magFilter" : 9729,
            "minFilter" : 9986,
            "wrapT" : 10497
        }
    ],
    "buffers" : [
        {
            "uri" : "house_2.bin",
            "byteLength" : 35320
        }
    ]
}
