{
    "asset" : {
        "version" : "2.0",
        "generator" : "Khronos glTF Blender I/O v1.2.20"
    },
    "extensionsUsed" : [
        "KHR_materials_unlit"
    ],
    "scene" : 0,
    "scenes" : [
        {
            "nodes" : [
                1
            ],
            "name" : "Scene"
        }
    ],
    "nodes" : [
        {
            "mesh" : 0,
            "scale" : [
                0.681480884552002,
                0.681480884552002,
                0.681480884552002
            ],
            "name" : "CannonCollider -colonly"
        },
        {
            "mesh" : 1,
            "name" : "Cannon",
            "children" : [
                0
            ]
        }
    ],
    "materials" : [
        {
            "pbrMetallicRoughness" : {
                "baseColorTexture" : {
                    "texCoord" : 0,
                    "index" : 0
                }
            },
            "name" : "cannon",
            "extensions" : {
                "KHR_materials_unlit" : {}
            }
        }
    ],
    "meshes" : [
        {
            "primitives" : [
                {
                    "attributes" : {
                        "NORMAL" : 0,
                        "POSITION" : 1
                    },
                    "indices" : 2
                }
            ],
            "name" : "CannonCollider.001"
        },
        {
            "primitives" : [
                {
                    "attributes" : {
                        "NORMAL" : 3,
                        "POSITION" : 4,
                        "COLOR_0" : 5,
                        "TEXCOORD_0" : 6
                    },
                    "material" : 0,
                    "indices" : 7
                }
            ],
            "name" : "Cannon.001"
        }
    ],
    "textures" : [
        {
            "sampler" : 0,
            "source" : 0
        }
    ],
    "images" : [
        {
            "uri" : "cannon.png",
            "mimeType" : "image/png",
            "name" : "cannon"
        }
    ],
    "accessors" : [
        {
            "type" : "VEC3",
            "count" : 48,
            "componentType" : 5126,
            "bufferView" : 0
        },
        {
            "max" : [
                1.0755618810653687,
                2.168598175048828,
                1.2233399152755737
            ],
            "min" : [
                -0.960526704788208,
                0.0018650293350219727,
                -1.4829766750335693
            ],
            "type" : "VEC3",
            "count" : 48,
            "componentType" : 5126,
            "bufferView" : 1
        },
        {
            "type" : "SCALAR",
            "count" : 72,
            "componentType" : 5123,
            "bufferView" : 2
        },
        {
            "type" : "VEC3",
            "count" : 909,
            "componentType" : 5126,
            "bufferView" : 3
        },
        {
            "max" : [
                0.7696171998977661,
                1.7785379886627197,
                1.10524320602417
            ],
            "min" : [
                -0.6470985412597656,
                -0.01123279333114624,
                -1.0887702703475952
            ],
            "type" : "VEC3",
            "count" : 909,
            "componentType" : 5126,
            "bufferView" : 4
        },
        {
            "type" : "VEC4",
            "count" : 909,
            "componentType" : 5126,
            "bufferView" : 5
        },
        {
            "type" : "VEC2",
            "count" : 909,
            "componentType" : 5126,
            "bufferView" : 6
        },
        {
            "type" : "SCALAR",
            "count" : 2427,
            "componentType" : 5123,
            "bufferView" : 7
        }
    ],
    "bufferViews" : [
        {
            "buffer" : 0,
            "byteLength" : 576,
            "byteOffset" : 0
        },
        {
            "buffer" : 0,
            "byteLength" : 576,
            "byteOffset" : 576
        },
        {
            "buffer" : 0,
            "byteLength" : 144,
            "byteOffset" : 1152
        },
        {
            "buffer" : 0,
            "byteLength" : 10908,
            "byteOffset" : 1296
        },
        {
            "buffer" : 0,
            "byteLength" : 10908,
            "byteOffset" : 12204
        },
        {
            "buffer" : 0,
            "byteLength" : 14544,
            "byteOffset" : 23112
        },
        {
            "buffer" : 0,
            "byteLength" : 7272,
            "byteOffset" : 37656
        },
        {
            "buffer" : 0,
            "byteLength" : 4854,
            "byteOffset" : 44928
        }
    ],
    "samplers" : [
        {
            "minFilter" : 9986,
            "wrapT" : 10497,
            "magFilter" : 9729,
            "wrapS" : 10497
        }
    ],
    "buffers" : [
        {
            "byteLength" : 49784,
            "uri" : "cannon.bin"
        }
    ]
}
