{
    "asset" : {
        "version" : "2.0",
        "generator" : "Khronos glTF Blender I/O v1.2.20"
    },
    "extensionsUsed" : [
        "KHR_materials_unlit"
    ],
    "scene" : 0,
    "scenes" : [
        {
            "name" : "Scene",
            "nodes" : [
                1
            ]
        }
    ],
    "nodes" : [
        {
            "name" : "SignCautionCollider -colonly",
            "mesh" : 0
        },
        {
            "name" : "SignCautionMesh",
            "mesh" : 1,
            "children" : [
                0
            ]
        }
    ],
    "materials" : [
        {
            "name" : "sign",
            "pbrMetallicRoughness" : {
                "baseColorTexture" : {
                    "texCoord" : 0,
                    "index" : 0
                }
            },
            "extensions" : {
                "KHR_materials_unlit" : {}
            }
        }
    ],
    "meshes" : [
        {
            "name" : "SignCautionCollider.001",
            "primitives" : [
                {
                    "attributes" : {
                        "POSITION" : 0,
                        "NORMAL" : 1
                    },
                    "indices" : 2
                }
            ]
        },
        {
            "name" : "SignCautionMesh.001",
            "primitives" : [
                {
                    "material" : 0,
                    "attributes" : {
                        "TEXCOORD_0" : 3,
                        "POSITION" : 4,
                        "NORMAL" : 5
                    },
                    "indices" : 6
                }
            ]
        }
    ],
    "textures" : [
        {
            "source" : 0,
            "sampler" : 0
        }
    ],
    "images" : [
        {
            "name" : "sign.png",
            "mimeType" : "image/png",
            "uri" : "sign.png"
        }
    ],
    "accessors" : [
        {
            "type" : "VEC3",
            "componentType" : 5126,
            "min" : [
                -0.531049907207489,
                -0.019593432545661926,
                -0.09085310995578766
            ],
            "max" : [
                0.5386993885040283,
                1.0263389348983765,
                0.09085310250520706
            ],
            "bufferView" : 0,
            "count" : 24
        },
        {
            "type" : "VEC3",
            "componentType" : 5126,
            "bufferView" : 1,
            "count" : 24
        },
        {
            "type" : "SCALAR",
            "componentType" : 5123,
            "bufferView" : 2,
            "count" : 36
        },
        {
            "type" : "VEC2",
            "componentType" : 5126,
            "bufferView" : 3,
            "count" : 110
        },
        {
            "type" : "VEC3",
            "componentType" : 5126,
            "min" : [
                -0.5069563984870911,
                -0.07670827955007553,
                -0.03291662409901619
            ],
            "max" : [
                0.5211544036865234,
                1.0174537897109985,
                0.08014769107103348
            ],
            "bufferView" : 4,
            "count" : 110
        },
        {
            "type" : "VEC3",
            "componentType" : 5126,
            "bufferView" : 5,
            "count" : 110
        },
        {
            "type" : "SCALAR",
            "componentType" : 5123,
            "bufferView" : 6,
            "count" : 156
        }
    ],
    "bufferViews" : [
        {
            "byteLength" : 288,
            "buffer" : 0,
            "byteOffset" : 0
        },
        {
            "byteLength" : 288,
            "buffer" : 0,
            "byteOffset" : 288
        },
        {
            "byteLength" : 72,
            "buffer" : 0,
            "byteOffset" : 576
        },
        {
            "byteLength" : 880,
            "buffer" : 0,
            "byteOffset" : 648
        },
        {
            "byteLength" : 1320,
            "buffer" : 0,
            "byteOffset" : 1528
        },
        {
            "byteLength" : 1320,
            "buffer" : 0,
            "byteOffset" : 2848
        },
        {
            "byteLength" : 312,
            "buffer" : 0,
            "byteOffset" : 4168
        }
    ],
    "samplers" : [
        {
            "minFilter" : 9986,
            "wrapS" : 10497,
            "wrapT" : 10497,
            "magFilter" : 9729
        }
    ],
    "buffers" : [
        {
            "byteLength" : 4480,
            "uri" : "sign_caution.bin"
        }
    ]
}
