{
    "asset" : {
        "version" : "2.0",
        "generator" : "Khronos glTF Blender I/O v1.2.20"
    },
    "extensionsUsed" : [
        "KHR_materials_unlit"
    ],
    "scene" : 0,
    "scenes" : [
        {
            "name" : "Scene",
            "nodes" : [
                1
            ]
        }
    ],
    "nodes" : [
        {
            "name" : "SignDirection1Collider -colonly",
            "mesh" : 0
        },
        {
            "name" : "SignDirection1Mesh",
            "mesh" : 1,
            "children" : [
                0
            ]
        }
    ],
    "materials" : [
        {
            "name" : "sign",
            "extensions" : {
                "KHR_materials_unlit" : {}
            },
            "pbrMetallicRoughness" : {
                "baseColorTexture" : {
                    "index" : 0,
                    "texCoord" : 0
                }
            }
        }
    ],
    "meshes" : [
        {
            "name" : "SignDirection1Collider.001",
            "primitives" : [
                {
                    "attributes" : {
                        "NORMAL" : 0,
                        "POSITION" : 1
                    },
                    "indices" : 2
                }
            ]
        },
        {
            "name" : "SignDirection1Mesh.001",
            "primitives" : [
                {
                    "attributes" : {
                        "NORMAL" : 3,
                        "POSITION" : 4,
                        "TEXCOORD_0" : 5
                    },
                    "material" : 0,
                    "indices" : 6
                }
            ]
        }
    ],
    "textures" : [
        {
            "source" : 0,
            "sampler" : 0
        }
    ],
    "images" : [
        {
            "uri" : "sign.png",
            "name" : "sign.png",
            "mimeType" : "image/png"
        }
    ],
    "accessors" : [
        {
            "type" : "VEC3",
            "count" : 24,
            "componentType" : 5126,
            "bufferView" : 0
        },
        {
            "min" : [
                -0.49289268255233765,
                -0.07224324345588684,
                -0.0883362889289856
            ],
            "type" : "VEC3",
            "componentType" : 5126,
            "count" : 24,
            "max" : [
                0.6383958458900452,
                0.9979071617126465,
                0.088336281478405
            ],
            "bufferView" : 1
        },
        {
            "type" : "SCALAR",
            "count" : 36,
            "componentType" : 5123,
            "bufferView" : 2
        },
        {
            "type" : "VEC3",
            "count" : 62,
            "componentType" : 5126,
            "bufferView" : 3
        },
        {
            "min" : [
                -0.4954272508621216,
                -0.07458329945802689,
                -0.032004762440919876
            ],
            "type" : "VEC3",
            "componentType" : 5126,
            "count" : 62,
            "max" : [
                0.638969361782074,
                0.9892681241035461,
                0.07235247641801834
            ],
            "bufferView" : 4
        },
        {
            "type" : "VEC2",
            "count" : 62,
            "componentType" : 5126,
            "bufferView" : 5
        },
        {
            "type" : "SCALAR",
            "count" : 96,
            "componentType" : 5123,
            "bufferView" : 6
        }
    ],
    "bufferViews" : [
        {
            "byteOffset" : 0,
            "buffer" : 0,
            "byteLength" : 288
        },
        {
            "byteOffset" : 288,
            "buffer" : 0,
            "byteLength" : 288
        },
        {
            "byteOffset" : 576,
            "buffer" : 0,
            "byteLength" : 72
        },
        {
            "byteOffset" : 648,
            "buffer" : 0,
            "byteLength" : 744
        },
        {
            "byteOffset" : 1392,
            "buffer" : 0,
            "byteLength" : 744
        },
        {
            "byteOffset" : 2136,
            "buffer" : 0,
            "byteLength" : 496
        },
        {
            "byteOffset" : 2632,
            "buffer" : 0,
            "byteLength" : 192
        }
    ],
    "samplers" : [
        {
            "wrapT" : 10497,
            "minFilter" : 9986,
            "wrapS" : 10497,
            "magFilter" : 9729
        }
    ],
    "buffers" : [
        {
            "uri" : "sign_direction_1.bin",
            "byteLength" : 2824
        }
    ]
}
