{
    "asset" : {
        "version" : "2.0",
        "generator" : "Khronos glTF Blender I/O v1.2.20"
    },
    "extensionsUsed" : [
        "KHR_materials_unlit"
    ],
    "scene" : 0,
    "scenes" : [
        {
            "name" : "Scene",
            "nodes" : [
                1
            ]
        }
    ],
    "nodes" : [
        {
            "name" : "Tree1Collider -colonly",
            "mesh" : 0
        },
        {
            "name" : "Tree1",
            "children" : [
                0
            ],
            "mesh" : 1
        }
    ],
    "materials" : [
        {
            "extensions" : {
                "KHR_materials_unlit" : {}
            },
            "name" : "tree_trunk_2",
            "pbrMetallicRoughness" : {
                "baseColorTexture" : {
                    "index" : 0,
                    "texCoord" : 0
                }
            }
        },
        {
            "extensions" : {
                "KHR_materials_unlit" : {}
            },
            "name" : "tree_leaves_2",
            "pbrMetallicRoughness" : {
                "baseColorTexture" : {
                    "index" : 1,
                    "texCoord" : 0
                }
            }
        }
    ],
    "meshes" : [
        {
            "name" : "Tree1Collider.001",
            "primitives" : [
                {
                    "attributes" : {
                        "POSITION" : 0,
                        "NORMAL" : 1
                    },
                    "indices" : 2
                }
            ]
        },
        {
            "name" : "Tree1.001",
            "primitives" : [
                {
                    "attributes" : {
                        "POSITION" : 3,
                        "TEXCOORD_0" : 4,
                        "NORMAL" : 5
                    },
                    "material" : 0,
                    "indices" : 6
                },
                {
                    "attributes" : {
                        "POSITION" : 7,
                        "TEXCOORD_0" : 8,
                        "NORMAL" : 9
                    },
                    "material" : 1,
                    "indices" : 10
                }
            ]
        }
    ],
    "textures" : [
        {
            "source" : 0,
            "sampler" : 0
        },
        {
            "source" : 1,
            "sampler" : 1
        }
    ],
    "images" : [
        {
            "name" : "tree_trunk_2.png",
            "mimeType" : "image/png",
            "uri" : "tree_trunk_2.png"
        },
        {
            "name" : "tree_leaves_2.png",
            "mimeType" : "image/png",
            "uri" : "tree_leaves_2.png"
        }
    ],
    "accessors" : [
        {
            "type" : "VEC3",
            "componentType" : 5126,
            "bufferView" : 0,
            "count" : 24,
            "max" : [
                0.5024468898773193,
                3.123422145843506,
                0.694324254989624
            ],
            "min" : [
                -0.3574238419532776,
                0,
                -0.35918065905570984
            ]
        },
        {
            "count" : 24,
            "componentType" : 5126,
            "type" : "VEC3",
            "bufferView" : 1
        },
        {
            "count" : 36,
            "componentType" : 5123,
            "type" : "SCALAR",
            "bufferView" : 2
        },
        {
            "type" : "VEC3",
            "componentType" : 5126,
            "bufferView" : 3,
            "count" : 104,
            "max" : [
                1.0135873556137085,
                1.4996225833892822,
                0.7047730684280396
            ],
            "min" : [
                -0.674446702003479,
                -0.050850749015808105,
                -0.49383243918418884
            ]
        },
        {
            "count" : 104,
            "componentType" : 5126,
            "type" : "VEC2",
            "bufferView" : 4
        },
        {
            "count" : 104,
            "componentType" : 5126,
            "type" : "VEC3",
            "bufferView" : 5
        },
        {
            "count" : 336,
            "componentType" : 5123,
            "type" : "SCALAR",
            "bufferView" : 6
        },
        {
            "type" : "VEC3",
            "componentType" : 5126,
            "bufferView" : 7,
            "count" : 695,
            "max" : [
                1.4376468658447266,
                3.0156235694885254,
                1.2629563808441162
            ],
            "min" : [
                -1.448094367980957,
                -0.06718885898590088,
                -1.2629568576812744
            ]
        },
        {
            "count" : 695,
            "componentType" : 5126,
            "type" : "VEC2",
            "bufferView" : 8
        },
        {
            "count" : 695,
            "componentType" : 5126,
            "type" : "VEC3",
            "bufferView" : 9
        },
        {
            "count" : 1236,
            "componentType" : 5123,
            "type" : "SCALAR",
            "bufferView" : 10
        }
    ],
    "bufferViews" : [
        {
            "buffer" : 0,
            "byteOffset" : 0,
            "byteLength" : 288
        },
        {
            "buffer" : 0,
            "byteOffset" : 288,
            "byteLength" : 288
        },
        {
            "buffer" : 0,
            "byteOffset" : 576,
            "byteLength" : 72
        },
        {
            "buffer" : 0,
            "byteOffset" : 648,
            "byteLength" : 1248
        },
        {
            "buffer" : 0,
            "byteOffset" : 1896,
            "byteLength" : 832
        },
        {
            "buffer" : 0,
            "byteOffset" : 2728,
            "byteLength" : 1248
        },
        {
            "buffer" : 0,
            "byteOffset" : 3976,
            "byteLength" : 672
        },
        {
            "buffer" : 0,
            "byteOffset" : 4648,
            "byteLength" : 8340
        },
        {
            "buffer" : 0,
            "byteOffset" : 12988,
            "byteLength" : 5560
        },
        {
            "buffer" : 0,
            "byteOffset" : 18548,
            "byteLength" : 8340
        },
        {
            "buffer" : 0,
            "byteOffset" : 26888,
            "byteLength" : 2472
        }
    ],
    "samplers" : [
        {
            "wrapT" : 10497,
            "wrapS" : 10497,
            "magFilter" : 9729,
            "minFilter" : 9986
        },
        {
            "wrapT" : 10497,
            "wrapS" : 10497,
            "magFilter" : 9729,
            "minFilter" : 9986
        }
    ],
    "buffers" : [
        {
            "uri" : "tree_1.bin",
            "byteLength" : 29360
        }
    ]
}
