{
    "asset" : {
        "version" : "2.0",
        "generator" : "Khronos glTF Blender I/O v1.2.20"
    },
    "extensionsUsed" : [
        "KHR_materials_unlit"
    ],
    "scene" : 0,
    "scenes" : [
        {
            "nodes" : [
                1
            ],
            "name" : "Scene"
        }
    ],
    "nodes" : [
        {
            "mesh" : 0,
            "name" : "Tree1Collider -colonly"
        },
        {
            "children" : [
                0
            ],
            "mesh" : 1,
            "name" : "Tree1"
        }
    ],
    "materials" : [
        {
            "pbrMetallicRoughness" : {
                "baseColorTexture" : {
                    "texCoord" : 0,
                    "index" : 0
                }
            },
            "extensions" : {
                "KHR_materials_unlit" : {}
            },
            "name" : "tree_leaves"
        },
        {
            "pbrMetallicRoughness" : {
                "baseColorTexture" : {
                    "texCoord" : 0,
                    "index" : 1
                }
            },
            "extensions" : {
                "KHR_materials_unlit" : {}
            },
            "name" : "tree_trunk"
        }
    ],
    "meshes" : [
        {
            "name" : "Tree1Collider.001",
            "primitives" : [
                {
                    "attributes" : {
                        "POSITION" : 0,
                        "NORMAL" : 1
                    },
                    "indices" : 2
                }
            ]
        },
        {
            "name" : "Tree1.001",
            "primitives" : [
                {
                    "material" : 0,
                    "attributes" : {
                        "POSITION" : 3,
                        "NORMAL" : 4,
                        "TEXCOORD_0" : 5
                    },
                    "indices" : 6
                },
                {
                    "material" : 1,
                    "attributes" : {
                        "POSITION" : 7,
                        "NORMAL" : 8,
                        "TEXCOORD_0" : 9
                    },
                    "indices" : 10
                }
            ]
        }
    ],
    "textures" : [
        {
            "sampler" : 0,
            "source" : 0
        },
        {
            "sampler" : 1,
            "source" : 1
        }
    ],
    "images" : [
        {
            "mimeType" : "image/png",
            "uri" : "tree_leaves.png",
            "name" : "tree_leaves.png"
        },
        {
            "mimeType" : "image/png",
            "uri" : "tree_trunk.png",
            "name" : "tree_trunk.png"
        }
    ],
    "accessors" : [
        {
            "type" : "VEC3",
            "min" : [
                -0.3574238419532776,
                0,
                -0.35918065905570984
            ],
            "componentType" : 5126,
            "max" : [
                0.5024468898773193,
                3.123422145843506,
                0.694324254989624
            ],
            "count" : 24,
            "bufferView" : 0
        },
        {
            "type" : "VEC3",
            "componentType" : 5126,
            "bufferView" : 1,
            "count" : 24
        },
        {
            "type" : "SCALAR",
            "componentType" : 5123,
            "bufferView" : 2,
            "count" : 36
        },
        {
            "type" : "VEC3",
            "min" : [
                -1.448094367980957,
                -0.06718885898590088,
                -1.2629568576812744
            ],
            "componentType" : 5126,
            "max" : [
                1.4376468658447266,
                3.0156235694885254,
                1.2629563808441162
            ],
            "count" : 695,
            "bufferView" : 3
        },
        {
            "type" : "VEC3",
            "componentType" : 5126,
            "bufferView" : 4,
            "count" : 695
        },
        {
            "type" : "VEC2",
            "componentType" : 5126,
            "bufferView" : 5,
            "count" : 695
        },
        {
            "type" : "SCALAR",
            "componentType" : 5123,
            "bufferView" : 6,
            "count" : 1236
        },
        {
            "type" : "VEC3",
            "min" : [
                -0.674446702003479,
                -0.050850749015808105,
                -0.49383243918418884
            ],
            "componentType" : 5126,
            "max" : [
                1.0135873556137085,
                1.4996225833892822,
                0.7047730684280396
            ],
            "count" : 104,
            "bufferView" : 7
        },
        {
            "type" : "VEC3",
            "componentType" : 5126,
            "bufferView" : 8,
            "count" : 104
        },
        {
            "type" : "VEC2",
            "componentType" : 5126,
            "bufferView" : 9,
            "count" : 104
        },
        {
            "type" : "SCALAR",
            "componentType" : 5123,
            "bufferView" : 10,
            "count" : 336
        }
    ],
    "bufferViews" : [
        {
            "byteLength" : 288,
            "byteOffset" : 0,
            "buffer" : 0
        },
        {
            "byteLength" : 288,
            "byteOffset" : 288,
            "buffer" : 0
        },
        {
            "byteLength" : 72,
            "byteOffset" : 576,
            "buffer" : 0
        },
        {
            "byteLength" : 8340,
            "byteOffset" : 648,
            "buffer" : 0
        },
        {
            "byteLength" : 8340,
            "byteOffset" : 8988,
            "buffer" : 0
        },
        {
            "byteLength" : 5560,
            "byteOffset" : 17328,
            "buffer" : 0
        },
        {
            "byteLength" : 2472,
            "byteOffset" : 22888,
            "buffer" : 0
        },
        {
            "byteLength" : 1248,
            "byteOffset" : 25360,
            "buffer" : 0
        },
        {
            "byteLength" : 1248,
            "byteOffset" : 26608,
            "buffer" : 0
        },
        {
            "byteLength" : 832,
            "byteOffset" : 27856,
            "buffer" : 0
        },
        {
            "byteLength" : 672,
            "byteOffset" : 28688,
            "buffer" : 0
        }
    ],
    "samplers" : [
        {
            "minFilter" : 9986,
            "wrapS" : 10497,
            "magFilter" : 9729,
            "wrapT" : 10497
        },
        {
            "minFilter" : 9986,
            "wrapS" : 10497,
            "magFilter" : 9729,
            "wrapT" : 10497
        }
    ],
    "buffers" : [
        {
            "byteLength" : 29360,
            "uri" : "tree_1.bin"
        }
    ]
}
