<?xml version="1.0" encoding="UTF-8" standalone="no"?>
<!-- Uploaded to: SVG Repo, www.svgrepo.com, Generator: SVG Repo Mixer Tools -->

<svg
   height="256"
   width="256"
   version="1.1"
   id="Layer_1"
   viewBox="0 0 163.84 163.84"
   xml:space="preserve"
   sodipodi:docname="clock.svg"
   inkscape:version="1.3 (0e150ed6c4, 2023-07-21)"
   xmlns:inkscape="http://www.inkscape.org/namespaces/inkscape"
   xmlns:sodipodi="http://sodipodi.sourceforge.net/DTD/sodipodi-0.dtd"
   xmlns="http://www.w3.org/2000/svg"
   xmlns:svg="http://www.w3.org/2000/svg"><defs
   id="defs12" /><sodipodi:namedview
   id="namedview12"
   pagecolor="#ffffff"
   bordercolor="#111111"
   borderopacity="1"
   inkscape:showpageshadow="0"
   inkscape:pageopacity="0"
   inkscape:pagecheckerboard="1"
   inkscape:deskcolor="#d1d1d1"
   inkscape:zoom="1.5875"
   inkscape:cx="135.11811"
   inkscape:cy="138.89764"
   inkscape:window-width="1600"
   inkscape:window-height="835"
   inkscape:window-x="0"
   inkscape:window-y="0"
   inkscape:window-maximized="1"
   inkscape:current-layer="g2" />&#10;&#10;&#10;&#10;&#10;&#10;&#10;&#10;&#10;&#10;<g
   id="g2"
   style="stroke:none;stroke-opacity:1"><g
     id="g1"
     style="stroke:none;stroke-width:14.54988848;stroke-dasharray:none;stroke-opacity:1"
     transform="matrix(0.30790614,0,0,0.30790614,3.0960272,3.0960272)"><path
       style="fill:#9e9e9e;fill-opacity:1;stroke:#848484;stroke-width:14.54988848;stroke-dasharray:none;stroke-opacity:1"
       d="M 256,512 C 114.842,512 0,397.158 0,256 0,114.842 114.842,0 256,0 397.158,0 512,114.842 512,256 512,397.158 397.158,512 256,512 Z"
       id="path1" /></g><path
     style="fill:#e6f4ff;stroke:none;stroke-width:3.98175;stroke-dasharray:none;stroke-opacity:1"
     d="m 81.92,138.46758 c -31.180425,0 -56.547578,-25.36715 -56.547578,-56.54758 0,-31.180425 25.36685,-56.547578 56.547578,-56.547578 31.18073,0 56.54758,25.367153 56.54758,56.547578 0,31.18043 -25.36715,56.54758 -56.54758,56.54758 z"
     id="path3" /><g
     id="g6"
     style="stroke:none;stroke-opacity:1"
     transform="matrix(0.30790614,0,0,0.30790614,3.0960272,3.0960272)">&#10;	<path
   style="fill:#6a563d;stroke:none;stroke-opacity:1"
   d="m 256,395.13 c -9.223,0 -16.696,7.473 -16.696,16.696 v 26.981 c 5.565,0.499 11.064,0.845 16.701,0.845 5.633,0 11.125,-0.345 16.69,-0.845 V 411.826 C 272.696,402.603 265.223,395.13 256,395.13 Z"
   id="path5" />&#10;	<path
   style="fill:#6a563d;stroke:none;stroke-opacity:1"
   d="m 256.006,72.348 c -5.638,0 -11.136,0.346 -16.701,0.845 v 27.639 c 0,9.223 7.473,16.696 16.696,16.696 9.223,0 16.696,-7.473 16.696,-16.696 V 73.193 c -5.567,-0.5 -11.058,-0.845 -16.691,-0.845 z"
   id="path6" />&#10;</g><path
     style="fill:#554431;stroke:none;stroke-width:0.307906;stroke-opacity:1"
     d="m 124.65706,81.92 c 0,2.839819 2.30098,5.140802 5.14081,5.140802 h 8.4046 c 0.1598,-1.713498 0.26511,-3.472257 0.26511,-5.241178 0,-1.700875 -0.10715,-3.32662 -0.25526,-5.040425 h -8.41477 c -2.83951,0 -5.14049,2.300981 -5.14049,5.140801 z"
     id="path7" /><path
     style="fill:#6a563d;stroke:none;stroke-width:0.307906;stroke-opacity:1"
     d="m 34.038747,76.779199 h -8.41138 c -0.148102,1.713498 -0.254946,3.33955 -0.254946,5.040425 0,1.768612 0.105304,3.52768 0.265108,5.241178 h 8.401218 c 2.839819,0 5.140802,-2.300983 5.140802,-5.140802 0,-2.83982 -2.300983,-5.140801 -5.140802,-5.140801 z"
     id="path8" /><g
     id="g10"
     style="stroke:none;stroke-opacity:1"
     transform="matrix(0.30790614,0,0,0.30790614,3.0960272,3.0960272)">&#10;	<path
   style="fill:#554431;stroke:none;stroke-opacity:1"
   d="m 256,395.13 v 44.522 c 5.565,0 11.13,-0.345 16.696,-0.845 v -26.981 c 0,-9.22 -7.792,-16.692 -16.696,-16.696 z"
   id="path9" />&#10;	<path
   style="fill:#554431;stroke:none;stroke-opacity:1"
   d="M 272.696,100.832 V 73.193 c -5.565,-0.5 -11.13,-0.845 -16.696,-0.845 v 45.18 c 8.904,-0.004 16.696,-7.476 16.696,-16.696 z"
   id="path10" />&#10;</g><path
     style="fill:#6a563d;stroke:none;stroke-width:0.307906;stroke-opacity:1"
     d="m 82.018838,87.161178 c -1.315376,0 -2.630751,-0.502195 -3.634524,-1.506278 L 56.91956,64.190147 c -2.007856,-2.006315 -2.007856,-5.26273 0,-7.269355 2.007857,-2.007856 5.261193,-2.007856 7.269358,0 l 17.82992,17.82992 14.67912,-14.67727 c 2.007853,-2.007856 5.261192,-2.007856 7.269352,0 2.00785,2.007857 2.00785,5.262734 0,7.269359 L 85.653365,85.6549 c -1.004083,1.004083 -2.319458,1.506278 -3.634527,1.506278 z"
     id="path11" /><path
     style="fill:#554431;stroke:none;stroke-width:0.307906;stroke-opacity:1"
     d="m 96.697645,60.073752 -14.679114,14.677269 -0.09853,-0.09853 V 87.14209 c 0,6.44e-4 0.06497,0.01909 0.09884,0.01909 1.315375,0 2.630751,-0.502195 3.634527,-1.506278 L 103.96701,67.342804 c 2.00785,-2.006318 2.00785,-5.261192 0,-7.269358 -2.00817,-2.007856 -5.261199,-2.007547 -7.269365,3.09e-4 z"
     id="path12" /></g>&#10;</svg>
