<?xml version="1.0" encoding="UTF-8" standalone="no"?>
<!-- Uploaded to: SVG Repo, www.svgrepo.com, Generator: SVG Repo Mixer Tools -->

<svg
   height="800px"
   width="800px"
   version="1.1"
   id="Layer_1"
   viewBox="0 0 512 512"
   xml:space="preserve"
   sodipodi:docname="clock.svg"
   inkscape:version="1.3 (0e150ed6c4, 2023-07-21)"
   xmlns:inkscape="http://www.inkscape.org/namespaces/inkscape"
   xmlns:sodipodi="http://sodipodi.sourceforge.net/DTD/sodipodi-0.dtd"
   xmlns="http://www.w3.org/2000/svg"
   xmlns:svg="http://www.w3.org/2000/svg"><defs
   id="defs12" /><sodipodi:namedview
   id="namedview12"
   pagecolor="#ffffff"
   bordercolor="#111111"
   borderopacity="1"
   inkscape:showpageshadow="0"
   inkscape:pageopacity="0"
   inkscape:pagecheckerboard="1"
   inkscape:deskcolor="#d1d1d1"
   inkscape:zoom="0.79375"
   inkscape:cx="308.0315"
   inkscape:cy="388.66142"
   inkscape:window-width="1600"
   inkscape:window-height="835"
   inkscape:window-x="0"
   inkscape:window-y="0"
   inkscape:window-maximized="1"
   inkscape:current-layer="Layer_1" />&#10;&#10;&#10;&#10;&#10;&#10;&#10;&#10;&#10;&#10;<g
   id="g2"
   style="stroke:none;stroke-opacity:1"><g
     id="g1"
     style="stroke:none;stroke-opacity:1;stroke-width:8.93568;stroke-dasharray:none"><path
       style="fill:#9e9e9e;fill-opacity:1;stroke:none;stroke-opacity:1;stroke-width:8.93568;stroke-dasharray:none"
       d="M256,512C114.842,512,0,397.158,0,256S114.842,0,256,0s256,114.842,256,256S397.158,512,256,512z"
       id="path1" /><path
       style="fill:#767676;fill-opacity:1;stroke:none;stroke-opacity:1;stroke-width:8.93568;stroke-dasharray:none"
       d="M256,0L256,0v5.565v500.87l0.432,5.56C397.392,511.761,512,397.015,512,256  C512,114.842,397.158,0,256,0z"
       id="path2" /></g><path
     style="fill:#E6F4FF;stroke:none;stroke-opacity:1;stroke-width:6.4;stroke-dasharray:none"
     d="M256,439.652c-101.266,0-183.652-82.386-183.652-183.652S154.733,72.348,256,72.348  S439.652,154.734,439.652,256S357.266,439.652,256,439.652z"
     id="path3" /><path
     style="fill:#C2DFF6;stroke:none;stroke-opacity:1"
     d="M439.652,256c0-101.266-82.365-183.652-183.652-183.652v367.304  C357.287,439.652,439.652,357.267,439.652,256z"
     id="path4" /><g
     id="g6"
     style="stroke:none;stroke-opacity:1">&#10;	<path
   style="fill:#6A563D;stroke:none;stroke-opacity:1"
   d="M256,395.13c-9.223,0-16.696,7.473-16.696,16.696v26.981c5.565,0.499,11.064,0.845,16.701,0.845   c5.633,0,11.125-0.345,16.69-0.845v-26.981C272.696,402.603,265.223,395.13,256,395.13z"
   id="path5" />&#10;	<path
   style="fill:#6A563D;stroke:none;stroke-opacity:1"
   d="M256.006,72.348c-5.638,0-11.136,0.346-16.701,0.845v27.639c0,9.223,7.473,16.696,16.696,16.696   s16.696-7.473,16.696-16.696V73.193C267.13,72.693,261.639,72.348,256.006,72.348z"
   id="path6" />&#10;</g><path
     style="fill:#554431;stroke:none;stroke-opacity:1"
     d="M394.799,256c0,9.223,7.473,16.696,16.696,16.696h27.296c0.519-5.565,0.861-11.277,0.861-17.022  c0-5.524-0.348-10.804-0.829-16.37h-27.329C402.272,239.304,394.799,246.777,394.799,256z"
     id="path7" /><path
     style="fill:#6A563D;stroke:none;stroke-opacity:1"
     d="M100.494,239.304H73.176c-0.481,5.565-0.828,10.846-0.828,16.37c0,5.744,0.342,11.457,0.861,17.022  h27.285c9.223,0,16.696-7.473,16.696-16.696S109.717,239.304,100.494,239.304z"
     id="path8" /><g
     id="g10"
     style="stroke:none;stroke-opacity:1">&#10;	<path
   style="fill:#554431;stroke:none;stroke-opacity:1"
   d="M256,395.13v44.522c5.565,0,11.13-0.345,16.696-0.845v-26.981   C272.696,402.606,264.904,395.134,256,395.13z"
   id="path9" />&#10;	<path
   style="fill:#554431;stroke:none;stroke-opacity:1"
   d="M272.696,100.832V73.193c-5.565-0.5-11.13-0.845-16.696-0.845v45.18   C264.904,117.524,272.696,110.052,272.696,100.832z"
   id="path10" />&#10;</g><path
     style="fill:#6A563D;stroke:none;stroke-opacity:1"
     d="M256.321,273.022c-4.272,0-8.544-1.631-11.804-4.892l-69.712-69.712  c-6.521-6.516-6.521-17.092,0-23.609c6.521-6.521,17.087-6.521,23.609,0l57.907,57.907l47.674-47.668  c6.521-6.521,17.087-6.521,23.609,0c6.521,6.521,6.521,17.092,0,23.609l-59.479,59.473  C264.864,271.391,260.592,273.022,256.321,273.022z"
     id="path11" /><path
     style="fill:#554431;stroke:none;stroke-opacity:1"
     d="M303.994,185.049l-47.674,47.668L256,232.397v40.563c0,0.002,0.211,0.062,0.321,0.062  c4.272,0,8.544-1.631,11.804-4.892l59.478-59.473c6.521-6.516,6.521-17.087,0-23.609  C321.081,178.527,310.516,178.528,303.994,185.049z"
     id="path12" /></g>&#10;</svg>
