<?xml version="1.0" encoding="UTF-8" standalone="no"?>
<!-- Uploaded to: SVG Repo, www.svgrepo.com, Generator: SVG Repo Mixer Tools -->

<svg
   width="256"
   height="256"
   viewBox="0 0 11.52 11.52"
   aria-hidden="true"
   role="img"
   class="iconify iconify--twemoji"
   preserveAspectRatio="xMidYMid"
   version="1.1"
   id="svg3"
   sodipodi:docname="skull-and-crossbones-svgrepo-com.svg"
   inkscape:version="1.3 (0e150ed6c4, 2023-07-21)"
   xmlns:inkscape="http://www.inkscape.org/namespaces/inkscape"
   xmlns:sodipodi="http://sodipodi.sourceforge.net/DTD/sodipodi-0.dtd"
   xmlns="http://www.w3.org/2000/svg"
   xmlns:svg="http://www.w3.org/2000/svg">
  <defs
     id="defs3" />
  <sodipodi:namedview
     id="namedview3"
     pagecolor="#ffffff"
     bordercolor="#111111"
     borderopacity="1"
     inkscape:showpageshadow="0"
     inkscape:pageopacity="0"
     inkscape:pagecheckerboard="1"
     inkscape:deskcolor="#d1d1d1"
     inkscape:zoom="2.245064"
     inkscape:cx="97.992751"
     inkscape:cy="146.76642"
     inkscape:window-width="1600"
     inkscape:window-height="835"
     inkscape:window-x="0"
     inkscape:window-y="0"
     inkscape:window-maximized="1"
     inkscape:current-layer="svg3" />
  <path
     fill="#ccd6dd"
     d="m 8.800832,5.3929887 c 0,-1.9143595 -1.3528098,-3.0632205 -3.0445122,-3.0632205 -1.6917025,0 -3.016297,1.148861 -3.016297,3.0632205 0,1.0672814 -0.031589,1.9888852 1.1951713,2.4197846 v 0.8348104 c 0,0.3171175 0.2962626,0.5741239 0.6133801,0.5741239 0.3174243,0 0.6133801,-0.2570064 0.6133801,-0.5741239 V 8.0434042 8.6475837 c 0,0.3171175 0.295956,0.5741239 0.6133803,0.5741239 0.3177308,0 0.6133801,-0.2570064 0.6133801,-0.5741239 V 8.0434042 8.6475837 c 0,0.3171175 0.2962626,0.5741239 0.6133801,0.5741239 0.3171175,0 0.6133802,-0.2570064 0.6133802,-0.5741239 V 7.8127733 C 8.8422352,7.3818739 8.800832,6.4602701 8.800832,5.3929887 Z"
     id="path1"
     style="stroke:#91a4af;stroke-width:0.27;stroke-opacity:1;stroke-dasharray:none" />
  <circle
     fill="#292f33"
     cx="4.3734283"
     cy="4.9747791"
     r="1.0015019"
     id="circle1"
     style="stroke-width:0.320891" />
  <path
     fill="#292f33"
     d="m 8.1788791,4.9747788 c 0,0.5532167 0,1.001502 -1.0015019,1.001502 -1.0011811,0 -1.0011811,-0.4482853 -1.0011811,-1.001502 a 1.0013415,1.0013415 0 1 1 2.002683,0 z M 6.1569426,6.7897404 C 6.1065627,6.6671599 5.9560646,6.5773103 5.7754028,6.5773103 c -0.1800201,0 -0.330839,0.08985 -0.381219,0.2124301 a 0.29971253,0.29971253 0 1 0 0.3632491,0.386995 c 0.0061,0 0.011873,0.00128 0.01797,0.00128 0.0061,0 0.011873,-0.00128 0.018291,-0.00128 a 0.29971253,0.29971253 0 1 0 0.3632487,-0.386995 z"
     id="path2"
     style="stroke-width:0.320891" />
  <path
     d="m 3.628504,8.5362553 c 0,-0.1125554 0.023002,-0.2186701 0.059804,-0.3183444 C 3.3865255,8.0808204 3.126759,7.8860722 2.9206633,7.6137315 A 85.837951,85.837951 0 0 1 1.9616434,8.4402613 1.0642145,1.0642145 0 0 0 1.3283284,8.2295652 1.0734152,1.0734152 0 0 0 0.25491321,9.3029804 1.0700417,1.0700417 0 0 0 1.1890912,10.362287 1.069735,1.069735 0 0 0 2.2483987,11.296466 1.0734152,1.0734152 0 0 0 3.3218139,10.22305 c 0,-0.2376838 -0.07974,-0.4554341 -0.2103894,-0.6333144 C 3.2954386,9.3732124 3.4935604,9.141968 3.703643,8.8996829 A 0.91485649,0.91485649 0 0 1 3.628504,8.5362553 Z M 8.8029789,3.7880795 C 9.0740929,3.5522348 9.3332461,3.3295779 9.5743045,3.1247089 A 1.0648279,1.0648279 0 0 0 10.191671,3.3225239 1.0734152,1.0734152 0 0 0 11.265087,2.2491087 1.0706551,1.0706551 0 0 0 10.361885,1.1928681 1.069735,1.069735 0 0 0 9.3022703,0.25562326 1.0734152,1.0734152 0 0 0 8.2288551,1.3290385 c 0,0.2376849 0.07974,0.4554348 0.2106961,0.6333149 C 8.2573773,2.1770365 8.0614023,2.4055207 7.8534664,2.6453523 8.2521635,2.9124794 8.5775617,3.2878679 8.8029789,3.7880795 Z M 1.3283284,3.3225239 a 1.0642145,1.0642145 0 0 0 0.633315,-0.210696 C 2.2066887,3.3200705 2.4710556,3.5470211 2.7479968,3.7877728 2.9734141,3.2875613 3.2985055,2.9121726 3.6975093,2.6450456 A 85.457962,85.457962 0 0 1 3.1111179,1.9623534 1.0642145,1.0642145 0 0 0 3.3218139,1.3290385 1.0734152,1.0734152 0 0 0 2.2483987,0.25562326 1.0700417,1.0700417 0 0 0 1.1890912,1.1898013 1.0700417,1.0700417 0 0 0 0.25491321,2.2491087 1.0734152,1.0734152 0 0 0 1.3283284,3.3225239 Z m 8.8633426,4.9070413 c -0.2306303,0 -0.4428599,0.074219 -0.6176733,0.197815 C 9.2820288,8.179268 8.9636844,7.9057004 8.629699,7.6137315 8.4236033,7.886379 8.1638368,8.0808204 7.8620538,8.2182176 c 0.037109,0.099368 0.060111,0.2054823 0.060111,0.3180377 0,0.1291164 -0.026989,0.2517925 -0.075139,0.3634276 0.2100826,0.2422851 0.4082044,0.4735295 0.5922185,0.6900527 A 1.065748,1.065748 0 0 0 8.2288551,10.22305 c 0,0.593139 0.4802767,1.073416 1.0734152,1.073416 a 1.0694282,1.0694282 0 0 0 1.0596147,-0.937245 1.0706551,1.0706551 0 0 0 0.903202,-1.0562406 c 0,-0.5931386 -0.480277,-1.0734152 -1.073416,-1.0734152 z"
     fill="#aab8c2"
     id="path3"
     style="stroke:#91a4af;stroke-width:0.27;stroke-opacity:1;stroke-dasharray:none" />
</svg>
