<?xml version="1.0" encoding="UTF-8" standalone="no"?>
<!-- Uploaded to: SVG Repo, www.svgrepo.com, Generator: SVG Repo Mixer Tools -->

<svg
   width="800px"
   height="800px"
   viewBox="0 0 128 128"
   aria-hidden="true"
   role="img"
   class="iconify iconify--noto"
   preserveAspectRatio="xMidYMid meet"
   version="1.1"
   id="svg6"
   sodipodi:docname="door_closed.svg"
   xml:space="preserve"
   inkscape:version="1.3 (0e150ed6c4, 2023-07-21)"
   xmlns:inkscape="http://www.inkscape.org/namespaces/inkscape"
   xmlns:sodipodi="http://sodipodi.sourceforge.net/DTD/sodipodi-0.dtd"
   xmlns="http://www.w3.org/2000/svg"
   xmlns:svg="http://www.w3.org/2000/svg"><defs
     id="defs6" /><sodipodi:namedview
     id="namedview6"
     pagecolor="#ffffff"
     bordercolor="#111111"
     borderopacity="1"
     inkscape:showpageshadow="0"
     inkscape:pageopacity="0"
     inkscape:pagecheckerboard="1"
     inkscape:deskcolor="#d1d1d1"
     inkscape:zoom="0.56126601"
     inkscape:cx="291.30572"
     inkscape:cy="398.2069"
     inkscape:window-width="1600"
     inkscape:window-height="835"
     inkscape:window-x="0"
     inkscape:window-y="0"
     inkscape:window-maximized="1"
     inkscape:current-layer="g1" /><path
     d="M33.28 123.87l61.43.13c1.22 0 2.2-.89 2.2-1.99V6.12c0-1.1-.98-1.99-2.19-1.99L33.29 4c-1.22 0-2.2.89-2.2 1.99v115.88c0 1.1.98 2 2.19 2z"
     fill="#b06542"
     id="path1" /><path
     d="M78.72 20.72v30.32H49.28V20.72h29.44m4.91-5H44.37v40.32h39.26V15.72z"
     fill="#874d36"
     id="path2" /><path
     fill="#c87d5e"
     d="M83.63 15.9l-5.1 4.82h.19v30.32H49.65l-5.28 5h39.26z"
     id="path3" /><g
     id="g5"><path
       d="M78.72 78.96v28.32H49.28V78.96h29.44m4.91-5H44.37v38.32h39.26V73.96z"
       fill="#874d36"
       id="path4" /><path
       fill="#c87d5e"
       d="M83.63 74.14l-5.1 4.82h.19v28.32H49.65l-5.28 5h39.26z"
       id="path5" /></g><g
     id="g6"><circle
       cx="44.18"
       cy="66"
       r="5.25"
       fill="#874d36"
       id="circle5" /><circle
       cx="42.14"
       cy="64.45"
       r="5.25"
       fill="#bdbdbd"
       id="circle6" /><path
       d="M43.38 61.11c.13.65-.25.97-.79 1.36c-.54.39-1.21.7-1.7 1.53c-.35.59-.46 1.37-1.03 1.76c-.56.38-1.2.31-1.5-.36c-.43-.95-.44-2.6.77-3.95c1.16-1.29 3.93-1.98 4.25-.34z"
       fill="#eee"
       id="path6" /></g><g
     id="g1"
     transform="matrix(0.12500024,0,0,0.12500024,63.999877,63.999752)"><path
       style="fill:#ff6465"
       d="M 256.001,512 C 397.385,512 512,397.385 512,255.999 512.001,114.615 397.386,0 256.001,0 114.616,0 0.001,114.615 0.001,256.001 0.001,397.387 114.616,512 256.001,512 Z"
       id="path1-5" /><path
       style="fill:#ffffff"
       d="m 313.391,256.001 67.398,-67.398 c 4.899,-4.899 4.899,-12.842 0,-17.74 l -39.65,-39.65 c -4.899,-4.899 -12.842,-4.899 -17.74,0 l -67.398,67.398 -67.398,-67.398 c -4.899,-4.899 -12.842,-4.899 -17.74,0 l -39.65,39.65 c -4.899,4.899 -4.899,12.842 0,17.74 l 67.398,67.398 -67.398,67.398 c -4.899,4.899 -4.899,12.842 0,17.741 l 39.65,39.65 c 4.899,4.899 12.842,4.899 17.74,0 l 67.398,-67.398 67.399,67.398 c 4.899,4.899 12.842,4.899 17.74,0 l 39.65,-39.65 c 4.899,-4.899 4.899,-12.842 0,-17.741 z"
       id="path3-5" /></g></svg>
