<?xml version="1.0" encoding="UTF-8" standalone="no"?>
<!-- Uploaded to: SVG Repo, www.svgrepo.com, Generator: SVG Repo Mixer Tools -->

<svg
   width="800px"
   height="800px"
   viewBox="0 0 128 128"
   aria-hidden="true"
   role="img"
   class="iconify iconify--noto"
   preserveAspectRatio="xMidYMid meet"
   version="1.1"
   id="svg6"
   sodipodi:docname="door_opened.svg"
   xml:space="preserve"
   inkscape:version="1.3 (0e150ed6c4, 2023-07-21)"
   xmlns:inkscape="http://www.inkscape.org/namespaces/inkscape"
   xmlns:sodipodi="http://sodipodi.sourceforge.net/DTD/sodipodi-0.dtd"
   xmlns="http://www.w3.org/2000/svg"
   xmlns:svg="http://www.w3.org/2000/svg"><defs
     id="defs6"><style
       id="style1">.cls-1{fill:none;stroke:#000000;stroke-linecap:round;stroke-linejoin:round;stroke-width:2px;}</style><style
       id="style1-7">&#10;      .cls-1 {&#10;        fill: #699f4c;&#10;        fill-rule: evenodd;&#10;      }&#10;    </style></defs><sodipodi:namedview
     id="namedview6"
     pagecolor="#ffffff"
     bordercolor="#111111"
     borderopacity="1"
     inkscape:showpageshadow="0"
     inkscape:pageopacity="0"
     inkscape:pagecheckerboard="1"
     inkscape:deskcolor="#d1d1d1"
     inkscape:zoom="2.245064"
     inkscape:cx="543.63705"
     inkscape:cy="630.49426"
     inkscape:window-width="1600"
     inkscape:window-height="835"
     inkscape:window-x="0"
     inkscape:window-y="0"
     inkscape:window-maximized="1"
     inkscape:current-layer="g9" /><path
     d="M33.28 123.87l61.43.13c1.22 0 2.2-.89 2.2-1.99V6.12c0-1.1-.98-1.99-2.19-1.99L33.29 4c-1.22 0-2.2.89-2.2 1.99v115.88c0 1.1.98 2 2.19 2z"
     fill="#b06542"
     id="path1" /><path
     d="M78.72 20.72v30.32H49.28V20.72h29.44m4.91-5H44.37v40.32h39.26V15.72z"
     fill="#874d36"
     id="path2" /><path
     fill="#c87d5e"
     d="M83.63 15.9l-5.1 4.82h.19v30.32H49.65l-5.28 5h39.26z"
     id="path3" /><g
     id="g5"><path
       d="M78.72 78.96v28.32H49.28V78.96h29.44m4.91-5H44.37v38.32h39.26V73.96z"
       fill="#874d36"
       id="path4" /><path
       fill="#c87d5e"
       d="M83.63 74.14l-5.1 4.82h.19v28.32H49.65l-5.28 5h39.26z"
       id="path5" /></g><g
     id="g6"><circle
       cx="44.18"
       cy="66"
       r="5.25"
       fill="#874d36"
       id="circle5" /><circle
       cx="42.14"
       cy="64.45"
       r="5.25"
       fill="#bdbdbd"
       id="circle6" /><path
       d="M43.38 61.11c.13.65-.25.97-.79 1.36c-.54.39-1.21.7-1.7 1.53c-.35.59-.46 1.37-1.03 1.76c-.56.38-1.2.31-1.5-.36c-.43-.95-.44-2.6.77-3.95c1.16-1.29 3.93-1.98 4.25-.34z"
       fill="#eee"
       id="path6" /></g><g
     id="g8"
     transform="matrix(0.48578118,0,0,0.48578118,129.27522,64.853158)"><g
       id="g9"
       transform="translate(-144.203,20.132541)"><path
         class="cls-1"
         d="M 77.577907,109.85776 A 64,64 0 1 1 141.57791,45.857764 64,64 0 0 1 77.577907,109.85776 Z M 41.341115,60.289764 a 7.4325333,7.4325333 0 0 1 0,-10.453333 l 3.767459,-3.746134 a 6.7946667,6.7946667 0 0 1 9.757866,0.1088 l 6.656,6.9056 a 3.3962667,3.3962667 0 0 0 4.930134,0 L 100.37257,18.139364 a 6.7989333,6.7989333 0 0 1 9.81334,-0.0576 l 3.65867,3.6992 a 7.4282667,7.4282667 0 0 1 0,10.338133 L 68.81204,77.881231 a 6.7946667,6.7946667 0 0 1 -9.710933,0.064 z"
         id="check"
         style="fill:#6aa04c;fill-opacity:1;stroke:none;stroke-width:1.99991;stroke-dasharray:none;stroke-opacity:1" /><path
         style="fill:#f6f6f6;fill-opacity:1;stroke:none;stroke-width:3.9993;stroke-dasharray:none;stroke-opacity:1"
         d="M 60.081027,80.211033 C 58.994263,79.529488 53.140546,73.953531 47.072772,67.820018 36.763854,57.399417 36.040451,56.506954 36.040451,54.209413 c 0,-3.350208 1.310041,-5.624456 5.313025,-9.22348 2.966518,-2.667158 3.761357,-3.049562 6.338632,-3.049562 2.802403,0 3.231948,0.274326 8.766369,5.598493 3.200765,3.079169 6.214402,5.587987 6.697013,5.575152 1.82032,-0.04842 4.034048,-2.132522 22.955745,-21.611683 C 96.790239,20.50471 106.0268,11.242499 106.63691,10.915647 c 0.61015,-0.326853 2.18819,-0.59428 3.50682,-0.59428 2.01507,0 3.02147,0.595211 6.30992,3.731868 2.26981,2.165035 4.13689,4.584706 4.44705,5.76315 1.21505,4.617145 0.98053,4.908198 -26.636233,33.050924 -14.4189,14.69354 -27.030864,27.136798 -28.026511,27.651675 -2.409878,1.246191 -3.78872,1.177232 -6.156929,-0.307951 z"
         id="path9" /></g></g></svg>
