<?xml version="1.0" encoding="UTF-8" standalone="no"?>
<!-- Uploaded to: SVG Repo, www.svgrepo.com, Generator: SVG Repo Mixer Tools -->

<svg
   width="256"
   height="256"
   viewBox="0 0 40.96 40.96"
   aria-hidden="true"
   role="img"
   class="iconify iconify--noto"
   preserveAspectRatio="xMidYMid"
   version="1.1"
   id="svg6"
   sodipodi:docname="door_closed.svg"
   xml:space="preserve"
   inkscape:version="1.3 (0e150ed6c4, 2023-07-21)"
   xmlns:inkscape="http://www.inkscape.org/namespaces/inkscape"
   xmlns:sodipodi="http://sodipodi.sourceforge.net/DTD/sodipodi-0.dtd"
   xmlns="http://www.w3.org/2000/svg"
   xmlns:svg="http://www.w3.org/2000/svg"><defs
     id="defs6" /><sodipodi:namedview
     id="namedview6"
     pagecolor="#ffffff"
     bordercolor="#111111"
     borderopacity="1"
     inkscape:showpageshadow="0"
     inkscape:pageopacity="0"
     inkscape:pagecheckerboard="1"
     inkscape:deskcolor="#d1d1d1"
     inkscape:zoom="1.5875"
     inkscape:cx="46.299212"
     inkscape:cy="135.11811"
     inkscape:window-width="1600"
     inkscape:window-height="835"
     inkscape:window-x="0"
     inkscape:window-y="0"
     inkscape:window-maximized="1"
     inkscape:current-layer="g2" /><g
     id="g2"
     transform="matrix(1.0406504,0,0,1.0406504,-1.0917803,-1.2909191)"><path
       d="m 10.914017,39.314482 19.128855,0.04048 c 0.379899,0 0.685064,-0.277139 0.685064,-0.619671 V 2.6479902 c 0,-0.342532 -0.305165,-0.6196715 -0.68195,-0.6196715 L 10.917131,1.9878376 c -0.379899,0 -0.685064,0.2771396 -0.685064,0.6196715 V 38.691697 c 0,0.342532 0.305165,0.622785 0.68195,0.622785 z"
       fill="#b06542"
       id="path1"
       style="stroke:#7b452e;stroke-width:1.07625001;stroke-dasharray:none;stroke-opacity:1" /><path
       d="M 25.063702,7.1943238 V 16.635751 H 15.896301 V 7.1943238 h 9.167401 M 26.592641,5.6373603 H 14.367363 V 18.192714 h 12.225278 z"
       fill="#874d36"
       id="path2"
       style="stroke-width:0.311393" /><path
       fill="#c87d5e"
       d="m 26.592641,5.6934109 -1.588103,1.5009129 h 0.05916 v 9.4414272 h -9.052186 l -1.644153,1.556963 h 12.225278 z"
       id="path3"
       style="stroke-width:0.311393" /><g
       id="g5"
       transform="matrix(0.31139271,0,0,0.31139271,0.5508677,0.74226689)"><path
         d="m 78.72,78.96 v 28.32 H 49.28 V 78.96 h 29.44 m 4.91,-5 H 44.37 v 38.32 h 39.26 z"
         fill="#874d36"
         id="path4" /><path
         fill="#c87d5e"
         d="m 83.63,74.14 -5.1,4.82 h 0.19 v 28.32 H 49.65 l -5.28,5 h 39.26 z"
         id="path5" /></g><g
       id="g6"
       transform="matrix(0.31139271,0,0,0.31139271,0.5508677,0.74226689)"><circle
         cx="44.18"
         cy="66"
         r="5.25"
         fill="#874d36"
         id="circle5" /><circle
         cx="42.139999"
         cy="64.449997"
         r="5.25"
         fill="#bdbdbd"
         id="circle6" /><path
         d="m 43.38,61.11 c 0.13,0.65 -0.25,0.97 -0.79,1.36 -0.54,0.39 -1.21,0.7 -1.7,1.53 -0.35,0.59 -0.46,1.37 -1.03,1.76 -0.56,0.38 -1.2,0.31 -1.5,-0.36 -0.43,-0.95 -0.44,-2.6 0.77,-3.95 1.16,-1.29 3.93,-1.98 4.25,-0.34 z"
         fill="#eeeeee"
         id="path6" /></g><g
       id="g1"
       transform="matrix(0.03892416,0,0,0.03892416,20.479963,20.671323)"
       style="stroke:none;stroke-width:12.8;stroke-dasharray:none;stroke-opacity:1"><path
         style="fill:#ff6465;stroke:none;stroke-width:12.8;stroke-dasharray:none;stroke-opacity:1"
         d="M 256.001,512 C 397.385,512 512,397.385 512,255.999 512.001,114.615 397.386,0 256.001,0 114.616,0 0.001,114.615 0.001,256.001 0.001,397.387 114.616,512 256.001,512 Z"
         id="path1-5" /><path
         style="fill:#ffffff;stroke:none;stroke-width:12.8;stroke-dasharray:none;stroke-opacity:1"
         d="m 313.391,256.001 67.398,-67.398 c 4.899,-4.899 4.899,-12.842 0,-17.74 l -39.65,-39.65 c -4.899,-4.899 -12.842,-4.899 -17.74,0 l -67.398,67.398 -67.398,-67.398 c -4.899,-4.899 -12.842,-4.899 -17.74,0 l -39.65,39.65 c -4.899,4.899 -4.899,12.842 0,17.74 l 67.398,67.398 -67.398,67.398 c -4.899,4.899 -4.899,12.842 0,17.741 l 39.65,39.65 c 4.899,4.899 12.842,4.899 17.74,0 l 67.398,-67.398 67.399,67.398 c 4.899,4.899 12.842,4.899 17.74,0 l 39.65,-39.65 c 4.899,-4.899 4.899,-12.842 0,-17.741 z"
         id="path3-5" /></g></g></svg>
