<?xml version="1.0" encoding="UTF-8" standalone="no"?>
<!-- Uploaded to: SVG Repo, www.svgrepo.com, Generator: SVG Repo Mixer Tools -->

<svg
   width="256"
   height="256"
   viewBox="0 0 40.96 40.96"
   aria-hidden="true"
   role="img"
   class="iconify iconify--noto"
   preserveAspectRatio="xMidYMid"
   version="1.1"
   id="svg6"
   sodipodi:docname="door_opened.svg"
   xml:space="preserve"
   inkscape:version="1.3 (0e150ed6c4, 2023-07-21)"
   xmlns:inkscape="http://www.inkscape.org/namespaces/inkscape"
   xmlns:sodipodi="http://sodipodi.sourceforge.net/DTD/sodipodi-0.dtd"
   xmlns="http://www.w3.org/2000/svg"
   xmlns:svg="http://www.w3.org/2000/svg"><defs
     id="defs6"><style
       id="style1">.cls-1{fill:none;stroke:#000000;stroke-linecap:round;stroke-linejoin:round;stroke-width:2px;}</style><style
       id="style1-7">&#10;      .cls-1 {&#10;        fill: #699f4c;&#10;        fill-rule: evenodd;&#10;      }&#10;    </style></defs><sodipodi:namedview
     id="namedview6"
     pagecolor="#ffffff"
     bordercolor="#111111"
     borderopacity="1"
     inkscape:showpageshadow="0"
     inkscape:pageopacity="0"
     inkscape:pagecheckerboard="1"
     inkscape:deskcolor="#d1d1d1"
     inkscape:zoom="1.5875"
     inkscape:cx="165.03937"
     inkscape:cy="150.23622"
     inkscape:window-width="1600"
     inkscape:window-height="835"
     inkscape:window-x="0"
     inkscape:window-y="0"
     inkscape:window-maximized="1"
     inkscape:current-layer="svg6" /><g
     id="g1"
     transform="matrix(0.32405063,0,0,0.32405063,-0.51848086,-0.51848058)"><g
       id="g2"
       transform="matrix(3.3404369,0,0,3.3404369,4.2585468,-7.6797106)"><polygon
         style="fill:#fcfcfd;stroke:#cacaca;stroke-width:12.7183;stroke-dasharray:none;stroke-opacity:1"
         points="421.807,221.754 254.644,86.464 87.481,221.754 87.481,469.277 421.807,469.277 "
         id="polygon1"
         transform="matrix(0.07253336,0,0,0.07253336,-0.34634841,1.9451694)" /><rect
         x="13.573891"
         y="22.087755"
         style="fill:#965c26;fill-opacity:1;stroke:#73471d;stroke-width:0.922501;stroke-dasharray:none;stroke-opacity:1"
         width="9.1244068"
         height="13.871062"
         id="rect1" /><path
         style="display:inline;fill:#f0582f;stroke:#ca411e;stroke-width:0.922501;stroke-dasharray:none;stroke-opacity:1"
         d="M 35.610251,17.537811 18.123837,3.3716105 0.63742155,17.537811 c -1.30349701,1.057536 -1.30349701,3.049665 0,4.107201 0.95918115,0.786987 2.36103345,0.786987 3.32021455,0 l 14.1662009,-11.460851 14.1662,11.460851 c 0.959181,0.786987 2.361033,0.786987 3.320214,0 1.303425,-1.057536 1.303425,-3.049665 0,-4.107201 z"
         id="path1" /></g></g><g
     id="g8"
     transform="matrix(0.1574177,0,0,0.1574177,41.373235,20.497226)"><g
       id="g9"
       transform="translate(-144.203,20.132541)"><path
         class="cls-1"
         d="M 77.577907,109.85776 A 64,64 0 1 1 141.57791,45.857764 64,64 0 0 1 77.577907,109.85776 Z M 41.341115,60.289764 a 7.4325333,7.4325333 0 0 1 0,-10.453333 l 3.767459,-3.746134 a 6.7946667,6.7946667 0 0 1 9.757866,0.1088 l 6.656,6.9056 a 3.3962667,3.3962667 0 0 0 4.930134,0 L 100.37257,18.139364 a 6.7989333,6.7989333 0 0 1 9.81334,-0.0576 l 3.65867,3.6992 a 7.4282667,7.4282667 0 0 1 0,10.338133 L 68.81204,77.881231 a 6.7946667,6.7946667 0 0 1 -9.710933,0.064 z"
         id="check"
         style="fill:#6aa04c;fill-opacity:1;stroke:none;stroke-width:1.99991;stroke-dasharray:none;stroke-opacity:1" /><path
         style="fill:#f6f6f6;fill-opacity:1;stroke:none;stroke-width:3.9993;stroke-dasharray:none;stroke-opacity:1"
         d="M 60.081027,80.211033 C 58.994263,79.529488 53.140546,73.953531 47.072772,67.820018 36.763854,57.399417 36.040451,56.506954 36.040451,54.209413 c 0,-3.350208 1.310041,-5.624456 5.313025,-9.22348 2.966518,-2.667158 3.761357,-3.049562 6.338632,-3.049562 2.802403,0 3.231948,0.274326 8.766369,5.598493 3.200765,3.079169 6.214402,5.587987 6.697013,5.575152 1.82032,-0.04842 4.034048,-2.132522 22.955745,-21.611683 C 96.790239,20.50471 106.0268,11.242499 106.63691,10.915647 c 0.61015,-0.326853 2.18819,-0.59428 3.50682,-0.59428 2.01507,0 3.02147,0.595211 6.30992,3.731868 2.26981,2.165035 4.13689,4.584706 4.44705,5.76315 1.21505,4.617145 0.98053,4.908198 -26.636233,33.050924 -14.4189,14.69354 -27.030864,27.136798 -28.026511,27.651675 -2.409878,1.246191 -3.78872,1.177232 -6.156929,-0.307951 z"
         id="path9" /></g></g></svg>
