<?xml version="1.0" encoding="UTF-8" standalone="no"?>
<!-- Uploaded to: SVG Repo, www.svgrepo.com, Generator: SVG Repo Mixer Tools -->

<svg
   width="256"
   height="256"
   viewBox="0 0 40.96 40.96"
   aria-hidden="true"
   role="img"
   class="iconify iconify--noto"
   preserveAspectRatio="xMidYMid"
   version="1.1"
   id="svg6"
   sodipodi:docname="door_closed.svg"
   xml:space="preserve"
   inkscape:version="1.3 (0e150ed6c4, 2023-07-21)"
   xmlns:inkscape="http://www.inkscape.org/namespaces/inkscape"
   xmlns:sodipodi="http://sodipodi.sourceforge.net/DTD/sodipodi-0.dtd"
   xmlns="http://www.w3.org/2000/svg"
   xmlns:svg="http://www.w3.org/2000/svg"><defs
     id="defs6" /><sodipodi:namedview
     id="namedview6"
     pagecolor="#ffffff"
     bordercolor="#111111"
     borderopacity="1"
     inkscape:showpageshadow="0"
     inkscape:pageopacity="0"
     inkscape:pagecheckerboard="1"
     inkscape:deskcolor="#d1d1d1"
     inkscape:zoom="1.5875"
     inkscape:cx="45.984252"
     inkscape:cy="134.48819"
     inkscape:window-width="1600"
     inkscape:window-height="835"
     inkscape:window-x="0"
     inkscape:window-y="0"
     inkscape:window-maximized="1"
     inkscape:current-layer="svg6" /><g
     id="g2"
     transform="matrix(1.0824707,0,0,1.0824707,0.86150323,-3.0070957)"><polygon
       style="fill:#fcfcfd;stroke:#cacaca;stroke-width:12.7183;stroke-dasharray:none;stroke-opacity:1"
       points="87.481,469.277 421.807,469.277 421.807,221.754 254.644,86.464 87.481,221.754 "
       id="polygon1"
       transform="matrix(0.07253336,0,0,0.07253336,-0.34634841,1.9451694)" /><rect
       x="13.573891"
       y="22.087755"
       style="fill:#965c26;fill-opacity:1;stroke:#73471d;stroke-width:0.922501;stroke-dasharray:none;stroke-opacity:1"
       width="9.1244068"
       height="13.871062"
       id="rect1" /><path
       style="display:inline;fill:#f0582f;stroke:#ca411e;stroke-width:0.922501;stroke-dasharray:none;stroke-opacity:1"
       d="M 35.610251,17.537811 18.123837,3.3716105 0.63742155,17.537811 c -1.30349701,1.057536 -1.30349701,3.049665 0,4.107201 0.95918115,0.786987 2.36103345,0.786987 3.32021455,0 l 14.1662009,-11.460851 14.1662,11.460851 c 0.959181,0.786987 2.361033,0.786987 3.320214,0 1.303425,-1.057536 1.303425,-3.049665 0,-4.107201 z"
       id="path1" /></g><g
     id="g1"
     transform="matrix(0.04050644,0,0,0.04050644,20.220703,20.220703)"
     style="stroke:none;stroke-width:12.8;stroke-dasharray:none;stroke-opacity:1"><path
       style="fill:#ff6465;stroke:none;stroke-width:12.8;stroke-dasharray:none;stroke-opacity:1"
       d="M 256.001,512 C 397.385,512 512,397.385 512,255.999 512.001,114.615 397.386,0 256.001,0 114.616,0 0.001,114.615 0.001,256.001 0.001,397.387 114.616,512 256.001,512 Z"
       id="path1-5" /><path
       style="fill:#ffffff;stroke:none;stroke-width:12.8;stroke-dasharray:none;stroke-opacity:1"
       d="m 313.391,256.001 67.398,-67.398 c 4.899,-4.899 4.899,-12.842 0,-17.74 l -39.65,-39.65 c -4.899,-4.899 -12.842,-4.899 -17.74,0 l -67.398,67.398 -67.398,-67.398 c -4.899,-4.899 -12.842,-4.899 -17.74,0 l -39.65,39.65 c -4.899,4.899 -4.899,12.842 0,17.74 l 67.398,67.398 -67.398,67.398 c -4.899,4.899 -4.899,12.842 0,17.741 l 39.65,39.65 c 4.899,4.899 12.842,4.899 17.74,0 l 67.398,-67.398 67.399,67.398 c 4.899,4.899 12.842,4.899 17.74,0 l 39.65,-39.65 c 4.899,-4.899 4.899,-12.842 0,-17.741 z"
       id="path3-5" /></g></svg>
