{
    "asset" : {
        "generator" : "Khronos glTF Blender I/O v1.2.20",
        "version" : "2.0"
    },
    "extensionsUsed" : [
        "KHR_materials_unlit"
    ],
    "scene" : 0,
    "scenes" : [
        {
            "nodes" : [
                1
            ],
            "name" : "Scene"
        }
    ],
    "nodes" : [
        {
            "translation" : [
                0,
                0.9993592500686646,
                0
            ],
            "name" : "ScarecrowCollider -colonly",
            "mesh" : 0
        },
        {
            "children" : [
                0
            ],
            "name" : "ScarecrowMesh",
            "mesh" : 1
        }
    ],
    "materials" : [
        {
            "pbrMetallicRoughness" : {
                "baseColorTexture" : {
                    "texCoord" : 0,
                    "index" : 0
                }
            },
            "name" : "scarecrow",
            "extensions" : {
                "KHR_materials_unlit" : {}
            }
        },
        {
            "pbrMetallicRoughness" : {
                "baseColorTexture" : {
                    "texCoord" : 0,
                    "index" : 1
                }
            },
            "name" : "scarecrow_alpha",
            "extensions" : {
                "KHR_materials_unlit" : {}
            }
        }
    ],
    "meshes" : [
        {
            "primitives" : [
                {
                    "indices" : 2,
                    "attributes" : {
                        "POSITION" : 0,
                        "NORMAL" : 1
                    }
                }
            ],
            "name" : "ScarecrowCollider.001"
        },
        {
            "primitives" : [
                {
                    "indices" : 6,
                    "attributes" : {
                        "POSITION" : 4,
                        "TEXCOORD_0" : 3,
                        "NORMAL" : 5
                    },
                    "material" : 0
                },
                {
                    "indices" : 10,
                    "attributes" : {
                        "POSITION" : 8,
                        "TEXCOORD_0" : 7,
                        "NORMAL" : 9
                    },
                    "material" : 1
                }
            ],
            "name" : "ScarecrowMesh.001"
        }
    ],
    "textures" : [
        {
            "source" : 0,
            "sampler" : 0
        },
        {
            "source" : 0,
            "sampler" : 1
        }
    ],
    "images" : [
        {
            "name" : "scarecrow.png",
            "mimeType" : "image/png",
            "uri" : "scarecrow.png"
        }
    ],
    "accessors" : [
        {
            "max" : [
                0.5,
                1.399999976158142,
                0.5
            ],
            "count" : 24,
            "min" : [
                -0.5,
                -1,
                -0.5
            ],
            "componentType" : 5126,
            "type" : "VEC3",
            "bufferView" : 0
        },
        {
            "componentType" : 5126,
            "count" : 24,
            "type" : "VEC3",
            "bufferView" : 1
        },
        {
            "componentType" : 5123,
            "count" : 36,
            "type" : "SCALAR",
            "bufferView" : 2
        },
        {
            "componentType" : 5126,
            "count" : 420,
            "type" : "VEC2",
            "bufferView" : 3
        },
        {
            "max" : [
                1.284571647644043,
                2.172985553741455,
                0.30336326360702515
            ],
            "count" : 420,
            "min" : [
                -1.2905659675598145,
                -0.11178982257843018,
                -0.41808968782424927
            ],
            "componentType" : 5126,
            "type" : "VEC3",
            "bufferView" : 4
        },
        {
            "componentType" : 5126,
            "count" : 420,
            "type" : "VEC3",
            "bufferView" : 5
        },
        {
            "componentType" : 5123,
            "count" : 513,
            "type" : "SCALAR",
            "bufferView" : 6
        },
        {
            "componentType" : 5126,
            "count" : 104,
            "type" : "VEC2",
            "bufferView" : 7
        },
        {
            "max" : [
                1.1221129894256592,
                2.369863986968994,
                0.5342417359352112
            ],
            "count" : 104,
            "min" : [
                -1.1741020679473877,
                1.4196401834487915,
                -0.5923367142677307
            ],
            "componentType" : 5126,
            "type" : "VEC3",
            "bufferView" : 8
        },
        {
            "componentType" : 5126,
            "count" : 104,
            "type" : "VEC3",
            "bufferView" : 9
        },
        {
            "componentType" : 5123,
            "count" : 162,
            "type" : "SCALAR",
            "bufferView" : 10
        }
    ],
    "bufferViews" : [
        {
            "byteOffset" : 0,
            "byteLength" : 288,
            "buffer" : 0
        },
        {
            "byteOffset" : 288,
            "byteLength" : 288,
            "buffer" : 0
        },
        {
            "byteOffset" : 576,
            "byteLength" : 72,
            "buffer" : 0
        },
        {
            "byteOffset" : 648,
            "byteLength" : 3360,
            "buffer" : 0
        },
        {
            "byteOffset" : 4008,
            "byteLength" : 5040,
            "buffer" : 0
        },
        {
            "byteOffset" : 9048,
            "byteLength" : 5040,
            "buffer" : 0
        },
        {
            "byteOffset" : 14088,
            "byteLength" : 1026,
            "buffer" : 0
        },
        {
            "byteOffset" : 15116,
            "byteLength" : 832,
            "buffer" : 0
        },
        {
            "byteOffset" : 15948,
            "byteLength" : 1248,
            "buffer" : 0
        },
        {
            "byteOffset" : 17196,
            "byteLength" : 1248,
            "buffer" : 0
        },
        {
            "byteOffset" : 18444,
            "byteLength" : 324,
            "buffer" : 0
        }
    ],
    "samplers" : [
        {
            "wrapT" : 10497,
            "minFilter" : 9986,
            "wrapS" : 10497,
            "magFilter" : 9729
        },
        {
            "wrapT" : 10497,
            "minFilter" : 9986,
            "wrapS" : 10497,
            "magFilter" : 9729
        }
    ],
    "buffers" : [
        {
            "byteLength" : 18768,
            "uri" : "scarecrow.bin"
        }
    ]
}
