{
    "asset" : {
        "generator" : "Khronos glTF Blender I/O v1.2.20",
        "version" : "2.0"
    },
    "scene" : 0,
    "scenes" : [
        {
            "name" : "Scene",
            "nodes" : [
                1
            ]
        }
    ],
    "nodes" : [
        {
            "mesh" : 0,
            "name" : "SignCautionCollider -colonly"
        },
        {
            "mesh" : 1,
            "name" : "SignCautionMesh",
            "children" : [
                0
            ]
        }
    ],
    "materials" : [
        {
            "pbrMetallicRoughness" : {
                "baseColorTexture" : {
                    "texCoord" : 0,
                    "index" : 0
                }
            },
            "name" : "sign"
        }
    ],
    "meshes" : [
        {
            "name" : "SignCautionCollider.001",
            "primitives" : [
                {
                    "attributes" : {
                        "NORMAL" : 0,
                        "POSITION" : 1
                    },
                    "indices" : 2
                }
            ]
        },
        {
            "name" : "SignCautionMesh.001",
            "primitives" : [
                {
                    "attributes" : {
                        "NORMAL" : 3,
                        "TEXCOORD_0" : 4,
                        "POSITION" : 5
                    },
                    "material" : 0,
                    "indices" : 6
                }
            ]
        }
    ],
    "textures" : [
        {
            "sampler" : 0,
            "source" : 0
        }
    ],
    "images" : [
        {
            "mimeType" : "image/png",
            "name" : "sign.png",
            "uri" : "sign.png"
        }
    ],
    "accessors" : [
        {
            "componentType" : 5126,
            "type" : "VEC3",
            "count" : 24,
            "bufferView" : 0
        },
        {
            "max" : [
                0.9846789240837097,
                1.8760266304016113,
                0.16606876254081726
            ],
            "componentType" : 5126,
            "type" : "VEC3",
            "count" : 24,
            "bufferView" : 1,
            "min" : [
                -0.9706966280937195,
                -0.03581448644399643,
                -0.16606877744197845
            ]
        },
        {
            "componentType" : 5123,
            "type" : "SCALAR",
            "count" : 36,
            "bufferView" : 2
        },
        {
            "componentType" : 5126,
            "type" : "VEC3",
            "count" : 110,
            "bufferView" : 3
        },
        {
            "componentType" : 5126,
            "type" : "VEC2",
            "count" : 110,
            "bufferView" : 4
        },
        {
            "max" : [
                0.9526087641716003,
                1.859785556793213,
                0.14650052785873413
            ],
            "componentType" : 5126,
            "type" : "VEC3",
            "count" : 110,
            "bufferView" : 5,
            "min" : [
                -0.9266565442085266,
                -0.14021369814872742,
                -0.06016770750284195
            ]
        },
        {
            "componentType" : 5123,
            "type" : "SCALAR",
            "count" : 156,
            "bufferView" : 6
        }
    ],
    "bufferViews" : [
        {
            "byteLength" : 288,
            "buffer" : 0,
            "byteOffset" : 0
        },
        {
            "byteLength" : 288,
            "buffer" : 0,
            "byteOffset" : 288
        },
        {
            "byteLength" : 72,
            "buffer" : 0,
            "byteOffset" : 576
        },
        {
            "byteLength" : 1320,
            "buffer" : 0,
            "byteOffset" : 648
        },
        {
            "byteLength" : 880,
            "buffer" : 0,
            "byteOffset" : 1968
        },
        {
            "byteLength" : 1320,
            "buffer" : 0,
            "byteOffset" : 2848
        },
        {
            "byteLength" : 312,
            "buffer" : 0,
            "byteOffset" : 4168
        }
    ],
    "samplers" : [
        {
            "wrapT" : 10497,
            "wrapS" : 10497,
            "magFilter" : 9729,
            "minFilter" : 9986
        }
    ],
    "buffers" : [
        {
            "uri" : "sign_caution.bin",
            "byteLength" : 4480
        }
    ]
}
