{
    "asset" : {
        "version" : "2.0",
        "generator" : "Khronos glTF Blender I/O v1.2.20"
    },
    "scene" : 0,
    "scenes" : [
        {
            "name" : "Scene",
            "nodes" : [
                1
            ]
        }
    ],
    "nodes" : [
        {
            "mesh" : 0,
            "name" : "SignDirectionCollider -colonly"
        },
        {
            "mesh" : 1,
            "children" : [
                0
            ],
            "name" : "SignDirectionMesh"
        }
    ],
    "materials" : [
        {
            "name" : "sign",
            "pbrMetallicRoughness" : {
                "baseColorTexture" : {
                    "index" : 0,
                    "texCoord" : 0
                }
            }
        }
    ],
    "meshes" : [
        {
            "name" : "SignDirectionCollider.001",
            "primitives" : [
                {
                    "indices" : 2,
                    "attributes" : {
                        "NORMAL" : 0,
                        "POSITION" : 1
                    }
                }
            ]
        },
        {
            "name" : "SignDirectionMesh.001",
            "primitives" : [
                {
                    "indices" : 6,
                    "material" : 0,
                    "attributes" : {
                        "TEXCOORD_0" : 3,
                        "NORMAL" : 4,
                        "POSITION" : 5
                    }
                }
            ]
        }
    ],
    "textures" : [
        {
            "source" : 0,
            "sampler" : 0
        }
    ],
    "images" : [
        {
            "mimeType" : "image/png",
            "uri" : "sign.png",
            "name" : "sign.png"
        }
    ],
    "accessors" : [
        {
            "bufferView" : 0,
            "count" : 24,
            "componentType" : 5126,
            "type" : "VEC3"
        },
        {
            "bufferView" : 1,
            "max" : [
                0.6383958458900452,
                0.9979071617126465,
                0.088336281478405
            ],
            "componentType" : 5126,
            "min" : [
                -0.49289268255233765,
                -0.07224324345588684,
                -0.0883362889289856
            ],
            "count" : 24,
            "type" : "VEC3"
        },
        {
            "bufferView" : 2,
            "count" : 36,
            "componentType" : 5123,
            "type" : "SCALAR"
        },
        {
            "bufferView" : 3,
            "count" : 62,
            "componentType" : 5126,
            "type" : "VEC2"
        },
        {
            "bufferView" : 4,
            "count" : 62,
            "componentType" : 5126,
            "type" : "VEC3"
        },
        {
            "bufferView" : 5,
            "max" : [
                0.638969361782074,
                0.9892681241035461,
                0.07235247641801834
            ],
            "componentType" : 5126,
            "min" : [
                -0.4954272508621216,
                -0.07458329945802689,
                -0.032004762440919876
            ],
            "count" : 62,
            "type" : "VEC3"
        },
        {
            "bufferView" : 6,
            "count" : 96,
            "componentType" : 5123,
            "type" : "SCALAR"
        }
    ],
    "bufferViews" : [
        {
            "buffer" : 0,
            "byteOffset" : 0,
            "byteLength" : 288
        },
        {
            "buffer" : 0,
            "byteOffset" : 288,
            "byteLength" : 288
        },
        {
            "buffer" : 0,
            "byteOffset" : 576,
            "byteLength" : 72
        },
        {
            "buffer" : 0,
            "byteOffset" : 648,
            "byteLength" : 496
        },
        {
            "buffer" : 0,
            "byteOffset" : 1144,
            "byteLength" : 744
        },
        {
            "buffer" : 0,
            "byteOffset" : 1888,
            "byteLength" : 744
        },
        {
            "buffer" : 0,
            "byteOffset" : 2632,
            "byteLength" : 192
        }
    ],
    "samplers" : [
        {
            "magFilter" : 9729,
            "minFilter" : 9986,
            "wrapS" : 10497,
            "wrapT" : 10497
        }
    ],
    "buffers" : [
        {
            "uri" : "sign_direction.bin",
            "byteLength" : 2824
        }
    ]
}
