<?xml version="1.0" encoding="UTF-8" standalone="no"?>
<!-- Created with Inkscape (http://www.inkscape.org/) -->

<svg
   width="206.35097mm"
   height="208.06538mm"
   viewBox="0 0 206.35097 208.06538"
   version="1.1"
   id="svg8"
   inkscape:version="1.2.1 (9c6d41e410, 2022-07-14)"
   sodipodi:docname="muriki (copy 1).svg"
   xmlns:inkscape="http://www.inkscape.org/namespaces/inkscape"
   xmlns:sodipodi="http://sodipodi.sourceforge.net/DTD/sodipodi-0.dtd"
   xmlns:xlink="http://www.w3.org/1999/xlink"
   xmlns="http://www.w3.org/2000/svg"
   xmlns:svg="http://www.w3.org/2000/svg"
   xmlns:rdf="http://www.w3.org/1999/02/22-rdf-syntax-ns#"
   xmlns:cc="http://creativecommons.org/ns#"
   xmlns:dc="http://purl.org/dc/elements/1.1/">
  <defs
     id="defs2">
    <linearGradient
       inkscape:collect="always"
       id="linearGradient5399">
      <stop
         style="stop-color:#d5fa72;stop-opacity:1"
         offset="0"
         id="stop5395" />
      <stop
         style="stop-color:#378a00;stop-opacity:1"
         offset="1"
         id="stop5397" />
    </linearGradient>
    <linearGradient
       id="linearGradient5241"
       inkscape:collect="always">
      <stop
         id="stop5237"
         offset="0"
         style="stop-color:#338000;stop-opacity:1" />
      <stop
         id="stop5239"
         offset="1"
         style="stop-color:#aad400;stop-opacity:1" />
    </linearGradient>
    <linearGradient
       id="linearGradient5235"
       inkscape:collect="always">
      <stop
         id="stop5231"
         offset="0"
         style="stop-color:#d4ff2a;stop-opacity:1" />
      <stop
         id="stop5233"
         offset="1"
         style="stop-color:#44aa00;stop-opacity:1" />
    </linearGradient>
    <linearGradient
       id="linearGradient5229"
       inkscape:collect="always">
      <stop
         id="stop5225"
         offset="0"
         style="stop-color:#55d400;stop-opacity:1" />
      <stop
         id="stop5227"
         offset="1"
         style="stop-color:#e5ff80;stop-opacity:1" />
    </linearGradient>
    <linearGradient
       inkscape:collect="always"
       id="linearGradient5221">
      <stop
         style="stop-color:#164450;stop-opacity:1"
         offset="0"
         id="stop5217" />
      <stop
         style="stop-color:#0b2228;stop-opacity:1"
         offset="1"
         id="stop5219" />
    </linearGradient>
    <linearGradient
       inkscape:collect="always"
       id="linearGradient5203">
      <stop
         style="stop-color:#008000;stop-opacity:1"
         offset="0"
         id="stop5199" />
      <stop
         style="stop-color:#e5ff80;stop-opacity:1"
         offset="1"
         id="stop5201" />
    </linearGradient>
    <linearGradient
       id="linearGradient5195"
       inkscape:collect="always">
      <stop
         id="stop5191"
         offset="0"
         style="stop-color:#e5ff80;stop-opacity:1" />
      <stop
         id="stop5193"
         offset="1"
         style="stop-color:#008000;stop-opacity:1" />
    </linearGradient>
    <linearGradient
       id="linearGradient5087"
       inkscape:collect="always">
      <stop
         id="stop5083"
         offset="0"
         style="stop-color:#225500;stop-opacity:1" />
      <stop
         id="stop5085"
         offset="1"
         style="stop-color:#55d400;stop-opacity:1" />
    </linearGradient>
    <linearGradient
       id="linearGradient5080"
       inkscape:collect="always">
      <stop
         id="stop5076"
         offset="0"
         style="stop-color:#66ff00;stop-opacity:1" />
      <stop
         id="stop5078"
         offset="1"
         style="stop-color:#225500;stop-opacity:1" />
    </linearGradient>
    <linearGradient
       inkscape:collect="always"
       id="linearGradient4795">
      <stop
         style="stop-color:#112b00;stop-opacity:1"
         offset="0"
         id="stop4791" />
      <stop
         style="stop-color:#44aa00;stop-opacity:1"
         offset="1"
         id="stop4793" />
    </linearGradient>
    <linearGradient
       inkscape:collect="always"
       id="linearGradient4742">
      <stop
         style="stop-color:#55d400;stop-opacity:1"
         offset="0"
         id="stop4738" />
      <stop
         style="stop-color:#225500;stop-opacity:1"
         offset="1"
         id="stop4740" />
    </linearGradient>
    <linearGradient
       inkscape:collect="always"
       id="linearGradient4734">
      <stop
         style="stop-color:#225500;stop-opacity:1"
         offset="0"
         id="stop4730" />
      <stop
         style="stop-color:#66ff00;stop-opacity:1"
         offset="1"
         id="stop4732" />
    </linearGradient>
    <linearGradient
       inkscape:collect="always"
       xlink:href="#linearGradient4734"
       id="linearGradient4746"
       gradientUnits="userSpaceOnUse"
       x1="1354.3203"
       y1="-711.88855"
       x2="1354.3203"
       y2="-515.0918" />
    <radialGradient
       inkscape:collect="always"
       xlink:href="#linearGradient4795"
       id="radialGradient4801"
       gradientUnits="userSpaceOnUse"
       gradientTransform="matrix(1,0,0,0.86911497,0,-189.26269)"
       cx="666.38965"
       cy="-1446.0225"
       fx="666.38965"
       fy="-1446.0225"
       r="340.15723" />
    <radialGradient
       inkscape:collect="always"
       xlink:href="#linearGradient4795"
       id="radialGradient4807"
       gradientUnits="userSpaceOnUse"
       gradientTransform="matrix(1,0,0,0.86911497,0,-189.26269)"
       cx="666.38965"
       cy="-1446.0225"
       fx="666.38965"
       fy="-1446.0225"
       r="340.15723" />
    <linearGradient
       inkscape:collect="always"
       xlink:href="#linearGradient5087"
       id="linearGradient4848"
       gradientUnits="userSpaceOnUse"
       x1="1492.1775"
       y1="-641.85858"
       x2="1491.8243"
       y2="-510.98514"
       gradientTransform="matrix(0.26458333,0,0,-0.26458333,-203.30931,-283.66568)" />
    <linearGradient
       inkscape:collect="always"
       xlink:href="#linearGradient4742"
       id="linearGradient4858"
       gradientUnits="userSpaceOnUse"
       x1="1354.3203"
       y1="-571.14429"
       x2="1354.3203"
       y2="-439.5" />
    <linearGradient
       inkscape:collect="always"
       xlink:href="#linearGradient4742"
       id="linearGradient5048"
       gradientUnits="userSpaceOnUse"
       gradientTransform="matrix(0.99999999,0,0,-0.99999999,-1048.1563,-43.256617)"
       x1="1354.3203"
       y1="-571.14429"
       x2="1354.3203"
       y2="-439.5" />
    <linearGradient
       inkscape:collect="always"
       xlink:href="#linearGradient5229"
       id="linearGradient5067"
       gradientUnits="userSpaceOnUse"
       gradientTransform="matrix(0.26823247,0,0,-0.36891318,-292.82415,-144.96486)"
       x1="1491.8202"
       y1="-439.56891"
       x2="1491.8202"
       y2="-586.3255" />
    <linearGradient
       inkscape:collect="always"
       xlink:href="#linearGradient5241"
       id="linearGradient5095"
       gradientUnits="userSpaceOnUse"
       x1="1354.3203"
       y1="-711.88855"
       x2="1354.3203"
       y2="-515.0918"
       gradientTransform="matrix(0.26823248,0,0,0.26823248,-255.96076,315.17961)" />
    <linearGradient
       inkscape:collect="always"
       xlink:href="#linearGradient5235"
       id="linearGradient5097"
       gradientUnits="userSpaceOnUse"
       x1="1354.3203"
       y1="-571.14429"
       x2="1354.3203"
       y2="-439.5"
       gradientTransform="matrix(0.26823248,0,0,0.26823248,-255.96076,315.17961)" />
    <linearGradient
       inkscape:collect="always"
       xlink:href="#linearGradient4734"
       id="linearGradient5137"
       gradientUnits="userSpaceOnUse"
       gradientTransform="matrix(0.26458333,0,0,-0.26458333,-270.94705,-54.842757)"
       x1="1354.3203"
       y1="-711.88855"
       x2="1354.3203"
       y2="-515.0918" />
    <linearGradient
       inkscape:collect="always"
       xlink:href="#linearGradient5195"
       id="linearGradient5197"
       x1="491.63867"
       y1="202.95508"
       x2="494.82617"
       y2="635.99219"
       gradientUnits="userSpaceOnUse"
       gradientTransform="matrix(0.25080143,0,0,0.25080143,-17.281615,-50.393852)" />
    <linearGradient
       inkscape:collect="always"
       xlink:href="#linearGradient5203"
       id="linearGradient5205"
       x1="130.91701"
       y1="272.6629"
       x2="130.92276"
       y2="157.55318"
       gradientUnits="userSpaceOnUse"
       gradientTransform="matrix(0.94791092,0,0,0.94791092,-17.281615,-50.393852)" />
    <radialGradient
       inkscape:collect="always"
       xlink:href="#linearGradient5221"
       id="radialGradient5223"
       cx="130.92606"
       cy="163.16318"
       fx="130.92606"
       fy="163.16318"
       r="96.913048"
       gradientTransform="matrix(0.94791092,0,0,0.95796939,-17.285145,-52.55032)"
       gradientUnits="userSpaceOnUse" />
    <radialGradient
       inkscape:collect="always"
       xlink:href="#linearGradient5399"
       id="radialGradient5401"
       cx="133.82498"
       cy="133.62598"
       fx="133.82498"
       fy="133.62598"
       r="38.465549"
       gradientTransform="matrix(0.6831129,-2.6885661e-8,1.3561273e-8,0.34456585,42.407408,87.583031)"
       gradientUnits="userSpaceOnUse" />
    <radialGradient
       inkscape:collect="always"
       xlink:href="#linearGradient5399"
       id="radialGradient5422"
       gradientUnits="userSpaceOnUse"
       gradientTransform="matrix(0.6831129,-2.6885661e-8,1.3561273e-8,0.34456585,42.407408,87.583031)"
       cx="133.82498"
       cy="133.62598"
       fx="133.82498"
       fy="133.62598"
       r="38.465549" />
    <radialGradient
       inkscape:collect="always"
       xlink:href="#linearGradient5399"
       id="radialGradient5424"
       gradientUnits="userSpaceOnUse"
       gradientTransform="matrix(0.6831129,-2.6885661e-8,1.3561273e-8,0.34456585,42.407408,87.583031)"
       cx="133.82498"
       cy="133.62598"
       fx="133.82498"
       fy="133.62598"
       r="38.465549" />
    <linearGradient
       inkscape:collect="always"
       xlink:href="#linearGradient5080"
       id="linearGradient5449"
       gradientUnits="userSpaceOnUse"
       gradientTransform="matrix(0.26823248,0,0,-0.36891318,-292.8241,-144.96497)"
       x1="1354.3203"
       y1="-711.88855"
       x2="1354.3203"
       y2="-515.0918" />
    <linearGradient
       inkscape:collect="always"
       xlink:href="#linearGradient5080"
       id="linearGradient5472"
       gradientUnits="userSpaceOnUse"
       gradientTransform="matrix(-0.26823248,0,0,-0.36891318,507.48653,-144.96362)"
       x1="1354.3203"
       y1="-711.88855"
       x2="1354.3203"
       y2="-515.0918" />
  </defs>
  <sodipodi:namedview
     id="base"
     pagecolor="#ffffff"
     bordercolor="#666666"
     borderopacity="1.0"
     inkscape:pageopacity="0.0"
     inkscape:pageshadow="2"
     inkscape:zoom="0.7"
     inkscape:cx="350"
     inkscape:cy="397.14286"
     inkscape:document-units="mm"
     inkscape:current-layer="layer2"
     showgrid="false"
     inkscape:object-paths="true"
     inkscape:snap-intersection-paths="true"
     inkscape:snap-smooth-nodes="true"
     inkscape:snap-midpoints="true"
     inkscape:snap-object-midpoints="true"
     inkscape:snap-bbox="true"
     showguides="false"
     inkscape:window-width="1600"
     inkscape:window-height="835"
     inkscape:window-x="0"
     inkscape:window-y="0"
     inkscape:window-maximized="1"
     inkscape:showpageshadow="0"
     inkscape:pagecheckerboard="1"
     inkscape:deskcolor="#d1d1d1" />
  <metadata
     id="metadata5">
    <rdf:RDF>
      <cc:Work
         rdf:about="">
        <dc:format>image/svg+xml</dc:format>
        <dc:type
           rdf:resource="http://purl.org/dc/dcmitype/StillImage" />
      </cc:Work>
    </rdf:RDF>
  </metadata>
  <g
     inkscape:label="frame"
     inkscape:groupmode="layer"
     id="layer1"
     transform="translate(-3.6490369)"
     style="display:inline">
    <path
       inkscape:connector-curvature="0"
       id="path4973"
       d="m 88.127662,81.453313 c -0.24802,-0.004 -0.49517,-0.0114 -0.74415,-0.0114 0.24908,0 0.49697,0.004 0.74415,0.0114 z"
       style="color:#000000;font-style:normal;font-variant:normal;font-weight:normal;font-stretch:normal;font-size:medium;line-height:normal;font-family:sans-serif;font-variant-ligatures:normal;font-variant-position:normal;font-variant-caps:normal;font-variant-numeric:normal;font-variant-alternates:normal;font-feature-settings:normal;text-indent:0;text-align:start;text-decoration:none;text-decoration-line:none;text-decoration-style:solid;text-decoration-color:#000000;letter-spacing:normal;word-spacing:normal;text-transform:none;writing-mode:lr-tb;direction:ltr;text-orientation:mixed;dominant-baseline:auto;baseline-shift:baseline;text-anchor:start;white-space:normal;shape-padding:0;clip-rule:nonzero;display:inline;overflow:visible;visibility:visible;opacity:1;isolation:auto;mix-blend-mode:normal;color-interpolation:sRGB;color-interpolation-filters:linearRGB;solid-color:#000000;solid-opacity:1;vector-effect:none;fill:url(#linearGradient5137);fill-opacity:1;fill-rule:nonzero;stroke:none;stroke-width:20;stroke-linecap:round;stroke-linejoin:round;stroke-miterlimit:4;stroke-dasharray:none;stroke-dashoffset:0;stroke-opacity:1;color-rendering:auto;image-rendering:auto;shape-rendering:auto;text-rendering:auto;enable-background:accumulate" />
    <g
       id="g6064">
      <path
         id="path5129"
         d="m 106.8068,8.9443365e-5 -0.002,0.0010427066 c -0.0296,0.01354564 -0.0299,0.02664577 -0.0725,0.03967955 -0.24155,0.15437108 -0.4686,0.31246082 -0.71027,0.46682432 -2.4787,1.59203918 -4.91011,3.19478118 -7.320768,4.80980148 -0.826265,0.5534359 -1.641469,1.110835 -2.460492,1.6669497 -1.856597,1.261732 -3.704294,2.5294329 -5.518614,3.8046378 -0.862447,0.605579 -1.712496,1.211403 -2.564839,1.820268 -1.847734,1.319467 -3.671135,2.648005 -5.474034,3.981474 -0.740877,0.548169 -1.494665,1.092691 -2.228311,1.643435 -2.410954,1.809463 -4.776608,3.633201 -7.103758,5.467667 -0.510791,0.402399 -1.01157,0.810127 -1.518031,1.213839 -1.841974,1.468147 -3.663236,2.941249 -5.451503,4.424785 -0.7785,0.645809 -1.542195,1.294275 -2.310606,1.94273 -1.535326,1.296631 -3.045903,2.598968 -4.539408,3.907018 -0.756823,0.663219 -1.518861,1.324658 -2.265539,1.990736 -1.638365,1.462011 -3.244614,2.931901 -4.830867,4.40764 -0.516586,0.480236 -1.051791,0.957128 -1.562611,1.438676 -0.15629,0.14843 -0.298316,0.297835 -0.456048,0.446251 -1.874537,1.776218 -3.705014,3.563523 -5.503422,5.358914 -0.56867,0.566668 -1.123049,1.13604 -1.682625,1.704663 -1.409441,1.430692 -2.797582,2.866274 -4.157816,4.308691 -0.632388,0.671614 -1.261759,1.344119 -1.884442,2.018169 -1.321154,1.431412 -2.61499,2.869497 -3.8884,4.312123 -0.54989,0.623384 -1.111539,1.245668 -1.652744,1.871707 -1.714764,1.982432 -3.387966,3.972761 -5.01015,5.97563 -0.363183,0.447253 -0.706038,0.898686 -1.061985,1.346593 -1.261858,1.581495 -2.497804,3.168591 -3.701772,4.762285 -0.601993,0.798122 -1.192238,1.598595 -1.779611,2.39976 -0.962268,1.310629 -1.897278,2.625628 -2.819069,3.944239 -0.542631,0.776642 -1.092657,1.552213 -1.622861,2.331671 -1.086735,1.599363 -2.135512,3.206024 -3.162939,4.816667 -0.318327,0.499369 -0.658816,0.996292 -0.972834,1.496969 -1.298008,2.077158 -2.5467506,4.163604 -3.7463471,6.258772 -0.3574268,0.623384 -0.6828797,1.249944 -1.0316171,1.874636 -0.8523236,1.529492 -1.6764118,3.063367 -2.4751945,4.602107 -0.2054388,0.39578 -0.4112132,0.79338 -0.613778,1.18984 0.8576091,1.69452 1.7490577,3.38335 2.6701532,5.06698 H 207.3238 c 0.92342,-1.68813 1.81644,-3.38164 2.67603,-5.08069 -0.19242,-0.38063 -0.38322,-0.76185 -0.58292,-1.14183 -0.8451,-1.6293 -1.72801,-3.25259 -2.63243,-4.871527 -0.28802,-0.520479 -0.56995,-1.041982 -0.86801,-1.561143 -1.21988,-2.132762 -2.48349,-4.257276 -3.80611,-6.371431 -0.25901,-0.412957 -0.53993,-0.82163 -0.80041,-1.233933 -1.08529,-1.705955 -2.19967,-3.406489 -3.35006,-5.099789 -0.492,-0.723389 -0.99971,-1.443621 -1.50284,-2.164631 -0.96958,-1.388395 -1.95458,-2.772364 -2.96897,-4.151935 -0.55424,-0.753333 -1.10875,-1.506041 -1.67527,-2.256729 -1.13453,-1.502335 -2.29964,-2.998432 -3.48476,-4.489932 -0.46308,-0.581155 -0.90571,-1.165485 -1.37599,-1.745322 -1.63142,-2.011259 -3.31586,-4.012346 -5.04003,-6.003073 -0.45003,-0.519834 -0.92607,-1.035782 -1.38333,-1.55428 -1.30959,-1.487471 -2.63889,-2.969814 -4.00057,-4.445351 -0.66421,-0.719758 -1.33587,-1.437479 -2.0118,-2.154355 -1.29802,-1.376187 -2.62045,-2.745842 -3.96335,-4.111279 -0.62367,-0.634598 -1.2428,-1.270116 -1.87661,-1.902066 -1.92849,-1.923994 -3.89183,-3.841987 -5.90803,-5.743939 -0.0296,-0.01981 -0.0295,-0.03936 -0.072,-0.05927 -0.27352,-0.255286 -0.55876,-0.508711 -0.83079,-0.76367 -1.80335,-1.687355 -3.63944,-3.365665 -5.51077,-5.035135 -0.7264,-0.647808 -1.46973,-1.291201 -2.20627,-1.936363 -1.49771,-1.312469 -3.0143,-2.619242 -4.5541,-3.920242 -0.77853,-0.657684 -1.55183,-1.315772 -2.34049,-1.970163 -1.68117,-1.39475 -3.39324,-2.781144 -5.12233,-4.162225 -0.65843,-0.525763 -1.30811,-1.054525 -1.97408,-1.578286 -2.28952,-1.803646 -4.62062,-3.596485 -6.99207,-5.376066 -0.82046,-0.615455 -1.65926,-1.224586 -2.48988,-1.837415 -1.61073,-1.189378 -3.23667,-2.373707 -4.88328,-3.551877 -1.04911,-0.750433 -2.10669,-1.497611 -3.17029,-2.243496 -1.68957,-1.1851554 -3.39642,-2.3646116 -5.12233,-3.5381614 -0.82918,-0.5639975 -1.65252,-1.1295799 -2.49038,-1.6909508 -2.58921,-1.7348059 -5.21412,-3.4561315 -7.88162,-5.16445278 -0.0721,-0.0460874 -0.15183,-0.10367871 -0.22436,-0.14989221 0,-0.01356461 -0.0436,-0.01979238 -0.0436,-0.02645619 0,-0.01356461 -0.0436,-0.01988718 -0.0436,-0.0264561978 -7.5e-4,-5.0144488e-4 -0.009,5.0144488e-4 -0.009,0 z"
         style="color:#000000;font-style:normal;font-variant:normal;font-weight:normal;font-stretch:normal;font-size:medium;line-height:normal;font-family:sans-serif;font-variant-ligatures:normal;font-variant-position:normal;font-variant-caps:normal;font-variant-numeric:normal;font-variant-alternates:normal;font-feature-settings:normal;text-indent:0;text-align:start;text-decoration:none;text-decoration-line:none;text-decoration-style:solid;text-decoration-color:#000000;letter-spacing:normal;word-spacing:normal;text-transform:none;writing-mode:lr-tb;direction:ltr;text-orientation:mixed;dominant-baseline:auto;baseline-shift:baseline;text-anchor:start;white-space:normal;shape-padding:0;clip-rule:nonzero;display:inline;overflow:visible;visibility:visible;isolation:auto;mix-blend-mode:normal;color-interpolation:sRGB;color-interpolation-filters:linearRGB;solid-color:#000000;solid-opacity:1;fill:url(#linearGradient5197);fill-opacity:1;fill-rule:nonzero;stroke:none;stroke-width:195.405;stroke-linecap:round;stroke-linejoin:round;stroke-miterlimit:4;stroke-dasharray:none;stroke-dashoffset:0;stroke-opacity:1;color-rendering:auto;image-rendering:auto;shape-rendering:auto;text-rendering:auto;enable-background:accumulate"
         inkscape:connector-curvature="0" />
      <path
         id="path5177"
         d="m 3.7857048,103.75547 c -0.044827,0.0881 -0.092033,0.17582 -0.1366679,0.26402 0.2025648,0.39645 0.4083392,0.79405 0.613778,1.18983 0.7987828,1.53875 1.6228709,3.07262 2.4751945,4.60211 0.3487374,0.62469 0.6741903,1.25126 1.0316171,1.87465 1.1995965,2.09516 2.4483375,4.18161 3.7463475,6.25877 0.314016,0.50068 0.654506,0.9976 0.972834,1.49697 1.027428,1.61064 2.076204,3.21729 3.16294,4.81666 0.530203,0.77945 1.080228,1.55502 1.62286,2.33167 0.92179,1.31861 1.856801,2.63362 2.819068,3.94425 0.587375,0.80116 1.177618,1.60163 1.779612,2.39975 1.203967,1.5937 2.439914,3.1808 3.701771,4.76229 0.355947,0.44791 0.698803,0.89933 1.061986,1.34658 1.622184,2.00287 3.295338,3.99322 5.01015,5.97564 0.541205,0.62603 1.102854,1.24833 1.652744,1.87171 1.273409,1.44263 2.567249,2.8807 3.8884,4.31211 0.622685,0.67405 1.252053,1.34656 1.884442,2.01817 1.360234,1.44242 2.748375,2.87799 4.157816,4.30869 0.559575,0.56862 1.113952,1.138 1.682624,1.70467 1.798407,1.7954 3.628887,3.5827 5.503424,5.35892 0.157731,0.14841 0.29976,0.29782 0.456047,0.44626 0.510822,0.48154 1.046025,0.95844 1.562611,1.43867 1.586254,1.47575 3.192501,2.94563 4.830867,4.40764 0.746678,0.66608 1.508716,1.32752 2.265539,1.99074 1.493505,1.30805 3.004084,2.61038 4.539408,3.90701 0.768411,0.64846 1.532106,1.29693 2.310606,1.94274 1.78827,1.48353 3.609529,2.95664 5.451503,4.42478 0.50646,0.40371 1.00724,0.81144 1.518031,1.21384 2.32715,1.83447 4.692803,3.65819 7.103758,5.46766 0.733645,0.55076 1.487433,1.09527 2.228311,1.64344 1.802898,1.33347 3.6263,2.66201 5.474034,3.98147 0.852343,0.60888 1.702391,1.21469 2.564838,1.82028 1.814321,1.27519 3.662017,2.54288 5.518615,3.80465 0.819023,0.5561 1.634226,1.1135 2.460492,1.66692 2.410665,1.61501 4.842075,3.21778 7.320765,4.80982 0.24167,0.15437 0.46872,0.31245 0.71027,0.46682 0.0426,0.0131 0.0429,0.0262 0.0725,0.0397 h 0.002 c 0,0 0.009,0 0.009,0 0,-0.007 0.0436,-0.0128 0.0436,-0.0264 0,-0.007 0.0436,-0.0128 0.0436,-0.0264 0.0725,-0.0463 0.15221,-0.10383 0.22435,-0.14991 2.6675,-1.70831 5.29242,-3.42966 7.88163,-5.16445 0.83786,-0.56137 1.6612,-1.12695 2.49038,-1.69096 1.72591,-1.17352 3.43275,-2.353 5.12232,-3.53815 1.0636,-0.74589 2.12118,-1.49306 3.17029,-2.2435 1.64661,-1.17817 3.27256,-2.3625 4.88329,-3.55188 0.83062,-0.61282 1.66942,-1.22196 2.48988,-1.83741 2.37145,-1.77959 4.70255,-3.57242 6.99207,-5.37606 0.66597,-0.52377 1.31565,-1.05252 1.97408,-1.57829 1.72909,-1.38107 3.44116,-2.76748 5.12233,-4.16222 0.78866,-0.6544 1.56196,-1.31248 2.34049,-1.97016 1.5398,-1.30101 3.05639,-2.60777 4.5541,-3.92025 0.73654,-0.64516 1.47987,-1.28856 2.20627,-1.93636 1.87133,-1.66947 3.70742,-3.34778 5.51077,-5.03513 0.27203,-0.25496 0.55726,-0.50839 0.83078,-0.76368 0.0426,-0.0199 0.0425,-0.0394 0.072,-0.0592 2.0162,-1.90196 3.97954,-3.81995 5.90803,-5.74395 0.63382,-0.63195 1.25294,-1.26748 1.87661,-1.90207 1.3429,-1.36544 2.66533,-2.73509 3.96334,-4.11128 0.67593,-0.71687 1.3476,-1.4346 2.01181,-2.15435 1.36168,-1.47555 2.69098,-2.95789 4.00057,-4.44536 0.45726,-0.5185 0.9333,-1.03446 1.38333,-1.55428 1.72416,-1.99074 3.40861,-3.99181 5.04003,-6.00307 0.47028,-0.57984 0.9129,-1.16417 1.37598,-1.74532 1.18512,-1.49151 2.35023,-2.9876 3.48476,-4.48994 0.56652,-0.75069 1.12104,-1.50338 1.67528,-2.25672 1.01439,-1.37957 1.9994,-2.76355 2.96897,-4.15194 0.50312,-0.72101 1.01084,-1.44124 1.50284,-2.16463 1.15039,-1.6933 2.26477,-3.39383 3.35006,-5.09979 0.26048,-0.41229 0.5414,-0.82097 0.80041,-1.23392 1.32262,-2.11416 2.58623,-4.23867 3.80611,-6.37144 0.29806,-0.51916 0.58,-1.04066 0.86801,-1.56114 0.90442,-1.61894 1.78733,-3.24222 2.63243,-4.87152 0.1997,-0.37998 0.3905,-0.76121 0.58292,-1.14184 -0.0469,-0.0928 -0.0964,-0.18502 -0.14352,-0.27774 z"
         style="color:#000000;font-style:normal;font-variant:normal;font-weight:normal;font-stretch:normal;font-size:medium;line-height:normal;font-family:sans-serif;font-variant-ligatures:normal;font-variant-position:normal;font-variant-caps:normal;font-variant-numeric:normal;font-variant-alternates:normal;font-feature-settings:normal;text-indent:0;text-align:start;text-decoration:none;text-decoration-line:none;text-decoration-style:solid;text-decoration-color:#000000;letter-spacing:normal;word-spacing:normal;text-transform:none;writing-mode:lr-tb;direction:ltr;text-orientation:mixed;dominant-baseline:auto;baseline-shift:baseline;text-anchor:start;white-space:normal;shape-padding:0;clip-rule:nonzero;display:inline;overflow:visible;visibility:visible;isolation:auto;mix-blend-mode:normal;color-interpolation:sRGB;color-interpolation-filters:linearRGB;solid-color:#000000;solid-opacity:1;fill:url(#linearGradient5205);fill-opacity:1;fill-rule:nonzero;stroke:none;stroke-width:195.405;stroke-linecap:round;stroke-linejoin:round;stroke-miterlimit:4;stroke-dasharray:none;stroke-dashoffset:0;stroke-opacity:1;color-rendering:auto;image-rendering:auto;shape-rendering:auto;text-rendering:auto;enable-background:accumulate"
         inkscape:connector-curvature="0" />
      <path
         inkscape:connector-curvature="0"
         style="color:#000000;font-style:normal;font-variant:normal;font-weight:normal;font-stretch:normal;font-size:medium;line-height:normal;font-family:sans-serif;font-variant-ligatures:normal;font-variant-position:normal;font-variant-caps:normal;font-variant-numeric:normal;font-variant-alternates:normal;font-feature-settings:normal;text-indent:0;text-align:start;text-decoration:none;text-decoration-line:none;text-decoration-style:solid;text-decoration-color:#000000;letter-spacing:normal;word-spacing:normal;text-transform:none;writing-mode:lr-tb;direction:ltr;text-orientation:mixed;dominant-baseline:auto;baseline-shift:baseline;text-anchor:start;white-space:normal;shape-padding:0;clip-rule:nonzero;display:inline;overflow:visible;visibility:visible;isolation:auto;mix-blend-mode:normal;color-interpolation:sRGB;color-interpolation-filters:linearRGB;solid-color:#000000;solid-opacity:1;fill:url(#radialGradient5223);fill-opacity:1;fill-rule:nonzero;stroke:none;stroke-width:173.984;stroke-linecap:round;stroke-linejoin:round;stroke-miterlimit:4;stroke-dasharray:none;stroke-dashoffset:0;stroke-opacity:1;color-rendering:auto;image-rendering:auto;shape-rendering:auto;text-rendering:auto;enable-background:accumulate"
         d="m 106.80339,10.916088 c -0.0263,0.01204 -0.0263,0.0236 -0.0643,0.03517 -0.21508,0.137447 -0.41744,0.278411 -0.63261,0.415849 -2.20696,1.417515 -4.37191,2.844775 -6.518302,4.282746 -0.735693,0.492772 -1.461328,0.989022 -2.190565,1.484173 -1.653072,1.123417 -3.298266,2.251895 -4.913696,3.387312 -0.767902,0.539191 -1.524847,1.078675 -2.283745,1.620795 -1.645184,1.174822 -3.268605,2.357862 -4.873864,3.545149 -0.659661,0.488079 -1.33081,0.972595 -1.984034,1.462968 -2.146658,1.611107 -4.253258,3.235135 -6.325287,4.868508 -0.454807,0.358282 -0.90061,0.721095 -1.35155,1.080552 -1.640056,1.307198 -3.261556,2.618813 -4.85379,3.939717 -0.69316,0.575012 -1.373191,1.152736 -2.057365,1.730108 -1.36702,1.154489 -2.711746,2.31369 -4.041522,3.47835 -0.673861,0.59052 -1.352603,1.179514 -2.01743,1.772573 -1.458759,1.301738 -2.888787,2.610604 -4.301155,3.92456 -0.459955,0.427593 -0.936697,0.852077 -1.391514,1.280834 -0.139163,0.132157 -0.265406,0.265491 -0.405839,0.39764 -1.669044,1.581504 -3.299156,3.172762 -4.900415,4.771347 -0.506336,0.504545 -0.999818,1.011307 -1.498059,1.517606 -1.25493,1.27385 -2.490779,2.552221 -3.701896,3.836517 -0.563068,0.59799 -1.123511,1.196738 -1.677935,1.796889 -1.176319,1.274494 -2.328429,2.555037 -3.462245,3.839522 -0.489605,0.55504 -0.989514,1.10898 -1.471394,1.66638 -1.526791,1.765105 -3.016594,3.537443 -4.460945,5.320757 -0.32337,0.398217 -0.62874,0.800094 -0.945674,1.198899 -1.123521,1.408122 -2.223837,2.821229 -3.29582,4.240214 -0.535996,0.71063 -1.06165,1.423449 -1.584641,2.13679 -0.856779,1.166954 -1.689377,2.33771 -2.510116,3.511773 -0.48315,0.691492 -0.972756,1.382035 -1.444834,2.076048 -0.967609,1.424037 -1.901595,2.85471 -2.816386,4.288785 -0.283434,0.444637 -0.586216,0.886676 -0.865812,1.332469 -1.155712,1.84945 -2.26764,3.707195 -3.335736,5.572674 -0.318245,0.555059 -0.608145,1.11316 -0.918652,1.669375 -0.758888,1.361826 -1.492657,2.727483 -2.203874,4.097543 -0.182918,0.3524 -0.365913,0.70629 -0.546272,1.05928 17.178462,33.9423 48.723193,65.46459 91.849074,93.03877 l 0.0517,-0.012 c 43.11842,-27.57459 74.65746,-59.09705 91.82914,-93.03876 -0.17133,-0.3389 -0.34143,-0.67845 -0.51924,-1.01678 -0.75246,-1.45068 -1.5384,-2.895871 -2.34367,-4.33734 -0.25645,-0.463425 -0.50763,-0.927844 -0.77303,-1.390093 -1.08615,-1.898959 -2.21134,-3.790478 -3.38896,-5.672868 -0.23063,-0.367694 -0.48059,-0.731673 -0.71252,-1.098771 -0.96631,-1.518951 -1.95854,-3.033021 -2.98282,-4.540692 -0.43807,-0.644086 -0.8903,-1.285367 -1.33828,-1.92734 -0.86327,-1.236199 -1.74016,-2.468578 -2.64335,-3.696909 -0.49348,-0.670751 -0.98694,-1.340924 -1.49136,-2.009325 -1.01015,-1.337644 -2.04757,-2.669412 -3.1028,-3.997407 -0.41229,-0.517445 -0.80656,-1.037735 -1.22529,-1.554014 -1.45258,-1.790775 -2.95244,-3.572515 -4.48759,-5.345014 -0.4007,-0.462836 -0.82459,-0.922441 -1.23173,-1.384102 -1.16602,-1.324411 -2.34972,-2.64414 -3.56212,-3.957926 -0.5914,-0.640854 -1.18922,-1.279954 -1.79105,-1.91824 -1.15573,-1.225326 -2.33321,-2.444728 -3.5289,-3.660481 -0.5553,-0.56504 -1.10674,-1.131009 -1.67107,-1.693689 -1.71708,-1.713074 -3.46485,-3.420859 -5.26001,-5.114312 -0.0264,-0.01763 -0.0264,-0.03517 -0.0643,-0.05289 -0.24354,-0.227299 -0.49733,-0.452843 -0.73954,-0.679858 -1.60567,-1.502382 -3.24082,-2.996555 -4.90702,-4.483012 -0.64676,-0.576793 -1.30838,-1.149568 -1.96417,-1.724002 -1.33353,-1.168594 -2.68381,-2.332136 -4.05482,-3.490512 -0.69318,-0.585591 -1.38173,-1.171703 -2.08393,-1.754355 -1.49687,-1.241849 -3.02135,-2.476342 -4.56088,-3.706019 -0.58626,-0.468126 -1.16475,-0.938953 -1.7577,-1.405297 -2.03854,-1.605932 -4.11396,-3.202072 -6.22544,-4.786571 -0.73051,-0.547987 -1.47755,-1.090353 -2.21712,-1.635999 -1.43415,-1.058997 -2.8817,-2.113652 -4.34779,-3.162667 -0.93411,-0.668164 -1.87608,-1.333114 -2.82308,-1.99723 -1.50437,-1.055233 -3.02407,-2.105661 -4.56077,-3.150562 -0.73829,-0.502174 -1.47113,-1.005591 -2.21715,-1.505424 -2.30536,-1.544631 -4.64258,-3.077327 -7.01767,-4.598383 -0.0643,-0.04104 -0.13521,-0.09223 -0.19979,-0.133333 0,-0.01204 -0.0387,-0.01763 -0.0387,-0.0236 0,-0.01204 -0.0387,-0.01763 -0.0387,-0.02351 -7.5e-4,-4.83e-4 -0.009,5.31e-4 -0.009,0 z"
         id="path4975" />
    </g>
  </g>
  <g
     inkscape:groupmode="layer"
     id="layer3"
     inkscape:label="eyes"
     style="display:inline">
    <g
       style="display:inline;fill:url(#radialGradient5401);fill-opacity:1;stroke:none"
       transform="matrix(0.94791091,0,0,0.94791091,-23.172043,-44.720105)"
       id="g5381">
      <path
         inkscape:connector-curvature="0"
         id="path5014"
         d="m 160.10238,120.37206 c 0.004,0.002 0.004,0.002 0.009,0.004 0.03,0.0195 0.0555,0.0398 0.0839,0.0594 0.29298,0.20237 0.58014,0.40614 0.86496,0.61143 0.0977,0.0704 0.19385,0.14127 0.29061,0.21189 0.21928,0.1603 0.43768,0.32151 0.65205,0.48361 0.10183,0.077 0.20223,0.1539 0.30306,0.23141 0.2184,0.16775 0.43373,0.33663 0.64672,0.50612 0.0874,0.0697 0.17646,0.13879 0.26334,0.20886 0.2849,0.23002 0.5644,0.46187 0.83933,0.69508 0.0602,0.0512 0.11959,0.10307 0.17946,0.15425 0.21749,0.18662 0.4328,0.37389 0.64408,0.56249 0.0921,0.0821 0.18214,0.16455 0.27292,0.24699 0.18126,0.16491 0.35983,0.33032 0.53629,0.49658 0.0892,0.0844 0.17945,0.16846 0.26754,0.25309 0.19354,0.18584 0.38334,0.3727 0.57077,0.56029 0.0611,0.0611 0.12439,0.12172 0.18455,0.18285 0.018,0.0188 0.035,0.0379 0.0538,0.0567 0.22139,0.22579 0.43778,0.45297 0.65026,0.6812 0.0672,0.072 0.13275,0.14447 0.19893,0.21668 0.16651,0.18186 0.33049,0.36436 0.49123,0.54772 0.0746,0.0853 0.14927,0.17078 0.22259,0.25654 0.15603,0.18195 0.30896,0.36477 0.45942,0.54816 0.065,0.0793 0.13115,0.15834 0.19534,0.2379 0.20251,0.252 0.40028,0.50504 0.59192,0.75964 0.0428,0.0569 0.0835,0.11408 0.12546,0.17113 0.14909,0.20103 0.29509,0.40278 0.43733,0.60539 0.0713,0.10146 0.14074,0.2032 0.21031,0.30504 0.11356,0.16651 0.22409,0.33377 0.33308,0.50138 0.0641,0.0988 0.12919,0.19729 0.19174,0.2964 0.1283,0.20329 0.25225,0.40755 0.37373,0.61228 0.0375,0.0634 0.0778,0.12671 0.11498,0.19024 0.15336,0.26405 0.30091,0.52927 0.44264,0.7956 0.0423,0.0793 0.0805,0.15887 0.12191,0.23834 0.10076,0.19443 0.19804,0.38939 0.2924,0.58499 0.024,0.0505 0.0485,0.10076 0.0725,0.15122 -2.2795,4.84585 -6.46538,9.34623 -12.18805,13.28294 l -0.005,-0.002 c -5.72166,-3.93676 -9.90678,-8.43715 -12.18542,-13.28293 0.024,-0.0483 0.0455,-0.0968 0.069,-0.14518 0.10004,-0.20712 0.204,-0.41345 0.311,-0.61925 0.0341,-0.0661 0.0672,-0.13239 0.10236,-0.19846 0.14412,-0.27111 0.2933,-0.54117 0.44972,-0.8099 0.0306,-0.0526 0.0638,-0.10449 0.0944,-0.15691 0.1283,-0.21687 0.26005,-0.43303 0.39578,-0.64829 0.0581,-0.0921 0.118,-0.1835 0.17771,-0.27516 0.1148,-0.17646 0.23098,-0.3524 0.35075,-0.52778 0.0656,-0.0958 0.13097,-0.19144 0.19802,-0.28687 0.13399,-0.19098 0.27173,-0.38111 0.41173,-0.5707 0.0546,-0.0739 0.10733,-0.14821 0.16277,-0.22187 0.19264,-0.25566 0.39177,-0.51005 0.5955,-0.7631 0.0533,-0.0661 0.10964,-0.13168 0.16366,-0.19759 0.15461,-0.18908 0.31177,-0.3775 0.47266,-0.56507 0.0785,-0.0915 0.15781,-0.18275 0.23756,-0.27386 0.15336,-0.17486 0.30963,-0.34903 0.46829,-0.52261 0.0737,-0.0807 0.14678,-0.16136 0.2217,-0.24179 0.22798,-0.24458 0.45975,-0.48841 0.69798,-0.73017 0.004,-0.002 0.004,-0.004 0.009,-0.007 0.0324,-0.0325 0.0659,-0.0647 0.0983,-0.0972 0.213,-0.21447 0.43005,-0.42781 0.65115,-0.64002 0.0857,-0.0823 0.1738,-0.1642 0.26064,-0.24614 0.177,-0.16687 0.35612,-0.33295 0.53806,-0.49834 0.0921,-0.0835 0.18336,-0.16722 0.27653,-0.25046 0.19862,-0.17735 0.40094,-0.35353 0.60519,-0.5291 0.0778,-0.0668 0.1546,-0.13399 0.23338,-0.20063 0.27052,-0.22927 0.54588,-0.45715 0.82606,-0.68336 0.0969,-0.0784 0.19623,-0.15567 0.2942,-0.23358 0.19023,-0.15123 0.38238,-0.30174 0.57692,-0.4515 0.12404,-0.0954 0.24894,-0.19036 0.37462,-0.28514 0.19953,-0.1507 0.40127,-0.30063 0.60521,-0.44979 0.0979,-0.0718 0.19533,-0.14359 0.29419,-0.21496 0.3059,-0.22051 0.61605,-0.43934 0.93121,-0.65649 0.009,-0.005 0.018,-0.0124 0.027,-0.019 0,-0.002 0.005,-0.002 0.005,-0.002 0,-0.002 0.005,-0.002 0.005,-0.002 1.2e-4,-9e-5 9.4e-4,7e-5 9.4e-4,0 z"
         style="color:#000000;font-style:normal;font-variant:normal;font-weight:normal;font-stretch:normal;font-size:medium;line-height:normal;font-family:sans-serif;font-variant-ligatures:normal;font-variant-position:normal;font-variant-caps:normal;font-variant-numeric:normal;font-variant-alternates:normal;font-feature-settings:normal;text-indent:0;text-align:start;text-decoration:none;text-decoration-line:none;text-decoration-style:solid;text-decoration-color:#000000;letter-spacing:normal;word-spacing:normal;text-transform:none;writing-mode:lr-tb;direction:ltr;text-orientation:mixed;dominant-baseline:auto;baseline-shift:baseline;text-anchor:start;white-space:normal;shape-padding:0;clip-rule:nonzero;display:inline;overflow:visible;visibility:visible;opacity:1;isolation:auto;mix-blend-mode:normal;color-interpolation:sRGB;color-interpolation-filters:linearRGB;solid-color:#000000;solid-opacity:1;vector-effect:none;fill:url(#radialGradient5422);fill-opacity:1;fill-rule:nonzero;stroke:none;stroke-width:23.9472;stroke-linecap:round;stroke-linejoin:round;stroke-miterlimit:4;stroke-dasharray:none;stroke-dashoffset:0;stroke-opacity:1;color-rendering:auto;image-rendering:auto;shape-rendering:auto;text-rendering:auto;enable-background:accumulate" />
      <path
         style="color:#000000;font-style:normal;font-variant:normal;font-weight:normal;font-stretch:normal;font-size:medium;line-height:normal;font-family:sans-serif;font-variant-ligatures:normal;font-variant-position:normal;font-variant-caps:normal;font-variant-numeric:normal;font-variant-alternates:normal;font-feature-settings:normal;text-indent:0;text-align:start;text-decoration:none;text-decoration-line:none;text-decoration-style:solid;text-decoration-color:#000000;letter-spacing:normal;word-spacing:normal;text-transform:none;writing-mode:lr-tb;direction:ltr;text-orientation:mixed;dominant-baseline:auto;baseline-shift:baseline;text-anchor:start;white-space:normal;shape-padding:0;clip-rule:nonzero;display:inline;overflow:visible;visibility:visible;opacity:1;isolation:auto;mix-blend-mode:normal;color-interpolation:sRGB;color-interpolation-filters:linearRGB;solid-color:#000000;solid-opacity:1;vector-effect:none;fill:url(#radialGradient5424);fill-opacity:1;fill-rule:nonzero;stroke:none;stroke-width:23.9472;stroke-linecap:round;stroke-linejoin:round;stroke-miterlimit:4;stroke-dasharray:none;stroke-dashoffset:0;stroke-opacity:1;color-rendering:auto;image-rendering:auto;shape-rendering:auto;text-rendering:auto;enable-background:accumulate"
         d="m 107.54976,120.37206 c 0.004,0.002 0.004,0.002 0.009,0.004 0.03,0.0195 0.0554,0.0398 0.0839,0.0594 0.293,0.20237 0.58015,0.40614 0.86498,0.61143 0.0977,0.0704 0.19382,0.14127 0.2906,0.21189 0.21929,0.1603 0.43769,0.32151 0.65205,0.48361 0.10183,0.077 0.20221,0.1539 0.30306,0.23141 0.2184,0.16775 0.43371,0.33663 0.64672,0.50612 0.0874,0.0697 0.17647,0.13879 0.26335,0.20886 0.28489,0.23002 0.56439,0.46187 0.83932,0.69508 0.0602,0.0512 0.11959,0.10307 0.17944,0.15425 0.21752,0.18662 0.43282,0.37389 0.6441,0.56249 0.0921,0.0821 0.18215,0.16455 0.27292,0.24699 0.18126,0.16491 0.35983,0.33032 0.53629,0.49658 0.0892,0.0844 0.17945,0.16846 0.26754,0.25309 0.19354,0.18584 0.38335,0.3727 0.57077,0.56029 0.0611,0.0611 0.1244,0.12172 0.18455,0.18285 0.0179,0.0188 0.035,0.0379 0.0538,0.0567 0.22139,0.22579 0.43778,0.45297 0.65025,0.6812 0.0672,0.072 0.13274,0.14447 0.19894,0.21668 0.16651,0.18186 0.33049,0.36436 0.49123,0.54772 0.0746,0.0853 0.14927,0.17078 0.22259,0.25654 0.15603,0.18195 0.30896,0.36477 0.45942,0.54816 0.065,0.0793 0.13115,0.15834 0.19532,0.2379 0.20253,0.252 0.40028,0.50504 0.59194,0.75964 0.0428,0.0569 0.0835,0.11408 0.12546,0.17113 0.14909,0.20103 0.29509,0.40278 0.43733,0.60539 0.0713,0.10146 0.14074,0.2032 0.21031,0.30504 0.11356,0.16651 0.22409,0.33377 0.33308,0.50138 0.0642,0.0988 0.12919,0.19729 0.19174,0.2964 0.12848,0.20329 0.25226,0.40755 0.37373,0.61228 0.0375,0.0634 0.0778,0.12671 0.11498,0.19024 0.15336,0.26405 0.30091,0.52927 0.44265,0.7956 0.0423,0.0793 0.0805,0.15887 0.1219,0.23834 0.10076,0.19443 0.19804,0.38939 0.2924,0.58499 0.024,0.0505 0.0485,0.10076 0.0725,0.15122 -2.2795,4.84585 -6.46538,9.34623 -12.18807,13.28294 l -0.005,-0.002 c -5.72165,-3.93676 -9.90677,-8.43715 -12.18542,-13.28293 0.024,-0.0483 0.0455,-0.0968 0.0689,-0.14518 0.0997,-0.20712 0.20401,-0.41345 0.311,-0.61925 0.0341,-0.0661 0.0672,-0.13239 0.10236,-0.19846 0.14412,-0.27111 0.2933,-0.54117 0.44972,-0.8099 0.0306,-0.0526 0.0638,-0.10449 0.0944,-0.15691 0.1283,-0.21687 0.26006,-0.43303 0.39582,-0.64829 0.0581,-0.0921 0.118,-0.1835 0.17771,-0.27516 0.1148,-0.17646 0.23098,-0.3524 0.35075,-0.52778 0.0656,-0.0958 0.13097,-0.19144 0.19804,-0.28687 0.13399,-0.19098 0.27173,-0.38111 0.41172,-0.5707 0.0546,-0.0739 0.10716,-0.14821 0.1626,-0.22187 0.19294,-0.25566 0.39177,-0.51005 0.59549,-0.7631 0.0533,-0.0661 0.10965,-0.13168 0.16367,-0.19759 0.15461,-0.18908 0.31179,-0.3775 0.47266,-0.56507 0.0786,-0.0915 0.1578,-0.18275 0.23758,-0.27386 0.15336,-0.17486 0.30961,-0.34903 0.46829,-0.52261 0.0737,-0.0807 0.14678,-0.16136 0.22168,-0.24179 0.2277,-0.24458 0.45976,-0.48841 0.698,-0.73017 0.004,-0.002 0.004,-0.004 0.009,-0.007 0.0323,-0.0325 0.0659,-0.0647 0.0983,-0.0972 0.21302,-0.21447 0.43007,-0.42781 0.65117,-0.64002 0.086,-0.0823 0.17379,-0.1642 0.26064,-0.24614 0.17699,-0.16687 0.35612,-0.33295 0.53805,-0.49834 0.0919,-0.0835 0.18334,-0.16722 0.27651,-0.25046 0.19864,-0.17735 0.40093,-0.35353 0.60522,-0.5291 0.0778,-0.0668 0.1546,-0.13399 0.23338,-0.20063 0.27052,-0.22927 0.54587,-0.45715 0.82608,-0.68336 0.0969,-0.0784 0.19592,-0.15567 0.29419,-0.23358 0.19023,-0.15123 0.38239,-0.30174 0.57696,-0.4515 0.12368,-0.0954 0.24894,-0.19036 0.3746,-0.28514 0.19953,-0.1507 0.40126,-0.30063 0.60519,-0.44979 0.0979,-0.0718 0.19534,-0.14359 0.29419,-0.21496 0.30592,-0.22051 0.61605,-0.43934 0.93125,-0.65649 0.009,-0.005 0.0179,-0.0124 0.027,-0.019 0,-0.002 0.005,-0.002 0.005,-0.002 0,-0.002 0.005,-0.002 0.005,-0.002 1.3e-4,-9e-5 9.5e-4,7e-5 9.5e-4,0 z"
         id="path5371"
         inkscape:connector-curvature="0" />
    </g>
  </g>
  <g
     inkscape:groupmode="layer"
     id="layer4"
     inkscape:label="nose"
     style="display:inline">
    <path
       inkscape:connector-curvature="0"
       id="path5377"
       d="m 107.33049,91.888097 c 0.002,5.78e-4 0.002,5.78e-4 0.007,9.48e-4 0.0191,0.0057 0.0354,0.01147 0.0537,0.01706 0.18781,0.0582 0.37184,0.116801 0.55439,0.175837 0.0626,0.02029 0.12422,0.04057 0.18634,0.06095 0.14049,0.04616 0.28053,0.09252 0.41793,0.139087 0.0653,0.02218 0.12972,0.04427 0.19416,0.06654 0.14006,0.04825 0.27799,0.09681 0.41451,0.145552 0.056,0.02009 0.11303,0.03991 0.1688,0.0601 0.18253,0.06616 0.36174,0.13284 0.53795,0.199905 0.0387,0.01469 0.0767,0.02957 0.11493,0.04436 0.13943,0.05365 0.27741,0.107522 0.41283,0.161761 0.0591,0.0236 0.11683,0.0473 0.17492,0.071 0.11619,0.0474 0.23063,0.095 0.34375,0.142812 0.0572,0.02427 0.11492,0.04844 0.17154,0.0728 0.12401,0.05346 0.2457,0.10718 0.36584,0.161135 0.0393,0.01763 0.0796,0.03498 0.11831,0.05261 0.0105,0.0047 0.0224,0.0109 0.0344,0.0163 0.14196,0.06493 0.2806,0.130272 0.41679,0.195914 0.0431,0.02067 0.0851,0.04152 0.1276,0.06228 0.10669,0.05223 0.21184,0.104782 0.31487,0.157515 0.0478,0.02455 0.0957,0.0491 0.1426,0.07375 0.0999,0.05232 0.19795,0.104905 0.29445,0.157647 0.0416,0.02275 0.0841,0.04559 0.12529,0.06844 0.12971,0.07242 0.25655,0.145239 0.37938,0.218465 0.0275,0.0163 0.0537,0.0328 0.0803,0.0492 0.0955,0.05782 0.18908,0.115835 0.28029,0.174103 0.0459,0.0292 0.0902,0.05849 0.1348,0.08768 0.0729,0.04787 0.14365,0.09599 0.21348,0.144187 0.0409,0.02844 0.0828,0.05669 0.12295,0.08522 0.0822,0.05849 0.16161,0.11721 0.23955,0.176084 0.0239,0.0182 0.0499,0.0365 0.0737,0.05469 0.0982,0.07593 0.19289,0.152215 0.2837,0.228807 0.0273,0.02284 0.0516,0.04569 0.0782,0.06853 0.0646,0.05593 0.12696,0.111987 0.18738,0.168236 0.0148,0.0145 0.0311,0.02901 0.0464,0.04351 -1.46104,1.393618 -4.14399,2.687877 -7.81194,3.820024 l -0.002,-5.69e-4 c -3.66729,-1.132175 -6.34976,-2.426434 -7.810256,-3.820024 0.01479,-0.01393 0.0292,-0.02787 0.04417,-0.0418 0.06398,-0.05953 0.130774,-0.118896 0.199431,-0.178084 0.0218,-0.01905 0.04313,-0.03811 0.06569,-0.05706 0.09252,-0.07801 0.188035,-0.155638 0.288255,-0.232921 0.019,-0.01517 0.0409,-0.03005 0.0604,-0.04512 0.0822,-0.06237 0.16668,-0.124537 0.25366,-0.186445 0.0372,-0.02645 0.0756,-0.0527 0.11408,-0.07915 0.0736,-0.05071 0.14809,-0.101351 0.22481,-0.151789 0.0421,-0.02759 0.0839,-0.05507 0.12696,-0.08247 0.0858,-0.05498 0.17409,-0.109597 0.26391,-0.164121 0.0351,-0.02123 0.0689,-0.04266 0.10436,-0.06379 0.12339,-0.07356 0.25111,-0.14668 0.38169,-0.219461 0.0342,-0.01905 0.0701,-0.03782 0.10478,-0.05678 0.0991,-0.05432 0.19986,-0.108564 0.30296,-0.162509 0.0502,-0.02626 0.10118,-0.05261 0.15231,-0.07877 0.0982,-0.05024 0.19837,-0.100374 0.30014,-0.150301 0.0473,-0.02322 0.094,-0.04645 0.14218,-0.06958 0.1462,-0.07034 0.2947,-0.140462 0.44737,-0.209991 0.002,-5.69e-4 0.002,-9.48e-4 0.007,-0.0019 0.0211,-0.0095 0.0423,-0.01858 0.0629,-0.02796 0.13647,-0.06171 0.27565,-0.123039 0.41737,-0.184065 0.0549,-0.0236 0.11133,-0.04721 0.1671,-0.07081 0.11345,-0.04796 0.22827,-0.09575 0.34489,-0.143315 0.059,-0.02408 0.11746,-0.04806 0.17724,-0.07204 0.12739,-0.051 0.25698,-0.101673 0.38788,-0.152159 0.0499,-0.01924 0.0991,-0.03858 0.14958,-0.05773 0.17344,-0.06588 0.34986,-0.131466 0.52945,-0.196521 0.0621,-0.02256 0.12571,-0.04474 0.18867,-0.06721 0.12189,-0.04351 0.24508,-0.08683 0.36977,-0.129844 0.0794,-0.02749 0.1595,-0.05479 0.24009,-0.08199 0.12803,-0.04332 0.25719,-0.08645 0.38793,-0.129361 0.0628,-0.02067 0.12527,-0.04133 0.18865,-0.0618 0.19605,-0.06342 0.39487,-0.126356 0.59685,-0.188805 0.007,-9.48e-4 0.0106,-0.0038 0.0169,-0.0057 0,-5.78e-4 0.002,-5.78e-4 0.002,-5.78e-4 0,-5.79e-4 0.002,-5.79e-4 0.002,-5.79e-4 8e-5,-2.8e-5 6.1e-4,1.9e-5 6.1e-4,0 z"
       style="color:#000000;font-style:normal;font-variant:normal;font-weight:normal;font-stretch:normal;font-size:medium;line-height:normal;font-family:sans-serif;font-variant-ligatures:normal;font-variant-position:normal;font-variant-caps:normal;font-variant-numeric:normal;font-variant-alternates:normal;font-feature-settings:normal;text-indent:0;text-align:start;text-decoration:none;text-decoration-line:none;text-decoration-style:solid;text-decoration-color:#000000;letter-spacing:normal;word-spacing:normal;text-transform:none;writing-mode:lr-tb;direction:ltr;text-orientation:mixed;dominant-baseline:auto;baseline-shift:baseline;text-anchor:start;white-space:normal;shape-padding:0;clip-rule:nonzero;display:inline;overflow:visible;visibility:visible;isolation:auto;mix-blend-mode:normal;color-interpolation:sRGB;color-interpolation-filters:linearRGB;solid-color:#000000;solid-opacity:1;vector-effect:none;fill:#42a500;fill-opacity:1;fill-rule:nonzero;stroke:none;stroke-width:10.2814;stroke-linecap:round;stroke-linejoin:round;stroke-miterlimit:4;stroke-dasharray:none;stroke-dashoffset:0;stroke-opacity:1;color-rendering:auto;image-rendering:auto;shape-rendering:auto;text-rendering:auto;enable-background:accumulate"
       transform="translate(-3.649037)" />
  </g>
  <g
     inkscape:groupmode="layer"
     id="layer2"
     inkscape:label="front"
     style="display:inline">
    <g
       id="g949"
       style="display:inline"
       transform="translate(-3.649037)">
      <path
         style="color:#000000;font-style:normal;font-variant:normal;font-weight:normal;font-stretch:normal;font-size:medium;line-height:normal;font-family:sans-serif;font-variant-ligatures:normal;font-variant-position:normal;font-variant-caps:normal;font-variant-numeric:normal;font-variant-alternates:normal;font-feature-settings:normal;text-indent:0;text-align:start;text-decoration:none;text-decoration-line:none;text-decoration-style:solid;text-decoration-color:#000000;letter-spacing:normal;word-spacing:normal;text-transform:none;writing-mode:lr-tb;direction:ltr;text-orientation:mixed;dominant-baseline:auto;baseline-shift:baseline;text-anchor:start;white-space:normal;shape-padding:0;clip-rule:nonzero;display:inline;overflow:visible;visibility:visible;opacity:1;isolation:auto;mix-blend-mode:normal;color-interpolation:sRGB;color-interpolation-filters:linearRGB;solid-color:#000000;solid-opacity:1;fill:url(#linearGradient5449);fill-opacity:1;fill-rule:nonzero;stroke:none;stroke-width:23.7785;stroke-linecap:round;stroke-linejoin:round;stroke-miterlimit:4;stroke-dasharray:none;stroke-dashoffset:0;stroke-opacity:1;color-rendering:auto;image-rendering:auto;shape-rendering:auto;text-rendering:auto;enable-background:accumulate"
         d="m 145.0143,45.076014 c 35.58123,30.156749 16.11383,53.517879 -0.82019,80.777636 3.39334,-6.54585 42.7783,-24.46136 44.12998,-32.518937 -0.0142,-0.0838 -0.0283,-0.16759 -0.0427,-0.25129 -0.0559,-0.32524 -0.11372,-0.64956 -0.1734,-0.97284 -0.0245,-0.13204 -0.0481,-0.26452 -0.073,-0.39628 -0.0841,-0.44286 -0.17112,-0.88354 -0.26207,-1.32258 -0.022,-0.10587 -0.0453,-0.21091 -0.0676,-0.31644 -0.0719,-0.34045 -0.1458,-0.68034 -0.2219,-1.01839 -0.0371,-0.16475 -0.0756,-0.32862 -0.11365,-0.49279 -0.0646,-0.27871 -0.13002,-0.55669 -0.19741,-0.83372 -0.0411,-0.16933 -0.0828,-0.33829 -0.12491,-0.50699 -0.0844,-0.33685 -0.1707,-0.67236 -0.25912,-1.00663 -0.0249,-0.0947 -0.049,-0.19012 -0.0744,-0.2846 -0.11365,-0.42333 -0.23059,-0.8443 -0.35074,-1.26332 -0.0379,-0.13233 -0.0775,-0.26348 -0.11609,-0.39531 -0.0892,-0.30492 -0.17976,-0.60905 -0.27236,-0.91161 -0.0436,-0.14247 -0.0874,-0.2847 -0.13176,-0.42665 -0.0953,-0.30489 -0.19276,-0.60823 -0.29146,-0.91062 -0.0392,-0.12021 -0.0782,-0.24029 -0.11805,-0.36004 -0.12601,-0.37949 -0.25419,-0.75757 -0.38552,-1.13302 -0.0111,-0.0314 -0.0214,-0.0626 -0.0323,-0.094 -0.0358,-0.10182 -0.0731,-0.20269 -0.10924,-0.30419 -0.11113,-0.31193 -0.22321,-0.62268 -0.33799,-0.93169 -0.0523,-0.14079 -0.10566,-0.28061 -0.15871,-0.42078 -0.10464,-0.2765 -0.21134,-0.55181 -0.3189,-0.82588 -0.0538,-0.13707 -0.10713,-0.274 -0.16165,-0.41049 -0.12528,-0.31357 -0.25302,-0.62481 -0.38207,-0.93512 -0.0355,-0.0854 -0.0701,-0.17163 -0.10581,-0.25668 -0.16303,-0.38775 -0.32927,-0.77356 -0.49817,-1.15604 -0.0514,-0.11642 -0.10437,-0.23143 -0.15626,-0.3473 -0.12631,-0.28184 -0.25361,-0.56266 -0.38307,-0.84156 -0.0597,-0.12867 -0.11938,-0.25653 -0.17977,-0.38453 -0.12711,-0.26952 -0.25643,-0.53763 -0.38649,-0.80432 -0.0573,-0.11759 -0.11451,-0.23518 -0.17242,-0.3522 -0.1689,-0.34135 -0.33971,-0.67993 -0.51336,-1.01643 -0.017,-0.0326 -0.0325,-0.0663 -0.0495,-0.099 -0.003,-0.003 -0.003,-0.005 -0.005,-0.008 -0.51434,-0.99222 -1.04965,-1.96337 -1.60425,-2.91165 -0.55457,-0.94829 -1.12826,-1.87349 -1.72132,-2.77548 -0.5931,-0.90196 -1.20568,-1.78065 -1.83546,-2.6339 -0.62981,-0.85324 -1.27698,-1.68143 -1.94175,-2.48353 -0.66477,-0.80208 -1.34663,-1.57824 -2.04462,-2.32676 -0.698,-0.74854 -1.41264,-1.46963 -2.1421,-2.16219 -0.72945,-0.69255 -1.47403,-1.35657 -2.23321,-1.99073 -0.75915,-0.63417 -1.53278,-1.23811 -2.31991,-1.81146 -0.78713,-0.57337 -1.58742,-1.116159 -2.40074,-1.626296 -0.81331,-0.510147 -1.63938,-0.987804 -2.47715,-1.432304 -0.83775,-0.44451 -1.68726,-0.85598 -2.54769,-1.232454 -0.86045,-0.376444 -1.73146,-0.717778 -2.61284,-1.023778 -0.88139,-0.305998 -1.77302,-0.576111 -2.67359,-0.809226 -0.90056,-0.233129 -1.81045,-0.429001 -2.72844,-0.586838 -0.91798,-0.157821 -1.84428,-0.277471 -2.77792,-0.357588 -0.66991,-0.05755 -1.34485,-0.08754 -2.0221,-0.103846 z"
         id="path5443"
         inkscape:connector-curvature="0" />
      <path
         style="color:#000000;font-style:normal;font-variant:normal;font-weight:normal;font-stretch:normal;font-size:medium;line-height:normal;font-family:sans-serif;font-variant-ligatures:normal;font-variant-position:normal;font-variant-caps:normal;font-variant-numeric:normal;font-variant-alternates:normal;font-feature-settings:normal;text-indent:0;text-align:start;text-decoration:none;text-decoration-line:none;text-decoration-style:solid;text-decoration-color:#000000;letter-spacing:normal;word-spacing:normal;text-transform:none;writing-mode:lr-tb;direction:ltr;text-orientation:mixed;dominant-baseline:auto;baseline-shift:baseline;text-anchor:start;white-space:normal;shape-padding:0;clip-rule:nonzero;display:inline;overflow:visible;visibility:visible;opacity:1;isolation:auto;mix-blend-mode:normal;color-interpolation:sRGB;color-interpolation-filters:linearRGB;solid-color:#000000;solid-opacity:1;fill:url(#linearGradient5067);fill-opacity:1;fill-rule:nonzero;stroke:none;stroke-width:23.7785;stroke-linecap:round;stroke-linejoin:round;stroke-miterlimit:4;stroke-dasharray:none;stroke-dashoffset:0;stroke-opacity:1;color-rendering:auto;image-rendering:auto;shape-rendering:auto;text-rendering:auto;enable-background:accumulate"
         d="m 144.21353,17.171325 c -15.17858,0 -28.6551,10.466529 -36.88197,26.372973 -2.6e-4,3.69e-4 -8e-4,7.38e-4 -9.5e-4,0.0014 -2.78904,5.392982 -4.98772,11.390809 -6.42239,17.848345 0.0293,-0.13521 -0.0327,0.14602 -0.002,0.0118 0.44298,-1.94613 -0.57299,1.84892 0.002,-0.0118 10.03589,-6.219446 5.1466,-11.630929 6.42239,-17.848323 C 99.103758,27.639022 85.627375,17.172763 70.448641,17.172763 c -24.883951,0 -45.274184,28.043682 -45.274184,62.26779 0,4.77463 0.413507,9.42082 1.164088,13.8955 0.01409,-0.0838 0.02804,-0.16782 0.04244,-0.25147 0.05596,-0.32521 0.113696,-0.64944 0.173407,-0.97271 0.02444,-0.13206 0.04788,-0.26455 0.07282,-0.39631 0.08404,-0.44284 0.171532,-0.88385 0.262468,-1.3229 0.02189,-0.10586 0.04528,-0.21076 0.06759,-0.31632 0.07198,-0.34043 0.14547,-0.68004 0.221605,-1.0181 0.0371,-0.16477 0.07563,-0.32868 0.113685,-0.49286 0.06458,-0.27868 0.13008,-0.55662 0.197508,-0.83365 0.04116,-0.16934 0.08253,-0.33856 0.124685,-0.50724 0.08434,-0.33687 0.170924,-0.6723 0.259328,-1.0066 0.02505,-0.0947 0.04894,-0.19008 0.07439,-0.28461 0.113648,-0.42333 0.230862,-0.84408 0.351006,-1.2631 0.03792,-0.13231 0.07725,-0.2638 0.11578,-0.39557 0.08922,-0.30493 0.179866,-0.60892 0.272425,-0.91148 0.04359,-0.14247 0.0877,-0.2846 0.132021,-0.42654 0.0953,-0.30488 0.19254,-0.60835 0.291282,-0.91076 0.03923,-0.1202 0.07806,-0.24049 0.117877,-0.36026 0.125973,-0.3795 0.254258,-0.75726 0.385585,-1.13268 0.01094,-0.0315 0.02165,-0.0629 0.03247,-0.0944 0.03578,-0.10182 0.07279,-0.20255 0.108969,-0.30406 0.111124,-0.31192 0.223664,-0.62263 0.338435,-0.93165 0.05232,-0.14078 0.105718,-0.28061 0.15874,-0.4208 0.104643,-0.27647 0.210973,-0.55164 0.318526,-0.82572 0.05383,-0.13706 0.107339,-0.2742 0.161881,-0.41071 0.125294,-0.31357 0.252871,-0.62493 0.381917,-0.93524 0.03548,-0.0854 0.07005,-0.17147 0.105827,-0.25652 0.163028,-0.38775 0.329313,-0.77328 0.49822,-1.15573 0.05141,-0.11643 0.104213,-0.23144 0.156122,-0.3473 0.126311,-0.28185 0.253512,-0.5627 0.382963,-0.84158 0.05971,-0.12868 0.119795,-0.25677 0.180217,-0.38477 0.127121,-0.26953 0.256031,-0.53743 0.386111,-0.80411 0.05738,-0.11759 0.11447,-0.23536 0.17236,-0.35234 0.168906,-0.34135 0.33976,-0.68017 0.513413,-1.01668 0.01682,-0.0326 0.03285,-0.0661 0.04977,-0.0987 0.0022,-0.003 0.0022,-0.007 0.0052,-0.009 0.514337,-0.99219 1.049565,-1.9634 1.604155,-2.91167 0.554564,-0.9483 1.12844,-1.87352 1.721507,-2.7755 0.593089,-0.90197 1.205416,-1.7803 1.835193,-2.63354 0.629818,-0.85325 1.277277,-1.6816 1.942065,-2.48368 0.664755,-0.8021 1.346755,-1.57807 2.044749,-2.32661 0.697987,-0.74853 1.412215,-1.46976 2.141671,-2.162318 0.729463,-0.692553 1.474171,-1.356669 2.233349,-1.990841 0.759146,-0.634161 1.532664,-1.238057 2.319792,-1.81141 0.787128,-0.573372 1.587661,-1.116108 2.400995,-1.626245 0.813304,-0.510138 1.639182,-0.987912 2.476957,-1.432424 0.837739,-0.444512 1.68725,-0.855649 2.547686,-1.232108 0.860436,-0.37646 1.73179,-0.717888 2.613172,-1.023885 0.88139,-0.305998 1.772856,-0.576031 2.673417,-0.809159 0.900572,-0.233116 1.81043,-0.4294 2.728428,-0.587236 0.91797,-0.157824 1.844042,-0.277198 2.777673,-0.357384 0.933673,-0.08003 1.874643,-0.121049 2.822203,-0.121049 0.947532,0 1.888593,0.04088 2.822216,0.121049 0.933607,0.08017 1.859697,0.199574 2.777673,0.357384 0.917948,0.157821 1.827914,0.353397 2.72842,0.586513 0.900543,0.233101 1.792063,0.503914 2.673421,0.809882 0.881358,0.305985 1.752213,0.647452 2.612651,1.023885 0.860409,0.376432 1.709937,0.787622 2.547681,1.232108 0.837736,0.444486 1.6642,0.922305 2.477479,1.432424 0.813308,0.510099 1.613904,1.0522 2.401002,1.625515 0.787107,0.573335 1.560612,1.178007 2.319794,1.81214 0.759153,0.634124 1.503908,1.297605 2.233344,1.99012 0.729465,0.692529 1.443678,1.413839 2.141672,2.162319 0.697994,0.7485 1.379457,1.52457 2.044227,2.3266 0.23199,0.27992 0.45005,0.58054 0.67791,0.86681 1.1e-4,-3.6e-4 5.4e-4,-9.5e-4 5.4e-4,-9.5e-4 0.42487,0.53393 0.85416,1.06145 1.26415,1.61687 0.62977,0.85323 1.24209,1.73159 1.83519,2.63355 0.59306,0.90198 1.16694,1.8272 1.72151,2.77549 0.55459,0.94829 1.08981,1.9195 1.60416,2.91168 0.51436,-0.99215 1.04905,-1.9627 1.60363,-2.91096 0.55459,-0.94824 1.12894,-1.87429 1.72203,-2.77621 0.59307,-0.90193 1.20488,-1.77963 1.83467,-2.63284 0.41002,-0.55544 0.83963,-1.08286 1.26467,-1.61687 v -7.3e-4 c 0.22785,-0.28627 0.44593,-0.58689 0.67792,-0.86681 0.66476,-0.80203 1.34623,-1.57811 2.04422,-2.3266 0.698,-0.74848 1.41221,-1.46981 2.14167,-2.162315 0.72944,-0.692516 1.47419,-1.355996 2.23336,-1.99012 0.75917,-0.634134 1.53268,-1.238806 2.31979,-1.812141 0.78711,-0.573334 1.58768,-1.115416 2.40099,-1.625515 0.81328,-0.510119 1.63975,-0.98795 2.47748,-1.432424 0.83776,-0.444485 1.68727,-0.855675 2.54769,-1.232121 0.86043,-0.376419 1.73128,-0.717887 2.61264,-1.023874 0.88136,-0.30597 1.77288,-0.576778 2.67342,-0.809879 0.90051,-0.233116 1.81049,-0.428692 2.72843,-0.586516 0.91797,-0.157808 1.84405,-0.277209 2.77768,-0.357386 0.93359,-0.08017 1.87467,-0.12105 2.82219,-0.12105 0.94757,0 1.88853,0.04102 2.82221,0.12105 0.93363,0.08019 1.8597,0.199564 2.77767,0.357386 0.918,0.157838 1.82786,0.354119 2.72843,0.587235 0.90056,0.23313 1.79202,0.503161 2.67342,0.80916 0.88138,0.306001 1.75274,0.647429 2.61317,1.023874 0.86043,0.376473 1.70995,0.78761 2.54768,1.232121 0.83779,0.444513 1.66366,0.922287 2.47696,1.432424 0.81334,0.510127 1.61387,1.052863 2.401,1.626236 0.78713,0.573353 1.56065,1.177258 2.31979,1.81142 0.75918,0.634161 1.50389,1.298287 2.23335,1.99084 0.72946,0.692555 1.44369,1.413795 2.14166,2.162315 0.69802,0.74853 1.37999,1.52451 2.04476,2.32661 0.66478,0.8021 1.31224,1.63044 1.94206,2.48367 0.62978,0.85324 1.24211,1.73159 1.8352,2.63355 0.59307,0.90198 1.16694,1.8272 1.72151,2.7755 0.55459,0.94828 1.08981,1.91949 1.60415,2.91167 0.003,0.003 0.003,0.007 0.005,0.009 0.017,0.0326 0.033,0.0661 0.0498,0.0987 0.17366,0.3365 0.34451,0.67533 0.51342,1.01667 0.0579,0.11695 0.11497,0.23481 0.17235,0.35234 0.13007,0.2667 0.25898,0.53459 0.38611,0.80412 0.0604,0.12803 0.12051,0.25607 0.18022,0.38477 0.12945,0.2789 0.25665,0.55973 0.38296,0.84158 0.0519,0.11591 0.10473,0.23087 0.15612,0.3473 0.16891,0.38245 0.33518,0.76799 0.49823,1.15574 0.0357,0.085 0.0703,0.17117 0.10582,0.25651 0.12905,0.31031 0.25663,0.62169 0.38192,0.93524 0.0545,0.1365 0.10805,0.27365 0.16188,0.41071 0.10756,0.27408 0.21388,0.54925 0.31852,0.82573 0.053,0.14018 0.10644,0.28001 0.15874,0.42079 0.11477,0.30902 0.22732,0.61973 0.33844,0.93165 0.0362,0.10156 0.0732,0.20228 0.10897,0.30407 0.0109,0.0314 0.0215,0.0629 0.0325,0.0944 0.13132,0.37543 0.2596,0.75319 0.38558,1.13268 0.0398,0.11981 0.0787,0.24008 0.11788,0.36027 0.0987,0.30241 0.19598,0.60588 0.29128,0.91076 0.0444,0.14195 0.0884,0.28408 0.13202,0.42656 0.0925,0.30254 0.18321,0.60654 0.27243,0.91147 0.0385,0.13176 0.0778,0.26325 0.11578,0.39557 0.12014,0.41903 0.23736,0.83976 0.351,1.26309 0.0255,0.0945 0.0494,0.18994 0.0744,0.28461 0.0884,0.33429 0.17499,0.66974 0.25933,1.00659 0.0422,0.1687 0.0835,0.33792 0.12469,0.50725 0.0674,0.27703 0.13293,0.55496 0.19751,0.83366 0.0381,0.16416 0.0766,0.32809 0.11368,0.49286 0.0761,0.33806 0.14963,0.67766 0.2216,1.0181 0.0224,0.1056 0.0457,0.21049 0.0676,0.31632 0.0909,0.43904 0.17842,0.88005 0.26247,1.3229 0.0249,0.13177 0.0484,0.26425 0.0728,0.39629 0.0597,0.3233 0.11744,0.6475 0.1734,0.97272 0.0145,0.0837 0.0283,0.16767 0.0425,0.25147 0.75058,-4.47468 1.16409,-9.12086 1.16409,-13.89549 0,-34.224116 -20.39023,-62.267797 -45.27418,-62.267797 z"
         id="path4993"
         inkscape:connector-curvature="0"
         sodipodi:nodetypes="cccccccsscccccccccccccccccccccccccccccccccccccccccccccccscccsscccccccccccccccccccccccccsccccccccscccccccccccccccccccccccccccccccccccccccccccccccccccssc" />
      <path
         sodipodi:nodetypes="ccccccccsccccsccccsccccccccccccccccccccccccccccccccccccccccccccccccccccccccccccccccccccccccccccccccccccccscsccssscccc"
         id="path5089"
         d="m 144.19443,125.85359 c -0.11667,-4.56414 2.40064,57.50003 -36.12809,51.15015 0.69257,-0.0116 1.38287,-0.0337 2.0678,-0.0765 0.9336,-0.0583 1.8597,-0.14511 2.77768,-0.25985 0.91795,-0.11475 1.82789,-0.25696 2.72841,-0.42645 0.90053,-0.16948 1.79205,-0.36638 2.67342,-0.58885 0.88136,-0.22247 1.75222,-0.47075 2.61266,-0.74445 0.86041,-0.2737 1.70993,-0.57268 2.54767,-0.89585 0.83775,-0.32318 1.66419,-0.67061 2.47748,-1.0415 0.81331,-0.3709 1.6139,-0.76505 2.401,-1.1819 0.7871,-0.41687 1.56063,-0.85653 2.31981,-1.31759 0.75915,-0.46106 1.5039,-0.94346 2.23333,-1.44699 0.72946,-0.50352 1.44368,-1.02798 2.14167,-1.57219 0.698,-0.54423 1.37947,-1.10849 2.04423,-1.69165 0.66476,-0.58317 1.31278,-1.18551 1.94259,-1.80586 0.62979,-0.62035 1.2416,-1.25851 1.83467,-1.91429 0.59308,-0.65579 1.16744,-1.3291 1.72205,-2.01856 0.55454,-0.68946 1.08926,-1.39515 1.60362,-2.11653 0,-9.4e-4 0.003,-0.002 0.003,-0.004 0,-9.5e-4 0.003,-0.002 0.003,-0.004 0.005,-0.007 0.0104,-0.0155 0.0158,-0.023 0.18688,-0.26255 0.37079,-0.5271 0.55219,-0.79371 0.0587,-0.0863 0.11635,-0.17317 0.17446,-0.25985 0.12092,-0.18035 0.2405,-0.36165 0.35886,-0.5438 0.0745,-0.11462 0.14863,-0.22938 0.22213,-0.34471 0.11537,-0.18107 0.22926,-0.36311 0.34211,-0.54591 0.0582,-0.0941 0.117,-0.18777 0.17445,-0.28237 0.16615,-0.27349 0.32942,-0.54898 0.48982,-0.82618 0.0466,-0.0805 0.0921,-0.16173 0.13833,-0.24255 0.12114,-0.21226 0.24108,-0.42534 0.35887,-0.63968 0.0553,-0.10056 0.10944,-0.20175 0.16397,-0.30281 0.10788,-0.19994 0.2141,-0.40077 0.31903,-0.60247 0.0517,-0.0991 0.10367,-0.19798 0.15456,-0.29757 0.13111,-0.25657 0.25978,-0.51447 0.38612,-0.77379 0.019,-0.0392 0.039,-0.078 0.0582,-0.11735 0.003,-0.003 0.003,-0.007 0.005,-0.009 0.14126,-0.2923 0.27878,-0.58707 0.41389,-0.88276 0.0445,-0.0971 0.0878,-0.19483 0.13151,-0.29233 0.094,-0.20985 0.18669,-0.42032 0.27764,-0.63182 0.0473,-0.11016 0.0944,-0.22048 0.14094,-0.33109 0.0954,-0.22677 0.18848,-0.45456 0.28028,-0.68315 0.032,-0.0797 0.0654,-0.159 0.0969,-0.23891 0.12079,-0.30593 0.23884,-0.61347 0.35314,-0.92256 0.033,-0.0891 0.064,-0.17891 0.0964,-0.26824 0.083,-0.22921 0.16469,-0.45908 0.24414,-0.68997 0.0397,-0.11537 0.0786,-0.23104 0.11736,-0.34681 0.0711,-0.21202 0.14004,-0.42473 0.20799,-0.63809 0.0353,-0.11081 0.0709,-0.22151 0.1053,-0.33268 0.0806,-0.26023 0.15869,-0.52156 0.2347,-0.78374 0.0182,-0.0633 0.0379,-0.12622 0.056,-0.18965 0.0927,-0.3249 0.18122,-0.65139 0.26668,-0.97916 0.0209,-0.0798 0.0405,-0.15999 0.0608,-0.23994 0.0634,-0.2488 0.12515,-0.49824 0.18441,-0.74863 0.0139,-0.0584 0.0273,-0.11699 0.0409,-0.17551 -1.35154,-5.86022 -3.83435,-11.30255 -7.22865,-16.06304 z m -36.12809,51.15015 c -0.25145,0.004 -0.502,0.0116 -0.75441,0.0116 0.25252,0 0.50383,-0.005 0.75441,-0.0116 z m -0.75441,0.0116 c -0.25241,0 -0.50293,-0.008 -0.7544,-0.0116 0.25058,0.008 0.50189,0.0116 0.7544,0.0116 z m -0.7544,-0.0116 c -40.572354,7.10244 -35.877702,-55.28897 -36.128777,-51.14901 -3.393328,4.7594 -5.875256,10.20017 -7.226933,16.05875 0.01422,0.0609 0.02806,0.12197 0.04244,0.18284 0.05598,0.23647 0.113731,0.47219 0.173412,0.70725 0.02441,0.096 0.0478,0.19234 0.07283,0.28814 0.08404,0.322 0.171508,0.64265 0.262466,0.96187 0.02199,0.077 0.04528,0.15325 0.06759,0.22999 0.07197,0.24752 0.145517,0.49446 0.221614,0.74026 0.0371,0.11978 0.07561,0.23898 0.113676,0.35834 0.06456,0.20264 0.13012,0.40472 0.197501,0.60614 0.04118,0.12312 0.08251,0.24616 0.124701,0.36882 0.08434,0.24492 0.17089,0.48883 0.259327,0.73187 0.02495,0.0688 0.04892,0.13823 0.07438,0.20694 0.11365,0.3078 0.230868,0.61372 0.351009,0.91839 0.0379,0.0962 0.07723,0.19176 0.115769,0.28761 0.08922,0.22171 0.17985,0.44274 0.272444,0.66272 0.04359,0.10359 0.08768,0.20694 0.131996,0.31015 0.0953,0.22168 0.192591,0.44231 0.291301,0.66219 0.03924,0.0874 0.07803,0.17487 0.117861,0.26196 0.125989,0.27592 0.254259,0.55057 0.385585,0.82355 0.011,0.0228 0.02146,0.0458 0.03249,0.0686 0.03578,0.074 0.07283,0.14728 0.108982,0.22108 0.111129,0.2268 0.223653,0.45271 0.338429,0.6774 0.05231,0.10235 0.105684,0.20402 0.15874,0.30595 0.104638,0.20102 0.210965,0.4011 0.318527,0.60037 0.05383,0.0997 0.107373,0.19941 0.161878,0.29862 0.125291,0.22801 0.252863,0.45439 0.38191,0.68002 0.03549,0.062 0.07006,0.12466 0.105843,0.1865 0.163032,0.28193 0.329309,0.56224 0.498216,0.84032 0.0514,0.0847 0.104208,0.16827 0.156111,0.25252 0.126311,0.20492 0.253533,0.40912 0.382983,0.6119 0.05971,0.0936 0.119818,0.18669 0.180198,0.27976 0.127115,0.19598 0.256055,0.39075 0.386121,0.58467 0.05738,0.0854 0.114454,0.17109 0.172366,0.25618 0.168906,0.24818 0.339743,0.49455 0.513397,0.73921 0.0169,0.0237 0.03285,0.0481 0.04978,0.0718 0.0027,0.002 0.0032,0.005 0.0051,0.007 0.514335,0.72142 1.049567,1.42756 1.604164,2.11705 0.55457,0.68949 1.12842,1.36221 1.721481,2.01802 0.593089,0.65582 1.205411,1.29445 1.835193,1.91483 0.629811,0.62038 1.277301,1.22266 1.94209,1.80586 0.66476,0.58319 1.346735,1.1474 2.044729,1.69164 0.698004,0.54425 1.412226,1.06866 2.141681,1.5722 0.729456,0.50355 1.474182,0.98642 2.233354,1.44751 0.759154,0.46109 1.532659,0.90019 2.319785,1.31707 0.787126,0.41688 1.587665,0.8115 2.401001,1.18242 0.813308,0.37092 1.639194,0.7183 2.476967,1.0415 0.837745,0.32319 1.687234,0.62213 2.547672,0.89585 0.860438,0.27372 1.731786,0.52197 2.613173,0.74445 0.881386,0.22249 1.772858,0.41884 2.673421,0.58833 0.900563,0.1695 1.810436,0.31222 2.728426,0.42697 0.91798,0.11475 1.84402,0.2016 2.77767,0.25985 0.68495,0.0428 1.37524,0.0649 2.0678,0.0765 z"
         style="color:#000000;font-style:normal;font-variant:normal;font-weight:normal;font-stretch:normal;font-size:medium;line-height:normal;font-family:sans-serif;font-variant-ligatures:normal;font-variant-position:normal;font-variant-caps:normal;font-variant-numeric:normal;font-variant-alternates:normal;font-feature-settings:normal;text-indent:0;text-align:start;text-decoration:none;text-decoration-line:none;text-decoration-style:solid;text-decoration-color:#000000;letter-spacing:normal;word-spacing:normal;text-transform:none;writing-mode:lr-tb;direction:ltr;text-orientation:mixed;dominant-baseline:auto;baseline-shift:baseline;text-anchor:start;white-space:normal;shape-padding:0;clip-rule:nonzero;display:inline;overflow:visible;visibility:visible;opacity:1;isolation:auto;mix-blend-mode:normal;color-interpolation:sRGB;color-interpolation-filters:linearRGB;solid-color:#000000;solid-opacity:1;fill:url(#linearGradient5095);fill-opacity:1;fill-rule:nonzero;stroke:none;stroke-width:20.2758;stroke-linecap:round;stroke-linejoin:round;stroke-miterlimit:4;stroke-dasharray:none;stroke-dashoffset:0;stroke-opacity:1;color-rendering:auto;image-rendering:auto;shape-rendering:auto;text-rendering:auto;enable-background:accumulate"
         inkscape:connector-curvature="0" />
      <path
         id="path5091"
         d="m 63.20182,141.91348 c -0.750649,3.25363 -1.164076,6.63202 -1.164076,10.10377 0,24.88395 20.390233,45.27419 45.274186,45.27419 24.88395,0 45.27418,-20.39024 45.27418,-45.27419 0,-3.47061 -0.41286,-6.84796 -1.16303,-10.10063 -0.0137,0.0585 -0.027,0.11708 -0.0409,0.17551 -0.0592,0.25039 -0.12102,0.49983 -0.1844,0.74864 -0.0201,0.0799 -0.04,0.16016 -0.0608,0.23994 -0.0854,0.32777 -0.174,0.65425 -0.26668,0.97916 -0.0182,0.0634 -0.0377,0.12628 -0.056,0.18965 -0.076,0.26217 -0.15413,0.5235 -0.2347,0.78373 -0.0344,0.11118 -0.0701,0.22187 -0.10532,0.33268 -0.068,0.21336 -0.13693,0.42609 -0.20798,0.6381 -0.0388,0.11577 -0.0776,0.23145 -0.11735,0.34682 -0.0794,0.23087 -0.16111,0.46074 -0.24415,0.68996 -0.0324,0.0893 -0.0634,0.17912 -0.0964,0.26823 -0.11429,0.3091 -0.23234,0.61663 -0.35312,0.92258 -0.0316,0.0799 -0.0648,0.15921 -0.0969,0.23889 -0.0917,0.2286 -0.18486,0.45638 -0.28027,0.68315 -0.0465,0.11061 -0.0936,0.22093 -0.14093,0.3311 -0.091,0.2115 -0.18358,0.42197 -0.27764,0.63181 -0.0437,0.0975 -0.0871,0.19522 -0.13153,0.29234 -0.1351,0.29569 -0.27262,0.59045 -0.41387,0.88275 -0.003,0.003 -0.003,0.007 -0.005,0.009 -0.019,0.0392 -0.039,0.0781 -0.0581,0.11735 -0.12634,0.25932 -0.25502,0.51722 -0.38612,0.77379 -0.0509,0.0996 -0.10295,0.19843 -0.15456,0.29757 -0.10493,0.20171 -0.21115,0.40254 -0.31904,0.60247 -0.0545,0.10106 -0.10874,0.20225 -0.16397,0.30281 -0.11777,0.21435 -0.23773,0.42744 -0.35887,0.63968 -0.0462,0.0809 -0.0917,0.16207 -0.13832,0.24256 -0.16043,0.27719 -0.32368,0.55269 -0.48982,0.82617 -0.0574,0.0946 -0.11628,0.1882 -0.17446,0.28239 -0.11284,0.18278 -0.22673,0.36482 -0.3421,0.54589 -0.0735,0.11533 -0.14761,0.2301 -0.22213,0.34473 -0.11837,0.18214 -0.23794,0.36343 -0.35887,0.54379 -0.0581,0.0866 -0.11576,0.17357 -0.17445,0.25985 -0.18141,0.2666 -0.36531,0.53116 -0.55219,0.7937 -0.006,0.008 -0.0107,0.0159 -0.0158,0.023 0,0.002 -0.003,0.003 -0.003,0.004 0,0.002 -0.003,0.003 -0.003,0.004 -0.51436,0.72138 -1.04906,1.42706 -1.60363,2.11651 -0.5546,0.68946 -1.12896,1.36277 -1.72205,2.01856 -0.59306,0.65578 -1.20487,1.29394 -1.83466,1.91429 -0.62981,0.62036 -1.27783,1.2227 -1.94259,1.80586 -0.66476,0.58316 -1.34623,1.14743 -2.04422,1.69165 -0.698,0.54422 -1.41222,1.06868 -2.14169,1.5722 -0.72942,0.50352 -1.47417,0.98592 -2.23332,1.44698 -0.75918,0.46108 -1.53271,0.90074 -2.31981,1.31759 -0.7871,0.41686 -1.5877,0.811 -2.40101,1.1819 -0.81327,0.3709 -1.63973,0.71832 -2.47746,1.0415 -0.83775,0.32317 -1.68727,0.62215 -2.54768,0.89585 -0.86043,0.2737 -1.73131,0.52198 -2.61267,0.74445 -0.88135,0.22248 -1.77287,0.41937 -2.67342,0.58886 -0.9005,0.16948 -1.81046,0.3117 -2.7284,0.42644 -0.91797,0.11476 -1.84407,0.2016 -2.77768,0.25985 -0.93362,0.0583 -1.87468,0.088 -2.82222,0.088 -0.94755,0 -1.88854,-0.0298 -2.82221,-0.088 -0.93363,-0.0583 -1.85967,-0.14509 -2.77765,-0.25985 -0.918,-0.11475 -1.827866,-0.25747 -2.728429,-0.42697 -0.900562,-0.16949 -1.792035,-0.36584 -2.673421,-0.58833 -0.881387,-0.22248 -1.752744,-0.47073 -2.613173,-0.74445 -0.860437,-0.27372 -1.709936,-0.57266 -2.547671,-0.89585 -0.837774,-0.3232 -1.66366,-0.67058 -2.476968,-1.0415 -0.813336,-0.37091 -1.613875,-0.76554 -2.401001,-1.18242 -0.787136,-0.41688 -1.560631,-0.85597 -2.319784,-1.31707 -0.759182,-0.46109 -1.503899,-0.94395 -2.233354,-1.4475 -0.729465,-0.50355 -1.443688,-1.02796 -2.141682,-1.57221 -0.697994,-0.54424 -1.379978,-1.10845 -2.044739,-1.69164 -0.664779,-0.58319 -1.312269,-1.18548 -1.942079,-1.80586 -0.629783,-0.62038 -1.242105,-1.259 -1.835194,-1.91481 -0.59306,-0.65583 -1.166917,-1.32855 -1.721489,-2.01804 -0.554597,-0.68949 -1.089828,-1.39563 -1.604164,-2.11705 -0.0027,-0.002 -0.0032,-0.005 -0.0051,-0.007 -0.0169,-0.0237 -0.03294,-0.0481 -0.04978,-0.0718 -0.173653,-0.24466 -0.34449,-0.49103 -0.513397,-0.73921 -0.05791,-0.0851 -0.114991,-0.17072 -0.172366,-0.25618 -0.130066,-0.19391 -0.259005,-0.38869 -0.386121,-0.58466 -0.06038,-0.0931 -0.12049,-0.18619 -0.180198,-0.27977 -0.129449,-0.20278 -0.256671,-0.40696 -0.382982,-0.6119 -0.05191,-0.0843 -0.104718,-0.16786 -0.156112,-0.25252 -0.168906,-0.27808 -0.335183,-0.55839 -0.498215,-0.84032 -0.03578,-0.0618 -0.07035,-0.12446 -0.105844,-0.1865 -0.129047,-0.22563 -0.256618,-0.45201 -0.381909,-0.68001 -0.0545,-0.0992 -0.108045,-0.19896 -0.161879,-0.29861 -0.107561,-0.19928 -0.213888,-0.39937 -0.318526,-0.60039 -0.05306,-0.10193 -0.106435,-0.20359 -0.15874,-0.30595 -0.114776,-0.22469 -0.2273,-0.4506 -0.338429,-0.6774 -0.03615,-0.0738 -0.0732,-0.14707 -0.108983,-0.22108 -0.011,-0.0228 -0.02146,-0.0458 -0.03248,-0.0686 -0.131327,-0.27298 -0.259596,-0.54763 -0.385585,-0.82355 -0.03983,-0.0871 -0.07862,-0.17456 -0.117861,-0.26196 -0.09871,-0.21987 -0.195998,-0.4405 -0.291301,-0.66219 -0.04431,-0.10321 -0.08841,-0.20656 -0.131997,-0.31014 -0.09259,-0.21999 -0.18323,-0.44102 -0.272443,-0.66273 -0.03854,-0.0958 -0.07787,-0.19141 -0.11577,-0.28761 -0.120141,-0.30467 -0.237358,-0.61059 -0.351008,-0.91839 -0.02548,-0.0687 -0.04936,-0.1381 -0.07438,-0.20693 -0.08844,-0.24305 -0.174995,-0.48696 -0.259326,-0.73188 -0.04219,-0.12266 -0.08353,-0.2457 -0.124702,-0.36882 -0.06738,-0.20142 -0.132936,-0.4035 -0.197499,-0.60614 -0.03806,-0.11936 -0.07658,-0.23856 -0.113677,-0.35834 -0.0761,-0.2458 -0.149647,-0.49273 -0.221614,-0.74026 -0.02227,-0.0768 -0.04568,-0.15304 -0.0676,-0.22998 -0.09096,-0.31923 -0.178428,-0.63988 -0.262465,-0.96188 -0.02495,-0.0958 -0.04839,-0.19213 -0.07283,-0.28813 -0.05968,-0.23507 -0.117432,-0.47079 -0.173413,-0.70726 -0.01448,-0.0608 -0.02825,-0.1219 -0.04244,-0.18283 z"
         style="color:#000000;font-style:normal;font-variant:normal;font-weight:normal;font-stretch:normal;font-size:medium;line-height:normal;font-family:sans-serif;font-variant-ligatures:normal;font-variant-position:normal;font-variant-caps:normal;font-variant-numeric:normal;font-variant-alternates:normal;font-feature-settings:normal;text-indent:0;text-align:start;text-decoration:none;text-decoration-line:none;text-decoration-style:solid;text-decoration-color:#000000;letter-spacing:normal;word-spacing:normal;text-transform:none;writing-mode:lr-tb;direction:ltr;text-orientation:mixed;dominant-baseline:auto;baseline-shift:baseline;text-anchor:start;white-space:normal;shape-padding:0;clip-rule:nonzero;display:inline;overflow:visible;visibility:visible;opacity:1;isolation:auto;mix-blend-mode:normal;color-interpolation:sRGB;color-interpolation-filters:linearRGB;solid-color:#000000;solid-opacity:1;fill:url(#linearGradient5097);fill-opacity:1;fill-rule:nonzero;stroke:none;stroke-width:20.2758;stroke-linecap:round;stroke-linejoin:round;stroke-miterlimit:4;stroke-dasharray:none;stroke-dashoffset:0;stroke-opacity:1;color-rendering:auto;image-rendering:auto;shape-rendering:auto;text-rendering:auto;enable-background:accumulate"
         inkscape:connector-curvature="0" />
      <path
         inkscape:connector-curvature="0"
         id="path5470"
         d="m 69.648132,45.077364 c -35.58123,30.156749 -16.11383,53.517879 0.82019,80.777636 -3.39334,-6.54585 -42.778304,-24.46136 -44.129984,-32.518937 0.0142,-0.0838 0.0283,-0.16759 0.0427,-0.25129 0.0559,-0.32524 0.11372,-0.64956 0.1734,-0.97284 0.0245,-0.13204 0.0481,-0.26452 0.073,-0.39628 0.0841,-0.44286 0.17112,-0.88354 0.26207,-1.32258 0.022,-0.10587 0.0453,-0.21091 0.0676,-0.31644 0.0719,-0.34045 0.1458,-0.68034 0.2219,-1.01839 0.0371,-0.16475 0.0756,-0.32862 0.11365,-0.49279 0.0646,-0.27871 0.13002,-0.55669 0.19741,-0.83372 0.0411,-0.16933 0.0828,-0.33829 0.12491,-0.50699 0.0844,-0.33685 0.1707,-0.67236 0.25912,-1.00663 0.0249,-0.0947 0.049,-0.19012 0.0744,-0.2846 0.11365,-0.42333 0.23059,-0.8443 0.35074,-1.26332 0.0379,-0.13233 0.0775,-0.26348 0.11609,-0.39531 0.0892,-0.30492 0.17976,-0.60905 0.27236,-0.91161 0.0436,-0.14247 0.0874,-0.2847 0.13176,-0.42665 0.0953,-0.30489 0.19276,-0.60823 0.29146,-0.91062 0.0392,-0.12021 0.0782,-0.24029 0.11805,-0.36004 0.12601,-0.37949 0.254194,-0.75757 0.385524,-1.13302 0.0111,-0.0314 0.0214,-0.0626 0.0323,-0.094 0.0358,-0.10182 0.0731,-0.20269 0.10924,-0.30419 0.11113,-0.31193 0.22321,-0.62268 0.33799,-0.93169 0.0523,-0.14079 0.10566,-0.28061 0.15871,-0.42078 0.10464,-0.2765 0.21134,-0.55181 0.3189,-0.82588 0.0538,-0.13707 0.10713,-0.274 0.16165,-0.41049 0.12528,-0.31357 0.25302,-0.62481 0.38207,-0.93512 0.0355,-0.0854 0.0701,-0.17163 0.10581,-0.25668 0.16303,-0.38775 0.32927,-0.77356 0.49817,-1.15604 0.0514,-0.11642 0.10437,-0.23143 0.15626,-0.3473 0.12631,-0.28184 0.25361,-0.56266 0.38307,-0.84156 0.0597,-0.12867 0.11938,-0.25653 0.17977,-0.38453 0.12711,-0.26952 0.25643,-0.53763 0.38649,-0.80432 0.0573,-0.11759 0.11451,-0.23518 0.17242,-0.3522 0.1689,-0.34135 0.33971,-0.67993 0.51336,-1.01643 0.017,-0.0326 0.0325,-0.0663 0.0495,-0.099 0.003,-0.003 0.003,-0.005 0.005,-0.008 0.51434,-0.99222 1.04965,-1.96337 1.60425,-2.91165 0.55457,-0.94829 1.12826,-1.87349 1.72132,-2.77548 0.5931,-0.90196 1.20568,-1.78065 1.83546,-2.6339 0.62981,-0.85324 1.27698,-1.68143 1.94175,-2.48353 0.66477,-0.80208 1.34663,-1.57824 2.04462,-2.32676 0.698,-0.74854 1.41264,-1.46963 2.1421,-2.16219 0.72945,-0.69255 1.47403,-1.35657 2.23321,-1.99073 0.75915,-0.63416 1.53278,-1.23811 2.31991,-1.81146 0.78713,-0.57337 1.58742,-1.116164 2.40074,-1.626294 0.81331,-0.51015 1.63938,-0.98781 2.47715,-1.43231 0.83775,-0.44451 1.68726,-0.85598 2.54769,-1.23245 0.86045,-0.37644 1.73146,-0.71778 2.61284,-1.02378 0.88139,-0.306 1.77302,-0.57611 2.67359,-0.809224 0.90056,-0.233129 1.81045,-0.429001 2.72844,-0.586838 0.91798,-0.157821 1.84428,-0.277471 2.77792,-0.357588 0.66991,-0.05755 1.34485,-0.08754 2.0221,-0.103847 z"
         style="color:#000000;font-style:normal;font-variant:normal;font-weight:normal;font-stretch:normal;font-size:medium;line-height:normal;font-family:sans-serif;font-variant-ligatures:normal;font-variant-position:normal;font-variant-caps:normal;font-variant-numeric:normal;font-variant-alternates:normal;font-feature-settings:normal;text-indent:0;text-align:start;text-decoration:none;text-decoration-line:none;text-decoration-style:solid;text-decoration-color:#000000;letter-spacing:normal;word-spacing:normal;text-transform:none;writing-mode:lr-tb;direction:ltr;text-orientation:mixed;dominant-baseline:auto;baseline-shift:baseline;text-anchor:start;white-space:normal;shape-padding:0;clip-rule:nonzero;display:inline;overflow:visible;visibility:visible;opacity:1;isolation:auto;mix-blend-mode:normal;color-interpolation:sRGB;color-interpolation-filters:linearRGB;solid-color:#000000;solid-opacity:1;fill:url(#linearGradient5472);fill-opacity:1;fill-rule:nonzero;stroke:none;stroke-width:23.7785;stroke-linecap:round;stroke-linejoin:round;stroke-miterlimit:4;stroke-dasharray:none;stroke-dashoffset:0;stroke-opacity:1;color-rendering:auto;image-rendering:auto;shape-rendering:auto;text-rendering:auto;enable-background:accumulate" />
    </g>
  </g>
</svg>
