{
    "asset" : {
        "version" : "2.0",
        "generator" : "Khronos glTF Blender I/O v1.2.20"
    },
    "extensionsUsed" : [
        "KHR_materials_unlit"
    ],
    "scene" : 0,
    "scenes" : [
        {
            "name" : "Scene",
            "nodes" : [
                1
            ]
        }
    ],
    "nodes" : [
        {
            "mesh" : 0,
            "name" : "ThornsCollider -colonly"
        },
        {
            "mesh" : 1,
            "children" : [
                0
            ],
            "name" : "ThornsMesh"
        }
    ],
    "materials" : [
        {
            "pbrMetallicRoughness" : {
                "baseColorTexture" : {
                    "index" : 0,
                    "texCoord" : 0
                }
            },
            "extensions" : {
                "KHR_materials_unlit" : {}
            },
            "name" : "thorns"
        }
    ],
    "meshes" : [
        {
            "primitives" : [
                {
                    "attributes" : {
                        "NORMAL" : 0,
                        "POSITION" : 1
                    },
                    "indices" : 2
                }
            ],
            "name" : "ThornsCollider.001"
        },
        {
            "primitives" : [
                {
                    "attributes" : {
                        "NORMAL" : 3,
                        "POSITION" : 4,
                        "TEXCOORD_0" : 5
                    },
                    "material" : 0,
                    "indices" : 6
                }
            ],
            "name" : "ThornsMesh.001"
        }
    ],
    "textures" : [
        {
            "sampler" : 0,
            "source" : 0
        }
    ],
    "images" : [
        {
            "mimeType" : "image/png",
            "uri" : "thorns.png",
            "name" : "thorns.png"
        }
    ],
    "accessors" : [
        {
            "count" : 48,
            "type" : "VEC3",
            "bufferView" : 0,
            "componentType" : 5126
        },
        {
            "count" : 48,
            "type" : "VEC3",
            "max" : [
                0.8999999761581421,
                0.6640121340751648,
                0.8999999761581421
            ],
            "componentType" : 5126,
            "bufferView" : 1,
            "min" : [
                -0.8999999761581421,
                0,
                -0.8999999761581421
            ]
        },
        {
            "count" : 72,
            "type" : "SCALAR",
            "bufferView" : 2,
            "componentType" : 5123
        },
        {
            "count" : 1370,
            "type" : "VEC3",
            "bufferView" : 3,
            "componentType" : 5126
        },
        {
            "count" : 1370,
            "type" : "VEC3",
            "max" : [
                1.011612892150879,
                0.7741423845291138,
                1.048155426979065
            ],
            "componentType" : 5126,
            "bufferView" : 4,
            "min" : [
                -1.026313304901123,
                -0.016970857977867126,
                -1.0276768207550049
            ]
        },
        {
            "count" : 1370,
            "type" : "VEC2",
            "bufferView" : 5,
            "componentType" : 5126
        },
        {
            "count" : 1800,
            "type" : "SCALAR",
            "bufferView" : 6,
            "componentType" : 5123
        }
    ],
    "bufferViews" : [
        {
            "byteLength" : 576,
            "buffer" : 0,
            "byteOffset" : 0
        },
        {
            "byteLength" : 576,
            "buffer" : 0,
            "byteOffset" : 576
        },
        {
            "byteLength" : 144,
            "buffer" : 0,
            "byteOffset" : 1152
        },
        {
            "byteLength" : 16440,
            "buffer" : 0,
            "byteOffset" : 1296
        },
        {
            "byteLength" : 16440,
            "buffer" : 0,
            "byteOffset" : 17736
        },
        {
            "byteLength" : 10960,
            "buffer" : 0,
            "byteOffset" : 34176
        },
        {
            "byteLength" : 3600,
            "buffer" : 0,
            "byteOffset" : 45136
        }
    ],
    "samplers" : [
        {
            "wrapS" : 10497,
            "wrapT" : 10497,
            "minFilter" : 9986,
            "magFilter" : 9729
        }
    ],
    "buffers" : [
        {
            "byteLength" : 48736,
            "uri" : "thorns.bin"
        }
    ]
}
