{
    "asset" : {
        "generator" : "Khronos glTF Blender I/O v1.2.20",
        "version" : "2.0"
    },
    "extensionsUsed" : [
        "KHR_materials_unlit"
    ],
    "scene" : 0,
    "scenes" : [
        {
            "nodes" : [
                0
            ],
            "name" : "Scene"
        }
    ],
    "nodes" : [
        {
            "name" : "Grass2Mesh",
            "mesh" : 0
        }
    ],
    "materials" : [
        {
            "name" : "grass",
            "extensions" : {
                "KHR_materials_unlit" : {}
            },
            "pbrMetallicRoughness" : {
                "baseColorTexture" : {
                    "texCoord" : 0,
                    "index" : 0
                }
            }
        }
    ],
    "meshes" : [
        {
            "name" : "Grass2Mesh.001",
            "primitives" : [
                {
                    "attributes" : {
                        "POSITION" : 0,
                        "TEXCOORD_0" : 1,
                        "NORMAL" : 2
                    },
                    "indices" : 3,
                    "material" : 0
                }
            ]
        }
    ],
    "textures" : [
        {
            "sampler" : 0,
            "source" : 0
        }
    ],
    "images" : [
        {
            "uri" : "grass.png",
            "mimeType" : "image/png",
            "name" : "grass.png"
        }
    ],
    "accessors" : [
        {
            "max" : [
                0.8325732946395874,
                0.38065388798713684,
                0.7685720324516296
            ],
            "type" : "VEC3",
            "bufferView" : 0,
            "count" : 312,
            "min" : [
                -0.8655706644058228,
                -0.04430738836526871,
                -0.8008701801300049
            ],
            "componentType" : 5126
        },
        {
            "type" : "VEC2",
            "count" : 312,
            "componentType" : 5126,
            "bufferView" : 1
        },
        {
            "type" : "VEC3",
            "count" : 312,
            "componentType" : 5126,
            "bufferView" : 2
        },
        {
            "type" : "SCALAR",
            "count" : 468,
            "componentType" : 5123,
            "bufferView" : 3
        }
    ],
    "bufferViews" : [
        {
            "byteOffset" : 0,
            "byteLength" : 3744,
            "buffer" : 0
        },
        {
            "byteOffset" : 3744,
            "byteLength" : 2496,
            "buffer" : 0
        },
        {
            "byteOffset" : 6240,
            "byteLength" : 3744,
            "buffer" : 0
        },
        {
            "byteOffset" : 9984,
            "byteLength" : 936,
            "buffer" : 0
        }
    ],
    "samplers" : [
        {
            "wrapT" : 10497,
            "magFilter" : 9729,
            "minFilter" : 9986,
            "wrapS" : 10497
        }
    ],
    "buffers" : [
        {
            "uri" : "grass_2.bin",
            "byteLength" : 10920
        }
    ]
}
