{
    "asset" : {
        "generator" : "Khronos glTF Blender I/O v1.2.20",
        "version" : "2.0"
    },
    "extensionsUsed" : [
        "KHR_materials_unlit"
    ],
    "scene" : 0,
    "scenes" : [
        {
            "nodes" : [
                0
            ],
            "name" : "Scene"
        }
    ],
    "nodes" : [
        {
            "mesh" : 0,
            "name" : "Grass1Mesh"
        }
    ],
    "materials" : [
        {
            "pbrMetallicRoughness" : {
                "baseColorTexture" : {
                    "texCoord" : 0,
                    "index" : 0
                }
            },
            "extensions" : {
                "KHR_materials_unlit" : {}
            },
            "name" : "grass.002"
        }
    ],
    "meshes" : [
        {
            "primitives" : [
                {
                    "attributes" : {
                        "POSITION" : 0,
                        "TEXCOORD_0" : 1,
                        "NORMAL" : 2
                    },
                    "material" : 0,
                    "indices" : 3
                }
            ],
            "name" : "Grass1Mesh.001"
        }
    ],
    "textures" : [
        {
            "sampler" : 0,
            "source" : 0
        }
    ],
    "images" : [
        {
            "name" : "grass_autumn.png",
            "mimeType" : "image/png",
            "uri" : "grass_autumn.png"
        }
    ],
    "accessors" : [
        {
            "count" : 240,
            "min" : [
                -0.7570652961730957,
                -0.022004442289471626,
                -0.7830392122268677
            ],
            "max" : [
                0.8288808465003967,
                0.3684206008911133,
                0.7651634812355042
            ],
            "bufferView" : 0,
            "type" : "VEC3",
            "componentType" : 5126
        },
        {
            "bufferView" : 1,
            "type" : "VEC2",
            "count" : 240,
            "componentType" : 5126
        },
        {
            "bufferView" : 2,
            "type" : "VEC3",
            "count" : 240,
            "componentType" : 5126
        },
        {
            "bufferView" : 3,
            "type" : "SCALAR",
            "count" : 360,
            "componentType" : 5123
        }
    ],
    "bufferViews" : [
        {
            "byteLength" : 2880,
            "buffer" : 0,
            "byteOffset" : 0
        },
        {
            "byteLength" : 1920,
            "buffer" : 0,
            "byteOffset" : 2880
        },
        {
            "byteLength" : 2880,
            "buffer" : 0,
            "byteOffset" : 4800
        },
        {
            "byteLength" : 720,
            "buffer" : 0,
            "byteOffset" : 7680
        }
    ],
    "samplers" : [
        {
            "minFilter" : 9986,
            "wrapT" : 10497,
            "wrapS" : 10497,
            "magFilter" : 9729
        }
    ],
    "buffers" : [
        {
            "byteLength" : 8400,
            "uri" : "grass_autumn_1.bin"
        }
    ]
}
