<?xml version="1.0" encoding="UTF-8" standalone="no"?>
<!-- Generator: Adobe Illustrator 18.1.1, SVG Export Plug-In . SVG Version: 6.00 Build 0)  -->

<svg
   version="1.1"
   id="Capa_1"
   x="0px"
   y="0px"
   viewBox="0 0 249.316 249.316"
   style="enable-background:new 0 0 249.316 249.316;"
   xml:space="preserve"
   sodipodi:docname="sound-button-svgrepo-com.svg"
   inkscape:version="1.2.1 (9c6d41e410, 2022-07-14)"
   xmlns:inkscape="http://www.inkscape.org/namespaces/inkscape"
   xmlns:sodipodi="http://sodipodi.sourceforge.net/DTD/sodipodi-0.dtd"
   xmlns="http://www.w3.org/2000/svg"
   xmlns:svg="http://www.w3.org/2000/svg"><defs
   id="defs59">
		
		
		
		
		
	</defs><sodipodi:namedview
   id="namedview57"
   pagecolor="#ffffff"
   bordercolor="#111111"
   borderopacity="1"
   inkscape:showpageshadow="0"
   inkscape:pageopacity="0"
   inkscape:pagecheckerboard="1"
   inkscape:deskcolor="#d1d1d1"
   showgrid="false"
   inkscape:zoom="2.6833417"
   inkscape:cx="124.84433"
   inkscape:cy="124.84433"
   inkscape:window-width="1600"
   inkscape:window-height="835"
   inkscape:window-x="0"
   inkscape:window-y="0"
   inkscape:window-maximized="1"
   inkscape:current-layer="g24" />
<g
   id="g24">
	<path
   style="fill:#ffffff"
   d="M 124.663,0 C 55.919,0 0,55.924 0,124.652 c 0,68.744 55.919,124.663 124.663,124.663 68.733,0 124.652,-55.924 124.652,-124.663 C 249.316,55.919 193.397,0 124.663,0 Z m 0,226.184 c -55.995,0 -101.542,-45.547 -101.542,-101.531 0,-55.99 45.547,-101.531 101.542,-101.531 55.984,0 101.526,45.547 101.526,101.531 0,55.984 -45.541,101.531 -101.526,101.531 z"
   id="path2" /><g
   id="g8"
   style="fill:#ffffff">
			<path
   style="fill:#ffffff"
   d="m 104.419,87.145 c -1.403,-0.876 -2.937,-1.316 -4.46,-1.316 -2.04,0 -4.079,0.783 -5.798,2.312 L 72.307,107.76 c -1.202,-0.702 -2.594,-1.137 -4.085,-1.137 H 49.316 c -4.449,0 -8.066,3.601 -8.066,8.066 v 18.906 c 0,4.455 3.617,8.072 8.066,8.072 h 18.906 c 1.207,0 2.344,-0.288 3.367,-0.756 l 22.567,20.239 c 2.997,2.698 6.957,3.079 10.264,1.006 3.302,-2.056 5.379,-6.233 5.379,-10.802 V 97.958 c -0.001,-4.558 -2.078,-8.73 -5.38,-10.813 z"
   id="path4" />
			<path
   style="fill:#ffffff"
   d="m 99.947,163.978 v 0 c -2.222,0 -4.34,-0.85 -6.126,-2.459 L 71.494,141.497 c -1.067,0.444 -2.167,0.669 -3.272,0.669 H 49.316 c -4.723,0 -8.566,-3.845 -8.566,-8.571 v -18.906 c 0,-4.724 3.843,-8.566 8.566,-8.566 h 18.906 c 1.37,0 2.751,0.354 4.017,1.026 l 21.588,-19.38 c 1.77,-1.574 3.947,-2.439 6.132,-2.439 1.632,0 3.266,0.481 4.725,1.392 3.464,2.186 5.615,6.491 5.615,11.237 v 53.396 c 0,4.769 -2.151,9.07 -5.615,11.227 -1.46,0.912 -3.099,1.396 -4.737,1.396 z M 71.679,140.319 94.49,160.776 c 1.6,1.44 3.487,2.202 5.458,2.202 1.45,0 2.904,-0.431 4.206,-1.247 3.174,-1.976 5.145,-5.952 5.145,-10.378 V 97.958 c 0,-4.406 -1.972,-8.388 -5.146,-10.39 -1.298,-0.81 -2.749,-1.239 -4.193,-1.239 -1.968,0 -3.858,0.756 -5.466,2.185 l -22.124,19.86 -0.315,-0.184 c -1.198,-0.699 -2.523,-1.068 -3.833,-1.068 H 49.316 c -4.172,0 -7.566,3.394 -7.566,7.566 v 18.906 c 0,4.175 3.394,7.571 7.566,7.571 h 18.906 c 1.065,0 2.128,-0.239 3.159,-0.711 z"
   id="path6" />
		</g><g
   id="g12"
   style="fill:#ffffff">
			<path
   style="fill:#ffffff"
   d="m 155.595,164.069 c -1.779,0 -3.552,-0.68 -4.911,-2.034 -2.709,-2.714 -2.709,-7.109 0,-9.823 15.197,-15.191 15.191,-39.917 0,-55.109 -2.714,-2.714 -2.714,-7.109 0,-9.823 2.709,-2.714 7.109,-2.714 9.823,0 20.614,20.614 20.614,54.146 0.005,74.749 -1.365,1.36 -3.138,2.04 -4.917,2.04 z"
   id="path10" />
		</g><g
   id="g16"
   style="fill:#ffffff">
			<path
   style="fill:#ffffff"
   d="m 134.758,149.411 c -1.779,0 -3.557,-0.68 -4.911,-2.034 -2.714,-2.714 -2.714,-7.109 0,-9.823 3.448,-3.443 5.347,-8.023 5.347,-12.901 0,-4.868 -1.904,-9.453 -5.347,-12.901 -2.714,-2.714 -2.714,-7.109 0,-9.823 2.714,-2.714 7.114,-2.714 9.823,0 6.07,6.07 9.41,14.142 9.41,22.719 0,8.588 -3.34,16.654 -9.41,22.724 -1.36,1.359 -3.139,2.039 -4.912,2.039 z"
   id="path14" />
		</g><g
   id="g20"
   style="fill:#ffffff">
			<path
   style="fill:#ffffff"
   d="m 176.432,183.188 c -1.773,0 -3.546,-0.68 -4.906,-2.034 -2.714,-2.714 -2.714,-7.109 0,-9.823 12.466,-12.466 19.33,-29.034 19.33,-46.673 0,-17.639 -6.87,-34.212 -19.341,-46.678 -2.709,-2.714 -2.709,-7.109 0,-9.823 2.72,-2.714 7.114,-2.714 9.828,0 15.093,15.093 23.404,35.153 23.404,56.501 0,21.348 -8.305,41.408 -23.399,56.49 -1.358,1.36 -3.137,2.04 -4.916,2.04 z"
   id="path18" />
		</g>
</g>
<g
   id="g26">
</g>
<g
   id="g28">
</g>
<g
   id="g30">
</g>
<g
   id="g32">
</g>
<g
   id="g34">
</g>
<g
   id="g36">
</g>
<g
   id="g38">
</g>
<g
   id="g40">
</g>
<g
   id="g42">
</g>
<g
   id="g44">
</g>
<g
   id="g46">
</g>
<g
   id="g48">
</g>
<g
   id="g50">
</g>
<g
   id="g52">
</g>
<g
   id="g54">
</g>
</svg>
