{
    "asset" : {
        "version" : "2.0",
        "generator" : "Khronos glTF Blender I/O v1.2.20"
    },
    "extensionsUsed" : [
        "KHR_materials_unlit"
    ],
    "scene" : 0,
    "scenes" : [
        {
            "name" : "Scene",
            "nodes" : [
                0
            ]
        }
    ],
    "nodes" : [
        {
            "mesh" : 0,
            "rotation" : [
                -0.7071067690849304,
                0,
                0,
                0.7071067690849304
            ],
            "name" : "PlatformMesh"
        }
    ],
    "materials" : [
        {
            "pbrMetallicRoughness" : {
                "baseColorTexture" : {
                    "texCoord" : 0,
                    "index" : 0
                }
            },
            "extensions" : {
                "KHR_materials_unlit" : {}
            },
            "name" : "wood"
        }
    ],
    "meshes" : [
        {
            "primitives" : [
                {
                    "indices" : 3,
                    "material" : 0,
                    "attributes" : {
                        "TEXCOORD_0" : 0,
                        "POSITION" : 1,
                        "NORMAL" : 2
                    }
                }
            ],
            "name" : "PlatformMesh.001"
        }
    ],
    "textures" : [
        {
            "source" : 0,
            "sampler" : 0
        }
    ],
    "images" : [
        {
            "mimeType" : "image/png",
            "uri" : "wood.png",
            "name" : "wood.png"
        }
    ],
    "accessors" : [
        {
            "count" : 208,
            "type" : "VEC2",
            "componentType" : 5126,
            "bufferView" : 0
        },
        {
            "count" : 208,
            "type" : "VEC3",
            "max" : [
                1.0000004768371582,
                1.0027307271957397,
                0.03147805109620094
            ],
            "bufferView" : 1,
            "componentType" : 5126,
            "min" : [
                -1.0000004768371582,
                -1.0027306079864502,
                -0.22343197464942932
            ]
        },
        {
            "count" : 208,
            "type" : "VEC3",
            "componentType" : 5126,
            "bufferView" : 2
        },
        {
            "count" : 312,
            "type" : "SCALAR",
            "componentType" : 5123,
            "bufferView" : 3
        }
    ],
    "bufferViews" : [
        {
            "buffer" : 0,
            "byteLength" : 1664,
            "byteOffset" : 0
        },
        {
            "buffer" : 0,
            "byteLength" : 2496,
            "byteOffset" : 1664
        },
        {
            "buffer" : 0,
            "byteLength" : 2496,
            "byteOffset" : 4160
        },
        {
            "buffer" : 0,
            "byteLength" : 624,
            "byteOffset" : 6656
        }
    ],
    "samplers" : [
        {
            "magFilter" : 9729,
            "wrapS" : 10497,
            "wrapT" : 10497,
            "minFilter" : 9986
        }
    ],
    "buffers" : [
        {
            "byteLength" : 7280,
            "uri" : "platform.bin"
        }
    ]
}
