{
    "asset" : {
        "generator" : "Khronos glTF Blender I/O v1.2.20",
        "version" : "2.0"
    },
    "extensionsUsed" : [
        "KHR_materials_unlit"
    ],
    "scene" : 0,
    "scenes" : [
        {
            "name" : "Scene",
            "nodes" : [
                5
            ]
        }
    ],
    "nodes" : [
        {
            "name" : "Bone.002",
            "translation" : [
                0,
                0.30000001192092896,
                0
            ]
        },
        {
            "children" : [
                0
            ],
            "name" : "Bone.001",
            "translation" : [
                0,
                0.22999995946884155,
                0
            ]
        },
        {
            "rotation" : [
                0,
                -7.686441705345715e-08,
                0.5720831155776978,
                0.8201956748962402
            ],
            "children" : [
                1
            ],
            "name" : "Bone",
            "translation" : [
                -0.03144504502415657,
                0.3878222405910492,
                5.210733888816321e-08
            ]
        },
        {
            "mesh" : 0,
            "name" : "PlayerMesh",
            "skin" : 0
        },
        {
            "children" : [
                3,
                2
            ],
            "name" : "Armature"
        },
        {
            "children" : [
                4
            ],
            "name" : "BalloonPop"
        }
    ],
    "animations" : [
        {
            "samplers" : [
                {
                    "input" : 7,
                    "interpolation" : "LINEAR",
                    "output" : 8
                },
                {
                    "input" : 7,
                    "interpolation" : "LINEAR",
                    "output" : 9
                },
                {
                    "input" : 7,
                    "interpolation" : "LINEAR",
                    "output" : 10
                },
                {
                    "input" : 7,
                    "interpolation" : "LINEAR",
                    "output" : 11
                },
                {
                    "input" : 7,
                    "interpolation" : "LINEAR",
                    "output" : 12
                },
                {
                    "input" : 7,
                    "interpolation" : "LINEAR",
                    "output" : 13
                },
                {
                    "input" : 7,
                    "interpolation" : "LINEAR",
                    "output" : 14
                },
                {
                    "input" : 7,
                    "interpolation" : "LINEAR",
                    "output" : 15
                },
                {
                    "input" : 7,
                    "interpolation" : "LINEAR",
                    "output" : 16
                }
            ],
            "channels" : [
                {
                    "sampler" : 0,
                    "target" : {
                        "path" : "translation",
                        "node" : 2
                    }
                },
                {
                    "sampler" : 1,
                    "target" : {
                        "path" : "rotation",
                        "node" : 2
                    }
                },
                {
                    "sampler" : 2,
                    "target" : {
                        "path" : "scale",
                        "node" : 2
                    }
                },
                {
                    "sampler" : 3,
                    "target" : {
                        "path" : "translation",
                        "node" : 1
                    }
                },
                {
                    "sampler" : 4,
                    "target" : {
                        "path" : "rotation",
                        "node" : 1
                    }
                },
                {
                    "sampler" : 5,
                    "target" : {
                        "path" : "scale",
                        "node" : 1
                    }
                },
                {
                    "sampler" : 6,
                    "target" : {
                        "path" : "translation",
                        "node" : 0
                    }
                },
                {
                    "sampler" : 7,
                    "target" : {
                        "path" : "rotation",
                        "node" : 0
                    }
                },
                {
                    "sampler" : 8,
                    "target" : {
                        "path" : "scale",
                        "node" : 0
                    }
                }
            ],
            "name" : "balloon_pop"
        }
    ],
    "materials" : [
        {
            "extensions" : {
                "KHR_materials_unlit" : {}
            },
            "name" : "player",
            "pbrMetallicRoughness" : {
                "baseColorTexture" : {
                    "index" : 0,
                    "texCoord" : 0
                }
            }
        }
    ],
    "meshes" : [
        {
            "primitives" : [
                {
                    "material" : 0,
                    "attributes" : {
                        "JOINTS_0" : 0,
                        "NORMAL" : 1,
                        "TEXCOORD_0" : 2,
                        "WEIGHTS_0" : 3,
                        "POSITION" : 4
                    },
                    "indices" : 5
                }
            ],
            "name" : "PlayerMesh.007"
        }
    ],
    "textures" : [
        {
            "sampler" : 0,
            "source" : 0
        }
    ],
    "images" : [
        {
            "mimeType" : "image/png",
            "uri" : "player.png",
            "name" : "player.png"
        }
    ],
    "skins" : [
        {
            "name" : "Armature",
            "inverseBindMatrices" : 6,
            "joints" : [
                2,
                1,
                0
            ]
        }
    ],
    "accessors" : [
        {
            "bufferView" : 0,
            "componentType" : 5123,
            "type" : "VEC4",
            "count" : 2808
        },
        {
            "bufferView" : 1,
            "componentType" : 5126,
            "type" : "VEC3",
            "count" : 2808
        },
        {
            "bufferView" : 2,
            "componentType" : 5126,
            "type" : "VEC2",
            "count" : 2808
        },
        {
            "bufferView" : 3,
            "componentType" : 5126,
            "type" : "VEC4",
            "count" : 2808
        },
        {
            "bufferView" : 4,
            "componentType" : 5126,
            "min" : [
                -0.20756499469280243,
                -0.009424030780792236,
                -0.4100797772407532
            ],
            "type" : "VEC3",
            "max" : [
                0.2094249278306961,
                1.0366063117980957,
                0.2044680267572403
            ],
            "count" : 2808
        },
        {
            "bufferView" : 5,
            "componentType" : 5123,
            "type" : "SCALAR",
            "count" : 6915
        },
        {
            "bufferView" : 6,
            "componentType" : 5126,
            "type" : "MAT4",
            "count" : 3
        },
        {
            "bufferView" : 7,
            "componentType" : 5126,
            "min" : [
                0
            ],
            "type" : "SCALAR",
            "max" : [
                1.875
            ],
            "count" : 46
        },
        {
            "bufferView" : 8,
            "componentType" : 5126,
            "type" : "VEC3",
            "count" : 46
        },
        {
            "bufferView" : 9,
            "componentType" : 5126,
            "type" : "VEC4",
            "count" : 46
        },
        {
            "bufferView" : 10,
            "componentType" : 5126,
            "type" : "VEC3",
            "count" : 46
        },
        {
            "bufferView" : 11,
            "componentType" : 5126,
            "type" : "VEC3",
            "count" : 46
        },
        {
            "bufferView" : 12,
            "componentType" : 5126,
            "type" : "VEC4",
            "count" : 46
        },
        {
            "bufferView" : 13,
            "componentType" : 5126,
            "type" : "VEC3",
            "count" : 46
        },
        {
            "bufferView" : 14,
            "componentType" : 5126,
            "type" : "VEC3",
            "count" : 46
        },
        {
            "bufferView" : 15,
            "componentType" : 5126,
            "type" : "VEC4",
            "count" : 46
        },
        {
            "bufferView" : 16,
            "componentType" : 5126,
            "type" : "VEC3",
            "count" : 46
        }
    ],
    "bufferViews" : [
        {
            "byteOffset" : 0,
            "byteLength" : 22464,
            "buffer" : 0
        },
        {
            "byteOffset" : 22464,
            "byteLength" : 33696,
            "buffer" : 0
        },
        {
            "byteOffset" : 56160,
            "byteLength" : 22464,
            "buffer" : 0
        },
        {
            "byteOffset" : 78624,
            "byteLength" : 44928,
            "buffer" : 0
        },
        {
            "byteOffset" : 123552,
            "byteLength" : 33696,
            "buffer" : 0
        },
        {
            "byteOffset" : 157248,
            "byteLength" : 13830,
            "buffer" : 0
        },
        {
            "byteOffset" : 171080,
            "byteLength" : 192,
            "buffer" : 0
        },
        {
            "byteOffset" : 171272,
            "byteLength" : 184,
            "buffer" : 0
        },
        {
            "byteOffset" : 171456,
            "byteLength" : 552,
            "buffer" : 0
        },
        {
            "byteOffset" : 172008,
            "byteLength" : 736,
            "buffer" : 0
        },
        {
            "byteOffset" : 172744,
            "byteLength" : 552,
            "buffer" : 0
        },
        {
            "byteOffset" : 173296,
            "byteLength" : 552,
            "buffer" : 0
        },
        {
            "byteOffset" : 173848,
            "byteLength" : 736,
            "buffer" : 0
        },
        {
            "byteOffset" : 174584,
            "byteLength" : 552,
            "buffer" : 0
        },
        {
            "byteOffset" : 175136,
            "byteLength" : 552,
            "buffer" : 0
        },
        {
            "byteOffset" : 175688,
            "byteLength" : 736,
            "buffer" : 0
        },
        {
            "byteOffset" : 176424,
            "byteLength" : 552,
            "buffer" : 0
        }
    ],
    "samplers" : [
        {
            "magFilter" : 9729,
            "wrapT" : 10497,
            "minFilter" : 9986,
            "wrapS" : 10497
        }
    ],
    "buffers" : [
        {
            "uri" : "balloon_pop.bin",
            "byteLength" : 176976
        }
    ]
}
