{
    "asset" : {
        "generator" : "Khronos glTF Blender I/O v1.2.20",
        "version" : "2.0"
    },
    "extensionsUsed" : [
        "KHR_materials_unlit"
    ],
    "scene" : 0,
    "scenes" : [
        {
            "nodes" : [
                1
            ],
            "name" : "Scene"
        }
    ],
    "nodes" : [
        {
            "name" : "GrassCornerCollider -colonly",
            "mesh" : 0
        },
        {
            "children" : [
                0
            ],
            "name" : "GrassCorner1",
            "mesh" : 1
        }
    ],
    "materials" : [
        {
            "pbrMetallicRoughness" : {
                "baseColorTexture" : {
                    "index" : 0,
                    "texCoord" : 0
                }
            },
            "extensions" : {
                "KHR_materials_unlit" : {}
            },
            "name" : "grass_autumn"
        }
    ],
    "meshes" : [
        {
            "name" : "GrassCornerCollider.001",
            "primitives" : [
                {
                    "indices" : 2,
                    "attributes" : {
                        "NORMAL" : 0,
                        "POSITION" : 1
                    }
                }
            ]
        },
        {
            "name" : "GrassCorner1.001",
            "primitives" : [
                {
                    "material" : 0,
                    "indices" : 6,
                    "attributes" : {
                        "NORMAL" : 3,
                        "POSITION" : 4,
                        "TEXCOORD_0" : 5
                    }
                }
            ]
        }
    ],
    "textures" : [
        {
            "source" : 0,
            "sampler" : 0
        }
    ],
    "images" : [
        {
            "uri" : "grass_autumn.png",
            "name" : "grass_autumn.png",
            "mimeType" : "image/png"
        }
    ],
    "accessors" : [
        {
            "type" : "VEC3",
            "bufferView" : 0,
            "count" : 11,
            "componentType" : 5126
        },
        {
            "type" : "VEC3",
            "bufferView" : 1,
            "min" : [
                -1,
                -2,
                -1.000001072883606
            ],
            "componentType" : 5126,
            "count" : 11,
            "max" : [
                1.0000030994415283,
                0,
                0.9999988675117493
            ]
        },
        {
            "type" : "SCALAR",
            "bufferView" : 2,
            "count" : 36,
            "componentType" : 5123
        },
        {
            "type" : "VEC3",
            "bufferView" : 3,
            "count" : 24,
            "componentType" : 5126
        },
        {
            "type" : "VEC3",
            "bufferView" : 4,
            "min" : [
                -0.9999977350234985,
                -2,
                -1.000001072883606
            ],
            "componentType" : 5126,
            "count" : 24,
            "max" : [
                1.0000030994415283,
                -2.9802322387695312e-08,
                0.9999988079071045
            ]
        },
        {
            "type" : "VEC2",
            "bufferView" : 5,
            "count" : 24,
            "componentType" : 5126
        },
        {
            "type" : "SCALAR",
            "bufferView" : 6,
            "count" : 72,
            "componentType" : 5123
        }
    ],
    "bufferViews" : [
        {
            "byteOffset" : 0,
            "buffer" : 0,
            "byteLength" : 132
        },
        {
            "byteOffset" : 132,
            "buffer" : 0,
            "byteLength" : 132
        },
        {
            "byteOffset" : 264,
            "buffer" : 0,
            "byteLength" : 72
        },
        {
            "byteOffset" : 336,
            "buffer" : 0,
            "byteLength" : 288
        },
        {
            "byteOffset" : 624,
            "buffer" : 0,
            "byteLength" : 288
        },
        {
            "byteOffset" : 912,
            "buffer" : 0,
            "byteLength" : 192
        },
        {
            "byteOffset" : 1104,
            "buffer" : 0,
            "byteLength" : 144
        }
    ],
    "samplers" : [
        {
            "wrapS" : 10497,
            "minFilter" : 9986,
            "magFilter" : 9729,
            "wrapT" : 10497
        }
    ],
    "buffers" : [
        {
            "uri" : "grass_autumn_corner_1.bin",
            "byteLength" : 1248
        }
    ]
}
