{
    "asset" : {
        "version" : "2.0",
        "generator" : "Khronos glTF Blender I/O v1.2.20"
    },
    "extensionsUsed" : [
        "KHR_materials_unlit"
    ],
    "scene" : 0,
    "scenes" : [
        {
            "name" : "Scene",
            "nodes" : [
                1
            ]
        }
    ],
    "nodes" : [
        {
            "name" : "GroundSideCollider -colonly",
            "mesh" : 0
        },
        {
            "name" : "GroundSideMesh",
            "mesh" : 1,
            "children" : [
                0
            ]
        }
    ],
    "materials" : [
        {
            "pbrMetallicRoughness" : {
                "baseColorTexture" : {
                    "texCoord" : 0,
                    "index" : 0
                }
            },
            "name" : "ground",
            "extensions" : {
                "KHR_materials_unlit" : {}
            }
        }
    ],
    "meshes" : [
        {
            "name" : "GroundSideCollider.001",
            "primitives" : [
                {
                    "indices" : 3,
                    "attributes" : {
                        "NORMAL" : 0,
                        "POSITION" : 1,
                        "TEXCOORD_0" : 2
                    }
                }
            ]
        },
        {
            "name" : "GroundSideMesh.001",
            "primitives" : [
                {
                    "indices" : 7,
                    "material" : 0,
                    "attributes" : {
                        "NORMAL" : 4,
                        "POSITION" : 5,
                        "TEXCOORD_0" : 6
                    }
                }
            ]
        }
    ],
    "textures" : [
        {
            "source" : 0,
            "sampler" : 0
        }
    ],
    "images" : [
        {
            "uri" : "ground.png",
            "name" : "ground.png",
            "mimeType" : "image/png"
        }
    ],
    "accessors" : [
        {
            "type" : "VEC3",
            "bufferView" : 0,
            "count" : 8,
            "componentType" : 5126
        },
        {
            "componentType" : 5126,
            "max" : [
                1.0000022649765015,
                0,
                1.0000003576278687
            ],
            "type" : "VEC3",
            "bufferView" : 1,
            "count" : 8,
            "min" : [
                -0.9999983906745911,
                -2,
                -0.9999998211860657
            ]
        },
        {
            "type" : "VEC2",
            "bufferView" : 2,
            "count" : 8,
            "componentType" : 5126
        },
        {
            "type" : "SCALAR",
            "bufferView" : 3,
            "count" : 12,
            "componentType" : 5123
        },
        {
            "type" : "VEC3",
            "bufferView" : 4,
            "count" : 12,
            "componentType" : 5126
        },
        {
            "componentType" : 5126,
            "max" : [
                1.0000019073486328,
                -8.940696716308594e-08,
                1
            ],
            "type" : "VEC3",
            "bufferView" : 5,
            "count" : 12,
            "min" : [
                -1.0000007152557373,
                -2,
                -0.9999999403953552
            ]
        },
        {
            "type" : "VEC2",
            "bufferView" : 6,
            "count" : 12,
            "componentType" : 5126
        },
        {
            "type" : "SCALAR",
            "bufferView" : 7,
            "count" : 18,
            "componentType" : 5123
        }
    ],
    "bufferViews" : [
        {
            "byteOffset" : 0,
            "byteLength" : 96,
            "buffer" : 0
        },
        {
            "byteOffset" : 96,
            "byteLength" : 96,
            "buffer" : 0
        },
        {
            "byteOffset" : 192,
            "byteLength" : 64,
            "buffer" : 0
        },
        {
            "byteOffset" : 256,
            "byteLength" : 24,
            "buffer" : 0
        },
        {
            "byteOffset" : 280,
            "byteLength" : 144,
            "buffer" : 0
        },
        {
            "byteOffset" : 424,
            "byteLength" : 144,
            "buffer" : 0
        },
        {
            "byteOffset" : 568,
            "byteLength" : 96,
            "buffer" : 0
        },
        {
            "byteOffset" : 664,
            "byteLength" : 36,
            "buffer" : 0
        }
    ],
    "samplers" : [
        {
            "wrapT" : 10497,
            "wrapS" : 10497,
            "magFilter" : 9729,
            "minFilter" : 9986
        }
    ],
    "buffers" : [
        {
            "uri" : "ground_side.bin",
            "byteLength" : 700
        }
    ]
}
