{
    "asset" : {
        "version" : "2.0",
        "generator" : "Khronos glTF Blender I/O v1.2.20"
    },
    "extensionsUsed" : [
        "KHR_materials_unlit"
    ],
    "scene" : 0,
    "scenes" : [
        {
            "nodes" : [
                0
            ],
            "name" : "Scene"
        }
    ],
    "nodes" : [
        {
            "mesh" : 0,
            "name" : "GroundCenterMesh -col"
        }
    ],
    "materials" : [
        {
            "pbrMetallicRoughness" : {
                "baseColorTexture" : {
                    "texCoord" : 0,
                    "index" : 0
                }
            },
            "name" : "ground",
            "extensions" : {
                "KHR_materials_unlit" : {}
            }
        }
    ],
    "meshes" : [
        {
            "primitives" : [
                {
                    "material" : 0,
                    "attributes" : {
                        "NORMAL" : 0,
                        "POSITION" : 1,
                        "TEXCOORD_0" : 2
                    },
                    "indices" : 3
                }
            ],
            "name" : "GroundCenterMesh.001"
        }
    ],
    "textures" : [
        {
            "sampler" : 0,
            "source" : 0
        }
    ],
    "images" : [
        {
            "uri" : "ground.png",
            "name" : "ground.png",
            "mimeType" : "image/png"
        }
    ],
    "accessors" : [
        {
            "type" : "VEC3",
            "count" : 4,
            "bufferView" : 0,
            "componentType" : 5126
        },
        {
            "min" : [
                -0.9999997019767761,
                0,
                -0.9999999403953552
            ],
            "max" : [
                1.0000003576278687,
                0,
                1.0000003576278687
            ],
            "count" : 4,
            "componentType" : 5126,
            "type" : "VEC3",
            "bufferView" : 1
        },
        {
            "type" : "VEC2",
            "count" : 4,
            "bufferView" : 2,
            "componentType" : 5126
        },
        {
            "type" : "SCALAR",
            "count" : 6,
            "bufferView" : 3,
            "componentType" : 5123
        }
    ],
    "bufferViews" : [
        {
            "buffer" : 0,
            "byteLength" : 48,
            "byteOffset" : 0
        },
        {
            "buffer" : 0,
            "byteLength" : 48,
            "byteOffset" : 48
        },
        {
            "buffer" : 0,
            "byteLength" : 32,
            "byteOffset" : 96
        },
        {
            "buffer" : 0,
            "byteLength" : 12,
            "byteOffset" : 128
        }
    ],
    "samplers" : [
        {
            "wrapT" : 10497,
            "wrapS" : 10497,
            "magFilter" : 9729,
            "minFilter" : 9986
        }
    ],
    "buffers" : [
        {
            "uri" : "center.bin",
            "byteLength" : 140
        }
    ]
}
