{
    "asset" : {
        "generator" : "Khronos glTF Blender I/O v1.2.20",
        "version" : "2.0"
    },
    "extensionsUsed" : [
        "KHR_materials_unlit"
    ],
    "scene" : 0,
    "scenes" : [
        {
            "nodes" : [
                0
            ],
            "name" : "Scene"
        }
    ],
    "nodes" : [
        {
            "mesh" : 0,
            "name" : "GrassPlatform"
        }
    ],
    "materials" : [
        {
            "name" : "grass",
            "pbrMetallicRoughness" : {
                "baseColorTexture" : {
                    "texCoord" : 0,
                    "index" : 0
                }
            },
            "extensions" : {
                "KHR_materials_unlit" : {}
            }
        }
    ],
    "meshes" : [
        {
            "name" : "GrassPlatform.001",
            "primitives" : [
                {
                    "attributes" : {
                        "POSITION" : 0,
                        "TEXCOORD_0" : 1,
                        "NORMAL" : 2
                    },
                    "material" : 0,
                    "indices" : 3
                }
            ]
        }
    ],
    "textures" : [
        {
            "source" : 0,
            "sampler" : 0
        }
    ],
    "images" : [
        {
            "mimeType" : "image/png",
            "name" : "grass.png",
            "uri" : "grass.png"
        }
    ],
    "accessors" : [
        {
            "bufferView" : 0,
            "count" : 96,
            "type" : "VEC3",
            "max" : [
                1.000000238418579,
                -2.9802322387695312e-08,
                1.000000238418579
            ],
            "min" : [
                -1.000000238418579,
                -0.5,
                -1.000000238418579
            ],
            "componentType" : 5126
        },
        {
            "bufferView" : 1,
            "count" : 96,
            "type" : "VEC2",
            "componentType" : 5126
        },
        {
            "bufferView" : 2,
            "count" : 96,
            "type" : "VEC3",
            "componentType" : 5126
        },
        {
            "bufferView" : 3,
            "count" : 288,
            "type" : "SCALAR",
            "componentType" : 5123
        }
    ],
    "bufferViews" : [
        {
            "byteOffset" : 0,
            "buffer" : 0,
            "byteLength" : 1152
        },
        {
            "byteOffset" : 1152,
            "buffer" : 0,
            "byteLength" : 768
        },
        {
            "byteOffset" : 1920,
            "buffer" : 0,
            "byteLength" : 1152
        },
        {
            "byteOffset" : 3072,
            "buffer" : 0,
            "byteLength" : 576
        }
    ],
    "samplers" : [
        {
            "wrapT" : 10497,
            "minFilter" : 9986,
            "wrapS" : 10497,
            "magFilter" : 9729
        }
    ],
    "buffers" : [
        {
            "uri" : "grass_platform.bin",
            "byteLength" : 3648
        }
    ]
}
