{
    "asset" : {
        "generator" : "Khronos glTF Blender I/O v1.2.20",
        "version" : "2.0"
    },
    "extensionsUsed" : [
        "KHR_materials_unlit"
    ],
    "scene" : 0,
    "scenes" : [
        {
            "nodes" : [
                1
            ],
            "name" : "Scene"
        }
    ],
    "nodes" : [
        {
            "name" : "GrassCorner3Collider -colonly",
            "mesh" : 0
        },
        {
            "name" : "GrassCorner3",
            "children" : [
                0
            ],
            "mesh" : 1
        }
    ],
    "materials" : [
        {
            "name" : "grass",
            "pbrMetallicRoughness" : {
                "baseColorTexture" : {
                    "texCoord" : 0,
                    "index" : 0
                }
            },
            "extensions" : {
                "KHR_materials_unlit" : {}
            }
        }
    ],
    "meshes" : [
        {
            "name" : "GrassCorner3Collider.001",
            "primitives" : [
                {
                    "attributes" : {
                        "NORMAL" : 0,
                        "POSITION" : 1
                    },
                    "indices" : 2
                }
            ]
        },
        {
            "name" : "GrassCorner3.001",
            "primitives" : [
                {
                    "attributes" : {
                        "NORMAL" : 3,
                        "TEXCOORD_0" : 4,
                        "POSITION" : 5
                    },
                    "indices" : 6,
                    "material" : 0
                }
            ]
        }
    ],
    "textures" : [
        {
            "sampler" : 0,
            "source" : 0
        }
    ],
    "images" : [
        {
            "name" : "grass.png",
            "mimeType" : "image/png",
            "uri" : "grass.png"
        }
    ],
    "accessors" : [
        {
            "bufferView" : 0,
            "count" : 4,
            "type" : "VEC3",
            "componentType" : 5126
        },
        {
            "bufferView" : 1,
            "count" : 4,
            "componentType" : 5126,
            "type" : "VEC3",
            "min" : [
                -1,
                0,
                -1
            ],
            "max" : [
                1,
                0,
                1
            ]
        },
        {
            "bufferView" : 2,
            "count" : 6,
            "type" : "SCALAR",
            "componentType" : 5123
        },
        {
            "bufferView" : 3,
            "count" : 32,
            "type" : "VEC3",
            "componentType" : 5126
        },
        {
            "bufferView" : 4,
            "count" : 32,
            "type" : "VEC2",
            "componentType" : 5126
        },
        {
            "bufferView" : 5,
            "count" : 32,
            "componentType" : 5126,
            "type" : "VEC3",
            "min" : [
                -0.9999985694885254,
                -0.10000000149011612,
                -0.9999992847442627
            ],
            "max" : [
                1.0000014305114746,
                -2.9802322387695312e-08,
                1.0000014305114746
            ]
        },
        {
            "bufferView" : 6,
            "count" : 36,
            "type" : "SCALAR",
            "componentType" : 5123
        }
    ],
    "bufferViews" : [
        {
            "byteOffset" : 0,
            "buffer" : 0,
            "byteLength" : 48
        },
        {
            "byteOffset" : 48,
            "buffer" : 0,
            "byteLength" : 48
        },
        {
            "byteOffset" : 96,
            "buffer" : 0,
            "byteLength" : 12
        },
        {
            "byteOffset" : 108,
            "buffer" : 0,
            "byteLength" : 384
        },
        {
            "byteOffset" : 492,
            "buffer" : 0,
            "byteLength" : 256
        },
        {
            "byteOffset" : 748,
            "buffer" : 0,
            "byteLength" : 384
        },
        {
            "byteOffset" : 1132,
            "buffer" : 0,
            "byteLength" : 72
        }
    ],
    "samplers" : [
        {
            "magFilter" : 9729,
            "wrapS" : 10497,
            "minFilter" : 9986,
            "wrapT" : 10497
        }
    ],
    "buffers" : [
        {
            "uri" : "grass_corner_3.bin",
            "byteLength" : 1204
        }
    ]
}
