{
    "asset" : {
        "generator" : "Khronos glTF Blender I/O v1.2.20",
        "version" : "2.0"
    },
    "extensionsUsed" : [
        "KHR_materials_unlit"
    ],
    "scene" : 0,
    "scenes" : [
        {
            "name" : "Scene",
            "nodes" : [
                1
            ]
        }
    ],
    "nodes" : [
        {
            "mesh" : 0,
            "name" : "FenceCollider -colonly"
        },
        {
            "mesh" : 1,
            "name" : "FenceMesh",
            "children" : [
                0
            ]
        }
    ],
    "materials" : [
        {
            "name" : "fence",
            "extensions" : {
                "KHR_materials_unlit" : {}
            },
            "pbrMetallicRoughness" : {
                "baseColorTexture" : {
                    "index" : 0,
                    "texCoord" : 0
                }
            }
        }
    ],
    "meshes" : [
        {
            "name" : "FenceCollider.001",
            "primitives" : [
                {
                    "indices" : 2,
                    "attributes" : {
                        "NORMAL" : 0,
                        "POSITION" : 1
                    }
                }
            ]
        },
        {
            "name" : "FenceMesh.001",
            "primitives" : [
                {
                    "material" : 0,
                    "indices" : 6,
                    "attributes" : {
                        "NORMAL" : 3,
                        "TEXCOORD_0" : 4,
                        "POSITION" : 5
                    }
                }
            ]
        }
    ],
    "textures" : [
        {
            "sampler" : 0,
            "source" : 0
        }
    ],
    "images" : [
        {
            "name" : "fence.png",
            "uri" : "fence.png",
            "mimeType" : "image/png"
        }
    ],
    "accessors" : [
        {
            "bufferView" : 0,
            "count" : 24,
            "type" : "VEC3",
            "componentType" : 5126
        },
        {
            "min" : [
                -1,
                0,
                -0.062147438526153564
            ],
            "bufferView" : 1,
            "type" : "VEC3",
            "count" : 24,
            "max" : [
                1,
                0.8799998760223389,
                0.062147438526153564
            ],
            "componentType" : 5126
        },
        {
            "bufferView" : 2,
            "count" : 36,
            "type" : "SCALAR",
            "componentType" : 5123
        },
        {
            "bufferView" : 3,
            "count" : 274,
            "type" : "VEC3",
            "componentType" : 5126
        },
        {
            "bufferView" : 4,
            "count" : 274,
            "type" : "VEC2",
            "componentType" : 5126
        },
        {
            "min" : [
                -1,
                -0.014436095952987671,
                -0.05514500290155411
            ],
            "bufferView" : 5,
            "type" : "VEC3",
            "count" : 274,
            "max" : [
                1,
                0.9045969247817993,
                0.05514500290155411
            ],
            "componentType" : 5126
        },
        {
            "bufferView" : 6,
            "count" : 384,
            "type" : "SCALAR",
            "componentType" : 5123
        }
    ],
    "bufferViews" : [
        {
            "byteOffset" : 0,
            "byteLength" : 288,
            "buffer" : 0
        },
        {
            "byteOffset" : 288,
            "byteLength" : 288,
            "buffer" : 0
        },
        {
            "byteOffset" : 576,
            "byteLength" : 72,
            "buffer" : 0
        },
        {
            "byteOffset" : 648,
            "byteLength" : 3288,
            "buffer" : 0
        },
        {
            "byteOffset" : 3936,
            "byteLength" : 2192,
            "buffer" : 0
        },
        {
            "byteOffset" : 6128,
            "byteLength" : 3288,
            "buffer" : 0
        },
        {
            "byteOffset" : 9416,
            "byteLength" : 768,
            "buffer" : 0
        }
    ],
    "samplers" : [
        {
            "wrapT" : 10497,
            "wrapS" : 10497,
            "magFilter" : 9729,
            "minFilter" : 9986
        }
    ],
    "buffers" : [
        {
            "byteLength" : 10184,
            "uri" : "fence.bin"
        }
    ]
}
