{
    "asset" : {
        "generator" : "Khronos glTF Blender I/O v1.2.20",
        "version" : "2.0"
    },
    "extensionsUsed" : [
        "KHR_materials_unlit"
    ],
    "scene" : 0,
    "scenes" : [
        {
            "name" : "Scene",
            "nodes" : [
                1
            ]
        }
    ],
    "nodes" : [
        {
            "mesh" : 0,
            "name" : "FenceCornerCollider -colonly"
        },
        {
            "mesh" : 1,
            "name" : "FenceCornerMesh",
            "children" : [
                0
            ]
        }
    ],
    "materials" : [
        {
            "name" : "fence",
            "extensions" : {
                "KHR_materials_unlit" : {}
            },
            "pbrMetallicRoughness" : {
                "baseColorTexture" : {
                    "index" : 0,
                    "texCoord" : 0
                }
            }
        }
    ],
    "meshes" : [
        {
            "name" : "FenceCornerCollider.001",
            "primitives" : [
                {
                    "indices" : 2,
                    "attributes" : {
                        "NORMAL" : 0,
                        "POSITION" : 1
                    }
                }
            ]
        },
        {
            "name" : "FenceCornerMesh.001",
            "primitives" : [
                {
                    "material" : 0,
                    "indices" : 6,
                    "attributes" : {
                        "NORMAL" : 3,
                        "TEXCOORD_0" : 4,
                        "POSITION" : 5
                    }
                }
            ]
        }
    ],
    "textures" : [
        {
            "sampler" : 0,
            "source" : 0
        }
    ],
    "images" : [
        {
            "name" : "fence.png",
            "uri" : "fence.png",
            "mimeType" : "image/png"
        }
    ],
    "accessors" : [
        {
            "bufferView" : 0,
            "count" : 38,
            "type" : "VEC3",
            "componentType" : 5126
        },
        {
            "min" : [
                -1,
                0,
                -1
            ],
            "bufferView" : 1,
            "type" : "VEC3",
            "count" : 38,
            "max" : [
                0.062147438526153564,
                0.8799998760223389,
                0.06277787685394287
            ],
            "componentType" : 5126
        },
        {
            "bufferView" : 2,
            "count" : 60,
            "type" : "SCALAR",
            "componentType" : 5123
        },
        {
            "bufferView" : 3,
            "count" : 298,
            "type" : "VEC3",
            "componentType" : 5126
        },
        {
            "bufferView" : 4,
            "count" : 298,
            "type" : "VEC2",
            "componentType" : 5126
        },
        {
            "min" : [
                -1,
                -0.014436095952987671,
                -1
            ],
            "bufferView" : 5,
            "type" : "VEC3",
            "count" : 298,
            "max" : [
                0.08383805304765701,
                0.9045969247817993,
                0.05514500290155411
            ],
            "componentType" : 5126
        },
        {
            "bufferView" : 6,
            "count" : 420,
            "type" : "SCALAR",
            "componentType" : 5123
        }
    ],
    "bufferViews" : [
        {
            "byteOffset" : 0,
            "byteLength" : 456,
            "buffer" : 0
        },
        {
            "byteOffset" : 456,
            "byteLength" : 456,
            "buffer" : 0
        },
        {
            "byteOffset" : 912,
            "byteLength" : 120,
            "buffer" : 0
        },
        {
            "byteOffset" : 1032,
            "byteLength" : 3576,
            "buffer" : 0
        },
        {
            "byteOffset" : 4608,
            "byteLength" : 2384,
            "buffer" : 0
        },
        {
            "byteOffset" : 6992,
            "byteLength" : 3576,
            "buffer" : 0
        },
        {
            "byteOffset" : 10568,
            "byteLength" : 840,
            "buffer" : 0
        }
    ],
    "samplers" : [
        {
            "wrapT" : 10497,
            "wrapS" : 10497,
            "magFilter" : 9729,
            "minFilter" : 9986
        }
    ],
    "buffers" : [
        {
            "byteLength" : 11408,
            "uri" : "fence_corner.bin"
        }
    ]
}
