{
    "asset" : {
        "version" : "2.0",
        "generator" : "Khronos glTF Blender I/O v1.2.20"
    },
    "extensionsUsed" : [
        "KHR_materials_unlit"
    ],
    "scene" : 0,
    "scenes" : [
        {
            "nodes" : [
                1
            ],
            "name" : "Scene"
        }
    ],
    "nodes" : [
        {
            "mesh" : 0,
            "name" : "FenceCollider -colonly"
        },
        {
            "mesh" : 1,
            "name" : "FenceMesh",
            "children" : [
                0
            ]
        }
    ],
    "materials" : [
        {
            "pbrMetallicRoughness" : {
                "baseColorTexture" : {
                    "index" : 0,
                    "texCoord" : 0
                }
            },
            "name" : "fence",
            "extensions" : {
                "KHR_materials_unlit" : {}
            }
        }
    ],
    "meshes" : [
        {
            "name" : "FenceCollider.001",
            "primitives" : [
                {
                    "indices" : 2,
                    "attributes" : {
                        "POSITION" : 0,
                        "NORMAL" : 1
                    }
                }
            ]
        },
        {
            "name" : "FenceMesh.001",
            "primitives" : [
                {
                    "indices" : 6,
                    "material" : 0,
                    "attributes" : {
                        "POSITION" : 3,
                        "TEXCOORD_0" : 4,
                        "NORMAL" : 5
                    }
                }
            ]
        }
    ],
    "textures" : [
        {
            "source" : 0,
            "sampler" : 0
        }
    ],
    "images" : [
        {
            "mimeType" : "image/png",
            "name" : "fence.png",
            "uri" : "fence.png"
        }
    ],
    "accessors" : [
        {
            "componentType" : 5126,
            "bufferView" : 0,
            "count" : 24,
            "min" : [
                -1,
                0,
                -0.062147438526153564
            ],
            "max" : [
                1,
                0.8799998760223389,
                0.062147438526153564
            ],
            "type" : "VEC3"
        },
        {
            "componentType" : 5126,
            "bufferView" : 1,
            "count" : 24,
            "type" : "VEC3"
        },
        {
            "componentType" : 5123,
            "bufferView" : 2,
            "count" : 36,
            "type" : "SCALAR"
        },
        {
            "componentType" : 5126,
            "bufferView" : 3,
            "count" : 204,
            "min" : [
                -1,
                -0.014436095952987671,
                -0.05514500290155411
            ],
            "max" : [
                1,
                0.868532657623291,
                0.05514500290155411
            ],
            "type" : "VEC3"
        },
        {
            "componentType" : 5126,
            "bufferView" : 4,
            "count" : 204,
            "type" : "VEC2"
        },
        {
            "componentType" : 5126,
            "bufferView" : 5,
            "count" : 204,
            "type" : "VEC3"
        },
        {
            "componentType" : 5123,
            "bufferView" : 6,
            "count" : 306,
            "type" : "SCALAR"
        }
    ],
    "bufferViews" : [
        {
            "buffer" : 0,
            "byteLength" : 288,
            "byteOffset" : 0
        },
        {
            "buffer" : 0,
            "byteLength" : 288,
            "byteOffset" : 288
        },
        {
            "buffer" : 0,
            "byteLength" : 72,
            "byteOffset" : 576
        },
        {
            "buffer" : 0,
            "byteLength" : 2448,
            "byteOffset" : 648
        },
        {
            "buffer" : 0,
            "byteLength" : 1632,
            "byteOffset" : 3096
        },
        {
            "buffer" : 0,
            "byteLength" : 2448,
            "byteOffset" : 4728
        },
        {
            "buffer" : 0,
            "byteLength" : 612,
            "byteOffset" : 7176
        }
    ],
    "samplers" : [
        {
            "magFilter" : 9729,
            "wrapS" : 10497,
            "minFilter" : 9986,
            "wrapT" : 10497
        }
    ],
    "buffers" : [
        {
            "uri" : "fence.bin",
            "byteLength" : 7788
        }
    ]
}
