{
    "asset" : {
        "generator" : "Khronos glTF Blender I/O v1.2.20",
        "version" : "2.0"
    },
    "extensionsUsed" : [
        "KHR_materials_unlit"
    ],
    "scene" : 0,
    "scenes" : [
        {
            "name" : "Scene",
            "nodes" : [
                1
            ]
        }
    ],
    "nodes" : [
        {
            "name" : "FenceCornerCollider -colonly",
            "mesh" : 0
        },
        {
            "name" : "FenceCornerMesh",
            "children" : [
                0
            ],
            "mesh" : 1
        }
    ],
    "materials" : [
        {
            "name" : "fence",
            "pbrMetallicRoughness" : {
                "baseColorTexture" : {
                    "texCoord" : 0,
                    "index" : 0
                }
            },
            "extensions" : {
                "KHR_materials_unlit" : {}
            }
        }
    ],
    "meshes" : [
        {
            "name" : "FenceCornerCollider.001",
            "primitives" : [
                {
                    "attributes" : {
                        "NORMAL" : 0,
                        "POSITION" : 1
                    },
                    "indices" : 2
                }
            ]
        },
        {
            "name" : "FenceCornerMesh.001",
            "primitives" : [
                {
                    "attributes" : {
                        "TEXCOORD_0" : 3,
                        "NORMAL" : 4,
                        "POSITION" : 5
                    },
                    "material" : 0,
                    "indices" : 6
                }
            ]
        }
    ],
    "textures" : [
        {
            "sampler" : 0,
            "source" : 0
        }
    ],
    "images" : [
        {
            "name" : "fence.png",
            "uri" : "fence.png",
            "mimeType" : "image/png"
        }
    ],
    "accessors" : [
        {
            "componentType" : 5126,
            "count" : 38,
            "bufferView" : 0,
            "type" : "VEC3"
        },
        {
            "max" : [
                0.062147438526153564,
                0.8799998760223389,
                0.06277787685394287
            ],
            "count" : 38,
            "bufferView" : 1,
            "min" : [
                -1,
                0,
                -1
            ],
            "componentType" : 5126,
            "type" : "VEC3"
        },
        {
            "componentType" : 5123,
            "count" : 60,
            "bufferView" : 2,
            "type" : "SCALAR"
        },
        {
            "componentType" : 5126,
            "count" : 228,
            "bufferView" : 3,
            "type" : "VEC2"
        },
        {
            "componentType" : 5126,
            "count" : 228,
            "bufferView" : 4,
            "type" : "VEC3"
        },
        {
            "max" : [
                0.0551450252532959,
                0.868532657623291,
                0.05514500290155411
            ],
            "count" : 228,
            "bufferView" : 5,
            "min" : [
                -1,
                -0.014436095952987671,
                -1
            ],
            "componentType" : 5126,
            "type" : "VEC3"
        },
        {
            "componentType" : 5123,
            "count" : 354,
            "bufferView" : 6,
            "type" : "SCALAR"
        }
    ],
    "bufferViews" : [
        {
            "byteLength" : 456,
            "buffer" : 0,
            "byteOffset" : 0
        },
        {
            "byteLength" : 456,
            "buffer" : 0,
            "byteOffset" : 456
        },
        {
            "byteLength" : 120,
            "buffer" : 0,
            "byteOffset" : 912
        },
        {
            "byteLength" : 1824,
            "buffer" : 0,
            "byteOffset" : 1032
        },
        {
            "byteLength" : 2736,
            "buffer" : 0,
            "byteOffset" : 2856
        },
        {
            "byteLength" : 2736,
            "buffer" : 0,
            "byteOffset" : 5592
        },
        {
            "byteLength" : 708,
            "buffer" : 0,
            "byteOffset" : 8328
        }
    ],
    "samplers" : [
        {
            "wrapS" : 10497,
            "minFilter" : 9986,
            "magFilter" : 9729,
            "wrapT" : 10497
        }
    ],
    "buffers" : [
        {
            "byteLength" : 9036,
            "uri" : "fence_corner.bin"
        }
    ]
}
