{
    "asset" : {
        "generator" : "Khronos glTF Blender I/O v1.2.20",
        "version" : "2.0"
    },
    "extensionsUsed" : [
        "KHR_materials_unlit"
    ],
    "scene" : 0,
    "scenes" : [
        {
            "name" : "Scene",
            "nodes" : [
                1
            ]
        }
    ],
    "nodes" : [
        {
            "name" : "House1Collider -colonly",
            "mesh" : 0
        },
        {
            "name" : "House1Mesh",
            "mesh" : 1,
            "children" : [
                0
            ]
        }
    ],
    "materials" : [
        {
            "name" : "house_1",
            "extensions" : {
                "KHR_materials_unlit" : {}
            },
            "pbrMetallicRoughness" : {
                "baseColorTexture" : {
                    "index" : 0,
                    "texCoord" : 0
                }
            }
        }
    ],
    "meshes" : [
        {
            "name" : "House1Collider.001",
            "primitives" : [
                {
                    "indices" : 2,
                    "attributes" : {
                        "NORMAL" : 0,
                        "POSITION" : 1
                    }
                }
            ]
        },
        {
            "name" : "House1Mesh.001",
            "primitives" : [
                {
                    "attributes" : {
                        "NORMAL" : 3,
                        "TEXCOORD_0" : 4,
                        "POSITION" : 5
                    },
                    "indices" : 6,
                    "material" : 0
                }
            ]
        }
    ],
    "textures" : [
        {
            "sampler" : 0,
            "source" : 0
        }
    ],
    "images" : [
        {
            "name" : "house_1.png",
            "uri" : "house_1.png",
            "mimeType" : "image/png"
        }
    ],
    "accessors" : [
        {
            "bufferView" : 0,
            "componentType" : 5126,
            "type" : "VEC3",
            "count" : 177
        },
        {
            "bufferView" : 1,
            "min" : [
                -2.1571993827819824,
                0,
                -2.093508243560791
            ],
            "type" : "VEC3",
            "componentType" : 5126,
            "max" : [
                2.1571993827819824,
                4.285338401794434,
                2.093508243560791
            ],
            "count" : 177
        },
        {
            "bufferView" : 2,
            "componentType" : 5123,
            "type" : "SCALAR",
            "count" : 276
        },
        {
            "bufferView" : 3,
            "componentType" : 5126,
            "type" : "VEC3",
            "count" : 478
        },
        {
            "bufferView" : 4,
            "componentType" : 5126,
            "type" : "VEC2",
            "count" : 478
        },
        {
            "bufferView" : 5,
            "min" : [
                -2.2069013118743896,
                -0.007668015547096729,
                -2.2780439853668213
            ],
            "type" : "VEC3",
            "componentType" : 5126,
            "max" : [
                2.207872152328491,
                4.380077362060547,
                2.110564708709717
            ],
            "count" : 478
        },
        {
            "bufferView" : 6,
            "componentType" : 5123,
            "type" : "SCALAR",
            "count" : 696
        }
    ],
    "bufferViews" : [
        {
            "byteLength" : 2124,
            "byteOffset" : 0,
            "buffer" : 0
        },
        {
            "byteLength" : 2124,
            "byteOffset" : 2124,
            "buffer" : 0
        },
        {
            "byteLength" : 552,
            "byteOffset" : 4248,
            "buffer" : 0
        },
        {
            "byteLength" : 5736,
            "byteOffset" : 4800,
            "buffer" : 0
        },
        {
            "byteLength" : 3824,
            "byteOffset" : 10536,
            "buffer" : 0
        },
        {
            "byteLength" : 5736,
            "byteOffset" : 14360,
            "buffer" : 0
        },
        {
            "byteLength" : 1392,
            "byteOffset" : 20096,
            "buffer" : 0
        }
    ],
    "samplers" : [
        {
            "magFilter" : 9729,
            "wrapT" : 10497,
            "wrapS" : 10497,
            "minFilter" : 9986
        }
    ],
    "buffers" : [
        {
            "byteLength" : 21488,
            "uri" : "house_1.bin"
        }
    ]
}
