{
    "asset" : {
        "version" : "2.0",
        "generator" : "Khronos glTF Blender I/O v1.2.20"
    },
    "scene" : 0,
    "scenes" : [
        {
            "name" : "Scene",
            "nodes" : [
                1
            ]
        }
    ],
    "nodes" : [
        {
            "name" : "Rock3Collider -colonly",
            "mesh" : 0
        },
        {
            "name" : "Rock3",
            "mesh" : 1,
            "children" : [
                0
            ]
        }
    ],
    "materials" : [
        {
            "pbrMetallicRoughness" : {
                "baseColorTexture" : {
                    "index" : 0,
                    "texCoord" : 0
                }
            },
            "name" : "rock_3"
        }
    ],
    "meshes" : [
        {
            "name" : "Rock3Collider.001",
            "primitives" : [
                {
                    "indices" : 2,
                    "attributes" : {
                        "NORMAL" : 0,
                        "POSITION" : 1
                    }
                }
            ]
        },
        {
            "name" : "Rock3.001",
            "primitives" : [
                {
                    "indices" : 6,
                    "material" : 0,
                    "attributes" : {
                        "NORMAL" : 3,
                        "POSITION" : 4,
                        "TEXCOORD_0" : 5
                    }
                }
            ]
        }
    ],
    "textures" : [
        {
            "source" : 0,
            "sampler" : 0
        }
    ],
    "images" : [
        {
            "uri" : "rock_3.png",
            "name" : "rock_3.png",
            "mimeType" : "image/png"
        }
    ],
    "accessors" : [
        {
            "bufferView" : 0,
            "type" : "VEC3",
            "componentType" : 5126,
            "count" : 24
        },
        {
            "bufferView" : 1,
            "max" : [
                0.6114319562911987,
                0.7642900347709656,
                0.6878609657287598
            ],
            "type" : "VEC3",
            "componentType" : 5126,
            "min" : [
                -0.6114319562911987,
                0,
                -0.6878609657287598
            ],
            "count" : 24
        },
        {
            "bufferView" : 2,
            "type" : "SCALAR",
            "componentType" : 5123,
            "count" : 36
        },
        {
            "bufferView" : 3,
            "type" : "VEC3",
            "componentType" : 5126,
            "count" : 66
        },
        {
            "bufferView" : 4,
            "max" : [
                0.5881668925285339,
                0.7821370959281921,
                0.636416494846344
            ],
            "type" : "VEC3",
            "componentType" : 5126,
            "min" : [
                -0.5881668925285339,
                -0.005131840240210295,
                -0.6769084930419922
            ],
            "count" : 66
        },
        {
            "bufferView" : 5,
            "type" : "VEC2",
            "componentType" : 5126,
            "count" : 66
        },
        {
            "bufferView" : 6,
            "type" : "SCALAR",
            "componentType" : 5123,
            "count" : 192
        }
    ],
    "bufferViews" : [
        {
            "byteOffset" : 0,
            "buffer" : 0,
            "byteLength" : 288
        },
        {
            "byteOffset" : 288,
            "buffer" : 0,
            "byteLength" : 288
        },
        {
            "byteOffset" : 576,
            "buffer" : 0,
            "byteLength" : 72
        },
        {
            "byteOffset" : 648,
            "buffer" : 0,
            "byteLength" : 792
        },
        {
            "byteOffset" : 1440,
            "buffer" : 0,
            "byteLength" : 792
        },
        {
            "byteOffset" : 2232,
            "buffer" : 0,
            "byteLength" : 528
        },
        {
            "byteOffset" : 2760,
            "buffer" : 0,
            "byteLength" : 384
        }
    ],
    "samplers" : [
        {
            "magFilter" : 9729,
            "wrapS" : 10497,
            "minFilter" : 9986,
            "wrapT" : 10497
        }
    ],
    "buffers" : [
        {
            "uri" : "rock_3.bin",
            "byteLength" : 3144
        }
    ]
}
