{
    "asset" : {
        "version" : "2.0",
        "generator" : "Khronos glTF Blender I/O v1.2.20"
    },
    "extensionsUsed" : [
        "KHR_materials_unlit"
    ],
    "scene" : 0,
    "scenes" : [
        {
            "name" : "Scene",
            "nodes" : [
                1
            ]
        }
    ],
    "nodes" : [
        {
            "name" : "Rock1Collider -colonly",
            "mesh" : 0
        },
        {
            "name" : "Rock1",
            "mesh" : 1,
            "children" : [
                0
            ]
        }
    ],
    "materials" : [
        {
            "pbrMetallicRoughness" : {
                "baseColorTexture" : {
                    "index" : 0,
                    "texCoord" : 0
                }
            },
            "name" : "rock_1",
            "extensions" : {
                "KHR_materials_unlit" : {}
            }
        }
    ],
    "meshes" : [
        {
            "name" : "Rock1Collider.001",
            "primitives" : [
                {
                    "indices" : 2,
                    "attributes" : {
                        "NORMAL" : 0,
                        "POSITION" : 1
                    }
                }
            ]
        },
        {
            "name" : "Rock1.001",
            "primitives" : [
                {
                    "indices" : 6,
                    "material" : 0,
                    "attributes" : {
                        "NORMAL" : 3,
                        "POSITION" : 4,
                        "TEXCOORD_0" : 5
                    }
                }
            ]
        }
    ],
    "textures" : [
        {
            "source" : 0,
            "sampler" : 0
        }
    ],
    "images" : [
        {
            "uri" : "rock_1.png",
            "name" : "rock_1.png",
            "mimeType" : "image/png"
        }
    ],
    "accessors" : [
        {
            "bufferView" : 0,
            "type" : "VEC3",
            "componentType" : 5126,
            "count" : 42
        },
        {
            "bufferView" : 1,
            "max" : [
                0.7177661657333374,
                0.999622106552124,
                0.5279121398925781
            ],
            "type" : "VEC3",
            "componentType" : 5126,
            "min" : [
                -0.545746386051178,
                0,
                -0.5906761884689331
            ],
            "count" : 42
        },
        {
            "bufferView" : 2,
            "type" : "SCALAR",
            "componentType" : 5123,
            "count" : 54
        },
        {
            "bufferView" : 3,
            "type" : "VEC3",
            "componentType" : 5126,
            "count" : 80
        },
        {
            "bufferView" : 4,
            "max" : [
                0.6945320963859558,
                0.9974599480628967,
                0.5465134382247925
            ],
            "type" : "VEC3",
            "componentType" : 5126,
            "min" : [
                -0.5603770613670349,
                0,
                -0.5807106494903564
            ],
            "count" : 80
        },
        {
            "bufferView" : 5,
            "type" : "VEC2",
            "componentType" : 5126,
            "count" : 80
        },
        {
            "bufferView" : 6,
            "type" : "SCALAR",
            "componentType" : 5123,
            "count" : 270
        }
    ],
    "bufferViews" : [
        {
            "byteOffset" : 0,
            "buffer" : 0,
            "byteLength" : 504
        },
        {
            "byteOffset" : 504,
            "buffer" : 0,
            "byteLength" : 504
        },
        {
            "byteOffset" : 1008,
            "buffer" : 0,
            "byteLength" : 108
        },
        {
            "byteOffset" : 1116,
            "buffer" : 0,
            "byteLength" : 960
        },
        {
            "byteOffset" : 2076,
            "buffer" : 0,
            "byteLength" : 960
        },
        {
            "byteOffset" : 3036,
            "buffer" : 0,
            "byteLength" : 640
        },
        {
            "byteOffset" : 3676,
            "buffer" : 0,
            "byteLength" : 540
        }
    ],
    "samplers" : [
        {
            "magFilter" : 9729,
            "wrapS" : 10497,
            "minFilter" : 9986,
            "wrapT" : 10497
        }
    ],
    "buffers" : [
        {
            "uri" : "rock_1.bin",
            "byteLength" : 4216
        }
    ]
}
