{
    "asset" : {
        "version" : "2.0",
        "generator" : "Khronos glTF Blender I/O v1.2.20"
    },
    "scene" : 0,
    "scenes" : [
        {
            "name" : "Scene",
            "nodes" : [
                1
            ]
        }
    ],
    "nodes" : [
        {
            "name" : "Rock2Collider -colonly",
            "mesh" : 0
        },
        {
            "name" : "Rock2",
            "mesh" : 1,
            "children" : [
                0
            ]
        }
    ],
    "materials" : [
        {
            "pbrMetallicRoughness" : {
                "baseColorTexture" : {
                    "index" : 0,
                    "texCoord" : 0
                }
            },
            "name" : "rock_2"
        }
    ],
    "meshes" : [
        {
            "name" : "Rock2Collider.001",
            "primitives" : [
                {
                    "indices" : 2,
                    "attributes" : {
                        "NORMAL" : 0,
                        "POSITION" : 1
                    }
                }
            ]
        },
        {
            "name" : "Rock2.001",
            "primitives" : [
                {
                    "indices" : 6,
                    "material" : 0,
                    "attributes" : {
                        "NORMAL" : 3,
                        "POSITION" : 4,
                        "TEXCOORD_0" : 5
                    }
                }
            ]
        }
    ],
    "textures" : [
        {
            "source" : 0,
            "sampler" : 0
        }
    ],
    "images" : [
        {
            "uri" : "rock_2.png",
            "name" : "rock_2.png",
            "mimeType" : "image/png"
        }
    ],
    "accessors" : [
        {
            "bufferView" : 0,
            "type" : "VEC3",
            "componentType" : 5126,
            "count" : 53
        },
        {
            "bufferView" : 1,
            "max" : [
                0.58921217918396,
                1.1522278785705566,
                0.618649423122406
            ],
            "type" : "VEC3",
            "componentType" : 5126,
            "min" : [
                -0.58921217918396,
                -0.10638739913702011,
                -0.6182562112808228
            ],
            "count" : 53
        },
        {
            "bufferView" : 2,
            "type" : "SCALAR",
            "componentType" : 5123,
            "count" : 96
        },
        {
            "bufferView" : 3,
            "type" : "VEC3",
            "componentType" : 5126,
            "count" : 52
        },
        {
            "bufferView" : 4,
            "max" : [
                0.6150045394897461,
                1.1495482921600342,
                0.6322313547134399
            ],
            "type" : "VEC3",
            "componentType" : 5126,
            "min" : [
                -0.5883015394210815,
                -0.13517452776432037,
                -0.6014695167541504
            ],
            "count" : 52
        },
        {
            "bufferView" : 5,
            "type" : "VEC2",
            "componentType" : 5126,
            "count" : 52
        },
        {
            "bufferView" : 6,
            "type" : "SCALAR",
            "componentType" : 5123,
            "count" : 300
        }
    ],
    "bufferViews" : [
        {
            "byteOffset" : 0,
            "buffer" : 0,
            "byteLength" : 636
        },
        {
            "byteOffset" : 636,
            "buffer" : 0,
            "byteLength" : 636
        },
        {
            "byteOffset" : 1272,
            "buffer" : 0,
            "byteLength" : 192
        },
        {
            "byteOffset" : 1464,
            "buffer" : 0,
            "byteLength" : 624
        },
        {
            "byteOffset" : 2088,
            "buffer" : 0,
            "byteLength" : 624
        },
        {
            "byteOffset" : 2712,
            "buffer" : 0,
            "byteLength" : 416
        },
        {
            "byteOffset" : 3128,
            "buffer" : 0,
            "byteLength" : 600
        }
    ],
    "samplers" : [
        {
            "magFilter" : 9729,
            "wrapS" : 10497,
            "minFilter" : 9986,
            "wrapT" : 10497
        }
    ],
    "buffers" : [
        {
            "uri" : "rock_2.bin",
            "byteLength" : 3728
        }
    ]
}
