{
    "asset" : {
        "version" : "2.0",
        "generator" : "Khronos glTF Blender I/O v1.2.20"
    },
    "extensionsUsed" : [
        "KHR_materials_unlit"
    ],
    "scene" : 0,
    "scenes" : [
        {
            "name" : "Scene",
            "nodes" : [
                1
            ]
        }
    ],
    "nodes" : [
        {
            "name" : "GrassCornerCollider -colonly",
            "mesh" : 0
        },
        {
            "name" : "GrassCorner1",
            "mesh" : 1,
            "children" : [
                0
            ]
        }
    ],
    "materials" : [
        {
            "name" : "grass",
            "pbrMetallicRoughness" : {
                "baseColorTexture" : {
                    "index" : 0,
                    "texCoord" : 0
                }
            },
            "extensions" : {
                "KHR_materials_unlit" : {}
            }
        }
    ],
    "meshes" : [
        {
            "name" : "GrassCornerCollider.001",
            "primitives" : [
                {
                    "indices" : 2,
                    "attributes" : {
                        "NORMAL" : 0,
                        "POSITION" : 1
                    }
                }
            ]
        },
        {
            "name" : "GrassCorner1.001",
            "primitives" : [
                {
                    "indices" : 6,
                    "material" : 0,
                    "attributes" : {
                        "NORMAL" : 3,
                        "TEXCOORD_0" : 4,
                        "POSITION" : 5
                    }
                }
            ]
        }
    ],
    "textures" : [
        {
            "sampler" : 0,
            "source" : 0
        }
    ],
    "images" : [
        {
            "name" : "grass.png",
            "mimeType" : "image/png",
            "uri" : "grass.png"
        }
    ],
    "accessors" : [
        {
            "count" : 17,
            "bufferView" : 0,
            "componentType" : 5126,
            "type" : "VEC3"
        },
        {
            "count" : 17,
            "componentType" : 5126,
            "min" : [
                -0.9999975562095642,
                -2,
                -1.000001072883606
            ],
            "bufferView" : 1,
            "max" : [
                1.0000030994415283,
                0,
                0.9999988675117493
            ],
            "type" : "VEC3"
        },
        {
            "count" : 27,
            "bufferView" : 2,
            "componentType" : 5123,
            "type" : "SCALAR"
        },
        {
            "count" : 39,
            "bufferView" : 3,
            "componentType" : 5126,
            "type" : "VEC3"
        },
        {
            "count" : 39,
            "bufferView" : 4,
            "componentType" : 5126,
            "type" : "VEC2"
        },
        {
            "count" : 39,
            "componentType" : 5126,
            "min" : [
                -0.9999977350234985,
                -2,
                -1.000001072883606
            ],
            "bufferView" : 5,
            "max" : [
                1.0000030994415283,
                -2.9802322387695312e-08,
                0.9999988079071045
            ],
            "type" : "VEC3"
        },
        {
            "count" : 57,
            "bufferView" : 6,
            "componentType" : 5123,
            "type" : "SCALAR"
        }
    ],
    "bufferViews" : [
        {
            "byteOffset" : 0,
            "buffer" : 0,
            "byteLength" : 204
        },
        {
            "byteOffset" : 204,
            "buffer" : 0,
            "byteLength" : 204
        },
        {
            "byteOffset" : 408,
            "buffer" : 0,
            "byteLength" : 54
        },
        {
            "byteOffset" : 464,
            "buffer" : 0,
            "byteLength" : 468
        },
        {
            "byteOffset" : 932,
            "buffer" : 0,
            "byteLength" : 312
        },
        {
            "byteOffset" : 1244,
            "buffer" : 0,
            "byteLength" : 468
        },
        {
            "byteOffset" : 1712,
            "buffer" : 0,
            "byteLength" : 114
        }
    ],
    "samplers" : [
        {
            "wrapS" : 10497,
            "minFilter" : 9986,
            "magFilter" : 9729,
            "wrapT" : 10497
        }
    ],
    "buffers" : [
        {
            "uri" : "grass_corner_1.bin",
            "byteLength" : 1828
        }
    ]
}
