{
    "asset" : {
        "version" : "2.0",
        "generator" : "Khronos glTF Blender I/O v1.2.20"
    },
    "extensionsUsed" : [
        "KHR_materials_unlit"
    ],
    "scene" : 0,
    "scenes" : [
        {
            "nodes" : [
                0
            ],
            "name" : "Scene"
        }
    ],
    "nodes" : [
        {
            "mesh" : 0,
            "scale" : [
                0.5,
                0.5,
                0.5
            ],
            "name" : "GrassPlatform"
        }
    ],
    "materials" : [
        {
            "pbrMetallicRoughness" : {
                "baseColorTexture" : {
                    "texCoord" : 0,
                    "index" : 0
                }
            },
            "extensions" : {
                "KHR_materials_unlit" : {}
            },
            "name" : "grass"
        }
    ],
    "meshes" : [
        {
            "name" : "GrassPlatform.001",
            "primitives" : [
                {
                    "indices" : 3,
                    "attributes" : {
                        "TEXCOORD_0" : 0,
                        "NORMAL" : 1,
                        "POSITION" : 2
                    },
                    "material" : 0
                }
            ]
        }
    ],
    "textures" : [
        {
            "source" : 0,
            "sampler" : 0
        }
    ],
    "images" : [
        {
            "uri" : "grass.png",
            "mimeType" : "image/png",
            "name" : "grass.png"
        }
    ],
    "accessors" : [
        {
            "type" : "VEC2",
            "count" : 96,
            "bufferView" : 0,
            "componentType" : 5126
        },
        {
            "type" : "VEC3",
            "count" : 96,
            "bufferView" : 1,
            "componentType" : 5126
        },
        {
            "min" : [
                -2.0000061988830566,
                -1.0000001192092896,
                -2.000004291534424
            ],
            "type" : "VEC3",
            "bufferView" : 2,
            "componentType" : 5126,
            "count" : 96,
            "max" : [
                2.0000061988830566,
                -2.9802320611338473e-08,
                2.000001907348633
            ]
        },
        {
            "type" : "SCALAR",
            "count" : 138,
            "bufferView" : 3,
            "componentType" : 5123
        }
    ],
    "bufferViews" : [
        {
            "byteOffset" : 0,
            "buffer" : 0,
            "byteLength" : 768
        },
        {
            "byteOffset" : 768,
            "buffer" : 0,
            "byteLength" : 1152
        },
        {
            "byteOffset" : 1920,
            "buffer" : 0,
            "byteLength" : 1152
        },
        {
            "byteOffset" : 3072,
            "buffer" : 0,
            "byteLength" : 276
        }
    ],
    "samplers" : [
        {
            "wrapS" : 10497,
            "minFilter" : 9986,
            "magFilter" : 9729,
            "wrapT" : 10497
        }
    ],
    "buffers" : [
        {
            "uri" : "grass_platform.bin",
            "byteLength" : 3348
        }
    ]
}
