{
    "asset" : {
        "generator" : "Khronos glTF Blender I/O v1.2.20",
        "version" : "2.0"
    },
    "extensionsUsed" : [
        "KHR_materials_unlit"
    ],
    "scene" : 0,
    "scenes" : [
        {
            "nodes" : [
                1
            ],
            "name" : "Scene"
        }
    ],
    "nodes" : [
        {
            "mesh" : 0,
            "name" : "GrassSideCollider -colonly"
        },
        {
            "children" : [
                0
            ],
            "mesh" : 1,
            "name" : "GrassSide"
        }
    ],
    "materials" : [
        {
            "extensions" : {
                "KHR_materials_unlit" : {}
            },
            "pbrMetallicRoughness" : {
                "baseColorTexture" : {
                    "index" : 0,
                    "texCoord" : 0
                }
            },
            "name" : "grass"
        }
    ],
    "meshes" : [
        {
            "name" : "GrassSideCollider.001",
            "primitives" : [
                {
                    "indices" : 3,
                    "attributes" : {
                        "POSITION" : 0,
                        "TEXCOORD_0" : 1,
                        "NORMAL" : 2
                    }
                }
            ]
        },
        {
            "name" : "GrassSide.001",
            "primitives" : [
                {
                    "indices" : 7,
                    "material" : 0,
                    "attributes" : {
                        "POSITION" : 4,
                        "TEXCOORD_0" : 5,
                        "NORMAL" : 6
                    }
                }
            ]
        }
    ],
    "textures" : [
        {
            "sampler" : 0,
            "source" : 0
        }
    ],
    "images" : [
        {
            "uri" : "grass.png",
            "mimeType" : "image/png",
            "name" : "grass.png"
        }
    ],
    "accessors" : [
        {
            "type" : "VEC3",
            "componentType" : 5126,
            "bufferView" : 0,
            "max" : [
                1.0000022649765015,
                0,
                1.0000003576278687
            ],
            "count" : 8,
            "min" : [
                -0.9999983906745911,
                -2,
                -0.9999998211860657
            ]
        },
        {
            "type" : "VEC2",
            "componentType" : 5126,
            "count" : 8,
            "bufferView" : 1
        },
        {
            "type" : "VEC3",
            "componentType" : 5126,
            "count" : 8,
            "bufferView" : 2
        },
        {
            "type" : "SCALAR",
            "componentType" : 5123,
            "count" : 12,
            "bufferView" : 3
        },
        {
            "type" : "VEC3",
            "componentType" : 5126,
            "bufferView" : 4,
            "max" : [
                1.0000019073486328,
                -8.940696716308594e-08,
                1
            ],
            "count" : 12,
            "min" : [
                -1.0000007152557373,
                -2,
                -0.9999999403953552
            ]
        },
        {
            "type" : "VEC2",
            "componentType" : 5126,
            "count" : 12,
            "bufferView" : 5
        },
        {
            "type" : "VEC3",
            "componentType" : 5126,
            "count" : 12,
            "bufferView" : 6
        },
        {
            "type" : "SCALAR",
            "componentType" : 5123,
            "count" : 18,
            "bufferView" : 7
        }
    ],
    "bufferViews" : [
        {
            "buffer" : 0,
            "byteLength" : 96,
            "byteOffset" : 0
        },
        {
            "buffer" : 0,
            "byteLength" : 64,
            "byteOffset" : 96
        },
        {
            "buffer" : 0,
            "byteLength" : 96,
            "byteOffset" : 160
        },
        {
            "buffer" : 0,
            "byteLength" : 24,
            "byteOffset" : 256
        },
        {
            "buffer" : 0,
            "byteLength" : 144,
            "byteOffset" : 280
        },
        {
            "buffer" : 0,
            "byteLength" : 96,
            "byteOffset" : 424
        },
        {
            "buffer" : 0,
            "byteLength" : 144,
            "byteOffset" : 520
        },
        {
            "buffer" : 0,
            "byteLength" : 36,
            "byteOffset" : 664
        }
    ],
    "samplers" : [
        {
            "wrapT" : 10497,
            "minFilter" : 9986,
            "wrapS" : 10497,
            "magFilter" : 9729
        }
    ],
    "buffers" : [
        {
            "uri" : "grass_side.bin",
            "byteLength" : 700
        }
    ]
}
