{
    "asset" : {
        "version" : "2.0",
        "generator" : "Khronos glTF Blender I/O v1.2.20"
    },
    "extensionsUsed" : [
        "KHR_materials_unlit"
    ],
    "scene" : 0,
    "scenes" : [
        {
            "name" : "Scene",
            "nodes" : [
                1
            ]
        }
    ],
    "nodes" : [
        {
            "name" : "GrassSideCollider -colonly",
            "mesh" : 0
        },
        {
            "name" : "GrassSide",
            "mesh" : 1,
            "children" : [
                0
            ]
        }
    ],
    "materials" : [
        {
            "name" : "grass",
            "pbrMetallicRoughness" : {
                "baseColorTexture" : {
                    "index" : 0,
                    "texCoord" : 0
                }
            },
            "extensions" : {
                "KHR_materials_unlit" : {}
            }
        }
    ],
    "meshes" : [
        {
            "name" : "GrassSideCollider.001",
            "primitives" : [
                {
                    "attributes" : {
                        "POSITION" : 0,
                        "TEXCOORD_0" : 1,
                        "NORMAL" : 2
                    },
                    "indices" : 3
                }
            ]
        },
        {
            "name" : "GrassSide.001",
            "primitives" : [
                {
                    "material" : 0,
                    "attributes" : {
                        "POSITION" : 4,
                        "TEXCOORD_0" : 5,
                        "NORMAL" : 6
                    },
                    "indices" : 7
                }
            ]
        }
    ],
    "textures" : [
        {
            "sampler" : 0,
            "source" : 0
        }
    ],
    "images" : [
        {
            "name" : "grass.png",
            "mimeType" : "image/png",
            "uri" : "grass.png"
        }
    ],
    "accessors" : [
        {
            "componentType" : 5126,
            "min" : [
                -0.9999983906745911,
                -2,
                -0.9999998211860657
            ],
            "type" : "VEC3",
            "max" : [
                1.0000022649765015,
                0,
                1.0000003576278687
            ],
            "count" : 8,
            "bufferView" : 0
        },
        {
            "componentType" : 5126,
            "count" : 8,
            "bufferView" : 1,
            "type" : "VEC2"
        },
        {
            "componentType" : 5126,
            "count" : 8,
            "bufferView" : 2,
            "type" : "VEC3"
        },
        {
            "componentType" : 5123,
            "count" : 12,
            "bufferView" : 3,
            "type" : "SCALAR"
        },
        {
            "componentType" : 5126,
            "min" : [
                -0.9999985694885254,
                -2,
                -0.9999997019767761
            ],
            "type" : "VEC3",
            "max" : [
                1.0000019073486328,
                -8.940696716308594e-08,
                1.000000238418579
            ],
            "count" : 12,
            "bufferView" : 4
        },
        {
            "componentType" : 5126,
            "count" : 12,
            "bufferView" : 5,
            "type" : "VEC2"
        },
        {
            "componentType" : 5126,
            "count" : 12,
            "bufferView" : 6,
            "type" : "VEC3"
        },
        {
            "componentType" : 5123,
            "count" : 18,
            "bufferView" : 7,
            "type" : "SCALAR"
        }
    ],
    "bufferViews" : [
        {
            "buffer" : 0,
            "byteLength" : 96,
            "byteOffset" : 0
        },
        {
            "buffer" : 0,
            "byteLength" : 64,
            "byteOffset" : 96
        },
        {
            "buffer" : 0,
            "byteLength" : 96,
            "byteOffset" : 160
        },
        {
            "buffer" : 0,
            "byteLength" : 24,
            "byteOffset" : 256
        },
        {
            "buffer" : 0,
            "byteLength" : 144,
            "byteOffset" : 280
        },
        {
            "buffer" : 0,
            "byteLength" : 96,
            "byteOffset" : 424
        },
        {
            "buffer" : 0,
            "byteLength" : 144,
            "byteOffset" : 520
        },
        {
            "buffer" : 0,
            "byteLength" : 36,
            "byteOffset" : 664
        }
    ],
    "samplers" : [
        {
            "wrapT" : 10497,
            "wrapS" : 10497,
            "minFilter" : 9986,
            "magFilter" : 9729
        }
    ],
    "buffers" : [
        {
            "byteLength" : 700,
            "uri" : "grass_side.bin"
        }
    ]
}
