{
    "asset" : {
        "generator" : "Khronos glTF Blender I/O v1.2.20",
        "version" : "2.0"
    },
    "extensionsUsed" : [
        "KHR_materials_unlit"
    ],
    "scene" : 0,
    "scenes" : [
        {
            "nodes" : [
                1
            ],
            "name" : "Scene"
        }
    ],
    "nodes" : [
        {
            "mesh" : 0,
            "name" : "GrassCornerCollider -colonly"
        },
        {
            "children" : [
                0
            ],
            "mesh" : 1,
            "name" : "GrassCorner1"
        }
    ],
    "materials" : [
        {
            "extensions" : {
                "KHR_materials_unlit" : {}
            },
            "pbrMetallicRoughness" : {
                "baseColorTexture" : {
                    "index" : 0,
                    "texCoord" : 0
                }
            },
            "name" : "grass"
        }
    ],
    "meshes" : [
        {
            "name" : "GrassCornerCollider.001",
            "primitives" : [
                {
                    "indices" : 2,
                    "attributes" : {
                        "POSITION" : 0,
                        "NORMAL" : 1
                    }
                }
            ]
        },
        {
            "name" : "GrassCorner1.001",
            "primitives" : [
                {
                    "indices" : 6,
                    "material" : 0,
                    "attributes" : {
                        "POSITION" : 3,
                        "TEXCOORD_0" : 4,
                        "NORMAL" : 5
                    }
                }
            ]
        }
    ],
    "textures" : [
        {
            "sampler" : 0,
            "source" : 0
        }
    ],
    "images" : [
        {
            "uri" : "grass.png",
            "mimeType" : "image/png",
            "name" : "grass.png"
        }
    ],
    "accessors" : [
        {
            "type" : "VEC3",
            "componentType" : 5126,
            "bufferView" : 0,
            "max" : [
                1.0000030994415283,
                0,
                0.9999988675117493
            ],
            "count" : 9,
            "min" : [
                -0.9999975562095642,
                -2,
                -1.000001072883606
            ]
        },
        {
            "type" : "VEC3",
            "componentType" : 5126,
            "count" : 9,
            "bufferView" : 1
        },
        {
            "type" : "SCALAR",
            "componentType" : 5123,
            "count" : 27,
            "bufferView" : 2
        },
        {
            "type" : "VEC3",
            "componentType" : 5126,
            "bufferView" : 3,
            "max" : [
                1.0000030994415283,
                -2.9802322387695312e-08,
                0.9999988079071045
            ],
            "count" : 24,
            "min" : [
                -0.9999977350234985,
                -2,
                -1.000001072883606
            ]
        },
        {
            "type" : "VEC2",
            "componentType" : 5126,
            "count" : 24,
            "bufferView" : 4
        },
        {
            "type" : "VEC3",
            "componentType" : 5126,
            "count" : 24,
            "bufferView" : 5
        },
        {
            "type" : "SCALAR",
            "componentType" : 5123,
            "count" : 72,
            "bufferView" : 6
        }
    ],
    "bufferViews" : [
        {
            "buffer" : 0,
            "byteLength" : 108,
            "byteOffset" : 0
        },
        {
            "buffer" : 0,
            "byteLength" : 108,
            "byteOffset" : 108
        },
        {
            "buffer" : 0,
            "byteLength" : 54,
            "byteOffset" : 216
        },
        {
            "buffer" : 0,
            "byteLength" : 288,
            "byteOffset" : 272
        },
        {
            "buffer" : 0,
            "byteLength" : 192,
            "byteOffset" : 560
        },
        {
            "buffer" : 0,
            "byteLength" : 288,
            "byteOffset" : 752
        },
        {
            "buffer" : 0,
            "byteLength" : 144,
            "byteOffset" : 1040
        }
    ],
    "samplers" : [
        {
            "wrapT" : 10497,
            "minFilter" : 9986,
            "wrapS" : 10497,
            "magFilter" : 9729
        }
    ],
    "buffers" : [
        {
            "uri" : "grass_corner_1.bin",
            "byteLength" : 1184
        }
    ]
}
