{
    "asset" : {
        "version" : "2.0",
        "generator" : "Khronos glTF Blender I/O v1.2.20"
    },
    "extensionsUsed" : [
        "KHR_materials_unlit"
    ],
    "scene" : 0,
    "scenes" : [
        {
            "name" : "Scene",
            "nodes" : [
                0
            ]
        }
    ],
    "nodes" : [
        {
            "name" : "GrassSide",
            "mesh" : 0
        }
    ],
    "materials" : [
        {
            "name" : "grass",
            "pbrMetallicRoughness" : {
                "baseColorTexture" : {
                    "texCoord" : 0,
                    "index" : 0
                }
            },
            "extensions" : {
                "KHR_materials_unlit" : {}
            }
        }
    ],
    "meshes" : [
        {
            "name" : "GrassSide.001",
            "primitives" : [
                {
                    "material" : 0,
                    "indices" : 3,
                    "attributes" : {
                        "TEXCOORD_0" : 0,
                        "POSITION" : 1,
                        "NORMAL" : 2
                    }
                }
            ]
        }
    ],
    "textures" : [
        {
            "sampler" : 0,
            "source" : 0
        }
    ],
    "images" : [
        {
            "name" : "grass.png",
            "mimeType" : "image/png",
            "uri" : "grass.png"
        }
    ],
    "accessors" : [
        {
            "type" : "VEC2",
            "count" : 12,
            "bufferView" : 0,
            "componentType" : 5126
        },
        {
            "min" : [
                -0.9999985694885254,
                -2,
                -0.9999997019767761
            ],
            "type" : "VEC3",
            "count" : 12,
            "componentType" : 5126,
            "max" : [
                1.0000019073486328,
                -8.940696716308594e-08,
                1.000000238418579
            ],
            "bufferView" : 1
        },
        {
            "type" : "VEC3",
            "count" : 12,
            "bufferView" : 2,
            "componentType" : 5126
        },
        {
            "type" : "SCALAR",
            "count" : 18,
            "bufferView" : 3,
            "componentType" : 5123
        }
    ],
    "bufferViews" : [
        {
            "buffer" : 0,
            "byteOffset" : 0,
            "byteLength" : 96
        },
        {
            "buffer" : 0,
            "byteOffset" : 96,
            "byteLength" : 144
        },
        {
            "buffer" : 0,
            "byteOffset" : 240,
            "byteLength" : 144
        },
        {
            "buffer" : 0,
            "byteOffset" : 384,
            "byteLength" : 36
        }
    ],
    "samplers" : [
        {
            "wrapT" : 10497,
            "wrapS" : 10497,
            "minFilter" : 9986,
            "magFilter" : 9729
        }
    ],
    "buffers" : [
        {
            "uri" : "grass_side.bin",
            "byteLength" : 420
        }
    ]
}
