{
    "asset" : {
        "version" : "2.0",
        "generator" : "Khronos glTF Blender I/O v1.2.20"
    },
    "extensionsUsed" : [
        "KHR_materials_unlit"
    ],
    "scene" : 0,
    "scenes" : [
        {
            "name" : "Scene",
            "nodes" : [
                0
            ]
        }
    ],
    "nodes" : [
        {
            "name" : "GrassWallCorner -col",
            "mesh" : 0
        }
    ],
    "materials" : [
        {
            "name" : "grass",
            "pbrMetallicRoughness" : {
                "baseColorTexture" : {
                    "index" : 0,
                    "texCoord" : 0
                }
            },
            "extensions" : {
                "KHR_materials_unlit" : {}
            }
        }
    ],
    "meshes" : [
        {
            "name" : "GrassWallCorner.001",
            "primitives" : [
                {
                    "attributes" : {
                        "POSITION" : 0,
                        "TEXCOORD_0" : 1,
                        "NORMAL" : 2
                    },
                    "material" : 0,
                    "indices" : 3
                }
            ]
        }
    ],
    "textures" : [
        {
            "sampler" : 0,
            "source" : 0
        }
    ],
    "images" : [
        {
            "name" : "grass.png",
            "uri" : "grass.png",
            "mimeType" : "image/png"
        }
    ],
    "accessors" : [
        {
            "componentType" : 5126,
            "min" : [
                -0.999997615814209,
                -2,
                -1.0000008344650269
            ],
            "type" : "VEC3",
            "bufferView" : 0,
            "max" : [
                1.0000030994415283,
                0,
                0.9999988079071045
            ],
            "count" : 12
        },
        {
            "componentType" : 5126,
            "type" : "VEC2",
            "bufferView" : 1,
            "count" : 12
        },
        {
            "componentType" : 5126,
            "type" : "VEC3",
            "bufferView" : 2,
            "count" : 12
        },
        {
            "componentType" : 5123,
            "type" : "SCALAR",
            "bufferView" : 3,
            "count" : 18
        }
    ],
    "bufferViews" : [
        {
            "buffer" : 0,
            "byteOffset" : 0,
            "byteLength" : 144
        },
        {
            "buffer" : 0,
            "byteOffset" : 144,
            "byteLength" : 96
        },
        {
            "buffer" : 0,
            "byteOffset" : 240,
            "byteLength" : 144
        },
        {
            "buffer" : 0,
            "byteOffset" : 384,
            "byteLength" : 36
        }
    ],
    "samplers" : [
        {
            "magFilter" : 9729,
            "minFilter" : 9986,
            "wrapS" : 10497,
            "wrapT" : 10497
        }
    ],
    "buffers" : [
        {
            "byteLength" : 420,
            "uri" : "grass_wall_corner.bin"
        }
    ]
}
