{
    "asset" : {
        "version" : "2.0",
        "generator" : "Khronos glTF Blender I/O v1.2.20"
    },
    "extensionsUsed" : [
        "KHR_materials_unlit"
    ],
    "scene" : 0,
    "scenes" : [
        {
            "nodes" : [
                1
            ],
            "name" : "Scene"
        }
    ],
    "nodes" : [
        {
            "mesh" : 0,
            "name" : "GrassCorner2Collider -colonly"
        },
        {
            "mesh" : 1,
            "children" : [
                0
            ],
            "name" : "GrassCorner2"
        }
    ],
    "materials" : [
        {
            "pbrMetallicRoughness" : {
                "baseColorTexture" : {
                    "texCoord" : 0,
                    "index" : 0
                }
            },
            "extensions" : {
                "KHR_materials_unlit" : {}
            },
            "name" : "grass"
        }
    ],
    "meshes" : [
        {
            "name" : "GrassCorner2Collider.001",
            "primitives" : [
                {
                    "indices" : 2,
                    "attributes" : {
                        "NORMAL" : 0,
                        "POSITION" : 1
                    }
                }
            ]
        },
        {
            "name" : "GrassCorner2.001",
            "primitives" : [
                {
                    "indices" : 6,
                    "attributes" : {
                        "TEXCOORD_0" : 3,
                        "NORMAL" : 4,
                        "POSITION" : 5
                    },
                    "material" : 0
                }
            ]
        }
    ],
    "textures" : [
        {
            "source" : 0,
            "sampler" : 0
        }
    ],
    "images" : [
        {
            "uri" : "grass.png",
            "mimeType" : "image/png",
            "name" : "grass.png"
        }
    ],
    "accessors" : [
        {
            "type" : "VEC3",
            "count" : 4,
            "bufferView" : 0,
            "componentType" : 5126
        },
        {
            "min" : [
                -1,
                0,
                -1
            ],
            "type" : "VEC3",
            "bufferView" : 1,
            "componentType" : 5126,
            "count" : 4,
            "max" : [
                1,
                0,
                1
            ]
        },
        {
            "type" : "SCALAR",
            "count" : 6,
            "bufferView" : 2,
            "componentType" : 5123
        },
        {
            "type" : "VEC2",
            "count" : 24,
            "bufferView" : 3,
            "componentType" : 5126
        },
        {
            "type" : "VEC3",
            "count" : 24,
            "bufferView" : 4,
            "componentType" : 5126
        },
        {
            "min" : [
                -1,
                -0.10000000149011612,
                -1
            ],
            "type" : "VEC3",
            "bufferView" : 5,
            "componentType" : 5126,
            "count" : 24,
            "max" : [
                1,
                -2.9802322387695312e-08,
                1.0000004768371582
            ]
        },
        {
            "type" : "SCALAR",
            "count" : 30,
            "bufferView" : 6,
            "componentType" : 5123
        }
    ],
    "bufferViews" : [
        {
            "byteOffset" : 0,
            "buffer" : 0,
            "byteLength" : 48
        },
        {
            "byteOffset" : 48,
            "buffer" : 0,
            "byteLength" : 48
        },
        {
            "byteOffset" : 96,
            "buffer" : 0,
            "byteLength" : 12
        },
        {
            "byteOffset" : 108,
            "buffer" : 0,
            "byteLength" : 192
        },
        {
            "byteOffset" : 300,
            "buffer" : 0,
            "byteLength" : 288
        },
        {
            "byteOffset" : 588,
            "buffer" : 0,
            "byteLength" : 288
        },
        {
            "byteOffset" : 876,
            "buffer" : 0,
            "byteLength" : 60
        }
    ],
    "samplers" : [
        {
            "wrapS" : 10497,
            "minFilter" : 9986,
            "magFilter" : 9729,
            "wrapT" : 10497
        }
    ],
    "buffers" : [
        {
            "uri" : "grass_corner_2.bin",
            "byteLength" : 936
        }
    ]
}
