{
    "asset" : {
        "generator" : "Khronos glTF Blender I/O v1.2.20",
        "version" : "2.0"
    },
    "extensionsUsed" : [
        "KHR_materials_unlit"
    ],
    "scene" : 0,
    "scenes" : [
        {
            "name" : "Scene",
            "nodes" : [
                1
            ]
        }
    ],
    "nodes" : [
        {
            "mesh" : 0,
            "name" : "GrassCorner2Collider -colonly"
        },
        {
            "name" : "GrassCorner2",
            "mesh" : 1,
            "children" : [
                0
            ]
        }
    ],
    "materials" : [
        {
            "extensions" : {
                "KHR_materials_unlit" : {}
            },
            "name" : "grass",
            "pbrMetallicRoughness" : {
                "baseColorTexture" : {
                    "texCoord" : 0,
                    "index" : 0
                }
            }
        }
    ],
    "meshes" : [
        {
            "name" : "GrassCorner2Collider.001",
            "primitives" : [
                {
                    "attributes" : {
                        "POSITION" : 0,
                        "NORMAL" : 1
                    },
                    "indices" : 2
                }
            ]
        },
        {
            "name" : "GrassCorner2.001",
            "primitives" : [
                {
                    "attributes" : {
                        "POSITION" : 3,
                        "NORMAL" : 4,
                        "TEXCOORD_0" : 5
                    },
                    "indices" : 6,
                    "material" : 0
                }
            ]
        }
    ],
    "textures" : [
        {
            "source" : 0,
            "sampler" : 0
        }
    ],
    "images" : [
        {
            "mimeType" : "image/png",
            "uri" : "grass.png",
            "name" : "grass.png"
        }
    ],
    "accessors" : [
        {
            "bufferView" : 0,
            "count" : 4,
            "componentType" : 5126,
            "min" : [
                -1,
                0,
                -1
            ],
            "max" : [
                1,
                0,
                1
            ],
            "type" : "VEC3"
        },
        {
            "bufferView" : 1,
            "type" : "VEC3",
            "componentType" : 5126,
            "count" : 4
        },
        {
            "bufferView" : 2,
            "type" : "SCALAR",
            "componentType" : 5123,
            "count" : 6
        },
        {
            "bufferView" : 3,
            "count" : 24,
            "componentType" : 5126,
            "min" : [
                -1,
                -0.10000000149011612,
                -1
            ],
            "max" : [
                1,
                -2.9802322387695312e-08,
                1.0000004768371582
            ],
            "type" : "VEC3"
        },
        {
            "bufferView" : 4,
            "type" : "VEC3",
            "componentType" : 5126,
            "count" : 24
        },
        {
            "bufferView" : 5,
            "type" : "VEC2",
            "componentType" : 5126,
            "count" : 24
        },
        {
            "bufferView" : 6,
            "type" : "SCALAR",
            "componentType" : 5123,
            "count" : 30
        }
    ],
    "bufferViews" : [
        {
            "buffer" : 0,
            "byteLength" : 48,
            "byteOffset" : 0
        },
        {
            "buffer" : 0,
            "byteLength" : 48,
            "byteOffset" : 48
        },
        {
            "buffer" : 0,
            "byteLength" : 12,
            "byteOffset" : 96
        },
        {
            "buffer" : 0,
            "byteLength" : 288,
            "byteOffset" : 108
        },
        {
            "buffer" : 0,
            "byteLength" : 288,
            "byteOffset" : 396
        },
        {
            "buffer" : 0,
            "byteLength" : 192,
            "byteOffset" : 684
        },
        {
            "buffer" : 0,
            "byteLength" : 60,
            "byteOffset" : 876
        }
    ],
    "samplers" : [
        {
            "magFilter" : 9729,
            "minFilter" : 9986,
            "wrapS" : 10497,
            "wrapT" : 10497
        }
    ],
    "buffers" : [
        {
            "uri" : "grass_corner_2.bin",
            "byteLength" : 936
        }
    ]
}
