{
    "asset" : {
        "version" : "2.0",
        "generator" : "Khronos glTF Blender I/O v1.2.20"
    },
    "extensionsUsed" : [
        "KHR_materials_unlit"
    ],
    "scene" : 0,
    "scenes" : [
        {
            "nodes" : [
                1
            ],
            "name" : "Scene"
        }
    ],
    "nodes" : [
        {
            "mesh" : 0,
            "name" : "GrassSideCollider -colonly"
        },
        {
            "mesh" : 1,
            "children" : [
                0
            ],
            "name" : "GrassSide"
        }
    ],
    "materials" : [
        {
            "pbrMetallicRoughness" : {
                "baseColorTexture" : {
                    "texCoord" : 0,
                    "index" : 0
                }
            },
            "extensions" : {
                "KHR_materials_unlit" : {}
            },
            "name" : "grass"
        }
    ],
    "meshes" : [
        {
            "primitives" : [
                {
                    "indices" : 3,
                    "attributes" : {
                        "NORMAL" : 0,
                        "TEXCOORD_0" : 1,
                        "POSITION" : 2
                    }
                }
            ],
            "name" : "GrassSideCollider.001"
        },
        {
            "primitives" : [
                {
                    "indices" : 7,
                    "material" : 0,
                    "attributes" : {
                        "NORMAL" : 4,
                        "TEXCOORD_0" : 5,
                        "POSITION" : 6
                    }
                }
            ],
            "name" : "GrassSide.001"
        }
    ],
    "textures" : [
        {
            "sampler" : 0,
            "source" : 0
        }
    ],
    "images" : [
        {
            "uri" : "grass.png",
            "mimeType" : "image/png",
            "name" : "grass.png"
        }
    ],
    "accessors" : [
        {
            "componentType" : 5126,
            "bufferView" : 0,
            "type" : "VEC3",
            "count" : 8
        },
        {
            "componentType" : 5126,
            "bufferView" : 1,
            "type" : "VEC2",
            "count" : 8
        },
        {
            "componentType" : 5126,
            "count" : 8,
            "max" : [
                1.0000022649765015,
                0,
                1.0000003576278687
            ],
            "bufferView" : 2,
            "type" : "VEC3",
            "min" : [
                -0.9999983906745911,
                -2,
                -0.9999998211860657
            ]
        },
        {
            "componentType" : 5123,
            "bufferView" : 3,
            "type" : "SCALAR",
            "count" : 12
        },
        {
            "componentType" : 5126,
            "bufferView" : 4,
            "type" : "VEC3",
            "count" : 12
        },
        {
            "componentType" : 5126,
            "bufferView" : 5,
            "type" : "VEC2",
            "count" : 12
        },
        {
            "componentType" : 5126,
            "count" : 12,
            "max" : [
                1.0000020265579224,
                -8.940696716308594e-08,
                1.000000238418579
            ],
            "bufferView" : 6,
            "type" : "VEC3",
            "min" : [
                -0.9999986290931702,
                -2,
                -0.9999997019767761
            ]
        },
        {
            "componentType" : 5123,
            "bufferView" : 7,
            "type" : "SCALAR",
            "count" : 18
        }
    ],
    "bufferViews" : [
        {
            "byteOffset" : 0,
            "byteLength" : 96,
            "buffer" : 0
        },
        {
            "byteOffset" : 96,
            "byteLength" : 64,
            "buffer" : 0
        },
        {
            "byteOffset" : 160,
            "byteLength" : 96,
            "buffer" : 0
        },
        {
            "byteOffset" : 256,
            "byteLength" : 24,
            "buffer" : 0
        },
        {
            "byteOffset" : 280,
            "byteLength" : 144,
            "buffer" : 0
        },
        {
            "byteOffset" : 424,
            "byteLength" : 96,
            "buffer" : 0
        },
        {
            "byteOffset" : 520,
            "byteLength" : 144,
            "buffer" : 0
        },
        {
            "byteOffset" : 664,
            "byteLength" : 36,
            "buffer" : 0
        }
    ],
    "samplers" : [
        {
            "minFilter" : 9986,
            "wrapS" : 10497,
            "magFilter" : 9729,
            "wrapT" : 10497
        }
    ],
    "buffers" : [
        {
            "uri" : "grass_side.bin",
            "byteLength" : 700
        }
    ]
}
