{
    "asset" : {
        "generator" : "Khronos glTF Blender I/O v1.2.20",
        "version" : "2.0"
    },
    "extensionsUsed" : [
        "KHR_materials_unlit"
    ],
    "scene" : 0,
    "scenes" : [
        {
            "name" : "Scene",
            "nodes" : [
                1
            ]
        }
    ],
    "nodes" : [
        {
            "mesh" : 0,
            "name" : "BigFenceLever"
        },
        {
            "children" : [
                0
            ],
            "mesh" : 1,
            "name" : "BigFenceLeverBase",
            "scale" : [
                1.4416595697402954,
                1.4416595697402954,
                1.4416595697402954
            ]
        }
    ],
    "materials" : [
        {
            "pbrMetallicRoughness" : {
                "baseColorTexture" : {
                    "index" : 0,
                    "texCoord" : 0
                }
            },
            "name" : "big_fence",
            "extensions" : {
                "KHR_materials_unlit" : {}
            }
        }
    ],
    "meshes" : [
        {
            "primitives" : [
                {
                    "attributes" : {
                        "TEXCOORD_0" : 1,
                        "NORMAL" : 0,
                        "POSITION" : 2
                    },
                    "indices" : 3,
                    "material" : 0
                }
            ],
            "name" : "BigFenceLever.001"
        },
        {
            "primitives" : [
                {
                    "attributes" : {
                        "TEXCOORD_0" : 5,
                        "NORMAL" : 4,
                        "POSITION" : 6
                    },
                    "indices" : 7,
                    "material" : 0
                }
            ],
            "name" : "BigFenceLeverBase.001"
        }
    ],
    "textures" : [
        {
            "source" : 0,
            "sampler" : 0
        }
    ],
    "images" : [
        {
            "mimeType" : "image/png",
            "uri" : "big_fence.png",
            "name" : "big_fence"
        }
    ],
    "accessors" : [
        {
            "bufferView" : 0,
            "type" : "VEC3",
            "componentType" : 5126,
            "count" : 134
        },
        {
            "bufferView" : 1,
            "type" : "VEC2",
            "componentType" : 5126,
            "count" : 134
        },
        {
            "count" : 134,
            "bufferView" : 2,
            "max" : [
                0.07011134922504425,
                0.46863335371017456,
                0.0648995041847229
            ],
            "type" : "VEC3",
            "componentType" : 5126,
            "min" : [
                -0.06796559691429138,
                0.012862786650657654,
                -0.06775557994842529
            ]
        },
        {
            "bufferView" : 3,
            "type" : "SCALAR",
            "componentType" : 5123,
            "count" : 204
        },
        {
            "bufferView" : 4,
            "type" : "VEC3",
            "componentType" : 5126,
            "count" : 96
        },
        {
            "bufferView" : 5,
            "type" : "VEC2",
            "componentType" : 5126,
            "count" : 96
        },
        {
            "count" : 96,
            "bufferView" : 6,
            "max" : [
                0.29776787757873535,
                0.12970665097236633,
                0.08380800485610962
            ],
            "type" : "VEC3",
            "componentType" : 5126,
            "min" : [
                -0.2992326617240906,
                -0.020256593823432922,
                -0.08206099271774292
            ]
        },
        {
            "bufferView" : 7,
            "type" : "SCALAR",
            "componentType" : 5123,
            "count" : 144
        }
    ],
    "bufferViews" : [
        {
            "byteLength" : 1608,
            "buffer" : 0,
            "byteOffset" : 0
        },
        {
            "byteLength" : 1072,
            "buffer" : 0,
            "byteOffset" : 1608
        },
        {
            "byteLength" : 1608,
            "buffer" : 0,
            "byteOffset" : 2680
        },
        {
            "byteLength" : 408,
            "buffer" : 0,
            "byteOffset" : 4288
        },
        {
            "byteLength" : 1152,
            "buffer" : 0,
            "byteOffset" : 4696
        },
        {
            "byteLength" : 768,
            "buffer" : 0,
            "byteOffset" : 5848
        },
        {
            "byteLength" : 1152,
            "buffer" : 0,
            "byteOffset" : 6616
        },
        {
            "byteLength" : 288,
            "buffer" : 0,
            "byteOffset" : 7768
        }
    ],
    "samplers" : [
        {
            "minFilter" : 9986,
            "wrapT" : 10497,
            "wrapS" : 10497,
            "magFilter" : 9729
        }
    ],
    "buffers" : [
        {
            "uri" : "big_fence_lever.bin",
            "byteLength" : 8056
        }
    ]
}
