{
    "asset" : {
        "generator" : "Khronos glTF Blender I/O v1.2.20",
        "version" : "2.0"
    },
    "extensionsUsed" : [
        "KHR_materials_unlit"
    ],
    "scene" : 0,
    "scenes" : [
        {
            "nodes" : [
                0
            ],
            "name" : "Scene"
        }
    ],
    "nodes" : [
        {
            "name" : "SkyboxMesh",
            "mesh" : 0
        }
    ],
    "materials" : [
        {
            "pbrMetallicRoughness" : {
                "baseColorTexture" : {
                    "texCoord" : 0,
                    "index" : 0
                }
            },
            "extensions" : {
                "KHR_materials_unlit" : {}
            },
            "name" : "skybox"
        }
    ],
    "meshes" : [
        {
            "name" : "SkyboxMesh.001",
            "primitives" : [
                {
                    "indices" : 3,
                    "attributes" : {
                        "NORMAL" : 0,
                        "TEXCOORD_0" : 1,
                        "POSITION" : 2
                    },
                    "material" : 0
                }
            ]
        }
    ],
    "textures" : [
        {
            "sampler" : 0,
            "source" : 0
        }
    ],
    "images" : [
        {
            "uri" : "skybox.jpg",
            "name" : "skybox.jpg",
            "mimeType" : "image/jpeg"
        }
    ],
    "accessors" : [
        {
            "count" : 101,
            "type" : "VEC3",
            "bufferView" : 0,
            "componentType" : 5126
        },
        {
            "count" : 101,
            "type" : "VEC2",
            "bufferView" : 1,
            "componentType" : 5126
        },
        {
            "count" : 101,
            "type" : "VEC3",
            "max" : [
                1,
                0.9440738558769226,
                1
            ],
            "componentType" : 5126,
            "min" : [
                -1,
                0,
                -1
            ],
            "bufferView" : 2
        },
        {
            "count" : 432,
            "type" : "SCALAR",
            "bufferView" : 3,
            "componentType" : 5123
        }
    ],
    "bufferViews" : [
        {
            "byteOffset" : 0,
            "buffer" : 0,
            "byteLength" : 1212
        },
        {
            "byteOffset" : 1212,
            "buffer" : 0,
            "byteLength" : 808
        },
        {
            "byteOffset" : 2020,
            "buffer" : 0,
            "byteLength" : 1212
        },
        {
            "byteOffset" : 3232,
            "buffer" : 0,
            "byteLength" : 864
        }
    ],
    "samplers" : [
        {
            "wrapT" : 10497,
            "magFilter" : 9729,
            "wrapS" : 10497,
            "minFilter" : 9986
        }
    ],
    "buffers" : [
        {
            "uri" : "skybox.bin",
            "byteLength" : 4096
        }
    ]
}
