{
    "asset" : {
        "version" : "2.0",
        "generator" : "Khronos glTF Blender I/O v1.2.20"
    },
    "scene" : 0,
    "scenes" : [
        {
            "nodes" : [
                1
            ],
            "name" : "Scene"
        }
    ],
    "nodes" : [
        {
            "mesh" : 0,
            "name" : "Bridge2Collider -colonly"
        },
        {
            "children" : [
                0
            ],
            "mesh" : 1,
            "name" : "Bridge2"
        }
    ],
    "materials" : [
        {
            "name" : "bridge",
            "pbrMetallicRoughness" : {
                "baseColorTexture" : {
                    "index" : 0,
                    "texCoord" : 0
                }
            }
        }
    ],
    "meshes" : [
        {
            "name" : "Bridge2Collider.001",
            "primitives" : [
                {
                    "indices" : 2,
                    "attributes" : {
                        "POSITION" : 0,
                        "NORMAL" : 1
                    }
                }
            ]
        },
        {
            "name" : "Bridge2.001",
            "primitives" : [
                {
                    "indices" : 6,
                    "attributes" : {
                        "POSITION" : 3,
                        "TEXCOORD_0" : 4,
                        "NORMAL" : 5
                    },
                    "material" : 0
                }
            ]
        }
    ],
    "textures" : [
        {
            "sampler" : 0,
            "source" : 0
        }
    ],
    "images" : [
        {
            "uri" : "bridge.png",
            "name" : "bridge.png",
            "mimeType" : "image/png"
        }
    ],
    "accessors" : [
        {
            "bufferView" : 0,
            "count" : 24,
            "max" : [
                0.5010091662406921,
                0,
                1.0020183324813843
            ],
            "min" : [
                -0.5010091662406921,
                -0.05532758682966232,
                -1.0020183324813843
            ],
            "componentType" : 5126,
            "type" : "VEC3"
        },
        {
            "bufferView" : 1,
            "count" : 24,
            "componentType" : 5126,
            "type" : "VEC3"
        },
        {
            "bufferView" : 2,
            "count" : 36,
            "componentType" : 5123,
            "type" : "SCALAR"
        },
        {
            "bufferView" : 3,
            "count" : 288,
            "max" : [
                0.5022359490394592,
                0.005451202392578125,
                0.9999999403953552
            ],
            "min" : [
                -0.5190026760101318,
                -0.10427594184875488,
                -1.0000001192092896
            ],
            "componentType" : 5126,
            "type" : "VEC3"
        },
        {
            "bufferView" : 4,
            "count" : 288,
            "componentType" : 5126,
            "type" : "VEC2"
        },
        {
            "bufferView" : 5,
            "count" : 288,
            "componentType" : 5126,
            "type" : "VEC3"
        },
        {
            "bufferView" : 6,
            "count" : 432,
            "componentType" : 5123,
            "type" : "SCALAR"
        }
    ],
    "bufferViews" : [
        {
            "byteLength" : 288,
            "byteOffset" : 0,
            "buffer" : 0
        },
        {
            "byteLength" : 288,
            "byteOffset" : 288,
            "buffer" : 0
        },
        {
            "byteLength" : 72,
            "byteOffset" : 576,
            "buffer" : 0
        },
        {
            "byteLength" : 3456,
            "byteOffset" : 648,
            "buffer" : 0
        },
        {
            "byteLength" : 2304,
            "byteOffset" : 4104,
            "buffer" : 0
        },
        {
            "byteLength" : 3456,
            "byteOffset" : 6408,
            "buffer" : 0
        },
        {
            "byteLength" : 864,
            "byteOffset" : 9864,
            "buffer" : 0
        }
    ],
    "samplers" : [
        {
            "magFilter" : 9729,
            "wrapS" : 10497,
            "wrapT" : 10497,
            "minFilter" : 9986
        }
    ],
    "buffers" : [
        {
            "uri" : "bridge_2.bin",
            "byteLength" : 10728
        }
    ]
}
